<svg xmlns="http://www.w3.org/2000/svg" xmlns:xlink="http://www.w3.org/1999/xlink" width="200" zoomAndPan="magnify" viewBox="0 0 150 149.999998" height="200" preserveAspectRatio="xMidYMid meet" version="1.0"><defs><clipPath id="a98ae96cd4"><path d="M 12.945312 12.632812 L 98.445312 12.632812 L 98.445312 137.132812 L 12.945312 137.132812 Z M 12.945312 12.632812 " clip-rule="nonzero"/></clipPath><clipPath id="2f92af3130"><path d="M 89 50.394531 L 111 50.394531 L 111 99.894531 L 89 99.894531 Z M 89 50.394531 " clip-rule="nonzero"/></clipPath></defs><rect x="-15" width="180" fill="#ffffff" y="-15" height="179.999997" fill-opacity="1"/><rect x="-15" width="180" fill="#ffffff" y="-15" height="179.999997" fill-opacity="1"/><rect x="-15" width="180" fill="#ffffff" y="-15" height="179.999997" fill-opacity="1"/><g clip-path="url(#a98ae96cd4)"><path fill="#0d68b1" d="M 67.527344 12.644531 L 83.621094 12.644531 C 85.460938 12.644531 86.953125 14.121094 86.960938 15.945312 C 86.960938 15.957031 86.960938 15.964844 86.960938 15.976562 L 87.722656 26.800781 C 87.738281 27.035156 87.902344 27.230469 88.132812 27.289062 C 91.601562 28.191406 94.921875 29.453125 98.050781 31.042969 C 98.050781 31.042969 98.054688 31.042969 98.054688 31.046875 C 98.355469 31.199219 98.441406 31.585938 98.238281 31.851562 L 90.613281 41.800781 C 90.460938 42 90.191406 42.070312 89.960938 41.96875 C 88.660156 41.40625 87.320312 40.917969 85.945312 40.507812 C 84.183594 39.984375 82.367188 39.589844 80.507812 39.339844 C 79.390625 39.1875 78.257812 39.085938 77.113281 39.039062 C 76.601562 39.015625 76.089844 39.007812 75.574219 39.007812 C 74.585938 39.007812 73.601562 39.046875 72.632812 39.125 C 62.0625 39.96875 52.777344 45.34375 46.742188 53.289062 C 42.179688 59.296875 39.472656 66.777344 39.472656 74.882812 C 39.472656 94.699219 55.636719 110.761719 75.574219 110.761719 C 80.6875 110.761719 85.554688 109.707031 89.960938 107.800781 C 90.195312 107.699219 90.460938 107.769531 90.613281 107.96875 L 91.328125 108.902344 L 98.234375 117.914062 C 98.4375 118.179688 98.351562 118.570312 98.050781 118.726562 C 98.011719 118.742188 97.976562 118.761719 97.941406 118.78125 C 97.890625 118.808594 97.84375 118.832031 97.792969 118.855469 C 96.222656 119.640625 94.605469 120.34375 92.945312 120.960938 C 91.378906 121.546875 89.773438 122.054688 88.132812 122.480469 C 87.902344 122.539062 87.738281 122.734375 87.722656 122.96875 L 86.960938 133.792969 C 86.960938 133.800781 86.960938 133.8125 86.960938 133.824219 C 86.953125 135.648438 85.460938 137.125 83.621094 137.125 L 67.527344 137.125 C 65.6875 137.125 64.195312 135.648438 64.1875 133.824219 C 64.1875 133.8125 64.1875 133.800781 64.1875 133.792969 L 63.425781 122.96875 C 63.410156 122.734375 63.246094 122.539062 63.015625 122.480469 C 58.605469 121.332031 54.433594 119.597656 50.59375 117.359375 C 50.386719 117.242188 50.132812 117.265625 49.953125 117.417969 L 41.710938 124.542969 C 41.703125 124.546875 41.699219 124.554688 41.691406 124.5625 C 40.386719 125.847656 38.28125 125.84375 36.980469 124.550781 L 30.042969 117.65625 L 25.601562 113.238281 C 24.300781 111.949219 24.296875 109.855469 25.589844 108.558594 C 25.597656 108.550781 25.601562 108.546875 25.609375 108.539062 L 32.773438 100.34375 C 32.929688 100.167969 32.953125 99.914062 32.832031 99.710938 C 30.582031 95.894531 28.835938 91.75 27.683594 87.363281 C 27.625 87.136719 27.425781 86.972656 27.191406 86.957031 L 16.300781 86.203125 C 16.289062 86.199219 16.28125 86.199219 16.269531 86.199219 C 14.433594 86.191406 12.945312 84.710938 12.945312 82.882812 L 12.945312 66.886719 C 12.945312 65.058594 14.433594 63.578125 16.269531 63.570312 C 16.28125 63.570312 16.289062 63.570312 16.300781 63.566406 L 27.191406 62.8125 C 27.425781 62.796875 27.625 62.628906 27.683594 62.402344 C 28.835938 58.019531 30.582031 53.875 32.832031 50.054688 C 32.953125 49.855469 32.929688 49.601562 32.773438 49.421875 L 31.566406 48.039062 L 25.609375 41.230469 C 25.601562 41.222656 25.597656 41.214844 25.589844 41.210938 C 24.296875 39.914062 24.300781 37.820312 25.601562 36.53125 L 30.042969 32.109375 L 36.980469 25.21875 C 38.28125 23.925781 40.386719 23.921875 41.691406 25.207031 C 41.699219 25.214844 41.703125 25.21875 41.710938 25.226562 L 49.953125 32.347656 C 50.132812 32.503906 50.386719 32.523438 50.59375 32.40625 C 53.910156 30.476562 57.476562 28.914062 61.230469 27.789062 C 61.820312 27.613281 62.417969 27.445312 63.015625 27.289062 C 63.246094 27.230469 63.410156 27.03125 63.425781 26.800781 L 63.539062 25.195312 L 63.632812 23.855469 L 63.914062 19.84375 L 64.1875 15.976562 C 64.1875 15.964844 64.1875 15.957031 64.1875 15.945312 C 64.195312 14.121094 65.6875 12.644531 67.527344 12.644531 " fill-opacity="1" fill-rule="nonzero"/></g><path fill="#00b696" d="M 82.574219 92.925781 C 81.53125 92.925781 80.835938 92.574219 80.140625 91.878906 L 66.238281 77.933594 C 64.847656 76.539062 64.847656 74.449219 66.238281 73.054688 L 80.140625 59.109375 C 81.53125 57.714844 83.617188 57.714844 85.007812 59.109375 C 86.398438 60.503906 86.398438 62.597656 85.007812 63.992188 L 73.535156 75.496094 L 85.007812 86.996094 C 86.398438 88.390625 86.398438 90.484375 85.007812 91.878906 C 84.3125 92.574219 83.617188 92.925781 82.574219 92.925781 Z M 82.574219 92.925781 " fill-opacity="1" fill-rule="nonzero"/><path fill="#00b696" d="M 117.332031 92.925781 C 116.289062 92.925781 115.59375 92.574219 114.898438 91.878906 C 113.507812 90.484375 113.507812 88.390625 114.898438 86.996094 L 126.367188 75.496094 L 114.898438 63.992188 C 113.507812 62.597656 113.507812 60.503906 114.898438 59.109375 C 116.289062 57.714844 118.375 57.714844 119.761719 59.109375 L 133.667969 73.054688 C 135.054688 74.449219 135.054688 76.539062 133.667969 77.933594 L 119.761719 91.878906 C 119.070312 92.574219 118.375 92.925781 117.332031 92.925781 Z M 117.332031 92.925781 " fill-opacity="1" fill-rule="nonzero"/><g clip-path="url(#2f92af3130)"><path fill="#00b696" d="M 93 99.894531 C 92.652344 99.894531 92.304688 99.894531 91.957031 99.546875 C 90.21875 98.851562 89.175781 97.105469 89.871094 95.015625 L 103.773438 53.183594 C 104.46875 51.441406 106.207031 50.394531 108.292969 51.09375 C 110.03125 51.789062 111.074219 53.53125 110.378906 55.625 L 96.476562 97.457031 C 95.78125 98.851562 94.390625 99.894531 93 99.894531 Z M 93 99.894531 " fill-opacity="1" fill-rule="nonzero"/></g></svg>