<svg xmlns="http://www.w3.org/2000/svg" xmlns:xlink="http://www.w3.org/1999/xlink" width="1000" zoomAndPan="magnify" viewBox="0 0 750 749.999995" height="1000" preserveAspectRatio="xMidYMid meet" version="1.0"><defs><clipPath id="b6015f8975"><path d="M 124 43 L 156 43 L 156 83 L 124 83 Z M 124 43 " clip-rule="nonzero"/></clipPath><clipPath id="22e4e47155"><path d="M 61.144531 33.996094 L 161.070312 44.710938 L 139.242188 248.292969 L 39.316406 237.578125 Z M 61.144531 33.996094 " clip-rule="nonzero"/></clipPath><clipPath id="c6df1e9f5d"><path d="M 61.144531 33.996094 L 161.070312 44.710938 L 139.242188 248.292969 L 39.316406 237.578125 Z M 61.144531 33.996094 " clip-rule="nonzero"/></clipPath><clipPath id="4bc043e32a"><path d="M 71 106 L 114 106 L 114 129 L 71 129 Z M 71 106 " clip-rule="nonzero"/></clipPath><clipPath id="54c873a49a"><path d="M 61.144531 33.996094 L 161.070312 44.710938 L 139.242188 248.292969 L 39.316406 237.578125 Z M 61.144531 33.996094 " clip-rule="nonzero"/></clipPath><clipPath id="13e25b0138"><path d="M 61.144531 33.996094 L 161.070312 44.710938 L 139.242188 248.292969 L 39.316406 237.578125 Z M 61.144531 33.996094 " clip-rule="nonzero"/></clipPath><clipPath id="4e43606e0d"><path d="M 45 184 L 88 184 L 88 205 L 45 205 Z M 45 184 " clip-rule="nonzero"/></clipPath><clipPath id="ee20038d1f"><path d="M 61.144531 33.996094 L 161.070312 44.710938 L 139.242188 248.292969 L 39.316406 237.578125 Z M 61.144531 33.996094 " clip-rule="nonzero"/></clipPath><clipPath id="a5bbf89b55"><path d="M 61.144531 33.996094 L 161.070312 44.710938 L 139.242188 248.292969 L 39.316406 237.578125 Z M 61.144531 33.996094 " clip-rule="nonzero"/></clipPath><clipPath id="b549b73dcf"><path d="M 64 221 L 83 221 L 83 235 L 64 235 Z M 64 221 " clip-rule="nonzero"/></clipPath><clipPath id="371f28f39b"><path d="M 61.144531 33.996094 L 161.070312 44.710938 L 139.242188 248.292969 L 39.316406 237.578125 Z M 61.144531 33.996094 " clip-rule="nonzero"/></clipPath><clipPath id="7c8ee7cf0d"><path d="M 61.144531 33.996094 L 161.070312 44.710938 L 139.242188 248.292969 L 39.316406 237.578125 Z M 61.144531 33.996094 " clip-rule="nonzero"/></clipPath><clipPath id="f5c8165dc0"><path d="M 81 131 L 112 131 L 112 146 L 81 146 Z M 81 131 " clip-rule="nonzero"/></clipPath><clipPath id="c09a39dca8"><path d="M 61.144531 33.996094 L 161.070312 44.710938 L 139.242188 248.292969 L 39.316406 237.578125 Z M 61.144531 33.996094 " clip-rule="nonzero"/></clipPath><clipPath id="f1214e847d"><path d="M 61.144531 33.996094 L 161.070312 44.710938 L 139.242188 248.292969 L 39.316406 237.578125 Z M 61.144531 33.996094 " clip-rule="nonzero"/></clipPath><clipPath id="905f32f338"><path d="M 618 586 L 701 586 L 701 698 L 618 698 Z M 618 586 " clip-rule="nonzero"/></clipPath><clipPath id="2f40506fe8"><path d="M 598.144531 604.148438 L 699.460938 583.003906 L 719.839844 680.648438 L 618.523438 701.792969 Z M 598.144531 604.148438 " clip-rule="nonzero"/></clipPath><clipPath id="b76715fdfa"><path d="M 598.144531 604.148438 L 699.460938 583.003906 L 719.839844 680.648438 L 618.523438 701.792969 Z M 598.144531 604.148438 " clip-rule="nonzero"/></clipPath><clipPath id="6b5e549f44"><path d="M 174.160156 508 L 238 508 L 238 573 L 174.160156 573 Z M 174.160156 508 " clip-rule="nonzero"/></clipPath><clipPath id="d8484354fa"><path d="M 542 535 L 606 535 L 606 599.207031 L 542 599.207031 Z M 542 535 " clip-rule="nonzero"/></clipPath><clipPath id="2b5381247d"><path d="M 568 167 L 632.410156 167 L 632.410156 232 L 568 232 Z M 568 167 " clip-rule="nonzero"/></clipPath><clipPath id="f7a6082520"><path d="M 220.574219 160.839844 L 243.824219 160.839844 L 243.824219 184 L 220.574219 184 Z M 220.574219 160.839844 " clip-rule="nonzero"/></clipPath><clipPath id="34ab245b17"><path d="M 588.929688 186.761719 L 612 186.761719 L 612 210 L 588.929688 210 Z M 588.929688 186.761719 " clip-rule="nonzero"/></clipPath><clipPath id="747b18dadd"><path d="M 194.289062 528.722656 L 217.539062 528.722656 L 217.539062 551.972656 L 194.289062 551.972656 Z M 194.289062 528.722656 " clip-rule="nonzero"/></clipPath><clipPath id="f31077b947"><path d="M 561.910156 556.394531 L 585 556.394531 L 585 579.644531 L 561.910156 579.644531 Z M 561.910156 556.394531 " clip-rule="nonzero"/></clipPath><clipPath id="05224b21fd"><path d="M 194.289062 262.367188 L 212.289062 262.367188 L 212.289062 280.367188 L 194.289062 280.367188 Z M 194.289062 262.367188 " clip-rule="nonzero"/></clipPath><clipPath id="3137573f59"><path d="M 492.800781 160.839844 L 510.800781 160.839844 L 510.800781 178.839844 L 492.800781 178.839844 Z M 492.800781 160.839844 " clip-rule="nonzero"/></clipPath><clipPath id="e279c6cfb3"><path d="M 297 560.96875 L 315 560.96875 L 315 578.96875 L 297 578.96875 Z M 297 560.96875 " clip-rule="nonzero"/></clipPath><clipPath id="2ce1e4a497"><path d="M 594.257812 458.75 L 612.257812 458.75 L 612.257812 476.75 L 594.257812 476.75 Z M 594.257812 458.75 " clip-rule="nonzero"/></clipPath><clipPath id="45161fa11f"><path d="M 315.347656 280.734375 L 492.792969 280.734375 L 492.792969 458.179688 L 315.347656 458.179688 Z M 315.347656 280.734375 " clip-rule="nonzero"/></clipPath><clipPath id="142de29656"><path d="M 404.070312 280.734375 C 355.070312 280.734375 315.347656 320.453125 315.347656 369.457031 C 315.347656 418.457031 355.070312 458.179688 404.070312 458.179688 C 453.070312 458.179688 492.792969 418.457031 492.792969 369.457031 C 492.792969 320.453125 453.070312 280.734375 404.070312 280.734375 Z M 404.070312 280.734375 " clip-rule="nonzero"/></clipPath></defs><rect x="-75" width="900" fill="#ffffff" y="-74.999999" height="899.999994" fill-opacity="1"/><rect x="-75" width="900" fill="#ffffff" y="-74.999999" height="899.999994" fill-opacity="1"/><g clip-path="url(#b6015f8975)"><g clip-path="url(#22e4e47155)"><g clip-path="url(#c6df1e9f5d)"><path fill="#00b696" d="M 154.601562 73.90625 C 154.601562 73.90625 157.113281 78.042969 153.070312 80.984375 C 149.027344 83.925781 146.058594 80.796875 144.769531 79.039062 C 140.761719 73.757812 125.589844 53.914062 125.589844 53.914062 C 125.589844 53.914062 122.804688 49.042969 128.035156 45.527344 C 133.574219 41.757812 136.894531 45.5625 138.421875 47.695312 C 142.886719 53.941406 154.601562 73.90625 154.601562 73.90625 Z M 154.601562 73.90625 " fill-opacity="1" fill-rule="nonzero"/></g></g></g><g clip-path="url(#4bc043e32a)"><g clip-path="url(#54c873a49a)"><g clip-path="url(#13e25b0138)"><path fill="#00b696" d="M 110.421875 118.613281 C 110.421875 118.613281 115.039062 120.160156 113.699219 124.800781 C 112.488281 129.523438 108.175781 129.0625 106.121094 128.558594 C 99.730469 127.171875 76.230469 119.375 76.230469 119.375 C 76.230469 119.375 69.527344 117.601562 72.765625 110.355469 C 75.285156 104.574219 80.863281 107.003906 80.863281 107.003906 Z M 110.421875 118.613281 " fill-opacity="1" fill-rule="nonzero"/></g></g></g><g clip-path="url(#4e43606e0d)"><g clip-path="url(#ee20038d1f)"><g clip-path="url(#a5bbf89b55)"><path fill="#00b696" d="M 81.230469 184.898438 C 81.230469 184.898438 85.9375 183.644531 87.40625 188.304688 C 88.875 192.964844 85.09375 194.808594 83.109375 195.582031 C 76.964844 197.804688 53.015625 204.027344 53.015625 204.027344 C 53.015625 204.027344 46.453125 206.207031 45.1875 198.335938 C 44.242188 192.046875 50.179688 191.136719 50.179688 191.136719 Z M 81.230469 184.898438 " fill-opacity="1" fill-rule="nonzero"/></g></g></g><g clip-path="url(#b549b73dcf)"><g clip-path="url(#371f28f39b)"><g clip-path="url(#7c8ee7cf0d)"><path fill="#00b696" d="M 78.847656 231.414062 C 78.847656 231.414062 83.046875 229.613281 81.773438 225.117188 C 80.207031 219.394531 73.953125 221.957031 73.953125 221.957031 C 73.953125 221.957031 63.808594 223.402344 64.632812 230.171875 C 65.890625 240.082031 78.847656 231.414062 78.847656 231.414062 Z M 78.847656 231.414062 " fill-opacity="1" fill-rule="nonzero"/></g></g></g><g clip-path="url(#f5c8165dc0)"><g clip-path="url(#c09a39dca8)"><g clip-path="url(#f1214e847d)"><path fill="#00b696" d="M 85.847656 143.828125 C 83.898438 143.617188 81.027344 143.523438 81.71875 137.054688 C 82.292969 131.703125 86.933594 131.707031 89.160156 131.945312 C 94.082031 132.613281 102.148438 133.480469 108.671875 135.585938 C 113.636719 137.171875 112.140625 145.875 106.550781 145.554688 C 102.285156 145.308594 91.894531 144.476562 85.847656 143.828125 Z M 85.847656 143.828125 " fill-opacity="1" fill-rule="nonzero"/></g></g></g><g clip-path="url(#905f32f338)"><g clip-path="url(#2f40506fe8)"><g clip-path="url(#b76715fdfa)"><path fill="#0d68b1" d="M 694.332031 587.96875 C 692.519531 584.589844 687.191406 587.300781 689.023438 590.699219 C 696.421875 604.464844 698.03125 623.859375 684.445312 633.816406 C 684.226562 631.949219 683.839844 630.101562 683.292969 628.300781 C 681.066406 621.261719 675.347656 614.953125 667.644531 614.351562 C 660.824219 613.824219 654.070312 617.820312 652.613281 624.75 C 650.976562 632.410156 655.992188 639.476562 662.851562 642.472656 C 667.824219 644.546875 673.355469 644.851562 678.523438 643.335938 C 676.523438 655.675781 667.722656 668.039062 659.457031 675.375 C 649.890625 683.949219 634.765625 691.511719 621.664062 691.046875 C 617.828125 690.910156 617.425781 696.8125 621.285156 697.007812 C 636.285156 697.683594 653.289062 689.253906 664.152344 679.214844 C 674.203125 669.917969 683.628906 655.351562 684.664062 640.773438 L 685.003906 640.59375 C 703.9375 629.480469 703.722656 605.417969 694.332031 587.96875 Z M 658.496094 629.789062 C 657.101562 624.054688 661.695312 619.816406 667.222656 620.332031 C 671.910156 620.769531 675.347656 624.542969 677.0625 628.671875 C 678.125 631.273438 678.734375 634.03125 678.863281 636.835938 C 671.4375 639.546875 660.652344 638.660156 658.496094 629.789062 Z M 658.496094 629.789062 " fill-opacity="1" fill-rule="nonzero"/></g></g></g><path fill="#0d68b1" d="M 408.214844 513.71875 C 408.214844 513.71875 408.214844 513.71875 408.210938 513.71875 L 398.132812 513.71875 C 388.871094 513.71875 381.394531 506.390625 380.746094 496.664062 L 379.175781 473.308594 C 367.808594 470.683594 357.066406 466.230469 347.140625 460.027344 L 329.507812 475.445312 C 322.167969 481.859375 311.699219 481.753906 305.152344 475.207031 L 298.023438 468.078125 C 291.472656 461.53125 291.371094 451.058594 297.785156 443.722656 L 313.199219 426.09375 C 306.996094 416.167969 302.539062 405.421875 299.914062 394.050781 L 276.5625 392.484375 C 266.839844 391.832031 259.507812 384.355469 259.507812 375.09375 L 259.507812 365.015625 C 259.507812 355.75 266.839844 348.277344 276.5625 347.625 L 299.917969 346.058594 C 302.546875 334.6875 307 323.941406 313.199219 314.019531 L 297.785156 296.386719 C 291.371094 289.050781 291.472656 278.578125 298.023438 272.03125 L 305.148438 264.902344 C 311.699219 258.355469 322.167969 258.25 329.503906 264.664062 L 347.140625 280.082031 C 357.0625 273.878906 367.808594 269.425781 379.175781 266.800781 L 380.742188 243.441406 C 381.394531 233.71875 388.871094 226.386719 398.132812 226.386719 L 408.214844 226.386719 C 417.476562 226.386719 424.953125 233.71875 425.601562 243.441406 L 427.171875 266.796875 C 438.542969 269.425781 449.289062 273.878906 459.207031 280.078125 L 476.84375 264.664062 C 484.179688 258.25 494.648438 258.355469 501.199219 264.902344 L 508.328125 272.03125 C 514.875 278.578125 514.976562 289.050781 508.5625 296.386719 L 493.152344 314.015625 C 499.351562 323.941406 503.808594 334.6875 506.433594 346.058594 L 529.785156 347.625 C 539.507812 348.277344 546.839844 355.753906 546.839844 365.015625 L 546.839844 375.09375 C 546.839844 384.359375 539.507812 391.832031 529.785156 392.484375 L 506.429688 394.050781 C 503.800781 405.421875 499.347656 416.167969 493.148438 426.089844 L 508.5625 443.722656 C 514.976562 451.058594 514.875 461.53125 508.328125 468.078125 L 501.199219 475.207031 C 494.648438 481.753906 484.179688 481.855469 476.84375 475.445312 L 459.210938 460.03125 C 449.289062 466.230469 438.542969 470.6875 427.171875 473.316406 L 425.601562 496.667969 C 424.953125 506.390625 417.476562 513.71875 408.214844 513.71875 Z M 346.679688 448.363281 C 347.691406 448.363281 348.707031 448.65625 349.589844 449.253906 C 360.375 456.570312 372.308594 461.515625 385.058594 463.960938 C 387.371094 464.40625 389.097656 466.351562 389.253906 468.703125 L 391.085938 495.972656 C 391.367188 500.183594 394.398438 503.359375 398.132812 503.355469 L 408.214844 503.355469 C 411.949219 503.355469 414.980469 500.183594 415.261719 495.976562 L 417.09375 468.710938 C 417.25 466.359375 418.972656 464.410156 421.289062 463.96875 C 434.042969 461.523438 445.976562 456.574219 456.761719 449.261719 C 458.714844 447.9375 461.308594 448.097656 463.082031 449.648438 L 483.664062 467.640625 C 486.839844 470.421875 491.226562 470.523438 493.871094 467.878906 L 500.996094 460.75 C 503.640625 458.109375 503.539062 453.722656 500.761719 450.546875 L 482.765625 429.960938 C 481.214844 428.1875 481.054688 425.589844 482.375 423.640625 C 489.6875 412.855469 494.636719 400.921875 497.082031 388.167969 C 497.527344 385.855469 499.472656 384.128906 501.824219 383.972656 L 529.09375 382.144531 C 533.304688 381.859375 536.476562 378.832031 536.476562 375.09375 L 536.476562 365.011719 C 536.476562 361.277344 533.304688 358.246094 529.097656 357.964844 L 501.832031 356.132812 C 499.480469 355.976562 497.53125 354.253906 497.089844 351.941406 C 494.644531 339.1875 489.695312 327.25 482.382812 316.464844 C 481.058594 314.515625 481.21875 311.917969 482.769531 310.144531 L 500.761719 289.5625 C 503.539062 286.386719 503.640625 282 501 279.359375 L 493.871094 272.230469 C 491.226562 269.585938 486.84375 269.6875 483.664062 272.464844 L 463.078125 290.460938 C 461.304688 292.011719 458.707031 292.167969 456.761719 290.851562 C 445.976562 283.539062 434.042969 278.589844 421.289062 276.144531 C 418.976562 275.703125 417.25 273.753906 417.09375 271.402344 L 415.261719 244.132812 C 414.980469 239.921875 411.949219 236.746094 408.214844 236.746094 L 398.132812 236.746094 C 394.398438 236.746094 391.367188 239.921875 391.085938 244.132812 L 389.253906 271.402344 C 389.097656 273.753906 387.375 275.703125 385.058594 276.144531 C 372.3125 278.589844 360.378906 283.539062 349.589844 290.851562 C 347.640625 292.171875 345.042969 292.011719 343.269531 290.460938 L 322.683594 272.464844 C 319.507812 269.6875 315.121094 269.585938 312.480469 272.230469 L 305.351562 279.355469 C 302.710938 282 302.8125 286.386719 305.589844 289.5625 L 323.585938 310.148438 C 325.136719 311.921875 325.296875 314.515625 323.972656 316.46875 C 316.660156 327.253906 311.714844 339.1875 309.269531 351.9375 C 308.824219 354.25 306.875 355.972656 304.527344 356.132812 L 277.257812 357.960938 C 273.046875 358.246094 269.871094 361.273438 269.871094 365.011719 L 269.871094 375.09375 C 269.871094 378.828125 273.046875 381.859375 277.253906 382.140625 L 304.519531 383.972656 C 306.871094 384.128906 308.816406 385.851562 309.261719 388.167969 C 311.707031 400.917969 316.65625 412.855469 323.96875 423.640625 C 325.292969 425.589844 325.132812 428.1875 323.582031 429.960938 L 305.589844 450.542969 C 302.8125 453.71875 302.707031 458.105469 305.351562 460.746094 L 312.480469 467.878906 C 315.121094 470.519531 319.507812 470.417969 322.683594 467.640625 L 343.269531 449.644531 C 344.242188 448.796875 345.457031 448.363281 346.679688 448.363281 Z M 346.679688 448.363281 " fill-opacity="1" fill-rule="nonzero"/><path fill="#0d68b1" d="M 403.171875 449.378906 C 359.433594 449.378906 323.847656 413.792969 323.847656 370.054688 C 323.847656 326.3125 359.433594 290.726562 403.171875 290.726562 C 446.914062 290.726562 482.5 326.3125 482.5 370.054688 C 482.5 413.792969 446.914062 449.378906 403.171875 449.378906 Z M 403.171875 301.09375 C 365.148438 301.09375 334.210938 332.03125 334.210938 370.054688 C 334.210938 408.078125 365.148438 439.015625 403.171875 439.015625 C 441.199219 439.015625 472.132812 408.078125 472.132812 370.054688 C 472.132812 332.03125 441.199219 301.09375 403.171875 301.09375 Z M 403.171875 301.09375 " fill-opacity="1" fill-rule="nonzero"/><path fill="#0d68b1" d="M 403.171875 236.753906 C 400.3125 236.753906 397.992188 234.429688 397.992188 231.570312 L 397.992188 202.140625 C 397.992188 188.773438 387.113281 177.898438 373.746094 177.898438 L 259.058594 177.898438 C 256.195312 177.898438 253.875 175.578125 253.875 172.714844 C 253.875 169.855469 256.195312 167.53125 259.058594 167.53125 L 373.746094 167.53125 C 392.828125 167.53125 408.355469 183.058594 408.355469 202.140625 L 408.355469 231.570312 C 408.355469 234.429688 406.035156 236.753906 403.171875 236.753906 Z M 403.171875 236.753906 " fill-opacity="1" fill-rule="nonzero"/><path fill="#0d68b1" d="M 205.835938 519.355469 C 202.972656 519.355469 200.652344 517.035156 200.652344 514.171875 L 200.652344 399.480469 C 200.652344 380.398438 216.179688 364.871094 235.261719 364.871094 L 264.691406 364.871094 C 267.550781 364.871094 269.871094 367.191406 269.871094 370.054688 C 269.871094 372.917969 267.550781 375.238281 264.691406 375.238281 L 235.261719 375.238281 C 221.890625 375.238281 211.015625 386.113281 211.015625 399.480469 L 211.015625 514.171875 C 211.015625 517.035156 208.695312 519.355469 205.835938 519.355469 Z M 205.835938 519.355469 " fill-opacity="1" fill-rule="nonzero"/><path fill="#0d68b1" d="M 547.289062 572.578125 L 432.601562 572.578125 C 413.515625 572.578125 397.992188 557.050781 397.992188 537.96875 L 397.992188 508.539062 C 397.992188 505.675781 400.3125 503.355469 403.171875 503.355469 C 406.035156 503.355469 408.355469 505.675781 408.355469 508.539062 L 408.355469 537.96875 C 408.355469 551.335938 419.230469 562.210938 432.601562 562.210938 L 547.289062 562.210938 C 550.152344 562.210938 552.472656 564.53125 552.472656 567.394531 C 552.472656 570.257812 550.152344 572.578125 547.289062 572.578125 Z M 547.289062 572.578125 " fill-opacity="1" fill-rule="nonzero"/><path fill="#0d68b1" d="M 571.085938 375.234375 L 541.660156 375.234375 C 538.796875 375.234375 536.476562 372.917969 536.476562 370.054688 C 536.476562 367.191406 538.796875 364.871094 541.660156 364.871094 L 571.085938 364.871094 C 584.453125 364.871094 595.332031 353.996094 595.332031 340.625 L 595.332031 225.9375 C 595.332031 223.078125 597.652344 220.753906 600.515625 220.753906 C 603.375 220.753906 605.695312 223.078125 605.695312 225.9375 L 605.695312 340.625 C 605.695312 359.710938 590.171875 375.234375 571.085938 375.234375 Z M 571.085938 375.234375 " fill-opacity="1" fill-rule="nonzero"/><path fill="#0d68b1" d="M 232.523438 204.429688 C 215.035156 204.429688 200.808594 190.203125 200.808594 172.714844 C 200.808594 155.226562 215.035156 141 232.523438 141 C 250.011719 141 264.238281 155.226562 264.238281 172.714844 C 264.238281 190.203125 250.011719 204.429688 232.523438 204.429688 Z M 232.523438 151.363281 C 220.75 151.363281 211.175781 160.941406 211.175781 172.714844 C 211.175781 184.488281 220.75 194.066406 232.523438 194.066406 C 244.296875 194.066406 253.875 184.488281 253.875 172.714844 C 253.875 160.941406 244.296875 151.363281 232.523438 151.363281 Z M 232.523438 151.363281 " fill-opacity="1" fill-rule="nonzero"/><g clip-path="url(#6b5e549f44)"><path fill="#0d68b1" d="M 205.835938 572.417969 C 188.347656 572.417969 174.117188 558.191406 174.117188 540.703125 C 174.117188 523.214844 188.347656 508.988281 205.835938 508.988281 C 223.320312 508.988281 237.550781 523.214844 237.550781 540.703125 C 237.550781 558.191406 223.320312 572.417969 205.835938 572.417969 Z M 205.835938 519.351562 C 194.0625 519.351562 184.484375 528.929688 184.484375 540.703125 C 184.484375 552.476562 194.0625 562.054688 205.835938 562.054688 C 217.605469 562.054688 227.183594 552.476562 227.183594 540.703125 C 227.183594 528.929688 217.605469 519.351562 205.835938 519.351562 Z M 205.835938 519.351562 " fill-opacity="1" fill-rule="nonzero"/></g><g clip-path="url(#d8484354fa)"><path fill="#0d68b1" d="M 573.824219 599.109375 C 556.335938 599.109375 542.105469 584.882812 542.105469 567.394531 C 542.105469 549.90625 556.335938 535.679688 573.824219 535.679688 C 591.308594 535.679688 605.539062 549.90625 605.539062 567.394531 C 605.539062 584.882812 591.308594 599.109375 573.824219 599.109375 Z M 573.824219 546.042969 C 562.050781 546.042969 552.472656 555.621094 552.472656 567.394531 C 552.472656 579.167969 562.050781 588.746094 573.824219 588.746094 C 585.59375 588.746094 595.171875 579.167969 595.171875 567.394531 C 595.171875 555.621094 585.59375 546.042969 573.824219 546.042969 Z M 573.824219 546.042969 " fill-opacity="1" fill-rule="nonzero"/></g><g clip-path="url(#2b5381247d)"><path fill="#0d68b1" d="M 600.511719 231.121094 C 583.023438 231.121094 568.796875 216.894531 568.796875 199.40625 C 568.796875 181.917969 583.023438 167.691406 600.511719 167.691406 C 618 167.691406 632.226562 181.917969 632.226562 199.40625 C 632.226562 216.894531 618 231.121094 600.511719 231.121094 Z M 600.511719 178.054688 C 588.742188 178.054688 579.164062 187.632812 579.164062 199.40625 C 579.164062 211.179688 588.738281 220.757812 600.511719 220.757812 C 612.285156 220.757812 621.863281 211.179688 621.863281 199.40625 C 621.863281 187.632812 612.285156 178.054688 600.511719 178.054688 Z M 600.511719 178.054688 " fill-opacity="1" fill-rule="nonzero"/></g><path fill="#0d68b1" d="M 305.25 277.3125 L 223.265625 277.3125 C 220.40625 277.3125 218.085938 274.992188 218.085938 272.132812 C 218.085938 269.269531 220.40625 266.949219 223.265625 266.949219 L 305.25 266.949219 C 308.113281 266.949219 310.433594 269.269531 310.433594 272.132812 C 310.433594 274.992188 308.113281 277.3125 305.25 277.3125 Z M 305.25 277.3125 " fill-opacity="1" fill-rule="nonzero"/><path fill="#0d68b1" d="M 305.25 555.144531 C 302.386719 555.144531 300.066406 552.824219 300.066406 549.960938 L 300.066406 467.976562 C 300.066406 465.117188 302.386719 462.796875 305.25 462.796875 C 308.113281 462.796875 310.433594 465.117188 310.433594 467.976562 L 310.433594 549.960938 C 310.433594 552.824219 308.113281 555.144531 305.25 555.144531 Z M 305.25 555.144531 " fill-opacity="1" fill-rule="nonzero"/><path fill="#0d68b1" d="M 583.082031 473.160156 L 501.097656 473.160156 C 498.234375 473.160156 495.914062 470.839844 495.914062 467.976562 C 495.914062 465.117188 498.234375 462.796875 501.097656 462.796875 L 583.082031 462.796875 C 585.945312 462.796875 588.261719 465.117188 588.261719 467.976562 C 588.261719 470.839844 585.945312 473.160156 583.082031 473.160156 Z M 583.082031 473.160156 " fill-opacity="1" fill-rule="nonzero"/><path fill="#0d68b1" d="M 501.097656 277.3125 C 498.234375 277.3125 495.914062 274.992188 495.914062 272.132812 L 495.914062 190.148438 C 495.914062 187.285156 498.234375 184.964844 501.097656 184.964844 C 503.960938 184.964844 506.28125 187.285156 506.28125 190.148438 L 506.28125 272.132812 C 506.28125 274.992188 503.960938 277.3125 501.097656 277.3125 Z M 501.097656 277.3125 " fill-opacity="1" fill-rule="nonzero"/><path fill="#0d68b1" d="M 305.25 594.949219 C 291.417969 594.949219 280.164062 583.699219 280.164062 569.863281 C 280.164062 556.03125 291.417969 544.78125 305.25 544.78125 C 319.082031 544.78125 330.335938 556.03125 330.335938 569.863281 C 330.335938 583.699219 319.082031 594.949219 305.25 594.949219 Z M 305.25 555.144531 C 297.132812 555.144531 290.527344 561.746094 290.527344 569.863281 C 290.527344 577.980469 297.132812 584.585938 305.25 584.585938 C 313.367188 584.585938 319.972656 577.980469 319.972656 569.863281 C 319.972656 561.746094 313.367188 555.144531 305.25 555.144531 Z M 305.25 555.144531 " fill-opacity="1" fill-rule="nonzero"/><path fill="#0d68b1" d="M 602.984375 493.0625 C 589.152344 493.0625 577.898438 481.808594 577.898438 467.976562 C 577.898438 454.144531 589.152344 442.894531 602.984375 442.894531 C 616.816406 442.894531 628.070312 454.144531 628.070312 467.976562 C 628.070312 481.808594 616.816406 493.0625 602.984375 493.0625 Z M 602.984375 453.257812 C 594.867188 453.257812 588.261719 459.859375 588.261719 467.976562 C 588.261719 476.09375 594.867188 482.699219 602.984375 482.699219 C 611.101562 482.699219 617.703125 476.09375 617.703125 467.976562 C 617.703125 459.859375 611.101562 453.257812 602.984375 453.257812 Z M 602.984375 453.257812 " fill-opacity="1" fill-rule="nonzero"/><path fill="#0d68b1" d="M 203.363281 297.214844 C 189.53125 297.214844 178.277344 285.964844 178.277344 272.132812 C 178.277344 258.296875 189.53125 247.046875 203.363281 247.046875 C 217.195312 247.046875 228.449219 258.296875 228.449219 272.132812 C 228.449219 285.964844 217.195312 297.214844 203.363281 297.214844 Z M 203.363281 257.410156 C 195.246094 257.410156 188.644531 264.015625 188.644531 272.132812 C 188.644531 280.246094 195.246094 286.851562 203.363281 286.851562 C 211.480469 286.851562 218.085938 280.246094 218.085938 272.132812 C 218.085938 264.015625 211.480469 257.410156 203.363281 257.410156 Z M 203.363281 257.410156 " fill-opacity="1" fill-rule="nonzero"/><path fill="#0d68b1" d="M 501.097656 195.328125 C 487.265625 195.328125 476.011719 184.078125 476.011719 170.246094 C 476.011719 156.410156 487.265625 145.160156 501.097656 145.160156 C 514.929688 145.160156 526.183594 156.410156 526.183594 170.246094 C 526.183594 184.078125 514.929688 195.328125 501.097656 195.328125 Z M 501.097656 155.523438 C 492.980469 155.523438 486.375 162.125 486.375 170.246094 C 486.375 178.363281 492.980469 184.964844 501.097656 184.964844 C 509.214844 184.964844 515.816406 178.359375 515.816406 170.246094 C 515.816406 162.125 509.214844 155.523438 501.097656 155.523438 Z M 501.097656 155.523438 " fill-opacity="1" fill-rule="nonzero"/><path fill="#0d68b1" d="M 406.53125 396.984375 C 403.667969 396.984375 401.347656 394.664062 401.347656 391.800781 L 401.347656 348.363281 C 401.347656 345.5 403.667969 343.179688 406.53125 343.179688 C 409.394531 343.179688 411.714844 345.5 411.714844 348.363281 L 411.714844 391.800781 C 411.714844 394.664062 409.394531 396.984375 406.53125 396.984375 Z M 406.53125 396.984375 " fill-opacity="1" fill-rule="nonzero"/><path fill="#0d68b1" d="M 421.578125 378.058594 L 406.53125 378.058594 C 403.667969 378.058594 401.347656 375.738281 401.347656 372.875 L 401.347656 348.363281 C 401.347656 345.5 403.667969 343.179688 406.53125 343.179688 L 421.578125 343.179688 C 431.195312 343.179688 439.019531 351.003906 439.019531 360.617188 C 439.019531 370.234375 431.195312 378.058594 421.578125 378.058594 Z M 411.714844 367.691406 L 421.578125 367.691406 C 425.480469 367.691406 428.652344 364.519531 428.652344 360.617188 C 428.652344 356.71875 425.480469 353.546875 421.578125 353.546875 L 411.714844 353.546875 Z M 411.714844 367.691406 " fill-opacity="1" fill-rule="nonzero"/><path fill="#0d68b1" d="M 387.515625 396.984375 C 384.652344 396.984375 382.332031 394.664062 382.332031 391.800781 L 382.332031 364.699219 C 382.332031 358.515625 377.304688 353.488281 371.121094 353.488281 C 364.941406 353.488281 359.914062 358.519531 359.914062 364.699219 L 359.914062 391.800781 C 359.914062 394.664062 357.59375 396.984375 354.730469 396.984375 C 351.867188 396.984375 349.546875 394.664062 349.546875 391.800781 L 349.546875 364.699219 C 349.546875 352.800781 359.226562 343.125 371.121094 343.125 C 383.019531 343.125 392.695312 352.804688 392.695312 364.699219 L 392.695312 391.800781 C 392.695312 394.664062 390.375 396.984375 387.515625 396.984375 Z M 387.515625 396.984375 " fill-opacity="1" fill-rule="nonzero"/><path fill="#0d68b1" d="M 387.515625 379.457031 L 354.730469 379.457031 C 351.867188 379.457031 349.546875 377.136719 349.546875 374.273438 C 349.546875 371.410156 351.867188 369.09375 354.730469 369.09375 L 387.515625 369.09375 C 390.375 369.09375 392.695312 371.410156 392.695312 374.273438 C 392.695312 377.136719 390.375 379.457031 387.515625 379.457031 Z M 387.515625 379.457031 " fill-opacity="1" fill-rule="nonzero"/><path fill="#0d68b1" d="M 451.617188 396.984375 C 448.753906 396.984375 446.433594 394.664062 446.433594 391.800781 L 446.433594 348.363281 C 446.433594 345.5 448.753906 343.179688 451.617188 343.179688 C 454.480469 343.179688 456.800781 345.5 456.800781 348.363281 L 456.800781 391.800781 C 456.800781 394.664062 454.480469 396.984375 451.617188 396.984375 Z M 451.617188 396.984375 " fill-opacity="1" fill-rule="nonzero"/><g clip-path="url(#f7a6082520)"><path fill="#00b696" d="M 232.035156 160.839844 C 238.367188 160.839844 243.496094 165.96875 243.496094 172.300781 C 243.496094 178.628906 238.367188 183.761719 232.035156 183.761719 C 225.707031 183.761719 220.574219 178.628906 220.574219 172.300781 C 220.574219 165.96875 225.707031 160.839844 232.035156 160.839844 Z M 232.035156 160.839844 " fill-opacity="1" fill-rule="evenodd"/></g><g clip-path="url(#34ab245b17)"><path fill="#00b696" d="M 600.390625 186.761719 C 606.722656 186.761719 611.851562 191.894531 611.851562 198.222656 C 611.851562 204.554688 606.722656 209.683594 600.390625 209.683594 C 594.0625 209.683594 588.929688 204.554688 588.929688 198.222656 C 588.929688 191.894531 594.0625 186.761719 600.390625 186.761719 Z M 600.390625 186.761719 " fill-opacity="1" fill-rule="evenodd"/></g><g clip-path="url(#747b18dadd)"><path fill="#00b696" d="M 205.75 528.722656 C 212.078125 528.722656 217.210938 533.855469 217.210938 540.183594 C 217.210938 546.511719 212.078125 551.644531 205.75 551.644531 C 199.421875 551.644531 194.289062 546.511719 194.289062 540.183594 C 194.289062 533.855469 199.421875 528.722656 205.75 528.722656 Z M 205.75 528.722656 " fill-opacity="1" fill-rule="evenodd"/></g><g clip-path="url(#f31077b947)"><path fill="#00b696" d="M 573.371094 556.394531 C 579.699219 556.394531 584.832031 561.523438 584.832031 567.855469 C 584.832031 574.183594 579.699219 579.316406 573.371094 579.316406 C 567.039062 579.316406 561.910156 574.183594 561.910156 567.855469 C 561.910156 561.523438 567.039062 556.394531 573.371094 556.394531 Z M 573.371094 556.394531 " fill-opacity="1" fill-rule="evenodd"/></g><g clip-path="url(#05224b21fd)"><path fill="#00b696" d="M 203.457031 262.367188 C 208.523438 262.367188 212.628906 266.472656 212.628906 271.539062 C 212.628906 276.601562 208.523438 280.707031 203.457031 280.707031 C 198.394531 280.707031 194.289062 276.601562 194.289062 271.539062 C 194.289062 266.472656 198.394531 262.367188 203.457031 262.367188 Z M 203.457031 262.367188 " fill-opacity="1" fill-rule="evenodd"/></g><g clip-path="url(#3137573f59)"><path fill="#00b696" d="M 501.96875 160.839844 C 507.035156 160.839844 511.140625 164.945312 511.140625 170.007812 C 511.140625 175.074219 507.035156 179.179688 501.96875 179.179688 C 496.90625 179.179688 492.800781 175.074219 492.800781 170.007812 C 492.800781 164.945312 496.90625 160.839844 501.96875 160.839844 Z M 501.96875 160.839844 " fill-opacity="1" fill-rule="evenodd"/></g><g clip-path="url(#e279c6cfb3)"><path fill="#00b696" d="M 306.167969 560.96875 C 311.234375 560.96875 315.339844 565.074219 315.339844 570.140625 C 315.339844 575.203125 311.234375 579.308594 306.167969 579.308594 C 301.105469 579.308594 297 575.203125 297 570.140625 C 297 565.074219 301.105469 560.96875 306.167969 560.96875 Z M 306.167969 560.96875 " fill-opacity="1" fill-rule="evenodd"/></g><g clip-path="url(#2ce1e4a497)"><path fill="#00b696" d="M 603.425781 458.75 C 608.492188 458.75 612.597656 462.855469 612.597656 467.917969 C 612.597656 472.984375 608.492188 477.089844 603.425781 477.089844 C 598.363281 477.089844 594.257812 472.984375 594.257812 467.917969 C 594.257812 462.855469 598.363281 458.75 603.425781 458.75 Z M 603.425781 458.75 " fill-opacity="1" fill-rule="evenodd"/></g><g clip-path="url(#45161fa11f)"><g clip-path="url(#142de29656)"><path stroke-linecap="butt" transform="matrix(0.75, 0, 0, 0.75, 315.346482, 280.732506)" fill="none" stroke-linejoin="miter" d="M 118.298446 0.00249157 C 52.965109 0.00249157 0.00156502 52.960827 0.00156502 118.299372 C 0.00156502 183.632709 52.965109 236.596253 118.298446 236.596253 C 183.631782 236.596253 236.595327 183.632709 236.595327 118.299372 C 236.595327 52.960827 183.631782 0.00249157 118.298446 0.00249157 Z M 118.298446 0.00249157 " stroke="#00b696" stroke-width="14" stroke-opacity="1" stroke-miterlimit="4"/></g></g></svg>