<svg xmlns="http://www.w3.org/2000/svg" xmlns:xlink="http://www.w3.org/1999/xlink" width="1000" zoomAndPan="magnify" viewBox="0 0 750 749.999995" height="1000" preserveAspectRatio="xMidYMid meet" version="1.0"><defs><clipPath id="72662dc9d6"><path d="M 146.140625 144.402344 L 564 144.402344 L 564 687 L 146.140625 687 Z M 146.140625 144.402344 " clip-rule="nonzero"/></clipPath><clipPath id="f91d35cd8a"><path d="M 439 557 L 594.640625 557 L 594.640625 712.902344 L 439 712.902344 Z M 439 557 " clip-rule="nonzero"/></clipPath><clipPath id="cf49365e35"><path d="M 224.691406 428 L 361 428 L 361 436.464844 L 224.691406 436.464844 Z M 224.691406 428 " clip-rule="nonzero"/></clipPath><clipPath id="88065a50ac"><path d="M 224.691406 387 L 429 387 L 429 396 L 224.691406 396 Z M 224.691406 387 " clip-rule="nonzero"/></clipPath><clipPath id="ad267f86eb"><path d="M 224.691406 346.464844 L 496.636719 346.464844 L 496.636719 355 L 224.691406 355 Z M 224.691406 346.464844 " clip-rule="nonzero"/></clipPath><clipPath id="44cb0caaef"><path d="M 224 303.90625 L 496 303.90625 L 496 330.15625 L 224 330.15625 Z M 224 303.90625 " clip-rule="nonzero"/></clipPath><clipPath id="79cc56ca25"><path d="M 224.386719 548 L 361 548 L 361 556.296875 L 224.386719 556.296875 Z M 224.386719 548 " clip-rule="nonzero"/></clipPath><clipPath id="d81506ccc1"><path d="M 224.386719 507 L 429 507 L 429 516 L 224.386719 516 Z M 224.386719 507 " clip-rule="nonzero"/></clipPath><clipPath id="a2d1ccea0c"><path d="M 224.386719 466.296875 L 496.636719 466.296875 L 496.636719 475 L 224.386719 475 Z M 224.386719 466.296875 " clip-rule="nonzero"/></clipPath><clipPath id="0350d5d451"><path d="M 145 47 L 177 47 L 177 86 L 145 86 Z M 145 47 " clip-rule="nonzero"/></clipPath><clipPath id="1de2218d22"><path d="M 81.761719 37.4375 L 181.6875 48.152344 L 159.859375 251.734375 L 59.933594 241.019531 Z M 81.761719 37.4375 " clip-rule="nonzero"/></clipPath><clipPath id="79bdb917a2"><path d="M 81.761719 37.4375 L 181.6875 48.152344 L 159.859375 251.734375 L 59.933594 241.019531 Z M 81.761719 37.4375 " clip-rule="nonzero"/></clipPath><clipPath id="40a7c2d8a2"><path d="M 92 110 L 135 110 L 135 133 L 92 133 Z M 92 110 " clip-rule="nonzero"/></clipPath><clipPath id="bdb98a7672"><path d="M 81.761719 37.4375 L 181.6875 48.152344 L 159.859375 251.734375 L 59.933594 241.019531 Z M 81.761719 37.4375 " clip-rule="nonzero"/></clipPath><clipPath id="960dab03cf"><path d="M 81.761719 37.4375 L 181.6875 48.152344 L 159.859375 251.734375 L 59.933594 241.019531 Z M 81.761719 37.4375 " clip-rule="nonzero"/></clipPath><clipPath id="bff3f55351"><path d="M 65 188 L 109 188 L 109 209 L 65 209 Z M 65 188 " clip-rule="nonzero"/></clipPath><clipPath id="1c48b4e8ee"><path d="M 81.761719 37.4375 L 181.6875 48.152344 L 159.859375 251.734375 L 59.933594 241.019531 Z M 81.761719 37.4375 " clip-rule="nonzero"/></clipPath><clipPath id="65aa040efa"><path d="M 81.761719 37.4375 L 181.6875 48.152344 L 159.859375 251.734375 L 59.933594 241.019531 Z M 81.761719 37.4375 " clip-rule="nonzero"/></clipPath><clipPath id="ed5dac9ffb"><path d="M 85 225 L 103 225 L 103 239 L 85 239 Z M 85 225 " clip-rule="nonzero"/></clipPath><clipPath id="39dd8762be"><path d="M 81.761719 37.4375 L 181.6875 48.152344 L 159.859375 251.734375 L 59.933594 241.019531 Z M 81.761719 37.4375 " clip-rule="nonzero"/></clipPath><clipPath id="70a4832c0a"><path d="M 81.761719 37.4375 L 181.6875 48.152344 L 159.859375 251.734375 L 59.933594 241.019531 Z M 81.761719 37.4375 " clip-rule="nonzero"/></clipPath><clipPath id="b164bce428"><path d="M 102 135 L 133 135 L 133 150 L 102 150 Z M 102 135 " clip-rule="nonzero"/></clipPath><clipPath id="52a91e1339"><path d="M 81.761719 37.4375 L 181.6875 48.152344 L 159.859375 251.734375 L 59.933594 241.019531 Z M 81.761719 37.4375 " clip-rule="nonzero"/></clipPath><clipPath id="af5e6cb2a4"><path d="M 81.761719 37.4375 L 181.6875 48.152344 L 159.859375 251.734375 L 59.933594 241.019531 Z M 81.761719 37.4375 " clip-rule="nonzero"/></clipPath><clipPath id="f831685b1a"><path d="M 584 467 L 648 467 L 648 553 L 584 553 Z M 584 467 " clip-rule="nonzero"/></clipPath><clipPath id="d18e7cd72c"><path d="M 568.847656 481.085938 L 646.671875 464.84375 L 662.300781 539.730469 L 584.480469 555.972656 Z M 568.847656 481.085938 " clip-rule="nonzero"/></clipPath><clipPath id="326e81f259"><path d="M 568.847656 481.085938 L 646.671875 464.84375 L 662.300781 539.730469 L 584.480469 555.972656 Z M 568.847656 481.085938 " clip-rule="nonzero"/></clipPath><clipPath id="4863c39332"><path d="M 447.242188 564.417969 L 588.648438 564.417969 L 588.648438 705.824219 L 447.242188 705.824219 Z M 447.242188 564.417969 " clip-rule="nonzero"/></clipPath><clipPath id="13e85ef132"><path d="M 517.945312 564.417969 C 478.898438 564.417969 447.242188 596.074219 447.242188 635.121094 C 447.242188 674.171875 478.898438 705.824219 517.945312 705.824219 C 556.992188 705.824219 588.648438 674.171875 588.648438 635.121094 C 588.648438 596.074219 556.992188 564.417969 517.945312 564.417969 " clip-rule="nonzero"/></clipPath><clipPath id="c15d52532b"><path d="M 469.6875 586.242188 L 564 586.242188 L 564 682.992188 L 469.6875 682.992188 Z M 469.6875 586.242188 " clip-rule="nonzero"/></clipPath><clipPath id="91658f51a2"><path d="M 502 618 L 566.203125 618 L 566.203125 651 L 502 651 Z M 502 618 " clip-rule="nonzero"/></clipPath></defs><rect x="-75" width="900" fill="#ffffff" y="-74.999999" height="899.999994" fill-opacity="1"/><rect x="-75" width="900" fill="#ffffff" y="-74.999999" height="899.999994" fill-opacity="1"/><rect x="-75" width="900" fill="#ffffff" y="-74.999999" height="899.999994" fill-opacity="1"/><g clip-path="url(#72662dc9d6)"><path fill="#0d68b1" d="M 484.296875 243.066406 C 473.304688 243.066406 464.382812 234.144531 464.382812 223.121094 L 464.382812 176.578125 L 530.777344 243.066406 Z M 562.359375 261.988281 C 559.769531 247.203125 551.21875 236.917969 550.304688 235.851562 C 550.257812 235.777344 550.230469 235.75 550.230469 235.75 L 469.832031 155.242188 C 469.652344 155.09375 469.457031 154.914062 469.324219 154.71875 C 462.046875 147.851562 451.742188 145.464844 445.484375 144.65625 L 445.484375 144.265625 L 185.261719 144.265625 C 163.875 144.265625 146.445312 161.675781 146.445312 183.117188 L 146.445312 647.605469 C 146.445312 669.019531 163.875 686.472656 185.261719 686.472656 L 441.46875 686.472656 C 440.183594 683.472656 439.058594 680.355469 438.101562 677.175781 C 437.113281 674.027344 436.320312 670.816406 435.691406 667.546875 L 185.261719 667.546875 C 174.285156 667.546875 165.34375 658.597656 165.34375 647.605469 L 165.34375 183.117188 C 165.34375 172.109375 174.285156 163.175781 185.261719 163.175781 L 445.484375 163.175781 L 445.484375 223.121094 C 445.484375 244.566406 462.882812 261.988281 484.296875 261.988281 L 544.164062 261.988281 L 544.164062 552.539062 C 546.457031 552.824219 548.761719 553.273438 550.992188 553.753906 C 555.125 554.59375 559.140625 555.71875 563.046875 557.113281 L 563.046875 267.988281 C 562.941406 265.933594 562.71875 263.921875 562.359375 261.988281 " fill-opacity="1" fill-rule="nonzero"/></g><path fill="#0d68b1" d="M 517.554688 660.394531 L 516.175781 660.394531 L 508.960938 602.953125 C 508.347656 598.226562 508.03125 594.585938 508.03125 592.019531 C 508.03125 588.632812 508.886719 585.992188 510.5625 584.101562 C 512.253906 582.199219 514.589844 581.253906 517.554688 581.253906 C 520.371094 581.253906 522.601562 582.167969 524.261719 584.027344 C 525.925781 585.871094 526.765625 588.40625 526.765625 591.628906 C 526.765625 593.894531 526.449219 597.148438 525.835938 601.40625 Z M 516.703125 669.917969 C 519.261719 669.917969 521.449219 670.832031 523.261719 672.644531 C 525.085938 674.476562 525.984375 676.679688 525.984375 679.304688 C 525.984375 681.867188 525.085938 684.058594 523.261719 685.871094 C 521.449219 687.6875 519.261719 688.601562 516.703125 688.601562 C 514.15625 688.601562 511.96875 687.6875 510.144531 685.871094 C 508.332031 684.058594 507.417969 681.867188 507.417969 679.304688 C 507.417969 676.679688 508.332031 674.476562 510.144531 672.644531 C 511.96875 670.832031 514.15625 669.917969 516.703125 669.917969 " fill-opacity="1" fill-rule="nonzero"/><g clip-path="url(#f91d35cd8a)"><path fill="#00b696" d="M 517.089844 701.902344 C 480.164062 701.902344 450.214844 671.910156 450.214844 634.921875 C 450.214844 597.941406 480.164062 567.953125 517.089844 567.953125 C 554.03125 567.953125 583.964844 597.941406 583.964844 634.921875 C 583.964844 671.910156 554.03125 701.902344 517.089844 701.902344 Z M 517.089844 557.1875 C 474.21875 557.1875 439.464844 591.992188 439.464844 634.921875 C 439.464844 677.863281 474.21875 712.652344 517.089844 712.652344 C 559.960938 712.652344 594.71875 677.863281 594.71875 634.921875 C 594.71875 591.992188 559.960938 557.1875 517.089844 557.1875 " fill-opacity="1" fill-rule="nonzero"/></g><g clip-path="url(#cf49365e35)"><path fill="#0d68b1" d="M 360.816406 428.28125 L 224.695312 428.28125 L 224.695312 436.464844 L 360.816406 436.464844 Z M 360.816406 428.28125 " fill-opacity="1" fill-rule="nonzero"/></g><g clip-path="url(#88065a50ac)"><path fill="#0d68b1" d="M 428.878906 387.371094 L 224.695312 387.371094 L 224.695312 395.554688 L 428.878906 395.554688 Z M 428.878906 387.371094 " fill-opacity="1" fill-rule="nonzero"/></g><g clip-path="url(#ad267f86eb)"><path fill="#0d68b1" d="M 496.9375 346.464844 L 224.695312 346.464844 L 224.695312 354.644531 L 496.9375 354.644531 Z M 496.9375 346.464844 " fill-opacity="1" fill-rule="nonzero"/></g><g clip-path="url(#44cb0caaef)"><path fill="#00b696" d="M 224.464844 303.90625 L 495.332031 303.90625 L 495.332031 308.238281 L 224.464844 308.238281 Z M 224.464844 317.03125 L 495.332031 317.03125 L 495.332031 330.15625 L 224.464844 330.15625 Z M 224.464844 317.03125 " fill-opacity="1" fill-rule="nonzero"/></g><g clip-path="url(#79cc56ca25)"><path fill="#0d68b1" d="M 224.390625 548.117188 L 360.511719 548.117188 L 360.511719 556.296875 L 224.390625 556.296875 Z M 224.390625 548.117188 " fill-opacity="1" fill-rule="nonzero"/></g><g clip-path="url(#d81506ccc1)"><path fill="#0d68b1" d="M 224.390625 507.207031 L 428.574219 507.207031 L 428.574219 515.386719 L 224.390625 515.386719 Z M 224.390625 507.207031 " fill-opacity="1" fill-rule="nonzero"/></g><g clip-path="url(#a2d1ccea0c)"><path fill="#0d68b1" d="M 224.390625 466.296875 L 496.632812 466.296875 L 496.632812 474.480469 L 224.390625 474.480469 Z M 224.390625 466.296875 " fill-opacity="1" fill-rule="nonzero"/></g><g clip-path="url(#0350d5d451)"><g clip-path="url(#1de2218d22)"><g clip-path="url(#79bdb917a2)"><path fill="#00b696" d="M 175.542969 77.429688 C 175.542969 77.429688 178.0625 81.574219 174.003906 84.523438 C 169.949219 87.46875 166.96875 84.332031 165.675781 82.574219 C 161.65625 77.28125 146.425781 57.402344 146.425781 57.402344 C 146.425781 57.402344 143.632812 52.523438 148.878906 49 C 154.4375 45.226562 157.769531 49.035156 159.304688 51.171875 C 163.785156 57.429688 175.542969 77.429688 175.542969 77.429688 Z M 175.542969 77.429688 " fill-opacity="1" fill-rule="nonzero"/></g></g></g><g clip-path="url(#40a7c2d8a2)"><g clip-path="url(#bdb98a7672)"><g clip-path="url(#960dab03cf)"><path fill="#00b696" d="M 131.222656 122.203125 C 131.222656 122.203125 135.851562 123.757812 134.507812 128.40625 C 133.296875 133.136719 128.96875 132.671875 126.90625 132.167969 C 120.492188 130.777344 96.914062 122.964844 96.914062 122.964844 C 96.914062 122.964844 90.1875 121.1875 93.4375 113.925781 C 95.960938 108.140625 101.558594 110.570312 101.558594 110.570312 Z M 131.222656 122.203125 " fill-opacity="1" fill-rule="nonzero"/></g></g></g><g clip-path="url(#bff3f55351)"><g clip-path="url(#1c48b4e8ee)"><g clip-path="url(#65aa040efa)"><path fill="#00b696" d="M 101.941406 188.597656 C 101.941406 188.597656 106.664062 187.34375 108.140625 192.011719 C 109.617188 196.679688 105.820312 198.527344 103.832031 199.296875 C 97.664062 201.527344 73.636719 207.753906 73.636719 207.753906 C 73.636719 207.753906 67.050781 209.9375 65.78125 202.050781 C 64.832031 195.75 70.789062 194.839844 70.789062 194.839844 Z M 101.941406 188.597656 " fill-opacity="1" fill-rule="nonzero"/></g></g></g><g clip-path="url(#ed5dac9ffb)"><g clip-path="url(#39dd8762be)"><g clip-path="url(#70a4832c0a)"><path fill="#00b696" d="M 99.558594 235.191406 C 99.558594 235.191406 103.773438 233.390625 102.492188 228.886719 C 100.921875 223.152344 94.644531 225.71875 94.644531 225.71875 C 94.644531 225.71875 84.46875 227.164062 85.296875 233.945312 C 86.558594 243.875 99.558594 235.191406 99.558594 235.191406 Z M 99.558594 235.191406 " fill-opacity="1" fill-rule="nonzero"/></g></g></g><g clip-path="url(#b164bce428)"><g clip-path="url(#52a91e1339)"><g clip-path="url(#af5e6cb2a4)"><path fill="#00b696" d="M 106.566406 147.460938 C 104.613281 147.25 101.730469 147.152344 102.425781 140.675781 C 103 135.3125 107.65625 135.316406 109.886719 135.558594 C 114.828125 136.226562 122.921875 137.097656 129.46875 139.207031 C 134.449219 140.796875 132.949219 149.511719 127.339844 149.195312 C 123.0625 148.945312 112.636719 148.109375 106.566406 147.460938 Z M 106.566406 147.460938 " fill-opacity="1" fill-rule="nonzero"/></g></g></g><g clip-path="url(#f831685b1a)"><g clip-path="url(#d18e7cd72c)"><g clip-path="url(#326e81f259)"><path fill="#0d68b1" d="M 642.957031 468.609375 C 641.5625 466.015625 637.457031 468.101562 638.867188 470.710938 C 644.5625 481.285156 645.789062 496.1875 635.320312 503.847656 C 635.152344 502.410156 634.855469 500.992188 634.433594 499.605469 C 632.722656 494.199219 628.320312 489.355469 622.386719 488.894531 C 617.132812 488.492188 611.925781 491.566406 610.800781 496.890625 C 609.539062 502.777344 613.398438 508.207031 618.683594 510.507812 C 622.511719 512.097656 626.773438 512.328125 630.757812 511.164062 C 629.210938 520.644531 622.425781 530.148438 616.054688 535.792969 C 608.679688 542.382812 597.023438 548.199219 586.929688 547.851562 C 583.976562 547.746094 583.664062 552.28125 586.636719 552.429688 C 598.191406 552.941406 611.296875 546.457031 619.667969 538.738281 C 627.414062 531.59375 634.683594 520.390625 635.488281 509.191406 L 635.75 509.054688 C 650.339844 500.503906 650.183594 482.015625 642.957031 468.609375 Z M 615.332031 500.761719 C 614.261719 496.355469 617.800781 493.097656 622.058594 493.492188 C 625.671875 493.824219 628.316406 496.722656 629.636719 499.894531 C 630.453125 501.894531 630.921875 504.015625 631.019531 506.167969 C 625.300781 508.253906 616.988281 507.578125 615.332031 500.761719 Z M 615.332031 500.761719 " fill-opacity="1" fill-rule="nonzero"/></g></g></g><g clip-path="url(#4863c39332)"><g clip-path="url(#13e85ef132)"><path fill="#00b696" d="M 447.242188 564.417969 L 588.648438 564.417969 L 588.648438 705.824219 L 447.242188 705.824219 Z M 447.242188 564.417969 " fill-opacity="1" fill-rule="nonzero"/></g></g><g clip-path="url(#c15d52532b)"><path fill="#ffffff" d="M 517.828125 586.242188 C 538.835938 586.242188 556.71875 599.738281 563.386719 618.496094 L 551.773438 618.496094 C 545.714844 605.800781 532.796875 596.996094 517.828125 596.996094 C 497.074219 596.996094 480.207031 613.875 480.207031 634.617188 C 480.207031 655.371094 497.082031 672.25 517.828125 672.25 C 532.796875 672.25 545.714844 663.433594 551.773438 650.742188 L 563.375 650.742188 C 556.71875 669.5 538.835938 682.992188 517.828125 682.992188 C 491.148438 682.992188 469.453125 661.296875 469.453125 634.617188 C 469.453125 607.949219 491.148438 586.242188 517.828125 586.242188 " fill-opacity="1" fill-rule="nonzero"/></g><g clip-path="url(#91658f51a2)"><path fill="#ffffff" d="M 533.949219 650.742188 L 518.746094 650.742188 L 502.625 634.617188 L 518.746094 618.496094 L 533.949219 618.496094 L 523.203125 629.242188 L 566.203125 629.242188 L 566.203125 639.996094 L 523.203125 639.996094 L 533.949219 650.742188 " fill-opacity="1" fill-rule="nonzero"/></g></svg>