<svg xmlns="http://www.w3.org/2000/svg" xmlns:xlink="http://www.w3.org/1999/xlink" width="1000" zoomAndPan="magnify" viewBox="0 0 750 749.999995" height="1000" preserveAspectRatio="xMidYMid meet" version="1.0"><defs><clipPath id="1d4acd54db"><path d="M 124 43 L 156 43 L 156 83 L 124 83 Z M 124 43 " clip-rule="nonzero"/></clipPath><clipPath id="b67c4dc1d5"><path d="M 61.144531 33.996094 L 161.070312 44.710938 L 139.242188 248.292969 L 39.316406 237.578125 Z M 61.144531 33.996094 " clip-rule="nonzero"/></clipPath><clipPath id="cf3cbc104e"><path d="M 61.144531 33.996094 L 161.070312 44.710938 L 139.242188 248.292969 L 39.316406 237.578125 Z M 61.144531 33.996094 " clip-rule="nonzero"/></clipPath><clipPath id="bcbb02bc3f"><path d="M 71 106 L 114 106 L 114 129 L 71 129 Z M 71 106 " clip-rule="nonzero"/></clipPath><clipPath id="a0b19bc0c4"><path d="M 61.144531 33.996094 L 161.070312 44.710938 L 139.242188 248.292969 L 39.316406 237.578125 Z M 61.144531 33.996094 " clip-rule="nonzero"/></clipPath><clipPath id="54d931ac0b"><path d="M 61.144531 33.996094 L 161.070312 44.710938 L 139.242188 248.292969 L 39.316406 237.578125 Z M 61.144531 33.996094 " clip-rule="nonzero"/></clipPath><clipPath id="9cc2fb5c34"><path d="M 45 184 L 88 184 L 88 205 L 45 205 Z M 45 184 " clip-rule="nonzero"/></clipPath><clipPath id="32e8ee4453"><path d="M 61.144531 33.996094 L 161.070312 44.710938 L 139.242188 248.292969 L 39.316406 237.578125 Z M 61.144531 33.996094 " clip-rule="nonzero"/></clipPath><clipPath id="a9bb50eb66"><path d="M 61.144531 33.996094 L 161.070312 44.710938 L 139.242188 248.292969 L 39.316406 237.578125 Z M 61.144531 33.996094 " clip-rule="nonzero"/></clipPath><clipPath id="42b128a2c4"><path d="M 64 221 L 83 221 L 83 235 L 64 235 Z M 64 221 " clip-rule="nonzero"/></clipPath><clipPath id="7238e3e134"><path d="M 61.144531 33.996094 L 161.070312 44.710938 L 139.242188 248.292969 L 39.316406 237.578125 Z M 61.144531 33.996094 " clip-rule="nonzero"/></clipPath><clipPath id="89dc01d3be"><path d="M 61.144531 33.996094 L 161.070312 44.710938 L 139.242188 248.292969 L 39.316406 237.578125 Z M 61.144531 33.996094 " clip-rule="nonzero"/></clipPath><clipPath id="7fa19a29a3"><path d="M 81 131 L 112 131 L 112 146 L 81 146 Z M 81 131 " clip-rule="nonzero"/></clipPath><clipPath id="5c3ebf08e2"><path d="M 61.144531 33.996094 L 161.070312 44.710938 L 139.242188 248.292969 L 39.316406 237.578125 Z M 61.144531 33.996094 " clip-rule="nonzero"/></clipPath><clipPath id="652a9efca0"><path d="M 61.144531 33.996094 L 161.070312 44.710938 L 139.242188 248.292969 L 39.316406 237.578125 Z M 61.144531 33.996094 " clip-rule="nonzero"/></clipPath><clipPath id="7ec96f34b6"><path d="M 618 586 L 701 586 L 701 698 L 618 698 Z M 618 586 " clip-rule="nonzero"/></clipPath><clipPath id="4305319b75"><path d="M 598.144531 604.148438 L 699.460938 583.003906 L 719.839844 680.648438 L 618.523438 701.792969 Z M 598.144531 604.148438 " clip-rule="nonzero"/></clipPath><clipPath id="28d80082da"><path d="M 598.144531 604.148438 L 699.460938 583.003906 L 719.839844 680.648438 L 618.523438 701.792969 Z M 598.144531 604.148438 " clip-rule="nonzero"/></clipPath><clipPath id="6731ac8d43"><path d="M 136.519531 164 L 613.519531 164 L 613.519531 586 L 136.519531 586 Z M 136.519531 164 " clip-rule="nonzero"/></clipPath><clipPath id="a980121edc"><path d="M 218 271 L 303 271 L 303 297.808594 L 218 297.808594 Z M 218 271 " clip-rule="nonzero"/></clipPath><clipPath id="09eb1aaeab"><path d="M 217.257812 226.558594 L 304.257812 226.558594 L 304.257812 268 L 217.257812 268 Z M 217.257812 226.558594 " clip-rule="nonzero"/></clipPath></defs><rect x="-75" width="900" fill="#ffffff" y="-74.999999" height="899.999994" fill-opacity="1"/><rect x="-75" width="900" fill="#ffffff" y="-74.999999" height="899.999994" fill-opacity="1"/><g clip-path="url(#1d4acd54db)"><g clip-path="url(#b67c4dc1d5)"><g clip-path="url(#cf3cbc104e)"><path fill="#00b696" d="M 154.601562 73.90625 C 154.601562 73.90625 157.113281 78.042969 153.070312 80.984375 C 149.027344 83.925781 146.058594 80.796875 144.769531 79.039062 C 140.761719 73.757812 125.589844 53.914062 125.589844 53.914062 C 125.589844 53.914062 122.804688 49.042969 128.035156 45.527344 C 133.574219 41.757812 136.894531 45.5625 138.421875 47.695312 C 142.886719 53.941406 154.601562 73.90625 154.601562 73.90625 Z M 154.601562 73.90625 " fill-opacity="1" fill-rule="nonzero"/></g></g></g><g clip-path="url(#bcbb02bc3f)"><g clip-path="url(#a0b19bc0c4)"><g clip-path="url(#54d931ac0b)"><path fill="#00b696" d="M 110.421875 118.613281 C 110.421875 118.613281 115.039062 120.160156 113.699219 124.800781 C 112.488281 129.523438 108.175781 129.0625 106.121094 128.558594 C 99.730469 127.171875 76.230469 119.375 76.230469 119.375 C 76.230469 119.375 69.527344 117.601562 72.765625 110.355469 C 75.285156 104.574219 80.863281 107 80.863281 107 Z M 110.421875 118.613281 " fill-opacity="1" fill-rule="nonzero"/></g></g></g><g clip-path="url(#9cc2fb5c34)"><g clip-path="url(#32e8ee4453)"><g clip-path="url(#a9bb50eb66)"><path fill="#00b696" d="M 81.230469 184.898438 C 81.230469 184.898438 85.9375 183.644531 87.40625 188.304688 C 88.875 192.964844 85.09375 194.808594 83.109375 195.582031 C 76.964844 197.804688 53.015625 204.027344 53.015625 204.027344 C 53.015625 204.027344 46.453125 206.207031 45.1875 198.335938 C 44.242188 192.046875 50.179688 191.136719 50.179688 191.136719 Z M 81.230469 184.898438 " fill-opacity="1" fill-rule="nonzero"/></g></g></g><g clip-path="url(#42b128a2c4)"><g clip-path="url(#7238e3e134)"><g clip-path="url(#89dc01d3be)"><path fill="#00b696" d="M 78.847656 231.414062 C 78.847656 231.414062 83.046875 229.613281 81.773438 225.117188 C 80.207031 219.394531 73.953125 221.957031 73.953125 221.957031 C 73.953125 221.957031 63.808594 223.402344 64.632812 230.171875 C 65.890625 240.082031 78.847656 231.414062 78.847656 231.414062 Z M 78.847656 231.414062 " fill-opacity="1" fill-rule="nonzero"/></g></g></g><g clip-path="url(#7fa19a29a3)"><g clip-path="url(#5c3ebf08e2)"><g clip-path="url(#652a9efca0)"><path fill="#00b696" d="M 85.847656 143.828125 C 83.898438 143.617188 81.027344 143.523438 81.71875 137.054688 C 82.292969 131.703125 86.933594 131.707031 89.160156 131.945312 C 94.082031 132.613281 102.148438 133.480469 108.671875 135.585938 C 113.636719 137.171875 112.140625 145.875 106.550781 145.554688 C 102.285156 145.308594 91.894531 144.476562 85.847656 143.828125 Z M 85.847656 143.828125 " fill-opacity="1" fill-rule="nonzero"/></g></g></g><g clip-path="url(#7ec96f34b6)"><g clip-path="url(#4305319b75)"><g clip-path="url(#28d80082da)"><path fill="#0d68b1" d="M 694.332031 587.96875 C 692.519531 584.589844 687.191406 587.300781 689.023438 590.699219 C 696.421875 604.464844 698.03125 623.859375 684.445312 633.820312 C 684.226562 631.949219 683.839844 630.101562 683.292969 628.300781 C 681.066406 621.261719 675.347656 614.953125 667.644531 614.351562 C 660.824219 613.824219 654.070312 617.820312 652.613281 624.75 C 650.976562 632.410156 655.992188 639.476562 662.851562 642.472656 C 667.824219 644.546875 673.355469 644.851562 678.523438 643.335938 C 676.523438 655.675781 667.722656 668.039062 659.457031 675.375 C 649.890625 683.949219 634.765625 691.511719 621.664062 691.046875 C 617.828125 690.910156 617.425781 696.8125 621.285156 697.007812 C 636.285156 697.683594 653.289062 689.253906 664.152344 679.214844 C 674.203125 669.921875 683.628906 655.351562 684.664062 640.773438 L 685.003906 640.59375 C 703.9375 629.480469 703.722656 605.417969 694.332031 587.96875 Z M 658.496094 629.792969 C 657.101562 624.054688 661.695312 619.816406 667.222656 620.332031 C 671.910156 620.769531 675.347656 624.542969 677.0625 628.671875 C 678.125 631.273438 678.734375 634.03125 678.863281 636.835938 C 671.4375 639.546875 660.652344 638.660156 658.496094 629.792969 Z M 658.496094 629.792969 " fill-opacity="1" fill-rule="nonzero"/></g></g></g><path fill="#00b696" d="M 281.648438 349.488281 L 398.753906 410.460938 L 501.621094 310.277344 L 519.445312 329.839844 L 532.199219 266.226562 L 467.671875 273.0625 L 486.09375 293.265625 L 394.617188 382.359375 L 282.472656 323.960938 L 217.421875 352.652344 L 226.714844 373.710938 L 281.648438 349.488281 " fill-opacity="1" fill-rule="nonzero"/><g clip-path="url(#6731ac8d43)"><path fill="#0d68b1" d="M 571.875 470.597656 L 177.730469 470.597656 L 177.730469 206.105469 L 571.875 206.105469 Z M 602.554688 175.4375 C 595.675781 168.558594 586.578125 164.765625 576.941406 164.765625 L 172.679688 164.765625 C 163.027344 164.765625 153.929688 168.558594 147.050781 175.4375 C 140.167969 182.320312 136.390625 191.402344 136.390625 201.039062 L 136.390625 475.648438 C 136.390625 485.300781 140.167969 494.398438 147.0625 501.277344 C 153.945312 508.144531 163.027344 511.9375 172.679688 511.9375 L 330.8125 511.9375 L 305.945312 560.140625 L 278.320312 560.140625 C 273.570312 560.140625 269.460938 564.203125 269.460938 569.011719 L 269.460938 576.371094 C 269.460938 581.167969 273.523438 585.230469 278.320312 585.230469 C 324.980469 585.230469 323.542969 585.230469 343.613281 585.230469 C 347.328125 585.230469 350.730469 585.230469 353.984375 585.230469 C 353.683594 585.230469 364.011719 585.230469 395.621094 585.230469 C 398.875 585.230469 402.292969 585.230469 405.996094 585.230469 C 426.078125 585.230469 424.625 585.230469 471.285156 585.230469 C 476.097656 585.230469 480.144531 581.125 480.144531 576.371094 L 480.144531 569.011719 C 480.144531 564.246094 476.050781 560.140625 471.285156 560.140625 L 443.675781 560.140625 L 418.792969 511.9375 L 576.941406 511.9375 C 586.578125 511.9375 595.675781 508.144531 602.554688 501.265625 C 609.4375 494.398438 613.214844 485.300781 613.214844 475.648438 L 613.214844 201.039062 C 613.214844 191.402344 609.421875 182.304688 602.554688 175.4375 " fill-opacity="1" fill-rule="nonzero"/></g><path fill="#00b696" d="M 264.964844 270.253906 L 264.964844 268.324219 C 264.964844 265.96875 263.058594 264.0625 260.707031 264.0625 C 258.351562 264.0625 256.445312 265.96875 256.445312 268.324219 L 256.445312 270.253906 C 256.445312 272.609375 258.351562 274.515625 260.707031 274.515625 C 263.054688 274.515625 264.964844 272.609375 264.964844 270.253906 Z M 264.964844 270.253906 " fill-opacity="1" fill-rule="nonzero"/><g clip-path="url(#a980121edc)"><path fill="#00b696" d="M 267.890625 272.613281 C 266.945312 275.703125 264.097656 277.972656 260.707031 277.972656 C 257.308594 277.972656 254.464844 275.703125 253.519531 272.613281 L 224.171875 272.613281 C 222.316406 272.613281 220.566406 272.183594 218.996094 271.433594 L 218.996094 290.921875 C 218.996094 294.726562 222.109375 297.839844 225.914062 297.839844 L 295.492188 297.839844 C 299.296875 297.839844 302.410156 294.726562 302.410156 290.921875 L 302.410156 271.4375 C 300.839844 272.183594 299.089844 272.613281 297.238281 272.613281 Z M 267.890625 272.613281 " fill-opacity="1" fill-rule="nonzero"/></g><g clip-path="url(#09eb1aaeab)"><path fill="#00b696" d="M 296.949219 237.617188 L 280.34375 237.617188 C 279.339844 231.347656 273.90625 226.535156 267.355469 226.535156 L 254.050781 226.535156 C 247.5 226.535156 242.070312 231.347656 241.0625 237.617188 L 224.457031 237.617188 C 220.496094 237.617188 217.25 240.730469 217.25 244.535156 L 217.25 260.507812 C 217.25 264.328125 220.347656 267.425781 224.171875 267.425781 L 253.195312 267.425781 C 253.292969 265.433594 254.148438 263.644531 255.496094 262.351562 C 255.539062 262.3125 255.585938 262.28125 255.628906 262.242188 C 255.929688 261.96875 256.242188 261.707031 256.582031 261.484375 C 256.703125 261.402344 256.839844 261.347656 256.96875 261.273438 C 257.246094 261.113281 257.523438 260.945312 257.828125 260.820312 C 258.0625 260.722656 258.320312 260.664062 258.570312 260.589844 C 258.785156 260.527344 258.988281 260.441406 259.210938 260.398438 C 259.695312 260.300781 260.195312 260.246094 260.703125 260.246094 C 261.214844 260.246094 261.714844 260.300781 262.195312 260.398438 C 262.417969 260.441406 262.621094 260.527344 262.835938 260.589844 C 263.085938 260.664062 263.339844 260.722656 263.578125 260.824219 C 263.878906 260.949219 264.15625 261.113281 264.433594 261.273438 C 264.5625 261.347656 264.699219 261.40625 264.824219 261.484375 C 265.164062 261.707031 265.472656 261.96875 265.773438 262.242188 C 265.816406 262.28125 265.867188 262.3125 265.910156 262.355469 C 267.261719 263.648438 268.113281 265.4375 268.210938 267.429688 L 297.234375 267.429688 C 301.054688 267.429688 304.15625 264.332031 304.15625 260.511719 L 304.15625 244.539062 C 304.15625 240.730469 300.914062 237.617188 296.949219 237.617188 Z M 247.722656 237.617188 C 248.605469 234.953125 251.09375 233.011719 254.050781 233.011719 L 267.355469 233.011719 C 270.3125 233.011719 272.800781 234.953125 273.679688 237.617188 Z M 247.722656 237.617188 " fill-opacity="1" fill-rule="nonzero"/></g></svg>