<svg xmlns="http://www.w3.org/2000/svg" xmlns:xlink="http://www.w3.org/1999/xlink" width="1000" zoomAndPan="magnify" viewBox="0 0 750 749.999995" height="1000" preserveAspectRatio="xMidYMid meet" version="1.0"><defs><clipPath id="0d8331d6c8"><path d="M 144.550781 207.363281 L 605.800781 207.363281 L 605.800781 643.914062 L 144.550781 643.914062 Z M 144.550781 207.363281 " clip-rule="nonzero"/></clipPath><clipPath id="7950049c47"><path d="M 285.402344 362 L 320 362 L 320 388 L 285.402344 388 Z M 285.402344 362 " clip-rule="nonzero"/></clipPath><clipPath id="8f81885231"><path d="M 363 285.402344 L 387 285.402344 L 387 320 L 363 320 Z M 363 285.402344 " clip-rule="nonzero"/></clipPath><clipPath id="11b5b679e1"><path d="M 363 430 L 387 430 L 387 464.652344 L 363 464.652344 Z M 363 430 " clip-rule="nonzero"/></clipPath><clipPath id="330166c575"><path d="M 430 362 L 464.652344 362 L 464.652344 388 L 430 388 Z M 430 362 " clip-rule="nonzero"/></clipPath><clipPath id="260bccb3d2"><path d="M 236 87 L 257 87 L 257 147 L 236 147 Z M 236 87 " clip-rule="nonzero"/></clipPath><clipPath id="9007b7b0e5"><path d="M 174.53125 26.761719 L 283.902344 109.683594 L 114.4375 333.207031 L 5.066406 250.285156 Z M 174.53125 26.761719 " clip-rule="nonzero"/></clipPath><clipPath id="9f1c78aa73"><path d="M 174.53125 26.761719 L 283.902344 109.683594 L 114.4375 333.207031 L 5.066406 250.285156 Z M 174.53125 26.761719 " clip-rule="nonzero"/></clipPath><clipPath id="82d3926c33"><path d="M 129 122 L 175 122 L 175 173 L 129 173 Z M 129 122 " clip-rule="nonzero"/></clipPath><clipPath id="1c2c6c2390"><path d="M 174.53125 26.761719 L 283.902344 109.683594 L 114.4375 333.207031 L 5.066406 250.285156 Z M 174.53125 26.761719 " clip-rule="nonzero"/></clipPath><clipPath id="964afc2d68"><path d="M 174.53125 26.761719 L 283.902344 109.683594 L 114.4375 333.207031 L 5.066406 250.285156 Z M 174.53125 26.761719 " clip-rule="nonzero"/></clipPath><clipPath id="e2bac2df76"><path d="M 38 203 L 97 203 L 97 233 L 38 233 Z M 38 203 " clip-rule="nonzero"/></clipPath><clipPath id="a2e22f2bab"><path d="M 174.53125 26.761719 L 283.902344 109.683594 L 114.4375 333.207031 L 5.066406 250.285156 Z M 174.53125 26.761719 " clip-rule="nonzero"/></clipPath><clipPath id="3ab12beab4"><path d="M 174.53125 26.761719 L 283.902344 109.683594 L 114.4375 333.207031 L 5.066406 250.285156 Z M 174.53125 26.761719 " clip-rule="nonzero"/></clipPath><clipPath id="91cb66b1cd"><path d="M 38 255 L 64 255 L 64 272 L 38 272 Z M 38 255 " clip-rule="nonzero"/></clipPath><clipPath id="671874f313"><path d="M 174.53125 26.761719 L 283.902344 109.683594 L 114.4375 333.207031 L 5.066406 250.285156 Z M 174.53125 26.761719 " clip-rule="nonzero"/></clipPath><clipPath id="650adc56d7"><path d="M 174.53125 26.761719 L 283.902344 109.683594 L 114.4375 333.207031 L 5.066406 250.285156 Z M 174.53125 26.761719 " clip-rule="nonzero"/></clipPath><clipPath id="5e943b100f"><path d="M 122 159 L 160 159 L 160 192 L 122 192 Z M 122 159 " clip-rule="nonzero"/></clipPath><clipPath id="d6ea1c814c"><path d="M 174.53125 26.761719 L 283.902344 109.683594 L 114.4375 333.207031 L 5.066406 250.285156 Z M 174.53125 26.761719 " clip-rule="nonzero"/></clipPath><clipPath id="abe8912b9e"><path d="M 174.53125 26.761719 L 283.902344 109.683594 L 114.4375 333.207031 L 5.066406 250.285156 Z M 174.53125 26.761719 " clip-rule="nonzero"/></clipPath><clipPath id="a0bb6b83c6"><path d="M 592 582 L 704 582 L 704 687 L 592 687 Z M 592 582 " clip-rule="nonzero"/></clipPath><clipPath id="4025d8290d"><path d="M 590.347656 689.769531 L 596.570312 575.191406 L 707.40625 581.207031 L 701.183594 695.789062 Z M 590.347656 689.769531 " clip-rule="nonzero"/></clipPath><clipPath id="3d67d01d53"><path d="M 596.578125 575.015625 L 590.359375 689.59375 L 701.195312 695.613281 L 707.414062 581.03125 Z M 596.578125 575.015625 " clip-rule="nonzero"/></clipPath></defs><g clip-path="url(#0d8331d6c8)"><path fill="#0d68b1" d="M 202.886719 533.050781 C 199.042969 533.050781 195.917969 529.945312 195.917969 526.105469 C 195.917969 522.285156 199.042969 519.160156 202.886719 519.160156 C 206.710938 519.160156 209.816406 522.285156 209.816406 526.105469 C 209.816406 529.945312 206.710938 533.050781 202.886719 533.050781 Z M 202.886719 509.757812 C 193.839844 509.757812 186.503906 517.085938 186.503906 526.105469 C 186.503906 535.125 193.839844 542.457031 202.886719 542.457031 C 211.894531 542.457031 219.230469 535.125 219.230469 526.105469 C 219.230469 517.085938 211.894531 509.757812 202.886719 509.757812 Z M 567.484375 488.703125 L 182.863281 488.703125 L 182.863281 249.449219 L 567.484375 249.449219 Z M 576.898438 493.40625 L 576.898438 244.746094 C 576.898438 242.15625 574.800781 240.042969 572.191406 240.042969 L 178.160156 240.042969 C 175.546875 240.042969 173.453125 242.15625 173.453125 244.746094 L 173.453125 493.40625 C 173.453125 495.996094 175.546875 498.109375 178.160156 498.109375 L 572.191406 498.109375 C 574.800781 498.109375 576.898438 495.996094 576.898438 493.40625 Z M 561.804688 530.808594 L 237.652344 530.808594 C 235.0625 530.808594 232.945312 528.714844 232.945312 526.105469 C 232.945312 523.515625 235.0625 521.402344 237.652344 521.402344 L 561.804688 521.402344 C 564.414062 521.402344 566.511719 523.515625 566.511719 526.105469 C 566.511719 528.714844 564.414062 530.808594 561.804688 530.808594 Z M 422.554688 604.96875 L 327.796875 604.96875 L 327.796875 570.066406 L 422.554688 570.066406 Z M 596.386719 634.527344 L 153.964844 634.527344 L 153.964844 614.375 L 596.386719 614.375 Z M 153.964844 546.550781 L 153.964844 230.859375 C 153.964844 223.070312 160.289062 216.75 168.082031 216.75 L 582.265625 216.75 C 590.0625 216.75 596.386719 223.070312 596.386719 230.859375 L 596.386719 546.550781 C 596.386719 554.339844 590.0625 560.660156 582.265625 560.660156 L 168.082031 560.660156 C 160.289062 560.660156 153.964844 554.339844 153.964844 546.550781 Z M 582.265625 570.066406 C 595.246094 570.066406 605.800781 559.523438 605.800781 546.550781 L 605.800781 230.859375 C 605.800781 217.890625 595.246094 207.34375 582.265625 207.34375 L 168.082031 207.34375 C 155.101562 207.34375 144.550781 217.890625 144.550781 230.859375 L 144.550781 546.550781 C 144.550781 559.523438 155.101562 570.066406 168.082031 570.066406 L 318.382812 570.066406 L 318.382812 604.96875 L 149.257812 604.96875 C 146.664062 604.96875 144.550781 607.082031 144.550781 609.671875 L 144.550781 639.230469 C 144.550781 641.820312 146.664062 643.933594 149.257812 643.933594 L 601.09375 643.933594 C 603.703125 643.933594 605.800781 641.820312 605.800781 639.230469 L 605.800781 609.671875 C 605.800781 607.082031 603.703125 604.96875 601.09375 604.96875 L 431.96875 604.96875 L 431.96875 570.066406 L 582.265625 570.066406 " fill-opacity="1" fill-rule="nonzero"/></g><g clip-path="url(#7950049c47)"><path fill="#00b696" d="M 319.097656 377.664062 L 319.097656 372.386719 C 319.097656 372.335938 319.105469 372.285156 319.105469 372.230469 L 307.914062 372.230469 L 307.914062 370.132812 C 307.914062 369.636719 307.789062 369.171875 307.542969 368.742188 C 307.292969 368.308594 306.957031 367.96875 306.527344 367.71875 L 298.136719 362.824219 C 297.703125 362.570312 297.230469 362.445312 296.726562 362.445312 C 296.222656 362.445312 295.753906 362.570312 295.320312 362.824219 L 286.929688 367.71875 C 286.5 367.96875 286.160156 368.308594 285.914062 368.742188 C 285.667969 369.171875 285.542969 369.636719 285.542969 370.132812 L 285.542969 379.921875 C 285.542969 380.417969 285.667969 380.882812 285.914062 381.3125 C 286.160156 381.746094 286.5 382.085938 286.929688 382.335938 L 295.320312 387.230469 C 295.753906 387.484375 296.222656 387.613281 296.726562 387.613281 C 297.230469 387.613281 297.703125 387.484375 298.136719 387.230469 L 306.527344 382.335938 C 306.957031 382.085938 307.292969 381.746094 307.542969 381.3125 C 307.789062 380.882812 307.914062 380.417969 307.914062 379.921875 L 307.914062 377.824219 L 319.105469 377.824219 C 319.105469 377.769531 319.097656 377.71875 319.097656 377.664062 Z M 302.320312 378.316406 L 296.726562 381.578125 L 291.136719 378.316406 L 291.136719 371.742188 L 296.726562 368.476562 L 302.320312 371.742188 Z M 302.320312 378.316406 " fill-opacity="1" fill-rule="nonzero"/></g><path fill="#00b696" d="M 412.707031 333.605469 L 416.449219 337.355469 C 416.484375 337.390625 416.511719 337.425781 416.546875 337.460938 L 423.328125 330.683594 L 431.164062 332.746094 C 431.644531 332.875 432.125 332.871094 432.605469 332.742188 C 433.085938 332.613281 433.5 332.371094 433.851562 332.019531 L 440.773438 325.097656 C 441.125 324.746094 441.367188 324.332031 441.496094 323.851562 C 441.628906 323.371094 441.628906 322.890625 441.503906 322.410156 L 439.03125 313.019531 C 438.902344 312.53125 438.660156 312.109375 438.304688 311.753906 C 437.945312 311.394531 437.523438 311.152344 437.039062 311.023438 L 427.644531 308.554688 C 427.164062 308.425781 426.683594 308.429688 426.203125 308.558594 C 425.722656 308.6875 425.308594 308.929688 424.957031 309.28125 L 418.035156 316.203125 C 417.683594 316.554688 417.445312 316.96875 417.3125 317.449219 C 417.183594 317.929688 417.183594 318.410156 417.308594 318.890625 L 419.371094 326.730469 L 412.597656 333.507812 C 412.632812 333.542969 412.671875 333.570312 412.707031 333.605469 Z M 427.773438 314.371094 L 434.035156 316.019531 L 435.683594 322.28125 L 431.035156 326.929688 L 424.773438 325.28125 L 423.125 319.019531 Z M 427.773438 314.371094 " fill-opacity="1" fill-rule="nonzero"/><path fill="#00b696" d="M 337.355469 416.453125 L 333.613281 412.707031 C 333.574219 412.671875 333.542969 412.628906 333.507812 412.59375 L 326.730469 419.371094 L 318.890625 417.308594 C 318.410156 417.183594 317.929688 417.183594 317.449219 417.3125 C 316.96875 417.445312 316.554688 417.683594 316.203125 418.035156 L 309.28125 424.957031 C 308.929688 425.308594 308.6875 425.722656 308.558594 426.203125 C 308.429688 426.683594 308.425781 427.164062 308.554688 427.644531 L 311.023438 437.039062 C 311.152344 437.523438 311.394531 437.945312 311.75 438.304688 C 312.109375 438.660156 312.53125 438.902344 313.019531 439.03125 L 322.410156 441.503906 C 322.890625 441.628906 323.371094 441.625 323.851562 441.496094 C 324.332031 441.367188 324.746094 441.125 325.097656 440.773438 L 332.019531 433.851562 C 332.371094 433.5 332.613281 433.085938 332.742188 432.605469 C 332.871094 432.125 332.875 431.644531 332.746094 431.164062 L 330.683594 423.324219 L 337.460938 416.550781 C 337.425781 416.515625 337.390625 416.488281 337.355469 416.453125 Z M 322.28125 435.683594 L 316.019531 434.035156 L 314.371094 427.777344 L 319.019531 423.125 L 325.28125 424.773438 L 326.929688 431.035156 Z M 322.28125 435.683594 " fill-opacity="1" fill-rule="nonzero"/><path fill="#00b696" d="M 412.902344 397.742188 L 409.6875 394.527344 C 411.253906 391.746094 412.46875 388.820312 413.328125 385.746094 L 417.871094 385.746094 C 418.378906 385.726562 418.882812 385.65625 419.382812 385.539062 C 419.878906 385.417969 420.359375 385.25 420.824219 385.039062 C 421.289062 384.824219 421.726562 384.566406 422.140625 384.265625 C 422.554688 383.964844 422.9375 383.628906 423.285156 383.253906 C 423.632812 382.878906 423.941406 382.472656 424.207031 382.039062 C 424.476562 381.601562 424.699219 381.144531 424.878906 380.664062 C 425.054688 380.1875 425.1875 379.695312 425.265625 379.1875 C 425.347656 378.683594 425.382812 378.175781 425.363281 377.664062 L 425.363281 372.386719 C 425.382812 371.878906 425.347656 371.371094 425.265625 370.863281 C 425.183594 370.359375 425.054688 369.867188 424.878906 369.390625 C 424.699219 368.910156 424.476562 368.453125 424.207031 368.015625 C 423.9375 367.582031 423.632812 367.175781 423.285156 366.800781 C 422.9375 366.425781 422.554688 366.089844 422.140625 365.789062 C 421.726562 365.488281 421.289062 365.230469 420.824219 365.019531 C 420.359375 364.804688 419.878906 364.636719 419.382812 364.519531 C 418.882812 364.398438 418.378906 364.328125 417.871094 364.308594 L 413.328125 364.308594 C 412.46875 361.234375 411.257812 358.308594 409.6875 355.53125 L 412.90625 352.3125 C 413.253906 351.9375 413.558594 351.53125 413.824219 351.09375 C 414.089844 350.660156 414.3125 350.199219 414.488281 349.722656 C 414.667969 349.242188 414.792969 348.75 414.875 348.246094 C 414.957031 347.742188 414.984375 347.234375 414.964844 346.722656 C 414.949219 346.214844 414.878906 345.710938 414.761719 345.210938 C 414.644531 344.714844 414.476562 344.234375 414.265625 343.769531 C 414.054688 343.304688 413.796875 342.867188 413.5 342.453125 C 413.203125 342.035156 412.867188 341.65625 412.492188 341.304688 L 408.757812 337.566406 C 408.40625 337.191406 408.027344 336.855469 407.609375 336.558594 C 407.195312 336.257812 406.757812 336.003906 406.292969 335.789062 C 405.828125 335.578125 405.34375 335.410156 404.847656 335.292969 C 404.351562 335.175781 403.847656 335.105469 403.335938 335.085938 C 402.824219 335.070312 402.316406 335.097656 401.8125 335.179688 C 401.308594 335.261719 400.816406 335.390625 400.335938 335.566406 C 399.855469 335.742188 399.398438 335.964844 398.960938 336.230469 C 398.527344 336.5 398.121094 336.804688 397.746094 337.152344 L 394.527344 340.367188 C 391.75 338.800781 388.824219 337.585938 385.75 336.730469 L 385.75 332.183594 C 385.730469 331.671875 385.660156 331.167969 385.539062 330.671875 C 385.421875 330.175781 385.253906 329.695312 385.039062 329.230469 C 384.824219 328.765625 384.566406 328.324219 384.265625 327.914062 C 383.96875 327.5 383.628906 327.117188 383.253906 326.769531 C 382.878906 326.421875 382.472656 326.113281 382.039062 325.847656 C 381.601562 325.578125 381.144531 325.355469 380.667969 325.175781 C 380.1875 325 379.695312 324.871094 379.191406 324.789062 C 378.6875 324.707031 378.179688 324.675781 377.667969 324.691406 L 372.390625 324.691406 C 371.882812 324.675781 371.375 324.707031 370.867188 324.789062 C 370.363281 324.867188 369.871094 325 369.390625 325.175781 C 368.914062 325.355469 368.457031 325.578125 368.019531 325.847656 C 367.585938 326.113281 367.179688 326.421875 366.804688 326.769531 C 366.429688 327.117188 366.089844 327.496094 365.789062 327.910156 C 365.488281 328.324219 365.234375 328.765625 365.019531 329.230469 C 364.804688 329.695312 364.636719 330.175781 364.515625 330.671875 C 364.398438 331.167969 364.328125 331.671875 364.304688 332.183594 L 364.304688 336.730469 C 361.234375 337.585938 358.308594 338.800781 355.53125 340.367188 L 352.316406 337.152344 C 351.941406 336.804688 351.535156 336.5 351.097656 336.234375 C 350.660156 335.964844 350.203125 335.746094 349.722656 335.566406 C 349.242188 335.390625 348.75 335.261719 348.246094 335.183594 C 347.742188 335.101562 347.234375 335.070312 346.722656 335.089844 C 346.210938 335.109375 345.707031 335.179688 345.207031 335.296875 C 344.710938 335.414062 344.230469 335.582031 343.765625 335.792969 C 343.300781 336.007812 342.859375 336.261719 342.445312 336.5625 C 342.03125 336.859375 341.648438 337.195312 341.296875 337.570312 L 337.574219 341.300781 C 337.199219 341.648438 336.859375 342.03125 336.5625 342.445312 C 336.261719 342.859375 336.003906 343.300781 335.792969 343.765625 C 335.578125 344.230469 335.414062 344.710938 335.292969 345.207031 C 335.175781 345.703125 335.105469 346.210938 335.085938 346.71875 C 335.066406 347.230469 335.097656 347.738281 335.179688 348.246094 C 335.257812 348.75 335.386719 349.242188 335.5625 349.722656 C 335.742188 350.203125 335.960938 350.660156 336.230469 351.097656 C 336.496094 351.53125 336.800781 351.9375 337.148438 352.316406 L 340.367188 355.535156 C 338.800781 358.3125 337.589844 361.234375 336.730469 364.308594 L 332.183594 364.308594 C 331.671875 364.328125 331.167969 364.398438 330.671875 364.519531 C 330.175781 364.636719 329.695312 364.804688 329.230469 365.019531 C 328.765625 365.234375 328.324219 365.488281 327.914062 365.789062 C 327.5 366.089844 327.117188 366.425781 326.769531 366.800781 C 326.421875 367.175781 326.113281 367.582031 325.847656 368.019531 C 325.578125 368.453125 325.355469 368.910156 325.175781 369.390625 C 325 369.867188 324.871094 370.359375 324.789062 370.863281 C 324.707031 371.371094 324.675781 371.878906 324.691406 372.386719 L 324.691406 377.664062 C 324.675781 378.175781 324.707031 378.683594 324.789062 379.1875 C 324.867188 379.695312 325 380.1875 325.175781 380.664062 C 325.355469 381.144531 325.578125 381.601562 325.847656 382.035156 C 326.113281 382.472656 326.421875 382.878906 326.769531 383.253906 C 327.117188 383.628906 327.496094 383.964844 327.910156 384.265625 C 328.324219 384.566406 328.765625 384.824219 329.230469 385.035156 C 329.695312 385.25 330.175781 385.417969 330.671875 385.539062 C 331.167969 385.65625 331.671875 385.726562 332.183594 385.746094 L 336.730469 385.746094 C 337.589844 388.820312 338.804688 391.746094 340.371094 394.523438 L 337.144531 397.746094 C 336.800781 398.121094 336.492188 398.527344 336.226562 398.964844 C 335.960938 399.398438 335.738281 399.859375 335.5625 400.335938 C 335.386719 400.816406 335.257812 401.308594 335.179688 401.8125 C 335.097656 402.320312 335.066406 402.828125 335.085938 403.335938 C 335.105469 403.847656 335.175781 404.351562 335.292969 404.847656 C 335.414062 405.347656 335.578125 405.828125 335.792969 406.292969 C 336.003906 406.757812 336.261719 407.195312 336.558594 407.609375 C 336.859375 408.023438 337.195312 408.40625 337.566406 408.753906 L 341.304688 412.492188 C 341.652344 412.863281 342.035156 413.199219 342.453125 413.5 C 342.867188 413.796875 343.308594 414.050781 343.773438 414.261719 C 344.238281 414.476562 344.71875 414.640625 345.214844 414.757812 C 345.714844 414.875 346.21875 414.945312 346.726562 414.960938 C 347.238281 414.980469 347.746094 414.953125 348.25 414.871094 C 348.753906 414.789062 349.246094 414.664062 349.726562 414.484375 C 350.207031 414.308594 350.664062 414.085938 351.101562 413.820312 C 351.539062 413.554688 351.945312 413.25 352.320312 412.902344 L 355.53125 409.683594 C 358.308594 411.253906 361.234375 412.464844 364.304688 413.324219 L 364.304688 417.875 C 364.328125 418.382812 364.398438 418.886719 364.515625 419.386719 C 364.636719 419.882812 364.804688 420.363281 365.019531 420.828125 C 365.234375 421.292969 365.492188 421.730469 365.789062 422.144531 C 366.089844 422.558594 366.429688 422.9375 366.804688 423.285156 C 367.179688 423.632812 367.585938 423.941406 368.019531 424.210938 C 368.457031 424.476562 368.914062 424.699219 369.390625 424.878906 C 369.871094 425.058594 370.363281 425.1875 370.867188 425.269531 C 371.375 425.351562 371.882812 425.382812 372.390625 425.363281 L 377.667969 425.363281 C 378.179688 425.382812 378.6875 425.347656 379.191406 425.269531 C 379.695312 425.1875 380.1875 425.054688 380.667969 424.878906 C 381.144531 424.699219 381.601562 424.476562 382.039062 424.210938 C 382.472656 423.941406 382.878906 423.632812 383.253906 423.285156 C 383.628906 422.9375 383.964844 422.558594 384.265625 422.144531 C 384.566406 421.730469 384.824219 421.292969 385.039062 420.828125 C 385.253906 420.363281 385.417969 419.882812 385.539062 419.386719 C 385.660156 418.886719 385.730469 418.382812 385.75 417.875 L 385.75 413.324219 C 388.824219 412.464844 391.75 411.253906 394.527344 409.683594 L 397.746094 412.910156 C 398.125 413.253906 398.53125 413.558594 398.964844 413.824219 C 399.402344 414.09375 399.859375 414.3125 400.339844 414.488281 C 400.820312 414.664062 401.3125 414.792969 401.816406 414.875 C 402.320312 414.953125 402.828125 414.984375 403.339844 414.964844 C 403.851562 414.945312 404.355469 414.875 404.851562 414.757812 C 405.347656 414.640625 405.828125 414.472656 406.292969 414.261719 C 406.757812 414.050781 407.199219 413.792969 407.613281 413.496094 C 408.027344 413.199219 408.410156 412.863281 408.757812 412.488281 L 412.496094 408.753906 C 412.867188 408.402344 413.203125 408.019531 413.5 407.605469 C 413.800781 407.191406 414.054688 406.75 414.265625 406.285156 C 414.480469 405.820312 414.644531 405.339844 414.761719 404.84375 C 414.878906 404.347656 414.949219 403.84375 414.964844 403.332031 C 414.984375 402.820312 414.953125 402.3125 414.875 401.808594 C 414.792969 401.304688 414.664062 400.8125 414.488281 400.332031 C 414.3125 399.855469 414.089844 399.398438 413.824219 398.960938 C 413.554688 398.523438 413.25 398.117188 412.902344 397.742188 Z M 408.535156 404.800781 L 404.808594 408.53125 C 404.625 408.753906 404.40625 408.941406 404.152344 409.082031 C 403.898438 409.222656 403.625 409.316406 403.335938 409.355469 C 403.050781 409.394531 402.761719 409.378906 402.480469 409.308594 C 402.199219 409.238281 401.9375 409.121094 401.699219 408.953125 L 396.9375 404.183594 C 396.710938 403.960938 396.457031 403.777344 396.167969 403.640625 C 395.878906 403.5 395.578125 403.414062 395.261719 403.378906 C 394.941406 403.347656 394.628906 403.367188 394.320312 403.4375 C 394.007812 403.511719 393.71875 403.632812 393.449219 403.808594 C 390.027344 406.003906 386.328125 407.539062 382.355469 408.410156 C 382.042969 408.476562 381.753906 408.59375 381.480469 408.761719 C 381.210938 408.929688 380.976562 409.140625 380.777344 409.386719 C 380.574219 409.636719 380.421875 409.910156 380.316406 410.210938 C 380.210938 410.511719 380.15625 410.820312 380.15625 411.140625 L 380.15625 417.875 C 380.15625 418.902344 379.015625 419.769531 377.667969 419.769531 L 372.390625 419.769531 C 371.039062 419.769531 369.898438 418.902344 369.898438 417.875 L 369.898438 411.140625 C 369.898438 410.820312 369.847656 410.511719 369.738281 410.210938 C 369.632812 409.910156 369.480469 409.636719 369.28125 409.386719 C 369.082031 409.140625 368.847656 408.929688 368.574219 408.761719 C 368.304688 408.59375 368.011719 408.476562 367.699219 408.410156 C 363.726562 407.539062 360.03125 406.007812 356.609375 403.808594 C 356.339844 403.632812 356.050781 403.511719 355.738281 403.4375 C 355.425781 403.367188 355.113281 403.347656 354.796875 403.382812 C 354.476562 403.414062 354.175781 403.5 353.886719 403.640625 C 353.601562 403.777344 353.34375 403.960938 353.117188 404.1875 L 348.367188 408.945312 C 348.132812 409.117188 347.871094 409.234375 347.589844 409.304688 C 347.304688 409.375 347.019531 409.390625 346.730469 409.355469 C 346.441406 409.316406 346.171875 409.226562 345.914062 409.085938 C 345.660156 408.941406 345.441406 408.757812 345.253906 408.535156 L 341.523438 404.800781 C 341.296875 404.617188 341.113281 404.398438 340.972656 404.144531 C 340.828125 403.890625 340.738281 403.621094 340.699219 403.332031 C 340.660156 403.042969 340.675781 402.757812 340.746094 402.476562 C 340.816406 402.195312 340.933594 401.933594 341.101562 401.699219 L 345.867188 396.9375 C 346.09375 396.710938 346.277344 396.457031 346.414062 396.167969 C 346.550781 395.882812 346.636719 395.578125 346.671875 395.261719 C 346.707031 394.945312 346.6875 394.632812 346.613281 394.320312 C 346.542969 394.011719 346.421875 393.722656 346.25 393.453125 C 344.050781 390.027344 342.519531 386.328125 341.648438 382.355469 C 341.582031 382.042969 341.460938 381.753906 341.292969 381.480469 C 341.125 381.210938 340.917969 380.972656 340.671875 380.773438 C 340.421875 380.574219 340.148438 380.421875 339.847656 380.3125 C 339.546875 380.207031 339.234375 380.15625 338.917969 380.15625 L 332.183594 380.15625 C 331.894531 380.105469 331.628906 380.007812 331.378906 379.859375 C 331.128906 379.707031 330.917969 379.515625 330.742188 379.285156 C 330.566406 379.054688 330.4375 378.800781 330.359375 378.519531 C 330.28125 378.238281 330.253906 377.953125 330.285156 377.664062 L 330.285156 372.386719 C 330.253906 372.097656 330.28125 371.816406 330.359375 371.535156 C 330.4375 371.253906 330.566406 371 330.742188 370.769531 C 330.917969 370.539062 331.128906 370.347656 331.378906 370.199219 C 331.628906 370.046875 331.894531 369.949219 332.183594 369.902344 L 338.914062 369.902344 C 339.234375 369.902344 339.546875 369.847656 339.847656 369.742188 C 340.148438 369.636719 340.421875 369.484375 340.671875 369.28125 C 340.917969 369.082031 341.125 368.847656 341.292969 368.574219 C 341.460938 368.304688 341.582031 368.011719 341.648438 367.699219 C 342.515625 363.726562 344.046875 360.03125 346.246094 356.609375 C 346.417969 356.339844 346.542969 356.050781 346.613281 355.738281 C 346.6875 355.429688 346.707031 355.117188 346.671875 354.800781 C 346.636719 354.480469 346.550781 354.179688 346.414062 353.890625 C 346.277344 353.605469 346.09375 353.347656 345.867188 353.121094 L 341.109375 348.363281 C 340.9375 348.125 340.816406 347.867188 340.746094 347.585938 C 340.675781 347.300781 340.660156 347.015625 340.699219 346.726562 C 340.738281 346.4375 340.828125 346.167969 340.972656 345.914062 C 341.113281 345.660156 341.300781 345.441406 341.523438 345.257812 L 345.25 341.527344 C 345.4375 341.300781 345.65625 341.117188 345.910156 340.972656 C 346.164062 340.832031 346.433594 340.742188 346.722656 340.703125 C 347.011719 340.664062 347.296875 340.679688 347.582031 340.75 C 347.863281 340.820312 348.125 340.9375 348.363281 341.105469 L 353.121094 345.867188 C 353.34375 346.09375 353.601562 346.273438 353.886719 346.410156 C 354.175781 346.550781 354.476562 346.636719 354.796875 346.671875 C 355.113281 346.703125 355.425781 346.6875 355.738281 346.613281 C 356.046875 346.539062 356.335938 346.417969 356.605469 346.246094 C 360.027344 344.046875 363.722656 342.515625 367.699219 341.648438 C 368.011719 341.582031 368.300781 341.460938 368.574219 341.292969 C 368.84375 341.128906 369.082031 340.917969 369.28125 340.671875 C 369.480469 340.421875 369.632812 340.148438 369.738281 339.847656 C 369.847656 339.546875 369.898438 339.234375 369.898438 338.917969 L 369.898438 332.183594 C 369.898438 331.15625 371.039062 330.285156 372.390625 330.285156 L 377.667969 330.285156 C 377.957031 330.253906 378.242188 330.28125 378.519531 330.359375 C 378.800781 330.4375 379.058594 330.566406 379.289062 330.742188 C 379.519531 330.917969 379.710938 331.128906 379.859375 331.378906 C 380.011719 331.628906 380.109375 331.898438 380.15625 332.183594 L 380.15625 338.914062 C 380.15625 339.234375 380.210938 339.546875 380.316406 339.847656 C 380.421875 340.148438 380.574219 340.421875 380.777344 340.671875 C 380.976562 340.917969 381.210938 341.128906 381.484375 341.292969 C 381.753906 341.460938 382.046875 341.582031 382.359375 341.648438 C 386.332031 342.515625 390.03125 344.046875 393.453125 346.246094 C 393.71875 346.417969 394.007812 346.539062 394.320312 346.613281 C 394.628906 346.683594 394.945312 346.703125 395.261719 346.671875 C 395.578125 346.636719 395.878906 346.550781 396.167969 346.414062 C 396.453125 346.273438 396.710938 346.09375 396.9375 345.867188 L 401.699219 341.105469 C 401.9375 340.9375 402.195312 340.816406 402.476562 340.746094 C 402.761719 340.675781 403.046875 340.660156 403.332031 340.699219 C 403.621094 340.738281 403.894531 340.828125 404.148438 340.96875 C 404.402344 341.113281 404.621094 341.296875 404.804688 341.519531 L 408.535156 345.257812 C 408.761719 345.441406 408.945312 345.660156 409.085938 345.914062 C 409.226562 346.167969 409.316406 346.441406 409.355469 346.726562 C 409.394531 347.015625 409.378906 347.300781 409.308594 347.582031 C 409.238281 347.863281 409.117188 348.125 408.949219 348.359375 L 404.1875 353.125 C 403.960938 353.351562 403.78125 353.605469 403.644531 353.894531 C 403.507812 354.179688 403.421875 354.484375 403.386719 354.800781 C 403.351562 355.117188 403.371094 355.429688 403.445312 355.742188 C 403.519531 356.050781 403.640625 356.339844 403.8125 356.609375 C 406.007812 360.03125 407.542969 363.730469 408.410156 367.703125 C 408.476562 368.011719 408.597656 368.304688 408.765625 368.578125 C 408.933594 368.847656 409.140625 369.082031 409.386719 369.28125 C 409.636719 369.484375 409.910156 369.636719 410.210938 369.742188 C 410.511719 369.847656 410.824219 369.902344 411.140625 369.902344 L 417.871094 369.902344 C 418.15625 369.949219 418.425781 370.046875 418.675781 370.195312 C 418.921875 370.347656 419.136719 370.535156 419.3125 370.769531 C 419.488281 371 419.617188 371.253906 419.695312 371.535156 C 419.773438 371.8125 419.800781 372.097656 419.769531 372.386719 L 419.769531 377.664062 C 419.800781 377.957031 419.773438 378.238281 419.695312 378.519531 C 419.617188 378.800781 419.488281 379.054688 419.3125 379.285156 C 419.136719 379.519531 418.921875 379.707031 418.675781 379.859375 C 418.425781 380.007812 418.15625 380.105469 417.871094 380.15625 L 411.140625 380.15625 C 410.824219 380.15625 410.511719 380.207031 410.210938 380.3125 C 409.910156 380.421875 409.636719 380.574219 409.390625 380.773438 C 409.140625 380.972656 408.933594 381.207031 408.765625 381.480469 C 408.597656 381.75 408.476562 382.042969 408.410156 382.351562 C 407.539062 386.328125 406.007812 390.027344 403.808594 393.453125 C 403.636719 393.722656 403.515625 394.011719 403.445312 394.320312 C 403.371094 394.632812 403.351562 394.945312 403.386719 395.261719 C 403.421875 395.578125 403.507812 395.878906 403.644531 396.167969 C 403.78125 396.453125 403.964844 396.710938 404.1875 396.9375 L 408.949219 401.695312 C 409.117188 401.933594 409.238281 402.191406 409.308594 402.472656 C 409.378906 402.757812 409.394531 403.042969 409.355469 403.328125 C 409.316406 403.617188 409.226562 403.890625 409.085938 404.144531 C 408.945312 404.398438 408.761719 404.617188 408.535156 404.800781 Z M 408.535156 404.800781 " fill-opacity="1" fill-rule="nonzero"/><path fill="#00b696" d="M 375.027344 354.054688 C 374.339844 354.054688 373.652344 354.089844 372.96875 354.15625 C 372.285156 354.222656 371.609375 354.324219 370.933594 354.457031 C 370.261719 354.589844 369.59375 354.757812 368.9375 354.957031 C 368.28125 355.15625 367.636719 355.386719 367 355.652344 C 366.367188 355.914062 365.746094 356.207031 365.140625 356.53125 C 364.535156 356.855469 363.945312 357.207031 363.375 357.589844 C 362.804688 357.972656 362.253906 358.378906 361.722656 358.816406 C 361.191406 359.25 360.683594 359.710938 360.195312 360.199219 C 359.710938 360.683594 359.25 361.191406 358.816406 361.722656 C 358.378906 362.253906 357.96875 362.804688 357.589844 363.375 C 357.207031 363.945312 356.855469 364.535156 356.53125 365.140625 C 356.207031 365.746094 355.914062 366.367188 355.652344 367 C 355.386719 367.636719 355.15625 368.28125 354.957031 368.941406 C 354.757812 369.597656 354.589844 370.261719 354.457031 370.9375 C 354.324219 371.609375 354.222656 372.289062 354.15625 372.972656 C 354.089844 373.65625 354.054688 374.339844 354.054688 375.027344 C 354.054688 375.714844 354.089844 376.398438 354.15625 377.082031 C 354.222656 377.765625 354.324219 378.445312 354.457031 379.121094 C 354.589844 379.792969 354.757812 380.457031 354.957031 381.117188 C 355.15625 381.773438 355.386719 382.417969 355.652344 383.054688 C 355.914062 383.6875 356.207031 384.308594 356.53125 384.914062 C 356.855469 385.519531 357.207031 386.109375 357.589844 386.679688 C 357.972656 387.25 358.378906 387.800781 358.816406 388.332031 C 359.25 388.863281 359.710938 389.371094 360.199219 389.859375 C 360.683594 390.34375 361.191406 390.804688 361.722656 391.238281 C 362.253906 391.675781 362.804688 392.085938 363.375 392.464844 C 363.945312 392.847656 364.535156 393.199219 365.140625 393.523438 C 365.746094 393.847656 366.367188 394.140625 367 394.402344 C 367.636719 394.667969 368.28125 394.898438 368.9375 395.097656 C 369.597656 395.296875 370.261719 395.464844 370.9375 395.597656 C 371.609375 395.730469 372.289062 395.832031 372.972656 395.898438 C 373.65625 395.96875 374.339844 396 375.027344 396 C 375.714844 396 376.398438 395.96875 377.082031 395.898438 C 377.765625 395.832031 378.445312 395.730469 379.121094 395.597656 C 379.792969 395.464844 380.457031 395.296875 381.117188 395.097656 C 381.773438 394.898438 382.417969 394.667969 383.054688 394.402344 C 383.6875 394.140625 384.308594 393.847656 384.914062 393.523438 C 385.519531 393.199219 386.109375 392.847656 386.679688 392.464844 C 387.25 392.085938 387.800781 391.675781 388.332031 391.238281 C 388.863281 390.804688 389.371094 390.34375 389.859375 389.859375 C 390.34375 389.371094 390.804688 388.863281 391.238281 388.332031 C 391.675781 387.800781 392.085938 387.25 392.464844 386.679688 C 392.847656 386.109375 393.199219 385.519531 393.523438 384.914062 C 393.847656 384.308594 394.140625 383.6875 394.402344 383.054688 C 394.667969 382.417969 394.898438 381.773438 395.097656 381.117188 C 395.296875 380.457031 395.464844 379.792969 395.597656 379.121094 C 395.730469 378.445312 395.832031 377.765625 395.898438 377.082031 C 395.96875 376.398438 396 375.714844 396 375.027344 C 396 374.339844 395.96875 373.65625 395.898438 372.972656 C 395.832031 372.289062 395.730469 371.609375 395.597656 370.9375 C 395.464844 370.261719 395.296875 369.597656 395.097656 368.9375 C 394.898438 368.28125 394.667969 367.636719 394.40625 367 C 394.140625 366.367188 393.847656 365.746094 393.523438 365.140625 C 393.199219 364.535156 392.847656 363.945312 392.464844 363.375 C 392.085938 362.804688 391.675781 362.253906 391.242188 361.722656 C 390.804688 361.191406 390.34375 360.683594 389.859375 360.195312 C 389.371094 359.710938 388.863281 359.25 388.332031 358.8125 C 387.800781 358.378906 387.25 357.96875 386.679688 357.585938 C 386.109375 357.207031 385.519531 356.851562 384.914062 356.53125 C 384.308594 356.207031 383.6875 355.914062 383.054688 355.648438 C 382.417969 355.386719 381.773438 355.15625 381.113281 354.957031 C 380.457031 354.757812 379.792969 354.589844 379.117188 354.457031 C 378.445312 354.324219 377.765625 354.222656 377.082031 354.15625 C 376.398438 354.089844 375.710938 354.054688 375.027344 354.054688 Z M 375.027344 390.40625 C 374.015625 390.40625 373.015625 390.308594 372.027344 390.113281 C 371.035156 389.914062 370.074219 389.625 369.140625 389.238281 C 368.207031 388.851562 367.320312 388.378906 366.480469 387.816406 C 365.640625 387.253906 364.867188 386.617188 364.152344 385.902344 C 363.4375 385.1875 362.800781 384.414062 362.238281 383.574219 C 361.679688 382.734375 361.203125 381.847656 360.816406 380.914062 C 360.429688 379.980469 360.140625 379.019531 359.941406 378.027344 C 359.746094 377.039062 359.648438 376.039062 359.648438 375.027344 C 359.648438 374.019531 359.746094 373.019531 359.941406 372.027344 C 360.140625 371.035156 360.433594 370.074219 360.816406 369.140625 C 361.203125 368.207031 361.679688 367.324219 362.238281 366.484375 C 362.800781 365.644531 363.4375 364.867188 364.152344 364.152344 C 364.867188 363.4375 365.644531 362.800781 366.484375 362.238281 C 367.324219 361.679688 368.207031 361.203125 369.140625 360.816406 C 370.074219 360.433594 371.035156 360.140625 372.027344 359.941406 C 373.015625 359.746094 374.019531 359.648438 375.027344 359.648438 C 376.039062 359.648438 377.039062 359.746094 378.027344 359.941406 C 379.019531 360.140625 379.980469 360.433594 380.914062 360.816406 C 381.847656 361.203125 382.734375 361.679688 383.574219 362.238281 C 384.414062 362.800781 385.1875 363.4375 385.902344 364.152344 C 386.617188 364.867188 387.253906 365.644531 387.816406 366.484375 C 388.375 367.324219 388.851562 368.207031 389.238281 369.140625 C 389.625 370.074219 389.914062 371.035156 390.113281 372.027344 C 390.308594 373.019531 390.40625 374.019531 390.40625 375.027344 C 390.40625 376.039062 390.308594 377.039062 390.109375 378.027344 C 389.910156 379.015625 389.621094 379.980469 389.234375 380.910156 C 388.84375 381.84375 388.371094 382.730469 387.808594 383.570312 C 387.25 384.410156 386.613281 385.183594 385.898438 385.898438 C 385.183594 386.613281 384.40625 387.25 383.566406 387.8125 C 382.726562 388.371094 381.84375 388.847656 380.910156 389.234375 C 379.976562 389.621094 379.015625 389.914062 378.027344 390.109375 C 377.035156 390.308594 376.035156 390.40625 375.027344 390.40625 Z M 375.027344 390.40625 " fill-opacity="1" fill-rule="nonzero"/><g clip-path="url(#8f81885231)"><path fill="#00b696" d="M 365.230469 305.433594 L 372.230469 309.519531 L 372.230469 319.105469 C 372.285156 319.105469 372.339844 319.097656 372.390625 319.097656 L 377.667969 319.097656 C 377.71875 319.097656 377.769531 319.105469 377.824219 319.105469 L 377.824219 309.519531 L 384.824219 305.433594 C 385.253906 305.183594 385.59375 304.84375 385.839844 304.414062 C 386.089844 303.980469 386.214844 303.515625 386.214844 303.019531 L 386.214844 293.234375 C 386.214844 292.734375 386.089844 292.269531 385.839844 291.839844 C 385.59375 291.410156 385.253906 291.066406 384.824219 290.816406 L 376.4375 285.921875 C 376 285.667969 375.53125 285.542969 375.027344 285.542969 C 374.523438 285.542969 374.054688 285.667969 373.617188 285.921875 L 365.230469 290.816406 C 364.800781 291.066406 364.460938 291.410156 364.214844 291.839844 C 363.964844 292.269531 363.84375 292.734375 363.84375 293.234375 L 363.84375 303.019531 C 363.84375 303.515625 363.964844 303.980469 364.214844 304.414062 C 364.460938 304.84375 364.800781 305.183594 365.230469 305.433594 Z M 369.433594 294.839844 L 375.027344 291.578125 L 380.621094 294.839844 L 380.621094 301.414062 L 375.027344 304.675781 L 369.433594 301.414062 Z M 369.433594 294.839844 " fill-opacity="1" fill-rule="nonzero"/></g><g clip-path="url(#11b5b679e1)"><path fill="#00b696" d="M 384.824219 444.621094 L 377.824219 440.535156 L 377.824219 430.949219 C 377.769531 430.949219 377.71875 430.957031 377.667969 430.957031 L 372.390625 430.957031 C 372.339844 430.957031 372.285156 430.949219 372.230469 430.949219 L 372.230469 440.535156 L 365.230469 444.621094 C 364.800781 444.871094 364.460938 445.210938 364.214844 445.644531 C 363.964844 446.074219 363.84375 446.539062 363.84375 447.035156 L 363.84375 456.824219 C 363.84375 457.320312 363.964844 457.785156 364.214844 458.214844 C 364.460938 458.648438 364.800781 458.988281 365.230469 459.238281 L 373.617188 464.132812 C 374.054688 464.386719 374.523438 464.511719 375.027344 464.511719 C 375.53125 464.511719 376 464.386719 376.4375 464.132812 L 384.824219 459.238281 C 385.253906 458.988281 385.59375 458.648438 385.839844 458.214844 C 386.089844 457.785156 386.214844 457.320312 386.214844 456.824219 L 386.214844 447.035156 C 386.214844 446.539062 386.089844 446.074219 385.839844 445.644531 C 385.59375 445.210938 385.253906 444.871094 384.824219 444.621094 Z M 380.621094 455.21875 L 375.027344 458.480469 L 369.433594 455.21875 L 369.433594 448.640625 L 375.027344 445.378906 L 380.621094 448.640625 Z M 380.621094 455.21875 " fill-opacity="1" fill-rule="nonzero"/></g><g clip-path="url(#330166c575)"><path fill="#00b696" d="M 463.125 367.71875 L 454.734375 362.824219 C 454.300781 362.570312 453.832031 362.445312 453.328125 362.445312 C 452.824219 362.445312 452.351562 362.570312 451.917969 362.824219 L 443.527344 367.71875 C 443.097656 367.96875 442.761719 368.308594 442.511719 368.742188 C 442.265625 369.171875 442.140625 369.636719 442.140625 370.132812 L 442.140625 372.230469 L 430.949219 372.230469 C 430.949219 372.285156 430.957031 372.335938 430.957031 372.386719 L 430.957031 377.664062 C 430.957031 377.71875 430.949219 377.769531 430.949219 377.824219 L 442.140625 377.824219 L 442.140625 379.921875 C 442.140625 380.417969 442.265625 380.882812 442.511719 381.3125 C 442.761719 381.746094 443.097656 382.085938 443.527344 382.335938 L 451.917969 387.230469 C 452.351562 387.484375 452.824219 387.613281 453.328125 387.613281 C 453.832031 387.613281 454.300781 387.484375 454.734375 387.230469 L 463.125 382.335938 C 463.554688 382.085938 463.894531 381.746094 464.140625 381.3125 C 464.390625 380.882812 464.511719 380.417969 464.511719 379.921875 L 464.511719 370.132812 C 464.511719 369.636719 464.390625 369.171875 464.140625 368.742188 C 463.894531 368.308594 463.554688 367.96875 463.125 367.71875 Z M 458.921875 378.316406 L 453.328125 381.578125 L 447.734375 378.316406 L 447.734375 371.742188 L 453.328125 368.476562 L 458.921875 371.742188 Z M 458.921875 378.316406 " fill-opacity="1" fill-rule="nonzero"/></g><path fill="#00b696" d="M 433.851562 418.035156 C 433.5 417.683594 433.085938 417.445312 432.605469 417.3125 C 432.125 417.183594 431.644531 417.183594 431.164062 417.308594 L 423.324219 419.371094 L 416.550781 412.597656 C 416.515625 412.628906 416.488281 412.667969 416.457031 412.699219 L 412.714844 416.441406 C 412.675781 416.480469 412.632812 416.511719 412.597656 416.550781 L 419.371094 423.324219 L 417.308594 431.164062 C 417.183594 431.644531 417.183594 432.125 417.3125 432.605469 C 417.445312 433.085938 417.683594 433.5 418.035156 433.851562 L 424.957031 440.773438 C 425.308594 441.125 425.722656 441.367188 426.203125 441.496094 C 426.683594 441.625 427.164062 441.628906 427.644531 441.503906 L 437.039062 439.03125 C 437.523438 438.902344 437.945312 438.660156 438.304688 438.304688 C 438.660156 437.945312 438.902344 437.523438 439.03125 437.039062 L 441.503906 427.644531 C 441.628906 427.164062 441.625 426.683594 441.496094 426.203125 C 441.367188 425.722656 441.125 425.308594 440.773438 424.957031 Z M 434.035156 434.035156 L 427.777344 435.683594 L 423.125 431.035156 L 424.773438 424.773438 L 431.035156 423.125 L 435.683594 427.777344 Z M 434.035156 434.035156 " fill-opacity="1" fill-rule="nonzero"/><path fill="#00b696" d="M 316.203125 332.019531 C 316.554688 332.371094 316.96875 332.613281 317.449219 332.742188 C 317.929688 332.871094 318.410156 332.875 318.890625 332.746094 L 326.730469 330.683594 L 333.511719 337.464844 C 333.550781 337.425781 333.585938 337.378906 333.625 337.339844 L 337.339844 333.617188 C 337.378906 333.578125 337.421875 333.546875 337.460938 333.507812 L 330.683594 326.730469 L 332.746094 318.890625 C 332.875 318.410156 332.871094 317.929688 332.742188 317.449219 C 332.613281 316.96875 332.371094 316.554688 332.019531 316.203125 L 325.097656 309.28125 C 324.746094 308.929688 324.332031 308.6875 323.851562 308.558594 C 323.371094 308.429688 322.890625 308.425781 322.410156 308.554688 L 313.019531 311.023438 C 312.53125 311.152344 312.109375 311.394531 311.75 311.753906 C 311.394531 312.109375 311.152344 312.53125 311.023438 313.019531 L 308.554688 322.410156 C 308.425781 322.890625 308.429688 323.371094 308.558594 323.851562 C 308.6875 324.332031 308.929688 324.746094 309.28125 325.097656 Z M 316.019531 316.019531 L 322.28125 314.371094 L 326.929688 319.019531 L 325.28125 325.28125 L 319.019531 326.929688 L 314.371094 322.28125 Z M 316.019531 316.019531 " fill-opacity="1" fill-rule="nonzero"/><g clip-path="url(#260bccb3d2)"><g clip-path="url(#9007b7b0e5)"><g clip-path="url(#9f1c78aa73)"><path fill="#0d68b1" d="M 256.007812 139.714844 C 256.007812 139.714844 256.027344 146.351562 249.199219 146.953125 C 242.367188 147.554688 241.097656 141.777344 240.828125 138.800781 C 239.863281 129.761719 236.09375 95.714844 236.09375 95.714844 C 236.09375 95.714844 236.273438 88.023438 244.90625 87.582031 C 254.074219 87.066406 255.28125 93.882812 255.566406 97.472656 C 256.386719 107.96875 256.007812 139.714844 256.007812 139.714844 Z M 256.007812 139.714844 " fill-opacity="1" fill-rule="nonzero"/></g></g></g><g clip-path="url(#82d3926c33)"><g clip-path="url(#1c2c6c2390)"><g clip-path="url(#964afc2d68)"><path fill="#0d68b1" d="M 172.488281 161.050781 C 172.488281 161.050781 176.8125 166.136719 171.953125 170.640625 C 167.191406 175.339844 162.457031 171.75 160.398438 169.707031 C 153.875 163.558594 131.800781 137.792969 131.800781 137.792969 C 131.800781 137.792969 125.1875 130.96875 134.121094 124.738281 C 141.167969 119.726562 146 126.519531 146 126.519531 Z M 172.488281 161.050781 " fill-opacity="1" fill-rule="nonzero"/></g></g></g><g clip-path="url(#e2bac2df76)"><g clip-path="url(#a2e22f2bab)"><g clip-path="url(#3ab12beab4)"><path fill="#0d68b1" d="M 91.289062 218.347656 C 91.289062 218.347656 97.703125 220.199219 96.128906 226.714844 C 94.558594 233.230469 88.808594 232.726562 85.933594 232.234375 C 77.144531 230.503906 44.621094 220.902344 44.621094 220.902344 C 44.621094 220.902344 35.371094 218.824219 39.457031 208.675781 C 42.804688 200.617188 50.417969 203.738281 50.417969 203.738281 Z M 91.289062 218.347656 " fill-opacity="1" fill-rule="nonzero"/></g></g></g><g clip-path="url(#91cb66b1cd)"><g clip-path="url(#671874f313)"><g clip-path="url(#650adc56d7)"><path fill="#0d68b1" d="M 55.5625 271.34375 C 55.5625 271.34375 61.769531 272.195312 63.453125 266.007812 C 65.667969 258.171875 56.511719 256.769531 56.511719 256.769531 C 56.511719 256.769531 43.578125 251.300781 39.75 259.839844 C 34.214844 272.378906 55.5625 271.34375 55.5625 271.34375 Z M 55.5625 271.34375 " fill-opacity="1" fill-rule="nonzero"/></g></g></g><g clip-path="url(#5e943b100f)"><g clip-path="url(#d6ea1c814c)"><g clip-path="url(#abe8912b9e)"><path fill="#0d68b1" d="M 125.78125 173.328125 C 123.644531 171.707031 120.339844 169.5625 125.730469 162.453125 C 130.195312 156.5625 135.640625 159.851562 138.085938 161.703125 C 143.390625 165.964844 152.25 172.679688 158.421875 179.769531 C 163.125 185.140625 155.210938 194.3125 148.867188 189.988281 C 144.035156 186.6875 132.425781 178.367188 125.78125 173.328125 Z M 125.78125 173.328125 " fill-opacity="1" fill-rule="nonzero"/></g></g></g><g clip-path="url(#a0bb6b83c6)"><g clip-path="url(#4025d8290d)"><g clip-path="url(#3d67d01d53)"><path fill="#00b696" d="M 594.949219 683.476562 C 590.917969 682.046875 593.007812 675.738281 597.0625 677.179688 C 613.480469 683.007812 635.117188 681.523438 643.804688 664.914062 C 641.707031 664.988281 639.609375 664.875 637.53125 664.574219 C 629.402344 663.308594 621.484375 658.078125 619.527344 649.710938 C 617.796875 642.300781 621.0625 634.207031 628.453125 631.441406 C 636.617188 628.359375 645.25 632.6875 649.707031 639.726562 C 652.828125 644.84375 654.097656 650.875 653.300781 656.8125 C 666.554688 652.542969 678.699219 640.792969 685.394531 630.476562 C 693.230469 618.519531 699.011719 600.625 696.296875 586.296875 C 695.5 582.105469 701.9375 580.671875 702.800781 584.882812 C 706.070312 601.261719 699.648438 621.367188 690.414062 634.992188 C 681.863281 647.601562 667.394531 660.410156 651.507812 663.992188 L 651.367188 664.394531 C 642.308594 687.074219 615.757812 690.871094 594.949219 683.476562 Z M 635 637.0625 C 628.445312 636.496094 624.542969 642.257812 626.046875 648.242188 C 627.316406 653.328125 632.050781 656.46875 636.894531 657.664062 C 639.9375 658.394531 643.082031 658.601562 646.191406 658.273438 C 647.925781 649.65625 645.136719 637.945312 635 637.0625 Z M 635 637.0625 " fill-opacity="1" fill-rule="nonzero"/></g></g></g></svg>