<svg xmlns="http://www.w3.org/2000/svg" xmlns:xlink="http://www.w3.org/1999/xlink" width="1000" zoomAndPan="magnify" viewBox="0 0 750 749.999995" height="1000" preserveAspectRatio="xMidYMid meet" version="1.0"><defs><clipPath id="0b8216dd29"><path d="M 160 171.800781 L 590 171.800781 L 590 483 L 160 483 Z M 160 171.800781 " clip-rule="nonzero"/></clipPath><clipPath id="1746173158"><path d="M 276 543 L 474 543 L 474 578.300781 L 276 578.300781 Z M 276 543 " clip-rule="nonzero"/></clipPath><clipPath id="0bd97aa255"><path d="M 455.191406 113.058594 L 642.960938 113.058594 L 642.960938 300.828125 L 455.191406 300.828125 Z M 455.191406 113.058594 " clip-rule="nonzero"/></clipPath><clipPath id="70d9346107"><path d="M 549.074219 113.058594 C 497.222656 113.058594 455.191406 155.089844 455.191406 206.941406 C 455.191406 258.792969 497.222656 300.828125 549.074219 300.828125 C 600.925781 300.828125 642.960938 258.792969 642.960938 206.941406 C 642.960938 155.089844 600.925781 113.058594 549.074219 113.058594 " clip-rule="nonzero"/></clipPath><clipPath id="da6cb9610a"><path d="M 469.734375 130.558594 L 628.417969 130.558594 L 628.417969 289.242188 L 469.734375 289.242188 Z M 469.734375 130.558594 " clip-rule="nonzero"/></clipPath><clipPath id="a4186227cd"><path d="M 549.074219 130.558594 C 505.253906 130.558594 469.734375 166.078125 469.734375 209.898438 C 469.734375 253.71875 505.253906 289.242188 549.074219 289.242188 C 592.894531 289.242188 628.417969 253.71875 628.417969 209.898438 C 628.417969 166.078125 592.894531 130.558594 549.074219 130.558594 " clip-rule="nonzero"/></clipPath><clipPath id="f928bf0ca9"><path d="M 532 160 L 559 160 L 559 262 L 532 262 Z M 532 160 " clip-rule="nonzero"/></clipPath><clipPath id="89223601d5"><path d="M 517.304688 167.691406 L 558.179688 158.035156 L 580.765625 253.652344 L 539.890625 263.308594 Z M 517.304688 167.691406 " clip-rule="nonzero"/></clipPath><clipPath id="e2bf22b393"><path d="M 517.304688 167.691406 L 558.179688 158.035156 L 580.765625 253.652344 L 539.890625 263.308594 Z M 517.304688 167.691406 " clip-rule="nonzero"/></clipPath><clipPath id="ca9b59bb1c"><path d="M 216 64 L 231 64 L 231 108 L 216 108 Z M 216 64 " clip-rule="nonzero"/></clipPath><clipPath id="874c09acf6"><path d="M 171.796875 20.53125 L 250.6875 80.34375 L 129.253906 240.515625 L 50.363281 180.703125 Z M 171.796875 20.53125 " clip-rule="nonzero"/></clipPath><clipPath id="d0655ab7b2"><path d="M 171.796875 20.53125 L 250.6875 80.34375 L 129.253906 240.515625 L 50.363281 180.703125 Z M 171.796875 20.53125 " clip-rule="nonzero"/></clipPath><clipPath id="f1b422e632"><path d="M 139 89 L 172 89 L 172 126 L 139 126 Z M 139 89 " clip-rule="nonzero"/></clipPath><clipPath id="4acbfc2c3d"><path d="M 171.796875 20.53125 L 250.6875 80.34375 L 129.253906 240.515625 L 50.363281 180.703125 Z M 171.796875 20.53125 " clip-rule="nonzero"/></clipPath><clipPath id="b5788064fd"><path d="M 171.796875 20.53125 L 250.6875 80.34375 L 129.253906 240.515625 L 50.363281 180.703125 Z M 171.796875 20.53125 " clip-rule="nonzero"/></clipPath><clipPath id="f84f858bfb"><path d="M 74 146 L 117 146 L 117 169 L 74 169 Z M 74 146 " clip-rule="nonzero"/></clipPath><clipPath id="b07b58db2b"><path d="M 171.796875 20.53125 L 250.6875 80.34375 L 129.253906 240.515625 L 50.363281 180.703125 Z M 171.796875 20.53125 " clip-rule="nonzero"/></clipPath><clipPath id="17803abd93"><path d="M 171.796875 20.53125 L 250.6875 80.34375 L 129.253906 240.515625 L 50.363281 180.703125 Z M 171.796875 20.53125 " clip-rule="nonzero"/></clipPath><clipPath id="e1df4a3a5c"><path d="M 74 184 L 93 184 L 93 196 L 74 196 Z M 74 184 " clip-rule="nonzero"/></clipPath><clipPath id="0b7aec7163"><path d="M 171.796875 20.53125 L 250.6875 80.34375 L 129.253906 240.515625 L 50.363281 180.703125 Z M 171.796875 20.53125 " clip-rule="nonzero"/></clipPath><clipPath id="94a8fa95ec"><path d="M 171.796875 20.53125 L 250.6875 80.34375 L 129.253906 240.515625 L 50.363281 180.703125 Z M 171.796875 20.53125 " clip-rule="nonzero"/></clipPath><clipPath id="3c634d54d3"><path d="M 134 115 L 162 115 L 162 139 L 134 139 Z M 134 115 " clip-rule="nonzero"/></clipPath><clipPath id="6218065c45"><path d="M 171.796875 20.53125 L 250.6875 80.34375 L 129.253906 240.515625 L 50.363281 180.703125 Z M 171.796875 20.53125 " clip-rule="nonzero"/></clipPath><clipPath id="2c4a16ce47"><path d="M 171.796875 20.53125 L 250.6875 80.34375 L 129.253906 240.515625 L 50.363281 180.703125 Z M 171.796875 20.53125 " clip-rule="nonzero"/></clipPath><clipPath id="31a48f4e21"><path d="M 585 422 L 676 422 L 676 560 L 585 560 Z M 585 422 " clip-rule="nonzero"/></clipPath><clipPath id="e613fd5a5d"><path d="M 703.589844 530.597656 L 586.328125 565.15625 L 553.039062 452.210938 L 670.300781 417.652344 Z M 703.589844 530.597656 " clip-rule="nonzero"/></clipPath><clipPath id="c33c00d584"><path d="M 553.234375 452.128906 L 670.496094 417.570312 L 703.785156 530.515625 L 586.523438 565.074219 Z M 553.234375 452.128906 " clip-rule="nonzero"/></clipPath></defs><path fill="#0d68b1" d="M 244.058594 429.691406 C 236.769531 429.691406 239.03125 418.890625 239.03125 408.589844 C 239.03125 401.554688 244.5625 396.027344 251.597656 396.027344 L 271.199219 396.027344 C 273.710938 387.484375 276.980469 379.195312 281.503906 371.40625 L 267.429688 357.335938 C 262.65625 352.5625 262.65625 344.523438 267.429688 339.75 L 290.046875 317.140625 C 294.824219 312.363281 303.117188 312.363281 307.890625 317.140625 L 321.964844 330.957031 C 329.753906 326.433594 337.796875 323.167969 346.59375 320.90625 L 346.59375 301.058594 C 346.59375 294.023438 352.121094 288.496094 359.15625 288.496094 L 391.074219 288.496094 C 398.109375 288.496094 403.640625 294.023438 403.640625 301.058594 L 403.640625 320.90625 C 412.183594 323.167969 420.476562 326.6875 428.269531 330.957031 L 442.089844 317.140625 C 446.863281 312.363281 455.15625 312.363281 459.933594 317.140625 L 482.550781 339.75 C 487.578125 344.523438 487.578125 352.5625 482.550781 357.335938 L 468.726562 371.40625 C 473 379.195312 476.519531 387.484375 478.78125 396.027344 L 498.632812 396.027344 C 505.671875 396.027344 511.199219 401.554688 511.199219 408.589844 C 511.199219 418.640625 513.210938 429.691406 506.171875 429.691406 C 495.367188 429.691406 505.671875 406.078125 498.632812 406.078125 C 454.90625 406.078125 480.792969 410.097656 458.171875 373.164062 C 456.917969 371.15625 457.167969 368.640625 458.675781 367.136719 C 461.1875 364.621094 476.269531 350.804688 476.269531 348.542969 C 476.269531 346.28125 455.910156 327.1875 452.894531 324.171875 C 451.890625 323.167969 450.382812 323.167969 449.378906 324.171875 C 417.460938 355.074219 440.332031 339.75 397.355469 329.699219 C 395.09375 329.199219 393.585938 327.1875 393.585938 324.675781 L 393.585938 301.058594 C 393.585938 299.804688 392.332031 298.546875 391.074219 298.546875 L 359.15625 298.546875 C 357.648438 298.546875 356.394531 299.804688 356.394531 301.058594 C 356.394531 344.773438 360.664062 318.898438 323.722656 341.507812 C 321.710938 342.765625 319.199219 342.515625 317.441406 341.007812 C 314.925781 338.492188 301.105469 323.417969 298.84375 323.417969 C 296.832031 323.417969 277.484375 343.769531 274.464844 346.785156 C 273.710938 347.789062 273.710938 349.296875 274.71875 350.300781 C 305.628906 381.457031 289.796875 360.351562 279.996094 402.058594 C 279.492188 404.316406 277.484375 406.078125 275.21875 406.078125 L 251.597656 406.078125 C 244.308594 406.078125 254.613281 429.691406 244.058594 429.691406 Z M 244.058594 429.691406 " fill-opacity="1" fill-rule="evenodd"/><path fill="#0d68b1" d="M 444.601562 429.691406 C 441.839844 429.691406 439.578125 427.179688 439.578125 424.667969 C 439.578125 388.992188 410.675781 359.847656 374.992188 359.847656 C 339.554688 359.847656 310.402344 388.992188 310.402344 424.667969 C 310.402344 431.199219 300.351562 431.199219 300.351562 424.667969 C 300.351562 383.464844 333.777344 349.800781 374.992188 349.800781 C 416.203125 349.800781 449.628906 383.464844 449.628906 424.667969 C 449.628906 427.179688 447.367188 429.691406 444.601562 429.691406 Z M 444.601562 429.691406 " fill-opacity="1" fill-rule="evenodd"/><g clip-path="url(#0b8216dd29)"><path fill="#0d68b1" d="M 559.199219 482.203125 L 191.03125 482.203125 C 174.195312 482.203125 160.625 468.636719 160.625 451.800781 L 160.625 202.574219 C 160.625 185.742188 174.445312 171.921875 191.285156 171.921875 L 558.949219 171.921875 C 575.785156 171.921875 589.355469 185.742188 589.355469 202.574219 L 589.355469 451.800781 C 589.355469 468.636719 575.785156 482.203125 559.199219 482.203125 Z M 191.285156 181.972656 C 179.972656 181.972656 170.675781 191.269531 170.675781 202.574219 L 170.675781 451.800781 C 170.675781 463.109375 179.722656 472.152344 191.03125 472.152344 L 559.199219 472.152344 C 570.257812 472.152344 579.304688 463.109375 579.304688 451.800781 L 579.304688 202.574219 C 579.304688 191.269531 570.257812 181.972656 558.695312 181.972656 Z M 191.285156 181.972656 " fill-opacity="1" fill-rule="evenodd"/></g><path fill="#0d68b1" d="M 468.226562 553.554688 C 467.472656 553.554688 466.71875 553.300781 465.964844 553.050781 C 439.578125 540.488281 419.972656 509.335938 418.71875 477.429688 C 418.464844 470.894531 428.519531 470.140625 428.769531 476.925781 C 430.027344 505.066406 447.367188 533.203125 470.488281 544.007812 C 475.261719 546.265625 473.503906 553.554688 468.226562 553.554688 Z M 468.226562 553.554688 " fill-opacity="1" fill-rule="evenodd"/><path fill="#0d68b1" d="M 282.007812 553.554688 C 276.726562 553.554688 274.96875 546.265625 279.746094 544.007812 C 307.136719 531.191406 319.449219 500.792969 321.710938 476.675781 C 322.464844 470.140625 332.519531 470.894531 331.765625 477.679688 C 329 504.3125 315.179688 538.480469 284.015625 553.050781 C 283.515625 553.300781 282.761719 553.554688 282.007812 553.554688 Z M 282.007812 553.554688 " fill-opacity="1" fill-rule="evenodd"/><g clip-path="url(#1746173158)"><path fill="#0d68b1" d="M 468.226562 578.175781 L 282.007812 578.175781 C 279.242188 578.175781 276.980469 575.914062 276.980469 573.148438 L 276.980469 548.527344 C 276.980469 545.765625 279.242188 543.503906 282.007812 543.503906 L 468.226562 543.503906 C 470.992188 543.503906 473.253906 545.765625 473.253906 548.527344 L 473.253906 573.148438 C 473.253906 575.914062 470.992188 578.175781 468.226562 578.175781 Z M 287.03125 568.125 L 463.199219 568.125 L 463.199219 553.554688 L 287.03125 553.554688 Z M 287.03125 568.125 " fill-opacity="1" fill-rule="evenodd"/></g><path fill="#0d68b1" d="M 427.765625 504.5625 L 322.214844 504.5625 C 315.429688 504.5625 315.429688 494.511719 322.214844 494.511719 L 427.765625 494.511719 C 434.550781 494.511719 434.550781 504.5625 427.765625 504.5625 Z M 427.765625 504.5625 " fill-opacity="1" fill-rule="evenodd"/><path fill="#0d68b1" d="M 440.078125 528.933594 L 310.152344 528.933594 C 303.617188 528.933594 303.617188 518.882812 310.152344 518.882812 L 440.078125 518.882812 C 446.613281 518.882812 446.613281 528.933594 440.078125 528.933594 Z M 440.078125 528.933594 " fill-opacity="1" fill-rule="evenodd"/><path fill="#0d68b1" d="M 584.332031 429.691406 L 165.648438 429.691406 C 159.117188 429.691406 159.117188 419.644531 165.648438 419.644531 L 584.332031 419.644531 C 591.117188 419.644531 591.117188 429.691406 584.332031 429.691406 Z M 584.332031 429.691406 " fill-opacity="1" fill-rule="evenodd"/><path fill="#0d68b1" d="M 267.429688 455.820312 L 245.0625 455.820312 C 238.53125 455.820312 238.53125 445.773438 245.0625 445.773438 L 267.429688 445.773438 C 273.964844 445.773438 273.964844 455.820312 267.429688 455.820312 Z M 267.429688 455.820312 " fill-opacity="1" fill-rule="evenodd"/><path fill="#0d68b1" d="M 217.921875 455.820312 L 195.808594 455.820312 C 189.023438 455.820312 189.023438 445.773438 195.808594 445.773438 L 217.921875 445.773438 C 224.707031 445.773438 224.707031 455.820312 217.921875 455.820312 Z M 217.921875 455.820312 " fill-opacity="1" fill-rule="evenodd"/><path fill="#0d68b1" d="M 560.957031 455.820312 L 538.84375 455.820312 C 532.058594 455.820312 532.058594 445.773438 538.84375 445.773438 L 560.957031 445.773438 C 567.746094 445.773438 567.746094 455.820312 560.957031 455.820312 Z M 560.957031 455.820312 " fill-opacity="1" fill-rule="evenodd"/><path fill="#0d68b1" d="M 511.703125 455.820312 L 489.335938 455.820312 C 482.800781 455.820312 482.800781 445.773438 489.335938 445.773438 L 511.703125 445.773438 C 518.238281 445.773438 518.238281 455.820312 511.703125 455.820312 Z M 511.703125 455.820312 " fill-opacity="1" fill-rule="evenodd"/><path fill="#0d68b1" d="M 269.425781 266.558594 L 259.445312 276.535156 L 219.394531 236.480469 L 229.371094 226.503906 L 269.425781 266.558594 " fill-opacity="1" fill-rule="nonzero"/><path fill="#0d68b1" d="M 272.75 269.882812 L 262.773438 279.863281 L 281.222656 288.335938 Z M 272.75 269.882812 " fill-opacity="1" fill-rule="nonzero"/><path fill="#0d68b1" d="M 210.917969 208.050781 L 219.390625 216.523438 L 209.414062 226.503906 L 200.941406 218.03125 L 210.917969 208.050781 " fill-opacity="1" fill-rule="nonzero"/><path fill="#0d68b1" d="M 226.042969 223.175781 L 216.066406 233.15625 L 212.738281 229.828125 L 222.71875 219.851562 L 226.042969 223.175781 " fill-opacity="1" fill-rule="nonzero"/><path fill="#0d68b1" d="M 273.191406 209.433594 C 267.949219 206.9375 261.507812 207.808594 257.171875 212.148438 L 263.824219 218.800781 L 273.191406 209.433594 " fill-opacity="1" fill-rule="nonzero"/><path fill="#0d68b1" d="M 277.128906 232.105469 C 281.46875 227.765625 282.335938 221.328125 279.84375 216.085938 L 270.476562 225.453125 L 277.128906 232.105469 " fill-opacity="1" fill-rule="nonzero"/><path fill="#0d68b1" d="M 202.320312 280.300781 L 211.6875 270.933594 L 205.035156 264.28125 C 200.695312 268.621094 199.828125 275.058594 202.320312 280.300781 " fill-opacity="1" fill-rule="nonzero"/><path fill="#0d68b1" d="M 224.992188 284.238281 L 218.339844 277.585938 L 208.972656 286.953125 C 214.214844 289.445312 220.65625 288.578125 224.992188 284.238281 " fill-opacity="1" fill-rule="nonzero"/><path fill="#0d68b1" d="M 252.722656 243.203125 L 261.085938 234.839844 C 264.90625 236.644531 269.363281 236.640625 273.191406 234.820312 L 254.457031 216.085938 C 252.636719 219.910156 252.628906 224.367188 254.433594 228.1875 L 246.070312 236.550781 L 252.722656 243.203125 " fill-opacity="1" fill-rule="nonzero"/><path fill="#0d68b1" d="M 229.441406 253.183594 L 221.078125 261.546875 C 217.257812 259.742188 212.800781 259.746094 208.972656 261.566406 L 227.710938 280.300781 C 229.527344 276.476562 229.535156 272.019531 227.730469 268.199219 L 236.09375 259.835938 L 229.441406 253.183594 " fill-opacity="1" fill-rule="nonzero"/><g clip-path="url(#0bd97aa255)"><g clip-path="url(#70d9346107)"><path fill="#ffffff" d="M 455.191406 113.058594 L 642.960938 113.058594 L 642.960938 300.828125 L 455.191406 300.828125 Z M 455.191406 113.058594 " fill-opacity="1" fill-rule="nonzero"/></g></g><g clip-path="url(#da6cb9610a)"><g clip-path="url(#a4186227cd)"><path fill="#00b696" d="M 469.734375 130.558594 L 628.417969 130.558594 L 628.417969 289.242188 L 469.734375 289.242188 Z M 469.734375 130.558594 " fill-opacity="1" fill-rule="nonzero"/></g></g><g clip-path="url(#f928bf0ca9)"><g clip-path="url(#89223601d5)"><g clip-path="url(#e2bf22b393)"><path fill="#ffffff" d="M 533.304688 164.390625 C 533.316406 164.429688 533.316406 164.429688 533.316406 164.429688 C 533.273438 164.441406 533.273438 164.441406 533.226562 164.410156 C 533.175781 164.378906 533.074219 164.488281 532.902344 164.652344 C 532.738281 164.859375 532.617188 165.058594 532.59375 165.316406 C 532.5625 165.535156 532.527344 165.753906 532.40625 165.953125 C 532.324219 166.140625 532.347656 166.429688 532.453125 166.867188 C 532.558594 167.304688 532.613281 167.546875 532.601562 167.675781 C 532.550781 167.8125 532.597656 168.011719 532.644531 168.210938 C 532.742188 168.441406 532.746094 168.652344 532.746094 168.820312 C 532.742188 168.988281 532.691406 169.128906 532.640625 169.265625 C 532.585938 169.40625 532.535156 169.542969 532.574219 169.703125 C 532.613281 169.863281 532.671875 169.933594 532.679688 169.972656 C 532.71875 169.964844 532.75 170.085938 532.714844 170.300781 C 532.683594 170.519531 532.730469 170.71875 532.796875 171 C 532.851562 171.238281 532.859375 171.449219 532.835938 171.539062 C 532.785156 171.675781 532.8125 171.796875 532.851562 171.957031 C 532.929688 172.105469 532.925781 172.273438 532.875 172.414062 C 532.824219 172.550781 532.875 173.128906 533.039062 174.1875 C 533.207031 175.242188 533.257812 175.820312 533.175781 176.007812 C 533.09375 176.195312 533.128906 176.355469 533.179688 176.554688 C 533.226562 176.753906 533.261719 176.914062 533.21875 177.09375 C 533.226562 177.304688 533.214844 177.601562 533.316406 178.039062 C 533.410156 178.4375 533.398438 178.738281 533.34375 178.875 C 533.292969 179.015625 533.300781 179.222656 533.433594 179.613281 C 533.570312 180.003906 533.59375 180.292969 533.554688 180.46875 C 533.519531 180.6875 533.554688 181.019531 533.621094 181.464844 C 533.683594 181.914062 533.738281 182.324219 533.722656 182.621094 C 533.707031 182.917969 533.722656 183.335938 533.816406 183.738281 C 533.910156 184.136719 533.9375 184.425781 533.847656 184.574219 C 533.753906 184.722656 533.792969 184.878906 533.886719 185.109375 C 533.984375 185.339844 534.023438 185.5 533.972656 185.640625 C 533.960938 185.769531 533.949219 185.898438 534.007812 185.96875 C 534.015625 186.007812 534.074219 186.078125 534.085938 186.117188 C 534.042969 186.128906 534.042969 186.128906 534.042969 186.128906 C 534.003906 186.136719 534.003906 186.136719 533.964844 186.144531 C 534.011719 186.175781 534.03125 186.257812 534.082031 186.285156 C 534.148438 186.398438 534.15625 186.605469 534.125 186.824219 C 534.089844 187.042969 534.085938 187.382812 534.160156 187.699219 C 534.199219 188.03125 534.203125 188.238281 534.152344 188.378906 C 534.101562 188.515625 534.097656 188.683594 534.1875 188.875 C 534.28125 189.105469 534.328125 189.304688 534.375 189.503906 C 534.382812 189.714844 534.390625 189.921875 534.347656 190.101562 C 534.316406 190.320312 534.3125 190.488281 534.351562 190.648438 C 534.398438 190.847656 534.386719 190.976562 534.355469 191.027344 C 534.335938 191.117188 534.351562 191.363281 534.503906 191.832031 C 534.65625 192.304688 534.644531 192.601562 534.601562 192.78125 C 534.558594 192.957031 534.507812 193.097656 534.585938 193.246094 C 534.664062 193.398438 534.667969 193.605469 534.6875 193.855469 C 534.664062 194.113281 534.699219 194.273438 534.726562 194.394531 C 534.796875 194.503906 534.777344 194.59375 534.765625 194.722656 C 534.753906 194.851562 534.769531 195.101562 534.851562 195.460938 C 534.9375 195.820312 534.941406 196.195312 534.90625 196.585938 C 534.871094 196.972656 534.894531 197.429688 535.019531 197.949219 C 535.140625 198.46875 535.226562 198.828125 535.183594 199.003906 C 535.179688 199.175781 535.160156 199.261719 535.121094 199.273438 C 535.082031 199.28125 535.085938 199.492188 535.191406 199.929688 C 535.246094 200.339844 535.261719 200.589844 535.242188 200.675781 C 535.21875 200.765625 535.21875 200.9375 535.28125 201.214844 C 535.390625 201.484375 535.394531 201.695312 535.324219 201.753906 C 535.265625 201.851562 535.261719 202.019531 535.347656 202.210938 C 535.40625 202.449219 535.433594 202.570312 535.371094 202.667969 C 535.3125 202.765625 535.300781 202.894531 535.367188 203.007812 C 535.4375 203.117188 535.511719 203.4375 535.585938 203.925781 C 535.660156 204.414062 535.644531 204.710938 535.582031 204.808594 C 535.523438 204.910156 535.488281 205.128906 535.523438 205.457031 C 535.519531 205.792969 535.585938 206.074219 535.691406 206.34375 C 535.796875 206.613281 535.835938 206.773438 535.742188 206.921875 C 535.691406 207.058594 535.679688 207.1875 535.726562 207.386719 C 535.746094 207.46875 535.765625 207.546875 535.785156 207.628906 C 535.742188 207.636719 535.742188 207.636719 535.703125 207.648438 C 535.664062 207.65625 535.664062 207.65625 535.625 207.664062 C 535.652344 207.785156 535.71875 207.894531 535.738281 207.976562 C 535.796875 208.214844 535.8125 208.464844 535.796875 208.761719 C 535.742188 209.070312 535.820312 209.390625 535.894531 209.707031 C 536.011719 210.019531 536.046875 210.347656 535.992188 210.65625 C 535.929688 210.921875 535.992188 211.203125 536.089844 211.433594 C 536.1875 211.664062 536.203125 211.910156 536.171875 212.128906 C 536.136719 212.347656 536.125 212.476562 536.183594 212.546875 C 536.195312 212.585938 536.214844 212.667969 536.171875 212.675781 C 536.132812 212.6875 536.121094 212.816406 536.167969 213.015625 C 536.214844 213.214844 536.203125 213.34375 536.152344 213.480469 C 536.101562 213.621094 536.117188 213.871094 536.230469 214.179688 C 536.316406 214.539062 536.355469 214.699219 536.324219 214.746094 C 536.292969 214.796875 536.28125 214.925781 536.347656 215.207031 C 536.414062 215.484375 536.382812 215.703125 536.359375 215.792969 C 536.347656 215.921875 536.34375 216.261719 536.433594 216.828125 C 536.527344 217.398438 536.5625 217.726562 536.492188 217.785156 C 536.460938 217.832031 536.441406 217.921875 536.46875 218.042969 C 536.496094 218.164062 536.515625 218.242188 536.4375 218.261719 C 536.40625 218.3125 536.425781 218.390625 536.472656 218.589844 C 536.519531 218.789062 536.554688 218.949219 536.496094 219.046875 C 536.433594 219.148438 536.460938 219.265625 536.488281 219.386719 C 536.519531 219.503906 536.566406 219.535156 536.609375 219.527344 C 536.609375 219.527344 536.65625 219.558594 536.699219 219.546875 C 536.65625 219.558594 536.65625 219.558594 536.617188 219.566406 C 536.578125 219.578125 536.578125 219.578125 536.539062 219.585938 C 536.554688 219.664062 536.613281 219.734375 536.625 219.777344 C 536.703125 219.925781 536.710938 220.136719 536.703125 220.472656 C 536.699219 220.8125 536.726562 221.101562 536.792969 221.378906 C 536.859375 221.660156 536.875 221.90625 536.832031 222.085938 C 536.789062 222.265625 536.804688 222.515625 536.914062 222.785156 C 536.976562 223.0625 537.015625 223.222656 536.953125 223.320312 C 536.894531 223.421875 536.921875 223.539062 536.96875 223.738281 C 537.046875 223.890625 537.054688 224.097656 537.003906 224.238281 C 536.960938 224.414062 536.964844 224.625 537.082031 224.933594 C 537.15625 225.253906 537.203125 225.453125 537.144531 225.550781 C 537.082031 225.652344 537.097656 225.898438 537.144531 226.269531 C 537.199219 226.675781 537.214844 226.925781 537.191406 227.015625 C 537.171875 227.105469 537.15625 227.402344 537.253906 227.800781 C 537.355469 228.242188 537.371094 228.488281 537.320312 228.628906 C 537.269531 228.765625 537.296875 228.886719 537.324219 229.007812 C 537.355469 229.125 537.371094 229.207031 537.332031 229.214844 C 537.292969 229.226562 537.320312 229.34375 537.367188 229.542969 C 537.445312 229.695312 537.453125 229.902344 537.410156 230.082031 C 537.367188 230.261719 537.375 230.46875 537.480469 230.738281 C 537.546875 231.019531 537.601562 231.429688 537.5625 231.984375 C 537.566406 232.53125 537.570312 232.910156 537.660156 233.101562 C 537.746094 233.289062 537.753906 233.5 537.710938 233.675781 C 537.675781 233.894531 537.664062 234.023438 537.734375 234.136719 C 537.800781 234.246094 537.839844 234.40625 537.757812 234.59375 C 537.722656 234.8125 537.730469 235.019531 537.820312 235.210938 C 537.847656 235.332031 537.914062 235.441406 537.933594 235.519531 C 537.933594 235.519531 537.894531 235.53125 537.894531 235.53125 C 537.855469 235.539062 537.871094 235.789062 537.914062 236.328125 C 537.957031 236.863281 538.128906 237.246094 538.375 237.566406 C 538.621094 237.886719 538.875 238.078125 539.183594 238.132812 C 539.492188 238.1875 539.832031 238.191406 540.152344 238.113281 C 540.484375 238.078125 540.671875 237.992188 540.703125 237.941406 C 540.734375 237.894531 540.734375 237.894531 540.773438 237.882812 C 540.824219 237.914062 540.863281 237.90625 540.875 237.945312 C 540.972656 238.003906 541.171875 237.957031 541.574219 237.863281 C 541.964844 237.730469 542.171875 237.722656 542.222656 237.753906 C 542.273438 237.78125 542.472656 237.734375 542.875 237.640625 C 543.273438 237.546875 543.515625 237.488281 543.613281 237.550781 C 543.710938 237.609375 543.800781 237.632812 543.929688 237.644531 C 544.058594 237.65625 544.089844 237.605469 544.160156 237.546875 C 544.230469 237.488281 544.3125 237.46875 544.441406 237.480469 C 544.570312 237.492188 544.972656 237.398438 545.613281 237.246094 C 546.253906 237.09375 546.621094 237.050781 546.710938 237.070312 C 546.800781 237.09375 547.050781 237.074219 547.371094 237 C 547.730469 236.914062 547.941406 236.90625 547.992188 236.9375 C 548.039062 236.96875 548.28125 236.910156 548.671875 236.777344 C 549.0625 236.640625 549.300781 236.585938 549.351562 236.617188 C 549.441406 236.636719 549.5625 236.609375 549.800781 236.550781 C 550.042969 236.496094 550.210938 236.496094 550.339844 236.507812 C 550.46875 236.519531 550.640625 236.523438 550.871094 236.425781 C 551.101562 236.328125 551.34375 236.273438 551.5625 236.304688 C 551.78125 236.335938 551.941406 236.300781 552.050781 236.230469 C 552.160156 236.164062 552.363281 236.117188 552.710938 236.160156 C 553.050781 236.164062 553.300781 236.148438 553.398438 236.039062 C 553.511719 235.972656 553.644531 235.8125 553.765625 235.617188 C 553.886719 235.417969 553.921875 235.199219 553.933594 235.070312 C 553.894531 234.910156 553.925781 234.863281 553.964844 234.851562 C 554.003906 234.84375 554.027344 234.753906 554.078125 234.613281 C 554.121094 234.4375 554.082031 234.277344 554.027344 234.035156 C 553.96875 233.796875 553.980469 233.667969 554.011719 233.617188 C 554.082031 233.558594 554.125 233.382812 554.167969 233.035156 C 554.214844 232.6875 554.207031 232.476562 554.160156 232.277344 C 554.121094 232.117188 554.125 231.949219 554.207031 231.761719 C 554.300781 231.613281 554.300781 231.445312 554.261719 231.285156 C 554.226562 231.125 554.257812 230.90625 554.3125 230.597656 C 554.375 230.332031 554.371094 230.121094 554.339844 230 C 554.332031 229.960938 554.273438 229.890625 554.261719 229.851562 C 554.304688 229.84375 554.304688 229.84375 554.34375 229.832031 C 554.382812 229.824219 554.40625 229.734375 554.375 229.613281 C 554.378906 229.445312 554.398438 229.355469 554.460938 229.257812 C 554.53125 229.199219 554.535156 229.027344 554.476562 228.789062 C 554.421875 228.550781 554.445312 228.292969 554.527344 227.933594 C 554.613281 227.578125 554.640625 227.148438 554.605469 226.652344 C 554.574219 226.15625 554.585938 225.855469 554.640625 225.71875 C 554.691406 225.578125 554.695312 225.410156 554.675781 225.160156 C 554.660156 224.910156 554.703125 224.734375 554.734375 224.683594 C 554.792969 224.585938 554.847656 224.445312 554.800781 224.246094 C 554.792969 224.039062 554.804688 223.910156 554.84375 223.898438 C 554.875 223.851562 554.886719 223.722656 554.820312 223.441406 C 554.753906 223.164062 554.746094 222.953125 554.75 222.785156 C 554.792969 222.605469 554.8125 222.515625 554.851562 222.507812 C 554.894531 222.496094 554.90625 222.367188 554.859375 222.167969 C 554.808594 221.96875 554.84375 221.75 554.917969 221.523438 C 554.988281 221.292969 554.992188 221.125 554.972656 221.046875 C 554.953125 220.964844 554.917969 220.804688 554.96875 220.667969 C 555.011719 220.488281 555.003906 220.28125 554.976562 219.992188 C 554.953125 219.703125 554.984375 219.484375 555.066406 219.296875 C 555.160156 219.148438 555.183594 218.890625 555.136719 218.519531 C 555.09375 218.152344 555.117188 217.894531 555.199219 217.707031 C 555.28125 217.519531 555.28125 217.347656 555.246094 217.1875 C 555.167969 217.039062 555.167969 216.871094 555.210938 216.691406 C 555.253906 216.511719 555.257812 216.34375 555.230469 216.222656 C 555.199219 216.105469 555.210938 215.976562 555.273438 215.875 C 555.335938 215.777344 555.335938 215.609375 555.28125 215.367188 C 555.222656 215.128906 555.234375 215 555.265625 214.949219 C 555.335938 214.890625 555.398438 214.792969 555.429688 214.574219 C 555.464844 214.355469 555.476562 214.058594 555.441406 213.730469 C 555.398438 213.359375 555.390625 213.152344 555.460938 213.09375 C 555.523438 212.992188 555.503906 212.914062 555.476562 212.792969 C 555.445312 212.675781 555.457031 212.546875 555.550781 212.398438 C 555.640625 212.25 555.652344 212.121094 555.636719 212.039062 C 555.617188 211.960938 555.597656 211.878906 555.558594 211.890625 C 555.515625 211.898438 555.488281 211.78125 555.53125 211.601562 C 555.574219 211.421875 555.617188 211.246094 555.667969 211.105469 C 555.761719 210.957031 555.742188 210.707031 555.699219 210.339844 C 555.664062 210.011719 555.6875 209.753906 555.707031 209.664062 C 555.757812 209.523438 555.8125 209.386719 555.792969 209.136719 C 555.777344 208.886719 555.800781 208.800781 555.839844 208.789062 C 555.878906 208.78125 555.875 208.402344 555.875 207.6875 C 555.875 206.96875 555.914062 206.414062 556.019531 205.964844 C 556.125 205.519531 556.179688 205.210938 556.121094 204.972656 C 556.09375 204.851562 556.066406 204.734375 556.046875 204.652344 C 556.046875 204.652344 556.085938 204.644531 556.085938 204.644531 C 556.125 204.632812 556.1875 204.535156 556.199219 204.40625 C 556.242188 204.226562 556.234375 204.019531 556.167969 203.738281 C 556.101562 203.460938 556.085938 203.210938 556.175781 203.0625 C 556.269531 202.914062 556.296875 202.488281 556.292969 201.941406 C 556.332031 201.382812 556.335938 201.046875 556.394531 200.945312 C 556.457031 200.847656 556.472656 200.550781 556.429688 200.011719 C 556.386719 199.472656 556.402344 199.175781 556.460938 199.078125 C 556.523438 198.980469 556.542969 198.890625 556.507812 198.730469 C 556.476562 198.609375 556.480469 198.441406 556.554688 198.214844 C 556.625 197.984375 556.589844 197.824219 556.550781 197.664062 C 556.523438 197.546875 556.515625 197.335938 556.609375 197.019531 C 556.664062 196.710938 556.707031 196.535156 556.65625 196.503906 C 556.597656 196.433594 556.621094 196.34375 556.679688 196.246094 C 556.730469 196.105469 556.761719 196.058594 556.714844 196.027344 C 556.703125 195.988281 556.664062 195.996094 556.65625 195.957031 C 556.695312 195.945312 556.695312 195.945312 556.695312 195.945312 C 556.734375 195.9375 556.726562 195.726562 556.714844 195.308594 C 556.699219 194.890625 556.703125 194.554688 556.765625 194.285156 C 556.832031 194.019531 556.867188 193.628906 556.84375 193.171875 C 556.820312 192.714844 556.84375 192.457031 556.882812 192.445312 C 556.921875 192.4375 556.984375 192.339844 556.984375 192.167969 C 557.027344 191.992188 557.011719 191.742188 556.984375 191.453125 C 556.960938 191.164062 556.921875 191.003906 556.992188 190.945312 C 557.023438 190.898438 557.085938 190.796875 557.039062 190.597656 C 557.039062 190.429688 557.050781 190.300781 557.082031 190.25 C 557.144531 190.152344 557.125 190.070312 557.097656 189.953125 C 557.066406 189.832031 557.078125 189.703125 557.121094 189.523438 C 557.171875 189.386719 557.15625 189.136719 557.132812 188.847656 C 557.105469 188.558594 557.101562 188.179688 557.207031 187.734375 C 557.261719 187.257812 557.277344 186.960938 557.230469 186.761719 C 557.183594 186.5625 557.226562 186.382812 557.296875 186.15625 C 557.371094 185.925781 557.402344 185.707031 557.355469 185.507812 C 557.308594 185.308594 557.34375 185.089844 557.386719 184.910156 C 557.457031 184.683594 557.5 184.503906 557.460938 184.347656 C 557.425781 184.1875 557.425781 184.015625 557.519531 183.867188 C 557.609375 183.722656 557.613281 183.550781 557.554688 183.3125 C 557.507812 183.113281 557.511719 182.945312 557.5625 182.804688 C 557.613281 182.667969 557.625 182.539062 557.621094 182.328125 C 557.621094 182.160156 557.59375 182.039062 557.632812 182.03125 C 557.675781 182.019531 557.707031 181.800781 557.652344 181.394531 C 557.597656 180.984375 557.671875 180.585938 557.769531 180.269531 C 557.851562 179.914062 557.875 179.65625 557.820312 179.414062 C 557.773438 179.214844 557.816406 178.867188 557.921875 178.421875 C 558.039062 178.015625 558.074219 177.628906 558.015625 177.386719 C 557.949219 177.109375 557.953125 176.941406 558.003906 176.800781 C 558.058594 176.664062 558.070312 176.535156 558.03125 176.375 C 557.984375 176.175781 557.996094 176.046875 558.105469 175.976562 C 558.21875 175.910156 558.230469 175.78125 558.179688 175.578125 C 558.144531 175.421875 558.144531 175.25 558.175781 175.203125 C 558.246094 175.144531 558.238281 174.933594 558.195312 174.566406 C 558.160156 174.238281 558.175781 173.9375 558.214844 173.757812 C 558.296875 173.570312 558.324219 173.3125 558.316406 172.933594 C 558.3125 172.558594 558.34375 172.339844 558.398438 172.199219 C 558.457031 172.101562 558.480469 172.011719 558.410156 171.902344 C 558.34375 171.792969 558.363281 171.703125 558.386719 171.613281 C 558.457031 171.554688 558.4375 171.472656 558.429688 171.433594 C 558.429688 171.433594 558.378906 171.402344 558.378906 171.402344 C 558.417969 171.394531 558.417969 171.394531 558.457031 171.386719 C 558.5 171.375 558.5 171.375 558.5 171.375 C 558.480469 171.296875 558.46875 171.253906 558.453125 171.175781 C 558.421875 171.054688 558.433594 170.925781 558.527344 170.777344 C 558.617188 170.628906 558.640625 170.371094 558.636719 169.996094 C 558.632812 169.617188 558.617188 169.367188 558.546875 169.257812 C 558.480469 169.148438 558.5 169.058594 558.53125 169.007812 C 558.5625 168.957031 558.621094 168.859375 558.574219 168.660156 C 558.578125 168.492188 558.582031 168.320312 558.640625 168.222656 C 558.703125 168.125 558.734375 167.90625 558.65625 167.757812 C 558.582031 167.605469 558.605469 167.347656 558.609375 167.007812 C 558.613281 166.671875 558.664062 166.53125 558.703125 166.523438 C 558.746094 166.511719 558.765625 166.425781 558.738281 166.304688 C 558.710938 166.183594 558.730469 166.09375 558.769531 166.085938 C 558.8125 166.078125 558.8125 166.078125 558.851562 166.066406 C 558.839844 166.027344 558.78125 165.957031 558.773438 165.917969 C 558.746094 165.796875 558.746094 165.628906 558.769531 165.371094 C 558.792969 165.113281 558.835938 164.933594 558.769531 164.824219 C 558.691406 164.671875 558.742188 164.535156 558.824219 164.347656 C 558.90625 164.15625 558.917969 164.027344 558.890625 163.910156 C 558.882812 163.867188 558.863281 163.789062 558.851562 163.75 C 558.894531 163.738281 558.894531 163.738281 558.941406 163.769531 C 558.941406 163.769531 558.980469 163.761719 558.992188 163.800781 C 558.941406 163.769531 558.933594 163.730469 558.933594 163.730469 C 558.882812 163.699219 558.855469 163.582031 558.90625 163.441406 C 558.957031 163.304688 558.960938 163.132812 558.945312 162.886719 C 558.929688 162.636719 558.902344 162.347656 558.9375 161.960938 C 558.972656 161.570312 558.945312 161.28125 558.851562 161.054688 C 558.761719 160.863281 558.683594 160.710938 558.585938 160.652344 C 558.527344 160.582031 558.257812 160.519531 557.871094 160.484375 C 557.480469 160.449219 557.191406 160.476562 556.929688 160.621094 C 556.699219 160.71875 556.371094 160.753906 555.902344 160.738281 C 555.464844 160.671875 555.054688 160.726562 554.753906 160.882812 C 554.410156 161.046875 554.160156 161.066406 553.980469 161.023438 C 553.804688 160.980469 553.632812 160.980469 553.523438 161.046875 C 553.410156 161.117188 553.292969 161.144531 553.203125 161.121094 C 553.113281 161.101562 552.871094 161.160156 552.550781 161.234375 C 552.230469 161.308594 552.03125 161.355469 551.984375 161.328125 C 551.933594 161.296875 551.773438 161.335938 551.53125 161.390625 C 551.292969 161.449219 551.042969 161.464844 550.824219 161.433594 C 550.605469 161.398438 550.394531 161.40625 550.246094 161.484375 C 550.042969 161.53125 549.925781 161.558594 549.835938 161.539062 C 549.746094 161.519531 549.625 161.546875 549.523438 161.65625 C 549.382812 161.773438 549.300781 161.792969 549.292969 161.75 C 549.285156 161.710938 548.953125 161.746094 548.382812 161.839844 C 547.8125 161.933594 547.445312 161.976562 547.34375 161.917969 C 547.207031 161.863281 547.007812 161.914062 546.765625 161.96875 C 546.527344 162.027344 546.367188 162.0625 546.238281 162.050781 C 546.097656 162 545.898438 162.046875 545.554688 162.214844 C 545.246094 162.328125 545.054688 162.414062 545.003906 162.386719 C 544.957031 162.355469 544.875 162.375 544.675781 162.421875 C 544.515625 162.457031 544.386719 162.445312 544.335938 162.417969 C 544.285156 162.386719 543.90625 162.390625 543.265625 162.542969 C 542.667969 162.683594 542.296875 162.730469 542.238281 162.660156 C 542.136719 162.597656 542.058594 162.617188 541.898438 162.65625 C 541.738281 162.691406 541.628906 162.761719 541.515625 162.828125 C 541.40625 162.898438 541.285156 162.925781 541.105469 162.882812 C 540.96875 162.832031 540.757812 162.839844 540.488281 162.945312 C 540.257812 163.042969 540.058594 163.089844 539.957031 163.03125 C 539.820312 162.976562 539.5 163.054688 538.9375 163.1875 C 538.378906 163.320312 538.089844 163.34375 538.046875 163.355469 C 538.039062 163.3125 537.910156 163.304688 537.699219 163.308594 C 537.488281 163.316406 537.007812 163.429688 536.289062 163.601562 C 535.527344 163.78125 535.167969 163.867188 535.117188 163.835938 C 535.070312 163.804688 534.988281 163.824219 534.867188 163.851562 C 534.757812 163.921875 534.628906 163.910156 534.449219 163.867188 C 534.269531 163.824219 534.179688 163.804688 534.160156 163.894531 C 534.140625 163.984375 533.890625 164 533.4375 164.0625 C 533.199219 164.121094 532.988281 164.128906 532.789062 164.175781 C 533.296875 164.351562 533.304688 164.390625 533.304688 164.390625 Z M 545.363281 242.277344 C 545.140625 242.414062 544.863281 242.480469 544.582031 242.546875 C 544.300781 242.613281 544.03125 242.71875 543.820312 242.894531 C 543.605469 243.070312 543.355469 243.257812 543.035156 243.332031 C 542.714844 243.410156 542.53125 243.535156 542.472656 243.636719 C 542.410156 243.734375 542.300781 243.800781 542.179688 243.832031 C 542.058594 243.859375 541.957031 243.96875 541.828125 244.125 C 541.695312 244.28125 541.53125 244.488281 541.320312 244.664062 C 541.066406 244.851562 540.96875 244.960938 540.976562 245 C 540.984375 245.039062 540.957031 245.089844 540.875 245.109375 C 540.796875 245.125 540.632812 245.332031 540.378906 245.6875 C 540.125 246.042969 539.921875 246.261719 539.800781 246.289062 C 539.640625 246.324219 539.582031 246.425781 539.527344 246.5625 C 539.476562 246.703125 539.425781 246.839844 539.324219 246.949219 C 539.222656 247.058594 539.160156 247.15625 539.160156 247.324219 C 539.15625 247.492188 539.054688 247.601562 538.941406 247.839844 C 538.820312 248.039062 538.738281 248.226562 538.726562 248.355469 C 538.714844 248.484375 538.652344 248.582031 538.582031 248.640625 C 538.472656 248.710938 538.460938 248.839844 538.496094 249 C 538.496094 249.167969 538.484375 249.296875 538.371094 249.363281 C 538.269531 249.472656 538.210938 249.570312 538.167969 249.75 C 538.125 249.929688 538.113281 250.058594 538.140625 250.175781 C 538.152344 250.21875 538.171875 250.296875 538.179688 250.335938 C 538.179688 250.335938 538.140625 250.347656 538.097656 250.355469 C 538.058594 250.367188 537.984375 250.761719 537.882812 251.585938 C 537.773438 252.371094 537.757812 252.839844 537.792969 253 C 537.832031 253.160156 537.851562 253.238281 537.820312 253.289062 C 537.789062 253.335938 537.796875 253.378906 537.816406 253.457031 C 537.828125 253.496094 537.875 253.527344 537.875 253.527344 C 537.875 253.527344 537.835938 253.535156 537.835938 253.535156 C 537.796875 253.546875 537.796875 253.546875 537.757812 253.554688 C 537.792969 253.714844 537.832031 253.875 537.859375 253.996094 C 537.933594 254.3125 537.941406 254.523438 537.929688 254.652344 C 537.886719 254.832031 537.984375 255.0625 538.148438 255.402344 C 538.324219 255.78125 538.421875 256.011719 538.410156 256.140625 C 538.4375 256.261719 538.457031 256.339844 538.496094 256.332031 C 538.496094 256.332031 538.546875 256.359375 538.546875 256.359375 C 538.554688 256.402344 538.523438 256.449219 538.535156 256.488281 C 538.511719 256.578125 538.582031 256.691406 538.6875 256.789062 C 538.796875 256.890625 538.925781 257.070312 538.960938 257.230469 C 539.039062 257.382812 539.109375 257.492188 539.160156 257.523438 C 539.207031 257.554688 539.257812 257.582031 539.285156 257.703125 C 539.273438 257.832031 539.34375 257.941406 539.410156 258.054688 C 539.519531 258.152344 539.578125 258.222656 539.65625 258.203125 C 539.746094 258.226562 539.757812 258.265625 539.777344 258.347656 C 539.753906 258.433594 539.832031 258.585938 539.960938 258.765625 C 540.085938 258.945312 540.253906 259.117188 540.511719 259.308594 C 540.765625 259.503906 540.925781 259.632812 540.933594 259.671875 C 540.945312 259.714844 541.042969 259.773438 541.222656 259.816406 C 541.402344 259.859375 541.5 259.917969 541.609375 260.019531 C 541.675781 260.128906 541.824219 260.222656 542.101562 260.324219 C 542.339844 260.4375 542.539062 260.558594 542.648438 260.660156 C 542.753906 260.761719 542.894531 260.8125 543.0625 260.8125 C 543.234375 260.816406 543.371094 260.867188 543.519531 260.957031 C 543.667969 261.050781 543.816406 261.140625 544.046875 261.214844 C 544.273438 261.285156 544.492188 261.320312 544.652344 261.28125 C 544.851562 261.234375 544.992188 261.285156 545.132812 261.335938 C 545.269531 261.386719 545.449219 261.429688 545.738281 261.402344 C 546.027344 261.378906 546.207031 261.417969 546.21875 261.460938 C 546.226562 261.5 546.386719 261.460938 546.65625 261.355469 C 546.929688 261.25 547.128906 261.203125 547.265625 261.253906 C 547.40625 261.304688 547.527344 261.277344 547.6875 261.238281 C 547.835938 261.160156 547.96875 261.171875 548.097656 261.183594 C 548.226562 261.195312 548.304688 261.175781 548.375 261.117188 C 548.417969 261.109375 548.449219 261.058594 548.488281 261.050781 C 548.488281 261.050781 548.496094 261.089844 548.535156 261.078125 C 548.585938 261.109375 548.675781 261.132812 548.875 261.085938 C 549.074219 261.035156 549.195312 261.007812 549.328125 260.851562 C 549.460938 260.691406 549.730469 260.585938 550.203125 260.433594 C 550.683594 260.320312 550.902344 260.183594 550.964844 260.085938 C 551.027344 259.984375 551.167969 259.867188 551.4375 259.761719 C 551.707031 259.65625 551.839844 259.5 551.972656 259.339844 C 552.105469 259.183594 552.277344 259.015625 552.496094 258.878906 C 552.71875 258.742188 552.921875 258.527344 553.074219 258.28125 C 553.226562 258.035156 553.359375 257.875 553.511719 257.796875 C 553.660156 257.71875 553.730469 257.660156 553.753906 257.574219 C 553.742188 257.53125 553.773438 257.484375 553.773438 257.484375 C 553.8125 257.472656 553.8125 257.472656 553.863281 257.503906 C 553.914062 257.535156 554.097656 257.238281 554.464844 256.644531 C 554.789062 256.0625 555.046875 255.707031 555.21875 255.539062 C 555.390625 255.375 555.480469 255.226562 555.523438 255.046875 C 555.554688 254.828125 555.566406 254.699219 555.519531 254.667969 C 555.460938 254.597656 555.511719 254.460938 555.585938 254.230469 C 555.65625 254.003906 555.769531 253.765625 555.894531 253.570312 C 556.015625 253.371094 556.128906 253.132812 556.113281 252.886719 C 556.09375 252.636719 556.179688 252.28125 556.265625 251.753906 C 556.402344 251.257812 556.457031 250.949219 556.429688 250.832031 C 556.441406 250.699219 556.371094 250.589844 556.3125 250.519531 C 556.246094 250.410156 556.257812 250.28125 556.289062 250.0625 C 556.324219 249.84375 556.347656 249.585938 556.242188 249.316406 C 556.132812 249.046875 556.117188 248.796875 556.101562 248.546875 C 556.085938 248.300781 556.039062 248.097656 555.917969 247.957031 C 555.832031 247.769531 555.695312 247.546875 555.609375 247.1875 C 555.484375 246.839844 555.371094 246.53125 555.183594 246.277344 C 555 246.027344 554.910156 245.835938 554.875 245.675781 C 554.835938 245.519531 554.769531 245.40625 554.667969 245.347656 C 554.570312 245.285156 554.5 245.175781 554.511719 245.046875 C 554.523438 244.917969 554.40625 244.777344 554.210938 244.65625 C 554.011719 244.53125 553.84375 244.363281 553.777344 244.25 C 553.699219 244.101562 553.628906 243.992188 553.492188 243.941406 C 553.34375 243.847656 553.195312 243.757812 553.015625 243.546875 C 552.839844 243.335938 552.691406 243.242188 552.472656 243.210938 C 552.304688 243.207031 552.203125 243.148438 552.195312 243.109375 C 552.1875 243.066406 552.039062 242.976562 551.800781 242.863281 C 551.53125 242.800781 551.382812 242.710938 551.363281 242.628906 C 551.34375 242.550781 551.207031 242.5 550.988281 242.464844 C 550.769531 242.433594 550.589844 242.390625 550.390625 242.269531 C 550.203125 242.1875 549.933594 242.125 549.507812 242.101562 C 549.117188 242.066406 548.769531 242.019531 548.53125 241.910156 C 548.300781 241.835938 548.082031 241.804688 547.894531 241.890625 C 547.703125 241.976562 547.492188 241.984375 547.273438 241.953125 C 547.054688 241.921875 546.722656 241.957031 546.324219 242.050781 C 545.945312 242.054688 545.59375 242.179688 545.363281 242.277344 Z M 545.363281 242.277344 " fill-opacity="1" fill-rule="nonzero"/></g></g></g><g clip-path="url(#ca9b59bb1c)"><g clip-path="url(#874c09acf6)"><g clip-path="url(#d0655ab7b2)"><path fill="#00b696" d="M 230.6875 101.855469 C 230.6875 101.855469 230.71875 106.621094 225.804688 107.039062 C 220.890625 107.457031 219.960938 103.300781 219.761719 101.164062 C 219.046875 94.667969 216.257812 70.203125 216.257812 70.203125 C 216.257812 70.203125 216.367188 64.675781 222.578125 64.378906 C 229.175781 64.03125 230.058594 68.929688 230.273438 71.507812 C 230.886719 79.050781 230.6875 101.855469 230.6875 101.855469 Z M 230.6875 101.855469 " fill-opacity="1" fill-rule="nonzero"/></g></g></g><g clip-path="url(#f1b422e632)"><g clip-path="url(#4acbfc2c3d)"><g clip-path="url(#b5788064fd)"><path fill="#00b696" d="M 170.636719 116.988281 C 170.636719 116.988281 173.757812 120.652344 170.273438 123.875 C 166.855469 127.238281 163.4375 124.648438 161.953125 123.179688 C 157.246094 118.746094 141.300781 100.1875 141.300781 100.1875 C 141.300781 100.1875 136.527344 95.273438 142.941406 90.816406 C 148 87.230469 151.492188 92.121094 151.492188 92.121094 Z M 170.636719 116.988281 " fill-opacity="1" fill-rule="nonzero"/></g></g></g><g clip-path="url(#f84f858bfb)"><g clip-path="url(#b07b58db2b)"><g clip-path="url(#17803abd93)"><path fill="#00b696" d="M 112.335938 157.960938 C 112.335938 157.960938 116.953125 159.304688 115.835938 163.980469 C 114.71875 168.65625 110.582031 168.28125 108.511719 167.921875 C 102.183594 166.660156 78.757812 159.683594 78.757812 159.683594 C 78.757812 159.683594 72.09375 158.171875 75.011719 150.894531 C 77.402344 145.109375 82.886719 147.371094 82.886719 147.371094 Z M 112.335938 157.960938 " fill-opacity="1" fill-rule="nonzero"/></g></g></g><g clip-path="url(#e1df4a3a5c)"><g clip-path="url(#0b7aec7163)"><g clip-path="url(#94a8fa95ec)"><path fill="#00b696" d="M 86.746094 195.945312 C 86.746094 195.945312 91.214844 196.570312 92.414062 192.128906 C 93.988281 186.507812 87.394531 185.476562 87.394531 185.476562 C 87.394531 185.476562 78.078125 181.519531 75.34375 187.644531 C 71.386719 196.640625 86.746094 195.945312 86.746094 195.945312 Z M 86.746094 195.945312 " fill-opacity="1" fill-rule="nonzero"/></g></g></g><g clip-path="url(#3c634d54d3)"><g clip-path="url(#6218065c45)"><g clip-path="url(#2c4a16ce47)"><path fill="#00b696" d="M 137.050781 125.699219 C 135.507812 124.53125 133.125 122.984375 136.992188 117.886719 C 140.1875 113.667969 144.117188 116.039062 145.878906 117.375 C 149.707031 120.453125 156.097656 125.296875 160.554688 130.402344 C 163.953125 134.273438 158.277344 140.84375 153.703125 137.71875 C 150.21875 135.335938 141.84375 129.332031 137.050781 125.699219 Z M 137.050781 125.699219 " fill-opacity="1" fill-rule="nonzero"/></g></g></g><g clip-path="url(#31a48f4e21)"><g clip-path="url(#e613fd5a5d)"><g clip-path="url(#c33c00d584)"><path fill="#0d68b1" d="M 665.277344 423.8125 C 662.8125 420.003906 656.777344 423.710938 659.265625 427.542969 C 669.3125 443.058594 673.050781 465.761719 657.957031 478.808594 C 657.519531 476.625 656.890625 474.484375 656.074219 472.414062 C 652.777344 464.332031 645.421875 457.445312 636.269531 457.476562 C 628.167969 457.511719 620.570312 462.871094 619.507812 471.175781 C 618.308594 480.363281 624.898438 488.210938 633.28125 491.085938 C 639.351562 493.050781 645.910156 492.878906 651.871094 490.597656 C 650.683594 505.332031 641.464844 520.753906 632.40625 530.199219 C 621.921875 541.222656 604.78125 551.589844 589.269531 552.304688 C 584.726562 552.507812 584.8125 559.507812 589.386719 559.367188 C 607.164062 558.71875 626.441406 547.148438 638.3125 534.273438 C 649.296875 522.347656 659.042969 504.265625 658.878906 486.988281 L 659.261719 486.742188 C 680.5625 471.820312 678.019531 443.480469 665.277344 423.8125 Z M 626.933594 476.554688 C 624.746094 469.929688 629.765625 464.488281 636.339844 464.566406 C 641.917969 464.632812 646.332031 468.75 648.753906 473.453125 C 650.253906 476.414062 651.234375 479.609375 651.65625 482.902344 C 643.144531 486.808594 630.324219 486.804688 626.933594 476.554688 Z M 626.933594 476.554688 " fill-opacity="1" fill-rule="nonzero"/></g></g></g></svg>