<svg xmlns="http://www.w3.org/2000/svg" xmlns:xlink="http://www.w3.org/1999/xlink" width="1000" zoomAndPan="magnify" viewBox="0 0 750 749.999995" height="1000" preserveAspectRatio="xMidYMid meet" version="1.0"><defs><clipPath id="5778266674"><path d="M 124 43 L 156 43 L 156 83 L 124 83 Z M 124 43 " clip-rule="nonzero"/></clipPath><clipPath id="afa5e0e100"><path d="M 61.144531 33.996094 L 161.070312 44.710938 L 139.242188 248.292969 L 39.316406 237.578125 Z M 61.144531 33.996094 " clip-rule="nonzero"/></clipPath><clipPath id="bf727b5fbe"><path d="M 61.144531 33.996094 L 161.070312 44.710938 L 139.242188 248.292969 L 39.316406 237.578125 Z M 61.144531 33.996094 " clip-rule="nonzero"/></clipPath><clipPath id="f73d0775d9"><path d="M 71 106 L 114 106 L 114 129 L 71 129 Z M 71 106 " clip-rule="nonzero"/></clipPath><clipPath id="f114d528fa"><path d="M 61.144531 33.996094 L 161.070312 44.710938 L 139.242188 248.292969 L 39.316406 237.578125 Z M 61.144531 33.996094 " clip-rule="nonzero"/></clipPath><clipPath id="d05974e34a"><path d="M 61.144531 33.996094 L 161.070312 44.710938 L 139.242188 248.292969 L 39.316406 237.578125 Z M 61.144531 33.996094 " clip-rule="nonzero"/></clipPath><clipPath id="d705b30b8d"><path d="M 45 184 L 88 184 L 88 205 L 45 205 Z M 45 184 " clip-rule="nonzero"/></clipPath><clipPath id="f0988bc445"><path d="M 61.144531 33.996094 L 161.070312 44.710938 L 139.242188 248.292969 L 39.316406 237.578125 Z M 61.144531 33.996094 " clip-rule="nonzero"/></clipPath><clipPath id="34df329676"><path d="M 61.144531 33.996094 L 161.070312 44.710938 L 139.242188 248.292969 L 39.316406 237.578125 Z M 61.144531 33.996094 " clip-rule="nonzero"/></clipPath><clipPath id="ec34f2d94d"><path d="M 64 221 L 83 221 L 83 235 L 64 235 Z M 64 221 " clip-rule="nonzero"/></clipPath><clipPath id="2809d72b84"><path d="M 61.144531 33.996094 L 161.070312 44.710938 L 139.242188 248.292969 L 39.316406 237.578125 Z M 61.144531 33.996094 " clip-rule="nonzero"/></clipPath><clipPath id="1ea509cded"><path d="M 61.144531 33.996094 L 161.070312 44.710938 L 139.242188 248.292969 L 39.316406 237.578125 Z M 61.144531 33.996094 " clip-rule="nonzero"/></clipPath><clipPath id="c054e614d7"><path d="M 81 131 L 112 131 L 112 146 L 81 146 Z M 81 131 " clip-rule="nonzero"/></clipPath><clipPath id="7b06295754"><path d="M 61.144531 33.996094 L 161.070312 44.710938 L 139.242188 248.292969 L 39.316406 237.578125 Z M 61.144531 33.996094 " clip-rule="nonzero"/></clipPath><clipPath id="8e136261eb"><path d="M 61.144531 33.996094 L 161.070312 44.710938 L 139.242188 248.292969 L 39.316406 237.578125 Z M 61.144531 33.996094 " clip-rule="nonzero"/></clipPath><clipPath id="3372063e42"><path d="M 618 586 L 701 586 L 701 698 L 618 698 Z M 618 586 " clip-rule="nonzero"/></clipPath><clipPath id="77c3a53c7b"><path d="M 598.144531 604.148438 L 699.460938 583.003906 L 719.839844 680.648438 L 618.523438 701.792969 Z M 598.144531 604.148438 " clip-rule="nonzero"/></clipPath><clipPath id="4c44d65d62"><path d="M 598.144531 604.148438 L 699.460938 583.003906 L 719.839844 680.648438 L 618.523438 701.792969 Z M 598.144531 604.148438 " clip-rule="nonzero"/></clipPath><clipPath id="5497ce554f"><path d="M 164.070312 115.71875 L 594.570312 115.71875 L 594.570312 642.21875 L 164.070312 642.21875 Z M 164.070312 115.71875 " clip-rule="nonzero"/></clipPath></defs><rect x="-75" width="900" fill="#ffffff" y="-74.999999" height="899.999994" fill-opacity="1"/><rect x="-75" width="900" fill="#ffffff" y="-74.999999" height="899.999994" fill-opacity="1"/><g clip-path="url(#5778266674)"><g clip-path="url(#afa5e0e100)"><g clip-path="url(#bf727b5fbe)"><path fill="#00b696" d="M 154.601562 73.90625 C 154.601562 73.90625 157.113281 78.042969 153.070312 80.984375 C 149.027344 83.925781 146.058594 80.796875 144.769531 79.039062 C 140.761719 73.757812 125.589844 53.914062 125.589844 53.914062 C 125.589844 53.914062 122.804688 49.042969 128.035156 45.527344 C 133.574219 41.757812 136.894531 45.5625 138.421875 47.695312 C 142.886719 53.941406 154.601562 73.90625 154.601562 73.90625 Z M 154.601562 73.90625 " fill-opacity="1" fill-rule="nonzero"/></g></g></g><g clip-path="url(#f73d0775d9)"><g clip-path="url(#f114d528fa)"><g clip-path="url(#d05974e34a)"><path fill="#00b696" d="M 110.421875 118.613281 C 110.421875 118.613281 115.039062 120.160156 113.699219 124.800781 C 112.488281 129.523438 108.175781 129.0625 106.121094 128.558594 C 99.730469 127.171875 76.230469 119.375 76.230469 119.375 C 76.230469 119.375 69.527344 117.601562 72.765625 110.355469 C 75.285156 104.574219 80.863281 107.003906 80.863281 107.003906 Z M 110.421875 118.613281 " fill-opacity="1" fill-rule="nonzero"/></g></g></g><g clip-path="url(#d705b30b8d)"><g clip-path="url(#f0988bc445)"><g clip-path="url(#34df329676)"><path fill="#00b696" d="M 81.230469 184.898438 C 81.230469 184.898438 85.9375 183.644531 87.40625 188.304688 C 88.875 192.964844 85.09375 194.808594 83.109375 195.582031 C 76.964844 197.804688 53.015625 204.027344 53.015625 204.027344 C 53.015625 204.027344 46.453125 206.207031 45.1875 198.335938 C 44.242188 192.046875 50.179688 191.136719 50.179688 191.136719 Z M 81.230469 184.898438 " fill-opacity="1" fill-rule="nonzero"/></g></g></g><g clip-path="url(#ec34f2d94d)"><g clip-path="url(#2809d72b84)"><g clip-path="url(#1ea509cded)"><path fill="#00b696" d="M 78.847656 231.414062 C 78.847656 231.414062 83.046875 229.613281 81.773438 225.117188 C 80.207031 219.394531 73.953125 221.957031 73.953125 221.957031 C 73.953125 221.957031 63.808594 223.402344 64.632812 230.171875 C 65.890625 240.082031 78.847656 231.414062 78.847656 231.414062 Z M 78.847656 231.414062 " fill-opacity="1" fill-rule="nonzero"/></g></g></g><g clip-path="url(#c054e614d7)"><g clip-path="url(#7b06295754)"><g clip-path="url(#8e136261eb)"><path fill="#00b696" d="M 85.847656 143.828125 C 83.898438 143.617188 81.027344 143.523438 81.71875 137.054688 C 82.292969 131.703125 86.933594 131.707031 89.160156 131.945312 C 94.082031 132.613281 102.148438 133.480469 108.671875 135.585938 C 113.636719 137.171875 112.140625 145.875 106.550781 145.554688 C 102.285156 145.308594 91.894531 144.476562 85.847656 143.828125 Z M 85.847656 143.828125 " fill-opacity="1" fill-rule="nonzero"/></g></g></g><g clip-path="url(#3372063e42)"><g clip-path="url(#77c3a53c7b)"><g clip-path="url(#4c44d65d62)"><path fill="#0d68b1" d="M 694.332031 587.96875 C 692.519531 584.589844 687.191406 587.300781 689.023438 590.699219 C 696.421875 604.464844 698.03125 623.859375 684.445312 633.820312 C 684.226562 631.949219 683.839844 630.101562 683.292969 628.300781 C 681.066406 621.261719 675.347656 614.953125 667.644531 614.351562 C 660.824219 613.824219 654.070312 617.820312 652.613281 624.75 C 650.976562 632.410156 655.992188 639.476562 662.851562 642.472656 C 667.824219 644.546875 673.355469 644.851562 678.523438 643.335938 C 676.523438 655.675781 667.722656 668.039062 659.457031 675.375 C 649.890625 683.949219 634.765625 691.511719 621.664062 691.046875 C 617.828125 690.910156 617.425781 696.8125 621.285156 697.007812 C 636.285156 697.683594 653.289062 689.253906 664.152344 679.214844 C 674.203125 669.921875 683.628906 655.351562 684.664062 640.773438 L 685.003906 640.59375 C 703.9375 629.480469 703.722656 605.417969 694.332031 587.96875 Z M 658.496094 629.792969 C 657.101562 624.054688 661.695312 619.816406 667.222656 620.332031 C 671.910156 620.769531 675.347656 624.542969 677.0625 628.671875 C 678.125 631.273438 678.734375 634.03125 678.863281 636.835938 C 671.4375 639.546875 660.652344 638.660156 658.496094 629.792969 Z M 658.496094 629.792969 " fill-opacity="1" fill-rule="nonzero"/></g></g></g><path fill="#00b696" d="M 394.007812 486.945312 L 408.507812 486.945312 L 408.507812 594.246094 C 408.507812 596.316406 410.183594 597.988281 412.25 597.988281 L 425.375 597.988281 C 427.441406 597.988281 429.117188 596.316406 429.117188 594.246094 L 429.117188 486.945312 L 443.617188 486.945312 C 445.6875 486.945312 447.359375 485.269531 447.359375 483.203125 L 447.359375 470.074219 C 447.359375 468.011719 445.6875 466.335938 443.617188 466.335938 L 429.117188 466.335938 L 429.117188 431.246094 C 429.117188 429.179688 427.441406 427.503906 425.375 427.503906 L 412.25 427.503906 C 410.183594 427.503906 408.507812 429.179688 408.507812 431.246094 L 408.507812 466.335938 L 394.007812 466.335938 C 391.9375 466.335938 390.261719 468.011719 390.261719 470.074219 L 390.261719 483.203125 C 390.261719 485.269531 391.9375 486.945312 394.007812 486.945312 " fill-opacity="1" fill-rule="nonzero"/><path fill="#00b696" d="M 315.261719 559.15625 L 329.757812 559.15625 L 329.757812 594.246094 C 329.757812 596.316406 331.4375 597.988281 333.503906 597.988281 L 346.628906 597.988281 C 348.695312 597.988281 350.367188 596.316406 350.367188 594.246094 L 350.367188 559.15625 L 364.871094 559.15625 C 366.941406 559.15625 368.613281 557.484375 368.613281 555.414062 L 368.613281 542.292969 C 368.613281 540.222656 366.941406 538.546875 364.871094 538.546875 L 350.367188 538.546875 L 350.367188 431.246094 C 350.367188 429.179688 348.695312 427.503906 346.628906 427.503906 L 333.503906 427.503906 C 331.4375 427.503906 329.757812 429.179688 329.757812 431.246094 L 329.757812 538.546875 L 315.261719 538.546875 C 313.191406 538.546875 311.515625 540.222656 311.515625 542.292969 L 311.515625 555.414062 C 311.515625 557.484375 313.191406 559.15625 315.261719 559.15625 " fill-opacity="1" fill-rule="nonzero"/><path fill="#00b696" d="M 236.515625 486.945312 L 251.011719 486.945312 L 251.011719 594.246094 C 251.011719 596.316406 252.6875 597.988281 254.757812 597.988281 L 267.878906 597.988281 C 269.949219 597.988281 271.621094 596.316406 271.621094 594.246094 L 271.621094 486.945312 L 286.125 486.945312 C 288.191406 486.945312 289.867188 485.269531 289.867188 483.203125 L 289.867188 470.074219 C 289.867188 468.011719 288.191406 466.335938 286.125 466.335938 L 271.621094 466.335938 L 271.621094 431.246094 C 271.621094 429.179688 269.949219 427.503906 267.878906 427.503906 L 254.757812 427.503906 C 252.6875 427.503906 251.011719 429.179688 251.011719 431.246094 L 251.011719 466.335938 L 236.515625 466.335938 C 234.445312 466.335938 232.769531 468.011719 232.769531 470.074219 L 232.769531 483.203125 C 232.769531 485.269531 234.445312 486.945312 236.515625 486.945312 " fill-opacity="1" fill-rule="nonzero"/><path fill="#00b696" d="M 472.753906 559.15625 L 487.253906 559.15625 L 487.253906 594.246094 C 487.253906 596.316406 488.929688 597.988281 491 597.988281 L 504.121094 597.988281 C 506.191406 597.988281 507.863281 596.316406 507.863281 594.246094 L 507.863281 559.15625 L 522.363281 559.15625 C 524.433594 559.15625 526.105469 557.484375 526.105469 555.414062 L 526.105469 542.292969 C 526.105469 540.222656 524.433594 538.546875 522.363281 538.546875 L 507.863281 538.546875 L 507.863281 431.246094 C 507.863281 429.179688 506.191406 427.503906 504.121094 427.503906 L 491 427.503906 C 488.929688 427.503906 487.253906 429.179688 487.253906 431.246094 L 487.253906 538.546875 L 472.753906 538.546875 C 470.6875 538.546875 469.007812 540.222656 469.007812 542.292969 L 469.007812 555.414062 C 469.007812 557.484375 470.6875 559.15625 472.753906 559.15625 " fill-opacity="1" fill-rule="nonzero"/><path fill="#0d68b1" d="M 245.558594 358.429688 L 320.886719 358.429688 C 316.992188 350.121094 314.816406 340.867188 314.816406 331.113281 C 314.816406 295.480469 343.808594 266.488281 379.4375 266.488281 C 415.070312 266.488281 444.058594 295.480469 444.058594 331.113281 C 444.058594 340.867188 441.886719 350.121094 437.988281 358.429688 L 513.320312 358.429688 C 516.265625 358.140625 518.519531 355.65625 518.519531 352.691406 L 518.519531 309.53125 C 518.519531 306.566406 516.265625 304.082031 513.320312 303.792969 L 480.207031 300.566406 C 478.179688 293.902344 475.507812 287.515625 472.273438 281.484375 L 493.417969 255.761719 C 495.300781 253.464844 495.140625 250.128906 493.046875 248.027344 L 462.523438 217.503906 C 460.421875 215.410156 457.085938 215.246094 454.789062 217.132812 L 429.066406 238.277344 C 423.039062 235.039062 416.648438 232.371094 409.980469 230.34375 L 406.757812 197.230469 C 406.46875 194.285156 403.984375 192.03125 401.015625 192.03125 L 357.863281 192.03125 C 354.894531 192.03125 352.410156 194.285156 352.121094 197.230469 L 348.894531 230.34375 C 342.230469 232.371094 335.835938 235.039062 329.8125 238.277344 L 304.089844 217.132812 C 301.792969 215.246094 298.453125 215.410156 296.351562 217.503906 L 265.828125 248.027344 C 263.738281 250.128906 263.574219 253.464844 265.460938 255.761719 L 286.605469 281.484375 C 283.367188 287.515625 280.699219 293.902344 278.671875 300.566406 L 245.558594 303.792969 C 242.613281 304.082031 240.359375 306.566406 240.359375 309.53125 L 240.359375 352.691406 C 240.359375 355.65625 242.613281 358.140625 245.558594 358.429688 " fill-opacity="1" fill-rule="nonzero"/><g clip-path="url(#5497ce554f)"><path fill="#0d68b1" d="M 564.242188 616.550781 L 194.636719 616.550781 L 194.636719 408.945312 L 564.242188 408.945312 Z M 379.4375 156.960938 C 475.464844 156.960938 553.585938 235.082031 553.585938 331.113281 C 553.585938 349.246094 550.792969 366.730469 545.628906 383.183594 L 213.25 383.183594 C 208.082031 366.730469 205.289062 349.246094 205.289062 331.113281 C 205.289062 235.082031 283.414062 156.960938 379.4375 156.960938 Z M 379.4375 115.746094 C 260.691406 115.746094 164.070312 212.363281 164.070312 331.113281 C 164.070312 346.632812 165.734375 361.773438 168.875 376.371094 L 168.875 632.550781 C 168.875 637.941406 173.242188 642.3125 178.636719 642.3125 L 580.242188 642.3125 C 585.636719 642.3125 590.003906 637.941406 590.003906 632.550781 L 590.003906 376.371094 C 593.144531 361.773438 594.804688 346.632812 594.804688 331.113281 C 594.804688 212.363281 498.1875 115.746094 379.4375 115.746094 " fill-opacity="1" fill-rule="nonzero"/></g></svg>