<svg xmlns="http://www.w3.org/2000/svg" xmlns:xlink="http://www.w3.org/1999/xlink" width="1000" zoomAndPan="magnify" viewBox="0 0 750 749.999995" height="1000" preserveAspectRatio="xMidYMid meet" version="1.0"><defs><clipPath id="5179c669a0"><path d="M 124 43 L 156 43 L 156 83 L 124 83 Z M 124 43 " clip-rule="nonzero"/></clipPath><clipPath id="01e153d731"><path d="M 61.144531 33.996094 L 161.070312 44.710938 L 139.242188 248.292969 L 39.316406 237.578125 Z M 61.144531 33.996094 " clip-rule="nonzero"/></clipPath><clipPath id="83296c542c"><path d="M 61.144531 33.996094 L 161.070312 44.710938 L 139.242188 248.292969 L 39.316406 237.578125 Z M 61.144531 33.996094 " clip-rule="nonzero"/></clipPath><clipPath id="96f259bc9a"><path d="M 71 106 L 114 106 L 114 129 L 71 129 Z M 71 106 " clip-rule="nonzero"/></clipPath><clipPath id="1eab1348f8"><path d="M 61.144531 33.996094 L 161.070312 44.710938 L 139.242188 248.292969 L 39.316406 237.578125 Z M 61.144531 33.996094 " clip-rule="nonzero"/></clipPath><clipPath id="c7ebcfb458"><path d="M 61.144531 33.996094 L 161.070312 44.710938 L 139.242188 248.292969 L 39.316406 237.578125 Z M 61.144531 33.996094 " clip-rule="nonzero"/></clipPath><clipPath id="2240b90f5f"><path d="M 45 184 L 88 184 L 88 205 L 45 205 Z M 45 184 " clip-rule="nonzero"/></clipPath><clipPath id="e0baa575a6"><path d="M 61.144531 33.996094 L 161.070312 44.710938 L 139.242188 248.292969 L 39.316406 237.578125 Z M 61.144531 33.996094 " clip-rule="nonzero"/></clipPath><clipPath id="cd09b58389"><path d="M 61.144531 33.996094 L 161.070312 44.710938 L 139.242188 248.292969 L 39.316406 237.578125 Z M 61.144531 33.996094 " clip-rule="nonzero"/></clipPath><clipPath id="3e27e01a8f"><path d="M 64 221 L 83 221 L 83 235 L 64 235 Z M 64 221 " clip-rule="nonzero"/></clipPath><clipPath id="6513d86778"><path d="M 61.144531 33.996094 L 161.070312 44.710938 L 139.242188 248.292969 L 39.316406 237.578125 Z M 61.144531 33.996094 " clip-rule="nonzero"/></clipPath><clipPath id="c7f12d920f"><path d="M 61.144531 33.996094 L 161.070312 44.710938 L 139.242188 248.292969 L 39.316406 237.578125 Z M 61.144531 33.996094 " clip-rule="nonzero"/></clipPath><clipPath id="e3016c69cf"><path d="M 81 131 L 112 131 L 112 146 L 81 146 Z M 81 131 " clip-rule="nonzero"/></clipPath><clipPath id="4fdb87e090"><path d="M 61.144531 33.996094 L 161.070312 44.710938 L 139.242188 248.292969 L 39.316406 237.578125 Z M 61.144531 33.996094 " clip-rule="nonzero"/></clipPath><clipPath id="9cb8c392c7"><path d="M 61.144531 33.996094 L 161.070312 44.710938 L 139.242188 248.292969 L 39.316406 237.578125 Z M 61.144531 33.996094 " clip-rule="nonzero"/></clipPath><clipPath id="6168364c56"><path d="M 618 586 L 701 586 L 701 698 L 618 698 Z M 618 586 " clip-rule="nonzero"/></clipPath><clipPath id="debbfdd5f4"><path d="M 598.144531 604.148438 L 699.460938 583.003906 L 719.839844 680.648438 L 618.523438 701.792969 Z M 598.144531 604.148438 " clip-rule="nonzero"/></clipPath><clipPath id="f9f26bbf3d"><path d="M 598.144531 604.148438 L 699.460938 583.003906 L 719.839844 680.648438 L 618.523438 701.792969 Z M 598.144531 604.148438 " clip-rule="nonzero"/></clipPath><clipPath id="7328cc443c"><path d="M 418 491 L 598 491 L 598 608.957031 L 418 608.957031 Z M 418 491 " clip-rule="nonzero"/></clipPath><clipPath id="dfc8cede18"><path d="M 130.316406 219 L 380 219 L 380 531 L 130.316406 531 Z M 130.316406 219 " clip-rule="nonzero"/></clipPath></defs><rect x="-75" width="900" fill="#ffffff" y="-74.999999" height="899.999994" fill-opacity="1"/><rect x="-75" width="900" fill="#ffffff" y="-74.999999" height="899.999994" fill-opacity="1"/><g clip-path="url(#5179c669a0)"><g clip-path="url(#01e153d731)"><g clip-path="url(#83296c542c)"><path fill="#00b696" d="M 154.601562 73.90625 C 154.601562 73.90625 157.113281 78.042969 153.070312 80.984375 C 149.027344 83.925781 146.058594 80.796875 144.769531 79.039062 C 140.761719 73.757812 125.589844 53.914062 125.589844 53.914062 C 125.589844 53.914062 122.804688 49.042969 128.035156 45.527344 C 133.574219 41.757812 136.894531 45.5625 138.421875 47.695312 C 142.886719 53.941406 154.601562 73.90625 154.601562 73.90625 Z M 154.601562 73.90625 " fill-opacity="1" fill-rule="nonzero"/></g></g></g><g clip-path="url(#96f259bc9a)"><g clip-path="url(#1eab1348f8)"><g clip-path="url(#c7ebcfb458)"><path fill="#00b696" d="M 110.421875 118.613281 C 110.421875 118.613281 115.039062 120.160156 113.699219 124.800781 C 112.488281 129.523438 108.175781 129.0625 106.121094 128.558594 C 99.730469 127.171875 76.230469 119.375 76.230469 119.375 C 76.230469 119.375 69.527344 117.601562 72.765625 110.355469 C 75.285156 104.574219 80.863281 107 80.863281 107 Z M 110.421875 118.613281 " fill-opacity="1" fill-rule="nonzero"/></g></g></g><g clip-path="url(#2240b90f5f)"><g clip-path="url(#e0baa575a6)"><g clip-path="url(#cd09b58389)"><path fill="#00b696" d="M 81.230469 184.898438 C 81.230469 184.898438 85.9375 183.644531 87.40625 188.304688 C 88.875 192.964844 85.09375 194.808594 83.109375 195.582031 C 76.964844 197.804688 53.015625 204.027344 53.015625 204.027344 C 53.015625 204.027344 46.453125 206.207031 45.1875 198.335938 C 44.242188 192.046875 50.179688 191.136719 50.179688 191.136719 Z M 81.230469 184.898438 " fill-opacity="1" fill-rule="nonzero"/></g></g></g><g clip-path="url(#3e27e01a8f)"><g clip-path="url(#6513d86778)"><g clip-path="url(#c7f12d920f)"><path fill="#00b696" d="M 78.847656 231.414062 C 78.847656 231.414062 83.046875 229.613281 81.773438 225.117188 C 80.207031 219.394531 73.953125 221.957031 73.953125 221.957031 C 73.953125 221.957031 63.808594 223.402344 64.632812 230.171875 C 65.890625 240.082031 78.847656 231.414062 78.847656 231.414062 Z M 78.847656 231.414062 " fill-opacity="1" fill-rule="nonzero"/></g></g></g><g clip-path="url(#e3016c69cf)"><g clip-path="url(#4fdb87e090)"><g clip-path="url(#9cb8c392c7)"><path fill="#00b696" d="M 85.847656 143.828125 C 83.898438 143.617188 81.027344 143.523438 81.71875 137.054688 C 82.292969 131.703125 86.933594 131.707031 89.160156 131.945312 C 94.082031 132.613281 102.148438 133.480469 108.671875 135.585938 C 113.636719 137.171875 112.140625 145.875 106.550781 145.554688 C 102.285156 145.308594 91.894531 144.476562 85.847656 143.828125 Z M 85.847656 143.828125 " fill-opacity="1" fill-rule="nonzero"/></g></g></g><g clip-path="url(#6168364c56)"><g clip-path="url(#debbfdd5f4)"><g clip-path="url(#f9f26bbf3d)"><path fill="#0d68b1" d="M 694.332031 587.96875 C 692.519531 584.589844 687.191406 587.300781 689.023438 590.699219 C 696.421875 604.464844 698.03125 623.859375 684.445312 633.820312 C 684.226562 631.949219 683.839844 630.101562 683.292969 628.300781 C 681.066406 621.261719 675.347656 614.953125 667.644531 614.351562 C 660.824219 613.824219 654.070312 617.820312 652.613281 624.75 C 650.976562 632.410156 655.992188 639.476562 662.851562 642.472656 C 667.824219 644.546875 673.355469 644.851562 678.523438 643.335938 C 676.523438 655.675781 667.722656 668.039062 659.457031 675.375 C 649.890625 683.949219 634.765625 691.511719 621.664062 691.046875 C 617.828125 690.910156 617.425781 696.8125 621.285156 697.007812 C 636.285156 697.683594 653.289062 689.253906 664.152344 679.214844 C 674.203125 669.921875 683.628906 655.351562 684.664062 640.773438 L 685.003906 640.59375 C 703.9375 629.480469 703.722656 605.417969 694.332031 587.96875 Z M 658.496094 629.792969 C 657.101562 624.054688 661.695312 619.816406 667.222656 620.332031 C 671.910156 620.769531 675.347656 624.542969 677.0625 628.671875 C 678.125 631.273438 678.734375 634.03125 678.863281 636.835938 C 671.4375 639.546875 660.652344 638.660156 658.496094 629.792969 Z M 658.496094 629.792969 " fill-opacity="1" fill-rule="nonzero"/></g></g></g><path fill="#0d68b1" d="M 254.859375 226.972656 C 190.378906 226.972656 138.101562 246.136719 138.101562 269.785156 L 138.101562 491.632812 C 149.519531 508.34375 198.933594 522.769531 254.859375 522.769531 C 310.050781 522.769531 360.941406 507.269531 371.621094 491.632812 L 371.621094 269.785156 C 371.621094 246.136719 319.34375 226.972656 254.859375 226.972656 Z M 254.859375 226.972656 " fill-opacity="1" fill-rule="nonzero"/><path fill="#0d68b1" d="M 371.621094 269.785156 C 371.621094 270.484375 371.574219 271.1875 371.480469 271.886719 C 371.386719 272.585938 371.246094 273.285156 371.058594 273.980469 C 370.875 274.679688 370.640625 275.375 370.359375 276.066406 C 370.078125 276.761719 369.75 277.449219 369.378906 278.136719 C 369.007812 278.824219 368.585938 279.507812 368.125 280.1875 C 367.660156 280.867188 367.148438 281.542969 366.59375 282.214844 C 366.039062 282.882812 365.441406 283.550781 364.796875 284.207031 C 364.152344 284.867188 363.464844 285.523438 362.734375 286.167969 C 362.003906 286.816406 361.230469 287.457031 360.414062 288.089844 C 359.59375 288.722656 358.738281 289.347656 357.835938 289.96875 C 356.933594 290.585938 355.992188 291.195312 355.011719 291.796875 C 354.027344 292.398438 353.007812 292.988281 351.945312 293.570312 C 350.882812 294.152344 349.78125 294.726562 348.644531 295.289062 C 347.507812 295.851562 346.332031 296.402344 345.117188 296.945312 C 343.90625 297.488281 342.660156 298.015625 341.375 298.535156 C 340.09375 299.054688 338.773438 299.5625 337.425781 300.058594 C 336.074219 300.554688 334.6875 301.035156 333.273438 301.507812 C 331.859375 301.976562 330.410156 302.433594 328.933594 302.878906 C 327.457031 303.324219 325.949219 303.753906 324.414062 304.171875 C 322.882812 304.589844 321.320312 304.992188 319.730469 305.382812 C 318.140625 305.773438 316.527344 306.148438 314.886719 306.507812 C 313.25 306.867188 311.585938 307.210938 309.902344 307.542969 C 308.21875 307.871094 306.511719 308.1875 304.78125 308.488281 C 303.054688 308.789062 301.308594 309.070312 299.542969 309.339844 C 297.777344 309.605469 295.996094 309.859375 294.195312 310.09375 C 292.398438 310.332031 290.582031 310.550781 288.753906 310.753906 C 286.925781 310.957031 285.085938 311.144531 283.230469 311.316406 C 281.378906 311.484375 279.515625 311.640625 277.640625 311.773438 C 275.765625 311.910156 273.882812 312.03125 271.992188 312.132812 C 270.101562 312.238281 268.207031 312.324219 266.304688 312.390625 C 264.402344 312.460938 262.5 312.511719 260.589844 312.546875 C 258.683594 312.582031 256.773438 312.597656 254.859375 312.597656 C 252.949219 312.597656 251.039062 312.582031 249.132812 312.546875 C 247.222656 312.511719 245.316406 312.460938 243.417969 312.390625 C 241.515625 312.324219 239.617188 312.238281 237.730469 312.132812 C 235.839844 312.03125 233.957031 311.910156 232.082031 311.773438 C 230.207031 311.636719 228.34375 311.484375 226.492188 311.316406 C 224.636719 311.144531 222.796875 310.957031 220.96875 310.753906 C 219.136719 310.550781 217.324219 310.332031 215.527344 310.09375 C 213.726562 309.859375 211.945312 309.605469 210.179688 309.339844 C 208.414062 309.070312 206.667969 308.785156 204.9375 308.488281 C 203.210938 308.1875 201.503906 307.871094 199.820312 307.542969 C 198.136719 307.210938 196.472656 306.867188 194.832031 306.507812 C 193.195312 306.148438 191.582031 305.773438 189.992188 305.382812 C 188.402344 304.992188 186.839844 304.589844 185.304688 304.171875 C 183.773438 303.753906 182.265625 303.324219 180.789062 302.878906 C 179.3125 302.433594 177.863281 301.976562 176.449219 301.507812 C 175.03125 301.035156 173.648438 300.554688 172.296875 300.058594 C 170.945312 299.5625 169.628906 299.054688 168.347656 298.535156 C 167.0625 298.015625 165.816406 297.488281 164.601562 296.945312 C 163.390625 296.402344 162.214844 295.851562 161.078125 295.289062 C 159.9375 294.726562 158.839844 294.152344 157.777344 293.570312 C 156.714844 292.988281 155.695312 292.398438 154.710938 291.796875 C 153.730469 291.195312 152.789062 290.585938 151.886719 289.96875 C 150.984375 289.347656 150.128906 288.722656 149.308594 288.089844 C 148.492188 287.457031 147.71875 286.816406 146.988281 286.167969 C 146.257812 285.523438 145.570312 284.867188 144.925781 284.207031 C 144.28125 283.550781 143.683594 282.882812 143.128906 282.214844 C 142.574219 281.542969 142.0625 280.867188 141.597656 280.1875 C 141.132812 279.507812 140.714844 278.824219 140.34375 278.136719 C 139.96875 277.449219 139.644531 276.761719 139.363281 276.066406 C 139.082031 275.375 138.847656 274.679688 138.660156 273.980469 C 138.476562 273.285156 138.335938 272.585938 138.242188 271.886719 C 138.148438 271.1875 138.101562 270.484375 138.101562 269.785156 C 138.101562 269.085938 138.148438 268.382812 138.242188 267.683594 C 138.335938 266.984375 138.476562 266.285156 138.660156 265.589844 C 138.847656 264.890625 139.082031 264.195312 139.363281 263.503906 C 139.644531 262.808594 139.96875 262.121094 140.34375 261.433594 C 140.714844 260.746094 141.132812 260.0625 141.597656 259.382812 C 142.0625 258.703125 142.574219 258.027344 143.128906 257.359375 C 143.683594 256.6875 144.28125 256.023438 144.925781 255.363281 C 145.570312 254.703125 146.257812 254.050781 146.988281 253.402344 C 147.71875 252.753906 148.492188 252.113281 149.308594 251.480469 C 150.128906 250.847656 150.984375 250.222656 151.886719 249.605469 C 152.789062 248.984375 153.730469 248.375 154.710938 247.777344 C 155.695312 247.175781 156.714844 246.582031 157.777344 246 C 158.839844 245.417969 159.9375 244.84375 161.078125 244.28125 C 162.214844 243.71875 163.390625 243.167969 164.601562 242.625 C 165.816406 242.082031 167.0625 241.554688 168.347656 241.035156 C 169.628906 240.515625 170.945312 240.007812 172.296875 239.511719 C 173.648438 239.015625 175.03125 238.535156 176.449219 238.0625 C 177.863281 237.59375 179.3125 237.136719 180.789062 236.691406 C 182.265625 236.246094 183.773438 235.816406 185.304688 235.398438 C 186.839844 234.980469 188.402344 234.578125 189.992188 234.1875 C 191.582031 233.800781 193.195312 233.425781 194.832031 233.0625 C 196.472656 232.703125 198.136719 232.359375 199.820312 232.027344 C 201.503906 231.699219 203.210938 231.382812 204.9375 231.082031 C 206.667969 230.785156 208.414062 230.5 210.179688 230.230469 C 211.945312 229.964844 213.726562 229.710938 215.527344 229.476562 C 217.324219 229.238281 219.136719 229.019531 220.96875 228.816406 C 222.796875 228.613281 224.636719 228.425781 226.492188 228.257812 C 228.34375 228.085938 230.207031 227.933594 232.082031 227.796875 C 233.957031 227.660156 235.839844 227.539062 237.730469 227.4375 C 239.617188 227.332031 241.515625 227.246094 243.417969 227.179688 C 245.316406 227.109375 247.222656 227.058594 249.132812 227.023438 C 251.039062 226.988281 252.949219 226.972656 254.859375 226.972656 C 256.773438 226.972656 258.683594 226.988281 260.589844 227.023438 C 262.5 227.058594 264.402344 227.109375 266.304688 227.179688 C 268.207031 227.246094 270.101562 227.332031 271.992188 227.4375 C 273.882812 227.539062 275.765625 227.660156 277.640625 227.796875 C 279.515625 227.933594 281.378906 228.085938 283.230469 228.257812 C 285.085938 228.425781 286.925781 228.613281 288.753906 228.816406 C 290.582031 229.019531 292.398438 229.238281 294.195312 229.476562 C 295.996094 229.710938 297.777344 229.964844 299.542969 230.230469 C 301.308594 230.5 303.054688 230.785156 304.78125 231.082031 C 306.511719 231.382812 308.21875 231.699219 309.902344 232.027344 C 311.585938 232.359375 313.25 232.703125 314.886719 233.0625 C 316.527344 233.425781 318.140625 233.800781 319.730469 234.1875 C 321.320312 234.578125 322.882812 234.980469 324.414062 235.398438 C 325.949219 235.816406 327.457031 236.246094 328.933594 236.691406 C 330.410156 237.136719 331.859375 237.59375 333.273438 238.0625 C 334.6875 238.535156 336.074219 239.015625 337.425781 239.511719 C 338.773438 240.007812 340.09375 240.515625 341.375 241.035156 C 342.660156 241.554688 343.90625 242.082031 345.117188 242.625 C 346.332031 243.167969 347.507812 243.71875 348.644531 244.28125 C 349.78125 244.84375 350.882812 245.417969 351.945312 246 C 353.007812 246.582031 354.027344 247.175781 355.011719 247.777344 C 355.992188 248.375 356.933594 248.984375 357.835938 249.605469 C 358.734375 250.222656 359.59375 250.847656 360.414062 251.480469 C 361.230469 252.113281 362.003906 252.753906 362.734375 253.402344 C 363.464844 254.050781 364.152344 254.703125 364.796875 255.363281 C 365.441406 256.023438 366.039062 256.6875 366.59375 257.359375 C 367.148438 258.027344 367.660156 258.703125 368.125 259.382812 C 368.585938 260.0625 369.007812 260.746094 369.378906 261.433594 C 369.75 262.121094 370.078125 262.808594 370.359375 263.503906 C 370.640625 264.195312 370.875 264.890625 371.058594 265.589844 C 371.246094 266.285156 371.386719 266.984375 371.480469 267.683594 C 371.574219 268.382812 371.621094 269.085938 371.621094 269.785156 Z M 371.621094 269.785156 " fill-opacity="1" fill-rule="nonzero"/><path fill="#84d1ce" d="M 542.871094 172.484375 L 535.089844 149.132812 L 426.109375 149.132812 L 441.679688 250.324219 L 472.816406 172.484375 Z M 542.871094 172.484375 " fill-opacity="1" fill-rule="nonzero"/><path fill="#00b696" d="M 472.816406 172.484375 L 589.578125 172.484375 L 558.441406 250.324219 L 441.679688 250.324219 Z M 472.816406 172.484375 " fill-opacity="1" fill-rule="nonzero"/><path fill="#84d1ce" d="M 542.871094 343.734375 L 535.089844 320.382812 L 426.109375 320.382812 L 441.679688 421.574219 L 472.816406 343.734375 Z M 542.871094 343.734375 " fill-opacity="1" fill-rule="nonzero"/><path fill="#00b696" d="M 472.816406 343.734375 L 589.578125 343.734375 L 558.441406 421.574219 L 441.679688 421.574219 Z M 472.816406 343.734375 " fill-opacity="1" fill-rule="nonzero"/><path fill="#84d1ce" d="M 542.871094 522.769531 L 535.089844 499.417969 L 426.109375 499.417969 L 441.679688 600.609375 L 472.816406 522.769531 Z M 542.871094 522.769531 " fill-opacity="1" fill-rule="nonzero"/><path fill="#00b696" d="M 472.816406 522.769531 L 589.578125 522.769531 L 558.441406 600.609375 L 441.679688 600.609375 Z M 472.816406 522.769531 " fill-opacity="1" fill-rule="nonzero"/><path fill="#ffffff" d="M 596.023438 168.117188 C 594.574219 165.984375 592.160156 164.699219 589.578125 164.699219 L 548.476562 164.699219 L 542.46875 146.671875 C 541.410156 143.488281 538.445312 141.347656 535.089844 141.347656 L 426.109375 141.347656 C 423.839844 141.347656 421.683594 142.335938 420.203125 144.066406 C 418.722656 145.792969 418.070312 148.074219 418.421875 150.316406 L 433.988281 251.507812 L 434.019531 251.5 C 434.191406 252.621094 434.582031 253.71875 435.234375 254.683594 C 436.683594 256.824219 439.09375 258.109375 441.679688 258.109375 L 558.441406 258.109375 C 561.625 258.109375 564.480469 256.171875 565.671875 253.222656 L 596.808594 175.378906 C 597.765625 172.976562 597.46875 170.257812 596.023438 168.117188 Z M 529.476562 156.917969 L 532.070312 164.699219 L 472.816406 164.699219 C 469.632812 164.699219 466.773438 166.636719 465.585938 169.589844 L 445.035156 220.957031 L 435.1875 156.917969 Z M 553.171875 242.542969 L 453.175781 242.542969 L 478.085938 180.269531 L 578.089844 180.269531 Z M 553.171875 242.542969 " fill-opacity="1" fill-rule="nonzero"/><path fill="#ffffff" d="M 596.023438 339.367188 C 594.574219 337.234375 592.160156 335.949219 589.578125 335.949219 L 548.476562 335.949219 L 542.46875 317.921875 C 541.410156 314.738281 538.445312 312.597656 535.089844 312.597656 L 426.109375 312.597656 C 423.839844 312.597656 421.683594 313.585938 420.203125 315.316406 C 418.722656 317.042969 418.070312 319.324219 418.421875 321.566406 L 433.988281 422.757812 L 434.019531 422.75 C 434.191406 423.871094 434.582031 424.96875 435.234375 425.933594 C 436.683594 428.074219 439.09375 429.359375 441.679688 429.359375 L 558.441406 429.359375 C 561.625 429.359375 564.480469 427.421875 565.671875 424.472656 L 596.808594 346.628906 C 597.765625 344.226562 597.46875 341.507812 596.023438 339.367188 Z M 529.476562 328.167969 L 532.070312 335.949219 L 472.816406 335.949219 C 469.632812 335.949219 466.773438 337.886719 465.585938 340.839844 L 445.035156 392.207031 L 435.1875 328.167969 Z M 553.171875 413.792969 L 453.175781 413.792969 L 478.085938 351.519531 L 578.089844 351.519531 Z M 553.171875 413.792969 " fill-opacity="1" fill-rule="nonzero"/><g clip-path="url(#7328cc443c)"><path fill="#ffffff" d="M 596.023438 518.402344 C 594.574219 516.269531 592.160156 514.984375 589.578125 514.984375 L 548.476562 514.984375 L 542.46875 496.957031 C 541.410156 493.773438 538.445312 491.632812 535.089844 491.632812 L 426.109375 491.632812 C 423.839844 491.632812 421.683594 492.621094 420.203125 494.347656 C 418.722656 496.078125 418.070312 498.359375 418.421875 500.597656 L 433.988281 601.792969 L 434.019531 601.785156 C 434.191406 602.90625 434.582031 604.003906 435.234375 604.96875 C 436.683594 607.109375 439.09375 608.394531 441.679688 608.394531 L 558.441406 608.394531 C 561.625 608.394531 564.480469 606.457031 565.671875 603.503906 L 596.808594 525.664062 C 597.765625 523.257812 597.46875 520.542969 596.023438 518.402344 Z M 529.476562 507.199219 L 532.070312 514.984375 L 472.816406 514.984375 C 469.632812 514.984375 466.773438 516.921875 465.585938 519.871094 L 445.035156 571.238281 L 435.1875 507.199219 Z M 553.171875 592.824219 L 453.175781 592.824219 L 478.085938 530.550781 L 578.089844 530.550781 Z M 553.171875 592.824219 " fill-opacity="1" fill-rule="nonzero"/></g><path fill="#ffffff" d="M 247.078125 188.050781 L 262.644531 188.050781 L 262.644531 203.621094 L 247.078125 203.621094 Z M 247.078125 188.050781 " fill-opacity="1" fill-rule="nonzero"/><path fill="#ffffff" d="M 247.078125 156.917969 L 262.644531 156.917969 L 262.644531 172.484375 L 247.078125 172.484375 Z M 247.078125 156.917969 " fill-opacity="1" fill-rule="nonzero"/><path fill="#ffffff" d="M 278.214844 156.917969 L 293.78125 156.917969 L 293.78125 172.484375 L 278.214844 172.484375 Z M 278.214844 156.917969 " fill-opacity="1" fill-rule="nonzero"/><path fill="#ffffff" d="M 309.351562 156.917969 L 324.917969 156.917969 L 324.917969 172.484375 L 309.351562 172.484375 Z M 309.351562 156.917969 " fill-opacity="1" fill-rule="nonzero"/><path fill="#ffffff" d="M 340.484375 156.917969 L 356.054688 156.917969 L 356.054688 172.484375 L 340.484375 172.484375 Z M 340.484375 156.917969 " fill-opacity="1" fill-rule="nonzero"/><path fill="#ffffff" d="M 371.621094 156.917969 L 387.191406 156.917969 L 387.191406 172.484375 L 371.621094 172.484375 Z M 371.621094 156.917969 " fill-opacity="1" fill-rule="nonzero"/><path fill="#ffffff" d="M 371.621094 156.917969 L 387.191406 156.917969 L 387.191406 172.484375 L 371.621094 172.484375 Z M 371.621094 156.917969 " fill-opacity="1" fill-rule="nonzero"/><path fill="#ffffff" d="M 247.078125 546.121094 L 262.644531 546.121094 L 262.644531 561.6875 L 247.078125 561.6875 Z M 247.078125 546.121094 " fill-opacity="1" fill-rule="nonzero"/><path fill="#ffffff" d="M 247.078125 577.257812 L 262.644531 577.257812 L 262.644531 592.824219 L 247.078125 592.824219 Z M 247.078125 577.257812 " fill-opacity="1" fill-rule="nonzero"/><path fill="#ffffff" d="M 278.214844 577.257812 L 293.78125 577.257812 L 293.78125 592.824219 L 278.214844 592.824219 Z M 278.214844 577.257812 " fill-opacity="1" fill-rule="nonzero"/><path fill="#ffffff" d="M 309.351562 577.257812 L 324.917969 577.257812 L 324.917969 592.824219 L 309.351562 592.824219 Z M 309.351562 577.257812 " fill-opacity="1" fill-rule="nonzero"/><path fill="#ffffff" d="M 340.484375 577.257812 L 356.054688 577.257812 L 356.054688 592.824219 L 340.484375 592.824219 Z M 340.484375 577.257812 " fill-opacity="1" fill-rule="nonzero"/><path fill="#ffffff" d="M 371.621094 577.257812 L 387.191406 577.257812 L 387.191406 592.824219 L 371.621094 592.824219 Z M 371.621094 577.257812 " fill-opacity="1" fill-rule="nonzero"/><path fill="#ffffff" d="M 371.621094 577.257812 L 387.191406 577.257812 L 387.191406 592.824219 L 371.621094 592.824219 Z M 371.621094 577.257812 " fill-opacity="1" fill-rule="nonzero"/><g clip-path="url(#dfc8cede18)"><path fill="#ffffff" d="M 254.859375 219.1875 C 194.480469 219.1875 130.316406 236.921875 130.316406 269.785156 L 130.316406 491.632812 C 130.316406 493.195312 130.789062 494.730469 131.671875 496.023438 C 145.347656 516.027344 197.148438 530.550781 254.859375 530.550781 C 309.785156 530.550781 365.046875 515.0625 378.050781 496.023438 C 378.933594 494.730469 379.40625 493.195312 379.40625 491.632812 L 379.40625 269.785156 C 379.40625 236.921875 315.242188 219.1875 254.859375 219.1875 Z M 254.859375 234.757812 C 322.378906 234.757812 363.839844 255.160156 363.839844 269.785156 C 363.839844 284.410156 322.378906 304.8125 254.859375 304.8125 C 187.34375 304.8125 145.882812 284.410156 145.882812 269.785156 C 145.882812 255.160156 187.34375 234.757812 254.859375 234.757812 Z M 363.839844 414.882812 C 352.261719 427.800781 307.371094 441.035156 254.859375 441.035156 C 202.351562 441.035156 157.457031 427.800781 145.882812 414.882812 L 145.882812 361.335938 C 168.550781 377.828125 212.59375 386.546875 254.859375 386.546875 C 297.128906 386.546875 341.171875 377.828125 363.839844 361.335938 Z M 254.859375 514.984375 C 202.503906 514.984375 157.621094 501.828125 145.882812 488.9375 L 145.882812 434.300781 C 168.394531 447.714844 209.785156 456.597656 254.859375 456.597656 C 299.9375 456.597656 341.328125 447.714844 363.839844 434.300781 L 363.839844 488.890625 C 352.972656 500.304688 308.835938 514.984375 254.859375 514.984375 Z M 254.859375 370.980469 C 187.34375 370.980469 145.882812 350.578125 145.882812 335.949219 L 145.882812 295.167969 C 168.550781 311.664062 212.59375 320.382812 254.859375 320.382812 C 297.128906 320.382812 341.171875 311.664062 363.839844 295.167969 L 363.839844 335.949219 C 363.839844 350.578125 322.378906 370.980469 254.859375 370.980469 Z M 254.859375 370.980469 " fill-opacity="1" fill-rule="nonzero"/></g><path fill="#0d68b1" d="M 265 233.175781 L 265 215.175781 L 268 215.175781 L 268 233.175781 Z M 265 212.175781 L 265 201.882812 C 265 200.136719 265.589844 198.617188 266.769531 197.328125 C 267.941406 196.050781 269.386719 195.328125 271.105469 195.164062 L 271.390625 198.152344 C 269.128906 198.363281 268 199.609375 268 201.882812 L 268 212.175781 Z M 274.265625 195.132812 L 292.265625 195.132812 L 292.265625 198.132812 L 274.265625 198.132812 Z M 295.265625 195.132812 L 313.265625 195.132812 L 313.265625 198.132812 L 295.265625 198.132812 Z M 316.265625 195.132812 L 334.265625 195.132812 L 334.265625 198.132812 L 316.265625 198.132812 Z M 337.265625 195.132812 L 355.265625 195.132812 L 355.265625 198.132812 L 337.265625 198.132812 Z M 358.265625 195.132812 L 376.265625 195.132812 L 376.265625 198.132812 L 358.265625 198.132812 Z M 379.265625 195.132812 L 397.265625 195.132812 L 397.265625 198.132812 L 379.265625 198.132812 Z M 400.265625 195.132812 L 418.265625 195.132812 L 418.265625 198.132812 L 400.265625 198.132812 Z M 400.265625 195.132812 " fill-opacity="1" fill-rule="nonzero"/><path fill="#0d68b1" d="M 250.167969 517.027344 L 250.167969 535.027344 L 247.167969 535.027344 L 247.167969 517.027344 Z M 250.167969 538.027344 L 250.167969 553.867188 C 250.167969 554.421875 250.265625 554.953125 250.460938 555.464844 L 247.65625 556.53125 C 247.332031 555.675781 247.167969 554.789062 247.167969 553.867188 L 247.167969 538.027344 Z M 251.75 557.292969 C 252.589844 558.007812 253.5625 558.367188 254.667969 558.367188 L 268.460938 558.367188 L 268.460938 561.367188 L 254.667969 561.367188 C 252.824219 561.367188 251.203125 560.769531 249.800781 559.574219 Z M 271.460938 558.367188 L 289.460938 558.367188 L 289.460938 561.367188 L 271.460938 561.367188 Z M 292.460938 558.367188 L 310.460938 558.367188 L 310.460938 561.367188 L 292.460938 561.367188 Z M 313.460938 558.367188 L 331.460938 558.367188 L 331.460938 561.367188 L 313.460938 561.367188 Z M 334.460938 558.367188 L 352.460938 558.367188 L 352.460938 561.367188 L 334.460938 561.367188 Z M 355.460938 558.367188 L 373.460938 558.367188 L 373.460938 561.367188 L 355.460938 561.367188 Z M 376.460938 558.367188 L 394.460938 558.367188 L 394.460938 561.367188 L 376.460938 561.367188 Z M 397.460938 558.367188 L 415.460938 558.367188 L 415.460938 561.367188 L 397.460938 561.367188 Z M 418.460938 558.367188 L 418.917969 558.367188 L 418.917969 561.367188 L 418.460938 561.367188 Z M 418.460938 558.367188 " fill-opacity="1" fill-rule="nonzero"/></svg>