<svg xmlns="http://www.w3.org/2000/svg" xmlns:xlink="http://www.w3.org/1999/xlink" width="1000" zoomAndPan="magnify" viewBox="0 0 750 749.999995" height="1000" preserveAspectRatio="xMidYMid meet" version="1.0"><defs><clipPath id="608f0bb314"><path d="M 124 43 L 156 43 L 156 83 L 124 83 Z M 124 43 " clip-rule="nonzero"/></clipPath><clipPath id="b4a73ff941"><path d="M 61.144531 33.996094 L 161.070312 44.710938 L 139.242188 248.292969 L 39.316406 237.578125 Z M 61.144531 33.996094 " clip-rule="nonzero"/></clipPath><clipPath id="6d84b46c1d"><path d="M 61.144531 33.996094 L 161.070312 44.710938 L 139.242188 248.292969 L 39.316406 237.578125 Z M 61.144531 33.996094 " clip-rule="nonzero"/></clipPath><clipPath id="e55ae0bc04"><path d="M 71 106 L 114 106 L 114 129 L 71 129 Z M 71 106 " clip-rule="nonzero"/></clipPath><clipPath id="776910ae91"><path d="M 61.144531 33.996094 L 161.070312 44.710938 L 139.242188 248.292969 L 39.316406 237.578125 Z M 61.144531 33.996094 " clip-rule="nonzero"/></clipPath><clipPath id="4502b15413"><path d="M 61.144531 33.996094 L 161.070312 44.710938 L 139.242188 248.292969 L 39.316406 237.578125 Z M 61.144531 33.996094 " clip-rule="nonzero"/></clipPath><clipPath id="6888325fb3"><path d="M 45 184 L 88 184 L 88 205 L 45 205 Z M 45 184 " clip-rule="nonzero"/></clipPath><clipPath id="942059d81c"><path d="M 61.144531 33.996094 L 161.070312 44.710938 L 139.242188 248.292969 L 39.316406 237.578125 Z M 61.144531 33.996094 " clip-rule="nonzero"/></clipPath><clipPath id="14d7e1f380"><path d="M 61.144531 33.996094 L 161.070312 44.710938 L 139.242188 248.292969 L 39.316406 237.578125 Z M 61.144531 33.996094 " clip-rule="nonzero"/></clipPath><clipPath id="da43f9101f"><path d="M 64 221 L 83 221 L 83 235 L 64 235 Z M 64 221 " clip-rule="nonzero"/></clipPath><clipPath id="fa1ebd44c1"><path d="M 61.144531 33.996094 L 161.070312 44.710938 L 139.242188 248.292969 L 39.316406 237.578125 Z M 61.144531 33.996094 " clip-rule="nonzero"/></clipPath><clipPath id="d14b71a162"><path d="M 61.144531 33.996094 L 161.070312 44.710938 L 139.242188 248.292969 L 39.316406 237.578125 Z M 61.144531 33.996094 " clip-rule="nonzero"/></clipPath><clipPath id="9a2765406c"><path d="M 81 131 L 112 131 L 112 146 L 81 146 Z M 81 131 " clip-rule="nonzero"/></clipPath><clipPath id="4555f4c15c"><path d="M 61.144531 33.996094 L 161.070312 44.710938 L 139.242188 248.292969 L 39.316406 237.578125 Z M 61.144531 33.996094 " clip-rule="nonzero"/></clipPath><clipPath id="1ff46ca595"><path d="M 61.144531 33.996094 L 161.070312 44.710938 L 139.242188 248.292969 L 39.316406 237.578125 Z M 61.144531 33.996094 " clip-rule="nonzero"/></clipPath><clipPath id="cbff54af02"><path d="M 618 586 L 701 586 L 701 698 L 618 698 Z M 618 586 " clip-rule="nonzero"/></clipPath><clipPath id="027e68e1e5"><path d="M 598.144531 604.148438 L 699.460938 583.003906 L 719.839844 680.648438 L 618.523438 701.792969 Z M 598.144531 604.148438 " clip-rule="nonzero"/></clipPath><clipPath id="5736990393"><path d="M 598.144531 604.148438 L 699.460938 583.003906 L 719.839844 680.648438 L 618.523438 701.792969 Z M 598.144531 604.148438 " clip-rule="nonzero"/></clipPath><clipPath id="b316fb26ce"><path d="M 161 167 L 638.488281 167 L 638.488281 582.816406 L 161 582.816406 Z M 161 167 " clip-rule="nonzero"/></clipPath><clipPath id="4d52490944"><path d="M 217.144531 296.792969 L 442.144531 296.792969 L 442.144531 563.828125 L 217.144531 563.828125 Z M 217.144531 296.792969 " clip-rule="nonzero"/></clipPath><clipPath id="64dfaf5afa"><path d="M 231.636719 324.558594 L 427.386719 324.558594 L 427.386719 520.308594 L 231.636719 520.308594 Z M 231.636719 324.558594 " clip-rule="nonzero"/></clipPath></defs><rect x="-75" width="900" fill="#ffffff" y="-74.999999" height="899.999994" fill-opacity="1"/><rect x="-75" width="900" fill="#ffffff" y="-74.999999" height="899.999994" fill-opacity="1"/><g clip-path="url(#608f0bb314)"><g clip-path="url(#b4a73ff941)"><g clip-path="url(#6d84b46c1d)"><path fill="#00b696" d="M 154.601562 73.90625 C 154.601562 73.90625 157.113281 78.042969 153.070312 80.984375 C 149.027344 83.925781 146.058594 80.796875 144.769531 79.039062 C 140.761719 73.757812 125.589844 53.914062 125.589844 53.914062 C 125.589844 53.914062 122.804688 49.042969 128.035156 45.527344 C 133.574219 41.757812 136.894531 45.5625 138.421875 47.695312 C 142.886719 53.941406 154.601562 73.90625 154.601562 73.90625 Z M 154.601562 73.90625 " fill-opacity="1" fill-rule="nonzero"/></g></g></g><g clip-path="url(#e55ae0bc04)"><g clip-path="url(#776910ae91)"><g clip-path="url(#4502b15413)"><path fill="#00b696" d="M 110.421875 118.613281 C 110.421875 118.613281 115.039062 120.160156 113.699219 124.800781 C 112.488281 129.523438 108.175781 129.0625 106.121094 128.558594 C 99.730469 127.171875 76.230469 119.375 76.230469 119.375 C 76.230469 119.375 69.527344 117.601562 72.765625 110.355469 C 75.285156 104.574219 80.863281 107 80.863281 107 Z M 110.421875 118.613281 " fill-opacity="1" fill-rule="nonzero"/></g></g></g><g clip-path="url(#6888325fb3)"><g clip-path="url(#942059d81c)"><g clip-path="url(#14d7e1f380)"><path fill="#00b696" d="M 81.230469 184.898438 C 81.230469 184.898438 85.9375 183.644531 87.40625 188.304688 C 88.875 192.964844 85.09375 194.808594 83.109375 195.582031 C 76.964844 197.804688 53.015625 204.027344 53.015625 204.027344 C 53.015625 204.027344 46.453125 206.207031 45.1875 198.335938 C 44.242188 192.046875 50.179688 191.136719 50.179688 191.136719 Z M 81.230469 184.898438 " fill-opacity="1" fill-rule="nonzero"/></g></g></g><g clip-path="url(#da43f9101f)"><g clip-path="url(#fa1ebd44c1)"><g clip-path="url(#d14b71a162)"><path fill="#00b696" d="M 78.847656 231.414062 C 78.847656 231.414062 83.046875 229.613281 81.773438 225.117188 C 80.207031 219.394531 73.953125 221.957031 73.953125 221.957031 C 73.953125 221.957031 63.808594 223.402344 64.632812 230.171875 C 65.890625 240.082031 78.847656 231.414062 78.847656 231.414062 Z M 78.847656 231.414062 " fill-opacity="1" fill-rule="nonzero"/></g></g></g><g clip-path="url(#9a2765406c)"><g clip-path="url(#4555f4c15c)"><g clip-path="url(#1ff46ca595)"><path fill="#00b696" d="M 85.847656 143.828125 C 83.898438 143.617188 81.027344 143.523438 81.71875 137.054688 C 82.292969 131.703125 86.933594 131.707031 89.160156 131.945312 C 94.082031 132.613281 102.148438 133.480469 108.671875 135.585938 C 113.636719 137.171875 112.140625 145.875 106.550781 145.554688 C 102.285156 145.308594 91.894531 144.476562 85.847656 143.828125 Z M 85.847656 143.828125 " fill-opacity="1" fill-rule="nonzero"/></g></g></g><g clip-path="url(#cbff54af02)"><g clip-path="url(#027e68e1e5)"><g clip-path="url(#5736990393)"><path fill="#0d68b1" d="M 694.332031 587.96875 C 692.519531 584.589844 687.191406 587.300781 689.023438 590.699219 C 696.421875 604.464844 698.03125 623.859375 684.445312 633.820312 C 684.226562 631.949219 683.839844 630.101562 683.292969 628.300781 C 681.066406 621.261719 675.347656 614.953125 667.644531 614.351562 C 660.824219 613.824219 654.070312 617.820312 652.613281 624.75 C 650.976562 632.410156 655.992188 639.476562 662.851562 642.472656 C 667.824219 644.546875 673.355469 644.851562 678.523438 643.335938 C 676.523438 655.675781 667.722656 668.039062 659.457031 675.375 C 649.890625 683.949219 634.765625 691.511719 621.664062 691.046875 C 617.828125 690.910156 617.425781 696.8125 621.285156 697.007812 C 636.285156 697.683594 653.289062 689.253906 664.152344 679.214844 C 674.203125 669.921875 683.628906 655.351562 684.664062 640.773438 L 685.003906 640.59375 C 703.9375 629.480469 703.722656 605.417969 694.332031 587.96875 Z M 658.496094 629.792969 C 657.101562 624.054688 661.695312 619.816406 667.222656 620.332031 C 671.910156 620.769531 675.347656 624.542969 677.0625 628.671875 C 678.125 631.273438 678.734375 634.03125 678.863281 636.835938 C 671.4375 639.546875 660.652344 638.660156 658.496094 629.792969 Z M 658.496094 629.792969 " fill-opacity="1" fill-rule="nonzero"/></g></g></g><g clip-path="url(#b316fb26ce)"><path fill="#0d68b1" d="M 611.011719 188.824219 L 313.472656 188.824219 C 304.933594 184.953125 294.898438 184.777344 285.863281 188.285156 C 276.210938 173.203125 258.414062 165.066406 240.519531 167.886719 C 222.121094 170.773438 207.558594 184.445312 203.40625 202.351562 C 185.332031 203.71875 169.765625 214.742188 164.105469 230.492188 C 161.644531 237.359375 161.167969 244.941406 162.714844 252.421875 C 166.351562 269.988281 180.828125 283.335938 198.519531 286.425781 L 198.445312 556.1875 C 198.445312 571.007812 210.5625 583.066406 225.460938 583.066406 L 611.011719 583.066406 C 625.90625 583.066406 638.023438 571.007812 638.023438 556.1875 L 638.023438 215.707031 C 638.023438 200.882812 625.902344 188.824219 611.011719 188.824219 Z M 608.328125 213.570312 C 611.003906 213.570312 613.183594 215.726562 613.183594 218.378906 C 613.183594 221.035156 611.003906 223.199219 608.328125 223.199219 C 605.644531 223.199219 603.460938 221.035156 603.460938 218.378906 C 603.460938 215.726562 605.644531 213.570312 608.328125 213.570312 Z M 573.765625 213.570312 C 576.441406 213.570312 578.621094 215.726562 578.621094 218.378906 C 578.621094 221.035156 576.441406 223.199219 573.765625 223.199219 C 571.082031 223.199219 568.898438 221.035156 568.898438 218.378906 C 568.898438 215.726562 571.082031 213.570312 573.765625 213.570312 Z M 170.117188 250.890625 C 168.847656 244.769531 169.230469 238.597656 171.21875 233.046875 C 176.140625 219.355469 190.355469 210 206.597656 209.769531 C 208.429688 209.746094 209.980469 208.40625 210.273438 206.59375 C 212.882812 190.449219 225.503906 177.890625 241.691406 175.351562 C 243.660156 175.042969 245.621094 174.894531 247.570312 174.894531 C 261.371094 174.894531 274.324219 182.460938 280.980469 194.890625 C 281.949219 196.695312 284.175781 197.398438 286.007812 196.480469 C 294.019531 192.457031 303.363281 192.28125 311 196.003906 C 311.050781 196.027344 311.101562 196.050781 311.15625 196.070312 C 314.851562 197.90625 317.921875 200.566406 320.035156 203.773438 C 324.851562 211.078125 324.800781 221.328125 319.910156 229.894531 C 319.195312 231.148438 319.253906 232.699219 320.066406 233.894531 C 320.878906 235.089844 322.304688 235.710938 323.730469 235.507812 C 333.25 234.144531 342.6875 238.34375 347.789062 246.21875 C 347.789062 246.222656 347.792969 246.226562 347.796875 246.226562 C 348.636719 247.519531 349.347656 248.898438 349.914062 250.347656 C 350.066406 250.734375 350.203125 251.125 350.328125 251.503906 C 352.425781 257.882812 351.320312 264.726562 347.300781 270.28125 C 343.097656 276.082031 336.316406 279.546875 329.152344 279.546875 L 206.34375 279.546875 C 188.792969 279.546875 173.558594 267.496094 170.117188 250.890625 Z M 630.464844 556.1875 C 630.464844 566.839844 621.738281 575.507812 611.011719 575.507812 L 225.457031 575.507812 C 214.730469 575.507812 206.003906 566.839844 206.003906 556.1875 L 206.003906 287.097656 C 206.117188 287.097656 206.230469 287.105469 206.34375 287.105469 L 329.152344 287.105469 C 338.730469 287.105469 347.804688 282.472656 353.421875 274.710938 C 358.882812 267.171875 360.371094 257.851562 357.503906 249.136719 C 357.371094 248.734375 357.226562 248.335938 357.078125 247.941406 L 630.464844 247.941406 Z M 630.464844 556.1875 " fill-opacity="1" fill-rule="nonzero"/></g><path fill="#0d68b1" d="M 452.796875 548.695312 L 608.324219 548.695312 C 610.414062 548.695312 612.105469 547 612.105469 544.914062 L 612.105469 287.125 C 612.105469 285.039062 610.414062 283.34375 608.324219 283.34375 L 452.796875 283.34375 C 450.707031 283.34375 449.015625 285.039062 449.015625 287.125 L 449.015625 544.914062 C 449.015625 547 450.710938 548.695312 452.796875 548.695312 Z M 456.574219 290.902344 L 604.546875 290.902344 L 604.546875 541.136719 L 456.574219 541.136719 Z M 456.574219 290.902344 " fill-opacity="1" fill-rule="nonzero"/><path fill="#0d68b1" d="M 478.710938 320.976562 L 582.398438 320.976562 C 584.488281 320.976562 586.179688 319.285156 586.179688 317.199219 C 586.179688 315.113281 584.488281 313.417969 582.398438 313.417969 L 478.710938 313.417969 C 476.625 313.417969 474.933594 315.113281 474.933594 317.199219 C 474.933594 319.285156 476.625 320.976562 478.710938 320.976562 Z M 478.710938 320.976562 " fill-opacity="1" fill-rule="nonzero"/><path fill="#0d68b1" d="M 478.710938 351.054688 L 582.398438 351.054688 C 584.488281 351.054688 586.179688 349.363281 586.179688 347.273438 C 586.179688 345.1875 584.488281 343.496094 582.398438 343.496094 L 478.710938 343.496094 C 476.625 343.496094 474.933594 345.1875 474.933594 347.273438 C 474.933594 349.363281 476.625 351.054688 478.710938 351.054688 Z M 478.710938 351.054688 " fill-opacity="1" fill-rule="nonzero"/><path fill="#0d68b1" d="M 478.710938 381.125 L 582.398438 381.125 C 584.488281 381.125 586.179688 379.433594 586.179688 377.347656 C 586.179688 375.261719 584.488281 373.566406 582.398438 373.566406 L 478.710938 373.566406 C 476.625 373.566406 474.933594 375.261719 474.933594 377.347656 C 474.933594 379.433594 476.625 381.125 478.710938 381.125 Z M 478.710938 381.125 " fill-opacity="1" fill-rule="nonzero"/><path fill="#0d68b1" d="M 487.359375 416.539062 C 478.128906 416.539062 470.617188 424.015625 470.617188 433.207031 C 470.617188 442.398438 478.128906 449.875 487.359375 449.875 C 496.589844 449.875 504.101562 442.398438 504.101562 433.207031 C 504.101562 424.015625 496.589844 416.539062 487.359375 416.539062 Z M 487.359375 416.539062 " fill-opacity="1" fill-rule="nonzero"/><path fill="#0d68b1" d="M 586.71875 429.425781 L 521.921875 429.425781 C 519.835938 429.425781 518.140625 431.117188 518.140625 433.207031 C 518.140625 435.292969 519.835938 436.984375 521.921875 436.984375 L 586.71875 436.984375 C 588.804688 436.984375 590.496094 435.292969 590.496094 433.207031 C 590.496094 431.117188 588.804688 429.425781 586.71875 429.425781 Z M 586.71875 429.425781 " fill-opacity="1" fill-rule="nonzero"/><path fill="#0d68b1" d="M 487.359375 472.386719 C 478.128906 472.386719 470.617188 479.871094 470.617188 489.0625 C 470.617188 498.253906 478.128906 505.730469 487.359375 505.730469 C 496.589844 505.730469 504.101562 498.253906 504.101562 489.0625 C 504.101562 479.871094 496.589844 472.386719 487.359375 472.386719 Z M 487.359375 472.386719 " fill-opacity="1" fill-rule="nonzero"/><path fill="#0d68b1" d="M 586.71875 485.285156 L 521.921875 485.285156 C 519.835938 485.285156 518.140625 486.976562 518.140625 489.066406 C 518.140625 491.152344 519.835938 492.84375 521.921875 492.84375 L 586.71875 492.84375 C 588.804688 492.84375 590.496094 491.152344 590.496094 489.066406 C 590.496094 486.976562 588.804688 485.285156 586.71875 485.285156 Z M 586.71875 485.285156 " fill-opacity="1" fill-rule="nonzero"/><path fill="#0d68b1" d="M 366.390625 351.054688 L 379.890625 351.054688 L 379.890625 544.914062 C 379.890625 547.003906 381.585938 548.695312 383.671875 548.695312 L 409.597656 548.695312 C 411.683594 548.695312 413.378906 547.003906 413.378906 544.914062 L 413.378906 351.054688 L 426.878906 351.054688 C 428.964844 351.054688 430.660156 349.363281 430.660156 347.273438 L 430.660156 321.5 C 430.660156 319.410156 428.964844 317.71875 426.878906 317.71875 L 413.378906 317.71875 L 413.378906 304.3125 C 413.378906 302.226562 411.683594 300.53125 409.597656 300.53125 L 383.671875 300.53125 C 381.585938 300.53125 379.890625 302.226562 379.890625 304.3125 L 379.890625 317.71875 L 366.390625 317.71875 C 364.304688 317.71875 362.609375 319.410156 362.609375 321.5 L 362.609375 347.273438 C 362.609375 349.363281 364.304688 351.054688 366.390625 351.054688 Z M 370.167969 325.277344 L 423.101562 325.277344 L 423.101562 343.492188 L 370.167969 343.492188 Z M 370.167969 325.277344 " fill-opacity="1" fill-rule="nonzero"/><path fill="#0d68b1" d="M 288.628906 343.496094 L 275.128906 343.496094 L 275.128906 304.3125 C 275.128906 302.222656 273.4375 300.53125 271.347656 300.53125 L 245.425781 300.53125 C 243.335938 300.53125 241.644531 302.222656 241.644531 304.3125 L 241.644531 343.496094 L 228.152344 343.496094 C 226.066406 343.496094 224.371094 345.1875 224.371094 347.273438 L 224.371094 373.058594 C 224.371094 375.144531 226.066406 376.839844 228.152344 376.839844 L 241.644531 376.839844 L 241.644531 544.914062 C 241.644531 547.003906 243.335938 548.695312 245.425781 548.695312 L 271.347656 548.695312 C 273.4375 548.695312 275.128906 547.003906 275.128906 544.914062 L 275.128906 376.839844 L 288.628906 376.839844 C 290.71875 376.839844 292.410156 375.144531 292.410156 373.058594 L 292.410156 347.273438 C 292.410156 345.1875 290.71875 343.496094 288.628906 343.496094 Z M 284.851562 369.28125 L 231.929688 369.28125 L 231.929688 351.054688 L 284.851562 351.054688 Z M 284.851562 369.28125 " fill-opacity="1" fill-rule="nonzero"/><path fill="#0d68b1" d="M 344.253906 446.613281 L 344.253906 304.3125 C 344.253906 302.222656 342.5625 300.53125 340.472656 300.53125 L 314.546875 300.53125 C 312.460938 300.53125 310.769531 302.222656 310.769531 304.3125 L 310.769531 446.613281 L 297.265625 446.613281 C 295.179688 446.613281 293.488281 448.304688 293.488281 450.394531 L 293.488281 476.167969 C 293.488281 478.253906 295.179688 479.949219 297.265625 479.949219 L 310.769531 479.949219 L 310.769531 544.914062 C 310.769531 547 312.460938 548.695312 314.546875 548.695312 L 340.472656 548.695312 C 342.5625 548.695312 344.253906 547 344.253906 544.914062 L 344.253906 479.949219 L 357.753906 479.949219 C 359.84375 479.949219 361.535156 478.253906 361.535156 476.167969 L 361.535156 450.394531 C 361.535156 448.304688 359.84375 446.613281 357.753906 446.613281 Z M 353.976562 472.386719 L 301.046875 472.386719 L 301.046875 454.171875 L 353.976562 454.171875 Z M 353.976562 472.386719 " fill-opacity="1" fill-rule="nonzero"/><g clip-path="url(#4d52490944)"><path fill="#ffffff" d="M 217.144531 296.792969 L 442.144531 296.792969 L 442.144531 563.828125 L 217.144531 563.828125 Z M 217.144531 296.792969 " fill-opacity="1" fill-rule="nonzero"/></g><g clip-path="url(#64dfaf5afa)"><path fill="#00b696" d="M 421.113281 504.21875 C 421.113281 509.617188 416.722656 514.019531 411.3125 514.019531 L 247.972656 514.019531 C 242.5625 514.019531 238.171875 509.617188 238.171875 504.21875 L 238.171875 340.878906 C 238.171875 335.46875 242.5625 331.082031 247.972656 331.082031 L 411.3125 331.082031 C 416.722656 331.082031 421.113281 335.46875 421.113281 340.878906 Z M 411.3125 324.546875 L 247.972656 324.546875 C 238.960938 324.546875 231.636719 331.871094 231.636719 340.878906 L 231.636719 504.21875 C 231.636719 513.21875 238.960938 520.554688 247.972656 520.554688 L 411.3125 520.554688 C 420.320312 520.554688 427.644531 513.21875 427.644531 504.21875 L 427.644531 340.878906 C 427.644531 331.871094 420.320312 324.546875 411.3125 324.546875 " fill-opacity="1" fill-rule="nonzero"/></g><path fill="#00b696" d="M 280.640625 383.347656 C 275.230469 383.347656 270.839844 378.945312 270.839844 373.546875 C 270.839844 368.136719 275.230469 363.75 280.640625 363.75 C 286.050781 363.75 290.441406 368.136719 290.441406 373.546875 C 290.441406 378.945312 286.050781 383.347656 280.640625 383.347656 Z M 404.777344 370.28125 L 296.640625 370.28125 C 295.121094 362.828125 288.527344 357.214844 280.640625 357.214844 C 272.753906 357.214844 266.15625 362.828125 264.636719 370.28125 L 254.503906 370.28125 C 252.707031 370.28125 251.238281 371.738281 251.238281 373.546875 C 251.238281 375.347656 252.707031 376.816406 254.503906 376.816406 L 264.636719 376.816406 C 266.15625 384.253906 272.753906 389.882812 280.640625 389.882812 C 288.527344 389.882812 295.121094 384.253906 296.640625 376.816406 L 404.777344 376.816406 C 406.578125 376.816406 408.042969 375.347656 408.042969 373.546875 C 408.042969 371.738281 406.578125 370.28125 404.777344 370.28125 " fill-opacity="1" fill-rule="nonzero"/><path fill="#00b696" d="M 319.839844 481.351562 C 314.429688 481.351562 310.039062 476.949219 310.039062 471.550781 C 310.039062 466.140625 314.429688 461.753906 319.839844 461.753906 C 325.25 461.753906 329.640625 466.140625 329.640625 471.550781 C 329.640625 476.949219 325.25 481.351562 319.839844 481.351562 Z M 404.777344 468.285156 L 335.84375 468.285156 C 334.324219 460.832031 327.726562 455.21875 319.839844 455.21875 C 311.953125 455.21875 305.355469 460.832031 303.839844 468.285156 L 254.503906 468.285156 C 252.707031 468.285156 251.238281 469.742188 251.238281 471.550781 C 251.238281 473.351562 252.707031 474.820312 254.503906 474.820312 L 303.839844 474.820312 C 305.355469 482.257812 311.953125 487.886719 319.839844 487.886719 C 327.726562 487.886719 334.324219 482.257812 335.84375 474.820312 L 404.777344 474.820312 C 406.578125 474.820312 408.042969 473.351562 408.042969 471.550781 C 408.042969 469.742188 406.578125 468.285156 404.777344 468.285156 " fill-opacity="1" fill-rule="nonzero"/><path fill="#00b696" d="M 362.308594 432.351562 C 356.898438 432.351562 352.507812 427.949219 352.507812 422.550781 C 352.507812 417.140625 356.898438 412.75 362.308594 412.75 C 367.71875 412.75 372.109375 417.140625 372.109375 422.550781 C 372.109375 427.949219 367.71875 432.351562 362.308594 432.351562 Z M 404.777344 419.285156 L 378.3125 419.285156 C 376.792969 411.832031 370.195312 406.214844 362.308594 406.214844 C 354.421875 406.214844 347.824219 411.832031 346.308594 419.285156 L 254.503906 419.285156 C 252.707031 419.285156 251.238281 420.738281 251.238281 422.550781 C 251.238281 424.351562 252.707031 425.816406 254.503906 425.816406 L 346.308594 425.816406 C 347.824219 433.257812 354.421875 438.882812 362.308594 438.882812 C 370.195312 438.882812 376.792969 433.257812 378.3125 425.816406 L 404.777344 425.816406 C 406.578125 425.816406 408.042969 424.351562 408.042969 422.550781 C 408.042969 420.738281 406.578125 419.285156 404.777344 419.285156 " fill-opacity="1" fill-rule="nonzero"/></svg>