<svg xmlns="http://www.w3.org/2000/svg" xmlns:xlink="http://www.w3.org/1999/xlink" width="1000" zoomAndPan="magnify" viewBox="0 0 750 749.999995" height="1000" preserveAspectRatio="xMidYMid meet" version="1.0"><defs><clipPath id="94c96989e7"><path d="M 122.527344 234.269531 L 617.9375 234.269531 L 617.9375 637.757812 L 122.527344 637.757812 Z M 122.527344 234.269531 " clip-rule="nonzero"/></clipPath><clipPath id="39369b3520"><path d="M 113 122 L 144 122 L 144 161 L 113 161 Z M 113 122 " clip-rule="nonzero"/></clipPath><clipPath id="4e696c0fab"><path d="M 49.3125 112.277344 L 149.238281 122.992188 L 127.410156 326.574219 L 27.484375 315.859375 Z M 49.3125 112.277344 " clip-rule="nonzero"/></clipPath><clipPath id="a93bcad1ea"><path d="M 49.3125 112.277344 L 149.238281 122.992188 L 127.410156 326.574219 L 27.484375 315.859375 Z M 49.3125 112.277344 " clip-rule="nonzero"/></clipPath><clipPath id="1841a9a646"><path d="M 60 184 L 103 184 L 103 208 L 60 208 Z M 60 184 " clip-rule="nonzero"/></clipPath><clipPath id="7b2a494231"><path d="M 49.3125 112.277344 L 149.238281 122.992188 L 127.410156 326.574219 L 27.484375 315.859375 Z M 49.3125 112.277344 " clip-rule="nonzero"/></clipPath><clipPath id="4d44b9c343"><path d="M 49.3125 112.277344 L 149.238281 122.992188 L 127.410156 326.574219 L 27.484375 315.859375 Z M 49.3125 112.277344 " clip-rule="nonzero"/></clipPath><clipPath id="ead98c592f"><path d="M 33 263 L 77 263 L 77 283 L 33 283 Z M 33 263 " clip-rule="nonzero"/></clipPath><clipPath id="47a8130e29"><path d="M 49.3125 112.277344 L 149.238281 122.992188 L 127.410156 326.574219 L 27.484375 315.859375 Z M 49.3125 112.277344 " clip-rule="nonzero"/></clipPath><clipPath id="558dacbfbf"><path d="M 49.3125 112.277344 L 149.238281 122.992188 L 127.410156 326.574219 L 27.484375 315.859375 Z M 49.3125 112.277344 " clip-rule="nonzero"/></clipPath><clipPath id="b58d65746e"><path d="M 52 299 L 71 299 L 71 314 L 52 314 Z M 52 299 " clip-rule="nonzero"/></clipPath><clipPath id="e419132e5e"><path d="M 49.3125 112.277344 L 149.238281 122.992188 L 127.410156 326.574219 L 27.484375 315.859375 Z M 49.3125 112.277344 " clip-rule="nonzero"/></clipPath><clipPath id="dff58d409a"><path d="M 49.3125 112.277344 L 149.238281 122.992188 L 127.410156 326.574219 L 27.484375 315.859375 Z M 49.3125 112.277344 " clip-rule="nonzero"/></clipPath><clipPath id="94a2be7eb1"><path d="M 69 210 L 101 210 L 101 225 L 69 225 Z M 69 210 " clip-rule="nonzero"/></clipPath><clipPath id="30f2e6b9ef"><path d="M 49.3125 112.277344 L 149.238281 122.992188 L 127.410156 326.574219 L 27.484375 315.859375 Z M 49.3125 112.277344 " clip-rule="nonzero"/></clipPath><clipPath id="575d397f74"><path d="M 49.3125 112.277344 L 149.238281 122.992188 L 127.410156 326.574219 L 27.484375 315.859375 Z M 49.3125 112.277344 " clip-rule="nonzero"/></clipPath><clipPath id="c817c83a08"><path d="M 610 509 L 702 509 L 702 633 L 610 633 Z M 610 509 " clip-rule="nonzero"/></clipPath><clipPath id="89a500a203"><path d="M 587.3125 529.152344 L 699.644531 505.710938 L 722.320312 614.367188 L 609.992188 637.8125 Z M 587.3125 529.152344 " clip-rule="nonzero"/></clipPath><clipPath id="fdac3ad7c3"><path d="M 587.3125 529.152344 L 699.644531 505.710938 L 722.320312 614.367188 L 609.992188 637.8125 Z M 587.3125 529.152344 " clip-rule="nonzero"/></clipPath><clipPath id="522cc6c953"><path d="M 423.722656 280.355469 L 572.972656 280.355469 L 572.972656 371.855469 L 423.722656 371.855469 Z M 423.722656 280.355469 " clip-rule="nonzero"/></clipPath></defs><rect x="-75" width="900" fill="#ffffff" y="-74.999999" height="899.999994" fill-opacity="1"/><rect x="-75" width="900" fill="#ffffff" y="-74.999999" height="899.999994" fill-opacity="1"/><g clip-path="url(#94c96989e7)"><path fill="#0d68b1" d="M 596.855469 570.117188 L 143.617188 570.117188 L 143.617188 257.417969 L 596.855469 257.417969 Z M 603.835938 234.265625 L 136.976562 234.265625 C 129.03125 234.265625 122.527344 240.613281 122.527344 248.382812 L 122.527344 584.042969 C 122.527344 591.800781 129.03125 598.15625 136.976562 598.15625 L 346.988281 598.15625 L 346.988281 615.53125 C 300.398438 618.996094 266.675781 628.753906 266.675781 636.972656 C 266.675781 637.238281 266.730469 637.496094 266.773438 637.757812 L 487.285156 637.757812 C 487.335938 637.496094 487.394531 637.238281 487.394531 636.972656 C 487.398438 627.714844 451.410156 617.886719 402.71875 615.046875 L 402.71875 598.15625 L 603.835938 598.15625 C 611.589844 598.15625 617.949219 591.800781 617.949219 584.042969 L 617.949219 248.382812 C 617.949219 240.613281 611.597656 234.265625 603.835938 234.265625 " fill-opacity="1" fill-rule="nonzero"/></g><path fill="#00b696" d="M 376.980469 476.921875 C 375.074219 478.617188 372.847656 479.464844 370.300781 479.464844 C 367.710938 479.464844 365.453125 478.628906 363.527344 476.953125 C 361.59375 475.277344 360.628906 472.933594 360.628906 469.925781 C 360.628906 467.292969 361.554688 465.054688 363.398438 463.210938 C 365.242188 461.363281 367.503906 460.445312 370.175781 460.445312 C 372.847656 460.445312 375.125 461.363281 377.011719 463.210938 C 378.894531 465.054688 379.839844 467.292969 379.839844 469.925781 C 379.839844 472.894531 378.890625 475.226562 376.980469 476.921875 Z M 363.398438 386.09375 C 365.242188 384.125 367.671875 383.136719 370.683594 383.136719 C 374.328125 383.136719 376.765625 384.402344 377.996094 386.925781 C 379.226562 389.445312 379.839844 393.082031 379.839844 397.835938 C 379.839844 400.632812 379.695312 403.472656 379.398438 406.363281 L 376.664062 437.726562 C 376.367188 441.460938 375.726562 444.324219 374.753906 446.316406 C 373.777344 448.3125 372.167969 449.308594 369.917969 449.308594 C 367.628906 449.308594 366.035156 448.34375 365.144531 446.414062 C 364.257812 444.484375 363.625 441.542969 363.242188 437.597656 L 361.207031 407.125 C 360.824219 401.183594 360.628906 396.921875 360.628906 394.335938 C 360.628906 390.816406 361.554688 388.070312 363.398438 386.09375 Z M 370.269531 325.785156 L 265.65625 506.949219 L 474.820312 506.984375 Z M 370.269531 325.785156 " fill-opacity="1" fill-rule="nonzero"/><g clip-path="url(#39369b3520)"><g clip-path="url(#4e696c0fab)"><g clip-path="url(#a93bcad1ea)"><path fill="#00b696" d="M 143.09375 152.269531 C 143.09375 152.269531 145.613281 156.414062 141.558594 159.363281 C 137.5 162.308594 134.519531 159.171875 133.226562 157.414062 C 129.207031 152.121094 113.980469 132.242188 113.980469 132.242188 C 113.980469 132.242188 111.183594 127.363281 116.433594 123.839844 C 121.988281 120.066406 125.320312 123.875 126.855469 126.011719 C 131.335938 132.269531 143.09375 152.269531 143.09375 152.269531 Z M 143.09375 152.269531 " fill-opacity="1" fill-rule="nonzero"/></g></g></g><g clip-path="url(#1841a9a646)"><g clip-path="url(#7b2a494231)"><g clip-path="url(#4d44b9c343)"><path fill="#00b696" d="M 98.773438 197.042969 C 98.773438 197.042969 103.40625 198.597656 102.0625 203.246094 C 100.847656 207.976562 96.523438 207.511719 94.457031 207.007812 C 88.046875 205.617188 64.464844 197.804688 64.464844 197.804688 C 64.464844 197.804688 57.738281 196.027344 60.988281 188.765625 C 63.515625 182.976562 69.109375 185.410156 69.109375 185.410156 Z M 98.773438 197.042969 " fill-opacity="1" fill-rule="nonzero"/></g></g></g><g clip-path="url(#ead98c592f)"><g clip-path="url(#47a8130e29)"><g clip-path="url(#558dacbfbf)"><path fill="#00b696" d="M 69.496094 263.4375 C 69.496094 263.4375 74.21875 262.183594 75.691406 266.851562 C 77.167969 271.519531 73.371094 273.363281 71.382812 274.136719 C 65.214844 276.367188 41.1875 282.59375 41.1875 282.59375 C 41.1875 282.59375 34.601562 284.777344 33.332031 276.890625 C 32.382812 270.589844 38.339844 269.679688 38.339844 269.679688 Z M 69.496094 263.4375 " fill-opacity="1" fill-rule="nonzero"/></g></g></g><g clip-path="url(#b58d65746e)"><g clip-path="url(#e419132e5e)"><g clip-path="url(#dff58d409a)"><path fill="#00b696" d="M 67.109375 310.03125 C 67.109375 310.03125 71.328125 308.230469 70.046875 303.722656 C 68.472656 297.992188 62.199219 300.558594 62.199219 300.558594 C 62.199219 300.558594 52.023438 302.003906 52.847656 308.785156 C 54.113281 318.710938 67.109375 310.03125 67.109375 310.03125 Z M 67.109375 310.03125 " fill-opacity="1" fill-rule="nonzero"/></g></g></g><g clip-path="url(#94a2be7eb1)"><g clip-path="url(#30f2e6b9ef)"><g clip-path="url(#575d397f74)"><path fill="#00b696" d="M 74.117188 222.300781 C 72.164062 222.089844 69.28125 221.992188 69.976562 215.515625 C 70.550781 210.152344 75.207031 210.15625 77.441406 210.398438 C 82.378906 211.066406 90.472656 211.933594 97.019531 214.046875 C 102.003906 215.636719 100.503906 224.351562 94.890625 224.03125 C 90.613281 223.785156 80.1875 222.949219 74.117188 222.300781 Z M 74.117188 222.300781 " fill-opacity="1" fill-rule="nonzero"/></g></g></g><g clip-path="url(#c817c83a08)"><g clip-path="url(#89a500a203)"><g clip-path="url(#fdac3ad7c3)"><path fill="#0d68b1" d="M 694.289062 511.171875 C 692.265625 507.402344 686.34375 510.421875 688.382812 514.210938 C 696.621094 529.558594 698.417969 551.175781 683.3125 562.269531 C 683.070312 560.1875 682.640625 558.128906 682.027344 556.121094 C 679.550781 548.273438 673.183594 541.238281 664.617188 540.5625 C 657.03125 539.972656 649.523438 544.421875 647.90625 552.144531 C 646.089844 560.683594 651.671875 568.5625 659.300781 571.90625 C 664.832031 574.21875 670.984375 574.5625 676.734375 572.878906 C 674.515625 586.628906 664.734375 600.40625 655.546875 608.578125 C 644.90625 618.128906 628.089844 626.550781 613.519531 626.027344 C 609.253906 625.871094 608.808594 632.449219 613.101562 632.667969 C 629.785156 633.429688 648.691406 624.042969 660.765625 612.859375 C 671.941406 602.503906 682.421875 586.269531 683.5625 570.023438 L 683.941406 569.824219 C 704.992188 557.445312 704.738281 530.625 694.289062 511.171875 Z M 654.453125 557.769531 C 652.898438 551.375 658.003906 546.648438 664.152344 547.230469 C 669.367188 547.71875 673.191406 551.925781 675.101562 556.53125 C 676.28125 559.429688 676.960938 562.507812 677.109375 565.632812 C 668.851562 568.648438 656.855469 567.65625 654.453125 557.769531 Z M 654.453125 557.769531 " fill-opacity="1" fill-rule="nonzero"/></g></g></g><g clip-path="url(#522cc6c953)"><path fill="#00b696" d="M 572.226562 417.6875 L 418.921875 417.6875 C 410.804688 417.6875 404.246094 411.140625 404.246094 403.214844 L 404.246094 138.539062 C 404.246094 130.441406 410.980469 123.722656 418.921875 123.722656 L 571.882812 123.722656 C 580.167969 123.722656 586.726562 130.441406 586.726562 138.539062 L 586.726562 402.871094 C 587.074219 411.140625 580.339844 417.6875 572.226562 417.6875 Z M 418.921875 132.164062 C 415.640625 132.164062 412.707031 134.921875 412.707031 138.539062 L 412.707031 402.871094 C 412.707031 406.488281 415.640625 409.074219 418.921875 409.074219 L 571.882812 409.074219 C 575.507812 409.074219 578.441406 406.316406 578.441406 402.871094 L 578.441406 138.539062 C 578.441406 134.921875 575.507812 132.164062 571.882812 132.164062 Z M 418.921875 132.164062 " fill-opacity="1" fill-rule="evenodd"/></g><path fill="#00b696" d="M 556.34375 297.242188 L 468.8125 297.242188 C 466.398438 297.242188 464.496094 295.347656 464.496094 292.933594 C 464.496094 290.523438 466.398438 288.625 468.8125 288.625 L 556.34375 288.625 C 558.761719 288.625 560.660156 290.523438 560.660156 292.933594 C 560.660156 295.347656 558.761719 297.242188 556.34375 297.242188 Z M 453.449219 297.242188 L 434.804688 297.242188 C 432.386719 297.242188 430.488281 295.347656 430.488281 292.933594 C 430.488281 290.523438 432.386719 288.972656 434.804688 288.972656 L 453.449219 288.972656 C 455.867188 288.972656 457.765625 290.867188 457.765625 293.277344 C 457.765625 295.691406 455.867188 297.242188 453.449219 297.242188 Z M 453.449219 297.242188 " fill-opacity="1" fill-rule="evenodd"/><path fill="#00b696" d="M 556.34375 318.609375 L 495.574219 318.609375 C 493.15625 318.609375 491.257812 316.714844 491.257812 314.300781 C 491.257812 311.886719 493.15625 309.992188 495.574219 309.992188 L 556.34375 309.992188 C 558.761719 309.992188 560.660156 311.886719 560.660156 314.300781 C 560.660156 316.714844 558.761719 318.609375 556.34375 318.609375 Z M 481.589844 318.609375 L 434.804688 318.609375 C 432.386719 318.609375 430.488281 316.714844 430.488281 314.300781 C 430.488281 311.886719 432.386719 309.992188 434.804688 309.992188 L 481.589844 309.992188 C 484.007812 309.992188 485.90625 311.886719 485.90625 314.300781 C 485.90625 316.714844 483.832031 318.609375 481.589844 318.609375 Z M 481.589844 318.609375 " fill-opacity="1" fill-rule="evenodd"/><path fill="#00b696" d="M 556.34375 339.632812 L 434.804688 339.632812 C 432.386719 339.632812 430.488281 337.734375 430.488281 335.324219 C 430.488281 332.910156 432.386719 331.015625 434.804688 331.015625 L 556.34375 331.015625 C 558.761719 331.015625 560.660156 332.910156 560.660156 335.324219 C 560.660156 337.734375 558.761719 339.632812 556.34375 339.632812 Z M 556.34375 339.632812 " fill-opacity="1" fill-rule="evenodd"/><path fill="#00b696" d="M 556.34375 360.824219 L 521.640625 360.824219 C 519.226562 360.824219 517.328125 358.929688 517.328125 356.519531 C 517.328125 354.105469 519.226562 352.210938 521.640625 352.210938 L 556.34375 352.210938 C 558.761719 352.210938 560.660156 354.105469 560.660156 356.519531 C 560.660156 358.929688 558.761719 360.824219 556.34375 360.824219 Z M 495.574219 360.824219 L 434.804688 360.824219 C 432.386719 360.824219 430.488281 358.929688 430.488281 356.519531 C 430.488281 354.105469 432.386719 352.210938 434.804688 352.210938 L 495.574219 352.210938 C 497.992188 352.210938 499.890625 354.105469 499.890625 356.519531 C 499.890625 358.929688 497.992188 360.824219 495.574219 360.824219 Z M 495.574219 360.824219 " fill-opacity="1" fill-rule="evenodd"/></svg>