<svg xmlns="http://www.w3.org/2000/svg" xmlns:xlink="http://www.w3.org/1999/xlink" width="1000" zoomAndPan="magnify" viewBox="0 0 750 749.999995" height="1000" preserveAspectRatio="xMidYMid meet" version="1.0"><defs><clipPath id="91ca2d7263"><path d="M 189.765625 306.667969 L 544.515625 306.667969 L 544.515625 617.167969 L 189.765625 617.167969 Z M 189.765625 306.667969 " clip-rule="nonzero"/></clipPath><clipPath id="48192a7ffc"><path d="M 271.730469 325 L 477.980469 325 L 477.980469 472.878906 L 271.730469 472.878906 Z M 271.730469 325 " clip-rule="nonzero"/></clipPath><clipPath id="d9fb49a6e2"><path d="M 319 175.878906 L 430 175.878906 L 430 290 L 319 290 Z M 319 175.878906 " clip-rule="nonzero"/></clipPath><clipPath id="fe1dadcacf"><path d="M 248 129 L 269 129 L 269 189 L 248 189 Z M 248 129 " clip-rule="nonzero"/></clipPath><clipPath id="7fbcdba1f7"><path d="M 187.160156 68.289062 L 296.53125 151.210938 L 127.066406 374.730469 L 17.699219 291.8125 Z M 187.160156 68.289062 " clip-rule="nonzero"/></clipPath><clipPath id="8ab2904bb6"><path d="M 187.160156 68.289062 L 296.53125 151.210938 L 127.066406 374.730469 L 17.699219 291.8125 Z M 187.160156 68.289062 " clip-rule="nonzero"/></clipPath><clipPath id="6a1b88d3c8"><path d="M 142 164 L 187 164 L 187 215 L 142 215 Z M 142 164 " clip-rule="nonzero"/></clipPath><clipPath id="f69e29f9e1"><path d="M 187.160156 68.289062 L 296.53125 151.210938 L 127.066406 374.730469 L 17.699219 291.8125 Z M 187.160156 68.289062 " clip-rule="nonzero"/></clipPath><clipPath id="a5b6d832ab"><path d="M 187.160156 68.289062 L 296.53125 151.210938 L 127.066406 374.730469 L 17.699219 291.8125 Z M 187.160156 68.289062 " clip-rule="nonzero"/></clipPath><clipPath id="45c96e86fe"><path d="M 51 244 L 110 244 L 110 275 L 51 275 Z M 51 244 " clip-rule="nonzero"/></clipPath><clipPath id="798cc3deda"><path d="M 187.160156 68.289062 L 296.53125 151.210938 L 127.066406 374.730469 L 17.699219 291.8125 Z M 187.160156 68.289062 " clip-rule="nonzero"/></clipPath><clipPath id="fafa58b46a"><path d="M 187.160156 68.289062 L 296.53125 151.210938 L 127.066406 374.730469 L 17.699219 291.8125 Z M 187.160156 68.289062 " clip-rule="nonzero"/></clipPath><clipPath id="8f7005b354"><path d="M 51 296 L 77 296 L 77 313 L 51 313 Z M 51 296 " clip-rule="nonzero"/></clipPath><clipPath id="c0b2154d6f"><path d="M 187.160156 68.289062 L 296.53125 151.210938 L 127.066406 374.730469 L 17.699219 291.8125 Z M 187.160156 68.289062 " clip-rule="nonzero"/></clipPath><clipPath id="8d4ee59f1d"><path d="M 187.160156 68.289062 L 296.53125 151.210938 L 127.066406 374.730469 L 17.699219 291.8125 Z M 187.160156 68.289062 " clip-rule="nonzero"/></clipPath><clipPath id="a74c49dc95"><path d="M 135 200 L 173 200 L 173 233 L 135 233 Z M 135 200 " clip-rule="nonzero"/></clipPath><clipPath id="f77f58a302"><path d="M 187.160156 68.289062 L 296.53125 151.210938 L 127.066406 374.730469 L 17.699219 291.8125 Z M 187.160156 68.289062 " clip-rule="nonzero"/></clipPath><clipPath id="24818212c0"><path d="M 187.160156 68.289062 L 296.53125 151.210938 L 127.066406 374.730469 L 17.699219 291.8125 Z M 187.160156 68.289062 " clip-rule="nonzero"/></clipPath><clipPath id="70f344733e"><path d="M 570 508 L 682 508 L 682 613 L 570 613 Z M 570 508 " clip-rule="nonzero"/></clipPath><clipPath id="2a634d1f9e"><path d="M 568.089844 615.527344 L 574.308594 500.945312 L 685.144531 506.960938 L 678.925781 621.542969 Z M 568.089844 615.527344 " clip-rule="nonzero"/></clipPath><clipPath id="51e5379e65"><path d="M 574.320312 500.769531 L 568.097656 615.351562 L 678.933594 621.367188 L 685.15625 506.789062 Z M 574.320312 500.769531 " clip-rule="nonzero"/></clipPath></defs><g clip-path="url(#91ca2d7263)"><path fill="#0d68b1" d="M 204.554688 306.667969 C 196.386719 306.667969 189.769531 312.585938 189.769531 321.457031 L 189.769531 543.242188 C 189.769531 550.632812 196.386719 558.03125 204.554688 558.03125 L 321.039062 558.03125 C 319.253906 582.480469 308.824219 603.800781 293.238281 617.175781 L 441.046875 617.175781 C 425.460938 603.800781 415.035156 582.488281 413.246094 558.03125 L 529.734375 558.03125 C 537.890625 558.03125 544.515625 550.640625 544.515625 543.242188 L 544.515625 321.457031 C 544.515625 312.585938 537.890625 306.667969 529.734375 306.667969 Z M 204.554688 321.457031 L 529.734375 321.457031 L 529.734375 528.457031 L 204.554688 528.457031 Z M 204.554688 321.457031 " fill-opacity="1" fill-rule="nonzero"/></g><path stroke-linecap="butt" transform="matrix(0.75, 0, 0, 0.75, 250.49999, 303.294468)" fill="none" stroke-linejoin="miter" d="M 0.0000127436 13.998001 L 320.000028 13.998001 " stroke="#ffffff" stroke-width="28" stroke-opacity="1" stroke-miterlimit="4"/><path fill="#00b696" d="M 429.707031 301.40625 L 442.734375 314.460938 C 444.621094 316.347656 447.765625 316.34375 449.644531 314.460938 C 449.644531 314.460938 462.648438 301.433594 462.675781 301.40625 C 467.054688 297.019531 460.238281 290 455.765625 294.484375 L 451.074219 299.179688 C 451.074219 299.179688 451.074219 271.886719 451.074219 271.835938 C 451.074219 265.519531 441.304688 265.519531 441.304688 271.835938 L 441.304688 299.179688 C 441.304688 299.179688 436.628906 294.496094 436.613281 294.484375 C 432.179688 290.039062 425.230469 296.921875 429.707031 301.40625 Z M 429.707031 301.40625 " fill-opacity="1" fill-rule="nonzero"/><path fill="#00b696" d="M 299.410156 314.460938 C 301.226562 316.28125 304.453125 316.332031 306.320312 314.460938 C 306.320312 314.460938 319.316406 301.4375 319.351562 301.40625 C 323.792969 296.957031 316.910156 290.007812 312.441406 294.484375 L 307.753906 299.179688 C 307.753906 299.179688 307.753906 271.878906 307.753906 271.835938 C 307.753906 265.648438 297.980469 265.5 297.980469 271.835938 L 297.980469 299.179688 C 297.980469 299.179688 293.300781 294.492188 293.292969 294.484375 C 288.917969 290.101562 281.910156 296.925781 286.382812 301.40625 C 286.382812 301.40625 299.394531 314.441406 299.410156 314.460938 Z M 299.410156 314.460938 " fill-opacity="1" fill-rule="nonzero"/><g clip-path="url(#48192a7ffc)"><path fill="#00b696" d="M 474.761719 404.710938 L 444.5625 386.554688 L 444.5625 350.164062 C 444.5625 348.441406 443.65625 346.847656 442.1875 345.964844 L 409.613281 326.382812 C 408.074219 325.449219 406.128906 325.449219 404.589844 326.382812 L 374.527344 344.453125 L 344.46875 326.382812 C 342.925781 325.449219 340.980469 325.449219 339.441406 326.382812 L 306.867188 345.964844 C 305.398438 346.847656 304.496094 348.441406 304.496094 350.164062 L 304.496094 386.554688 L 274.292969 404.710938 C 272.824219 405.597656 271.921875 407.191406 271.921875 408.910156 L 271.921875 448.078125 C 271.921875 449.796875 272.824219 451.390625 274.292969 452.277344 C 274.292969 452.277344 306.867188 471.859375 306.867188 471.859375 C 308.394531 472.785156 310.367188 472.78125 311.894531 471.859375 L 341.953125 453.789062 C 341.953125 453.789062 371.96875 471.832031 372.015625 471.859375 C 373.453125 472.722656 375.515625 472.78125 377.039062 471.859375 L 407.101562 453.789062 C 407.101562 453.789062 437.136719 471.84375 437.164062 471.859375 C 438.621094 472.738281 440.636719 472.796875 442.1875 471.859375 L 474.761719 452.277344 C 476.230469 451.390625 477.136719 449.796875 477.136719 448.078125 L 477.136719 408.910156 C 477.136719 407.191406 476.230469 405.597656 474.761719 404.710938 Z M 416.601562 408.910156 L 439.675781 395.039062 L 462.75 408.910156 L 439.675781 422.78125 Z M 309.378906 395.039062 L 332.453125 408.910156 L 309.378906 422.78125 L 286.308594 408.910156 Z M 337.066406 372.519531 L 337.066406 400.261719 L 314.265625 386.554688 L 314.265625 358.8125 Z M 434.789062 386.554688 L 411.988281 400.261719 L 411.988281 372.519531 L 434.789062 358.8125 Z M 402.214844 400.261719 L 379.414062 386.554688 L 379.414062 358.8125 L 402.214844 372.519531 Z M 369.640625 386.554688 L 346.839844 400.261719 L 346.839844 372.519531 L 369.640625 358.8125 Z M 314.265625 431.269531 L 337.066406 417.558594 L 337.066406 445.304688 L 314.265625 459.011719 Z M 374.527344 395.039062 L 397.601562 408.910156 L 374.527344 422.78125 L 351.453125 408.910156 Z M 379.414062 431.269531 L 402.214844 417.558594 L 402.214844 445.304688 L 379.414062 459.011719 Z M 407.101562 336.292969 L 430.175781 350.164062 L 407.101562 364.035156 L 384.027344 350.164062 Z M 341.953125 336.292969 L 365.027344 350.164062 L 341.953125 364.035156 L 318.878906 350.164062 Z M 281.691406 417.558594 L 304.496094 431.269531 L 304.496094 459.011719 L 281.691406 445.304688 Z M 346.839844 417.558594 L 369.640625 431.269531 L 369.640625 459.011719 L 346.839844 445.304688 Z M 411.988281 417.558594 L 434.789062 431.269531 L 434.789062 459.011719 L 411.988281 445.304688 Z M 444.5625 459.011719 L 444.5625 431.269531 L 467.363281 417.558594 L 467.363281 445.304688 Z M 444.5625 459.011719 " fill-opacity="1" fill-rule="nonzero"/></g><g clip-path="url(#d9fb49a6e2)"><path fill="#00b696" d="M 325.144531 238.355469 C 319.699219 241.507812 317.828125 248.507812 320.972656 253.960938 C 320.972656 253.960938 329.339844 268.476562 329.351562 268.496094 C 332.445312 273.859375 339.574219 275.785156 344.925781 272.675781 C 349.222656 270.179688 354.75 273.425781 354.75 278.363281 C 354.75 284.660156 359.863281 289.785156 366.148438 289.785156 L 382.90625 289.785156 C 389.191406 289.785156 394.308594 284.660156 394.308594 278.363281 C 394.308594 273.386719 399.828125 270.191406 404.128906 272.675781 C 409.503906 275.777344 416.628906 273.890625 419.703125 268.496094 L 428.082031 253.960938 C 431.226562 248.507812 429.355469 241.507812 423.910156 238.355469 C 419.597656 235.859375 419.613281 229.472656 423.910156 226.984375 C 429.355469 223.832031 431.226562 216.832031 428.082031 211.378906 C 428.082031 211.378906 419.722656 196.875 419.703125 196.84375 C 416.632812 191.558594 409.417969 189.605469 404.132812 192.664062 C 399.851562 195.140625 394.308594 191.902344 394.308594 186.976562 C 394.308594 180.679688 389.191406 175.554688 382.90625 175.554688 L 366.148438 175.554688 C 359.863281 175.554688 354.75 180.679688 354.75 186.976562 C 354.746094 191.9375 349.210938 195.136719 344.925781 192.664062 C 339.550781 189.558594 332.441406 191.476562 329.351562 196.84375 L 320.972656 211.378906 C 317.828125 216.832031 319.699219 223.832031 325.144531 226.984375 C 329.453125 229.476562 329.429688 235.875 325.144531 238.355469 Z M 330.03125 218.503906 C 329.253906 218.054688 328.980469 217.054688 329.433594 216.273438 L 337.8125 201.742188 C 338.265625 200.964844 339.25 200.6875 340.039062 201.140625 C 350.75 207.351562 364.519531 199.3125 364.519531 186.976562 C 364.519531 186.078125 365.253906 185.34375 366.148438 185.34375 L 382.90625 185.34375 C 383.804688 185.34375 384.535156 186.078125 384.535156 186.976562 C 384.535156 199.335938 398.316406 207.339844 409.015625 201.140625 C 409.792969 200.6875 410.792969 200.964844 411.242188 201.742188 L 419.621094 216.273438 C 420.074219 217.054688 419.800781 218.050781 419.023438 218.503906 C 408.414062 224.695312 408.421875 240.703125 419.023438 246.832031 C 419.800781 247.285156 420.074219 248.285156 419.621094 249.066406 L 411.242188 263.597656 C 410.792969 264.371094 409.792969 264.648438 409.015625 264.199219 C 398.316406 258.003906 384.535156 266.058594 384.535156 278.363281 C 384.535156 279.261719 383.804688 279.992188 382.90625 279.992188 L 366.148438 279.992188 C 365.253906 279.992188 364.519531 279.261719 364.519531 278.363281 C 364.519531 266.027344 350.734375 257.996094 340.039062 264.199219 C 339.25 264.648438 338.265625 264.371094 337.8125 263.597656 L 329.433594 249.066406 C 328.980469 248.285156 329.253906 247.285156 330.03125 246.832031 C 340.6875 240.617188 340.722656 224.6875 330.03125 218.503906 Z M 330.03125 218.503906 " fill-opacity="1" fill-rule="nonzero"/></g><path fill="#00b696" d="M 374.527344 257.148438 C 387.996094 257.148438 398.957031 246.167969 398.957031 232.667969 C 398.957031 219.171875 387.996094 208.191406 374.527344 208.191406 C 361.058594 208.191406 350.097656 219.171875 350.097656 232.667969 C 350.097656 246.167969 361.058594 257.148438 374.527344 257.148438 Z M 374.527344 217.984375 C 382.609375 217.984375 389.1875 224.570312 389.1875 232.667969 C 389.1875 240.769531 382.609375 247.355469 374.527344 247.355469 C 366.449219 247.355469 359.871094 240.769531 359.871094 232.667969 C 359.871094 224.570312 366.449219 217.984375 374.527344 217.984375 Z M 374.527344 217.984375 " fill-opacity="1" fill-rule="nonzero"/><g clip-path="url(#fe1dadcacf)"><g clip-path="url(#7fbcdba1f7)"><g clip-path="url(#8ab2904bb6)"><path fill="#0d68b1" d="M 268.640625 181.242188 C 268.640625 181.242188 268.660156 187.878906 261.828125 188.480469 C 255 189.082031 253.730469 183.300781 253.457031 180.328125 C 252.496094 171.289062 248.726562 137.242188 248.726562 137.242188 C 248.726562 137.242188 248.90625 129.550781 257.539062 129.109375 C 266.707031 128.59375 267.914062 135.410156 268.199219 138.996094 C 269.019531 149.496094 268.640625 181.242188 268.640625 181.242188 Z M 268.640625 181.242188 " fill-opacity="1" fill-rule="nonzero"/></g></g></g><g clip-path="url(#6a1b88d3c8)"><g clip-path="url(#f69e29f9e1)"><g clip-path="url(#a5b6d832ab)"><path fill="#0d68b1" d="M 185.121094 202.578125 C 185.121094 202.578125 189.445312 207.664062 184.585938 212.167969 C 179.820312 216.867188 175.085938 213.277344 173.027344 211.234375 C 166.503906 205.085938 144.433594 179.316406 144.433594 179.316406 C 144.433594 179.316406 137.820312 172.496094 146.753906 166.265625 C 153.800781 161.25 158.632812 168.046875 158.632812 168.046875 Z M 185.121094 202.578125 " fill-opacity="1" fill-rule="nonzero"/></g></g></g><g clip-path="url(#45c96e86fe)"><g clip-path="url(#798cc3deda)"><g clip-path="url(#fafa58b46a)"><path fill="#0d68b1" d="M 103.921875 259.875 C 103.921875 259.875 110.332031 261.726562 108.761719 268.242188 C 107.1875 274.757812 101.4375 274.253906 98.566406 273.761719 C 89.773438 272.03125 57.25 262.429688 57.25 262.429688 C 57.25 262.429688 48.003906 260.351562 52.089844 250.203125 C 55.433594 242.144531 63.046875 245.265625 63.046875 245.265625 Z M 103.921875 259.875 " fill-opacity="1" fill-rule="nonzero"/></g></g></g><g clip-path="url(#8f7005b354)"><g clip-path="url(#c0b2154d6f)"><g clip-path="url(#8d4ee59f1d)"><path fill="#0d68b1" d="M 68.191406 312.871094 C 68.191406 312.871094 74.398438 313.722656 76.085938 307.535156 C 78.296875 299.699219 69.140625 298.296875 69.140625 298.296875 C 69.140625 298.296875 56.210938 292.828125 52.382812 301.367188 C 46.84375 313.90625 68.191406 312.871094 68.191406 312.871094 Z M 68.191406 312.871094 " fill-opacity="1" fill-rule="nonzero"/></g></g></g><g clip-path="url(#a74c49dc95)"><g clip-path="url(#f77f58a302)"><g clip-path="url(#24818212c0)"><path fill="#0d68b1" d="M 138.414062 214.855469 C 136.277344 213.234375 132.96875 211.089844 138.363281 203.980469 C 142.828125 198.089844 148.273438 201.375 150.714844 203.230469 C 156.023438 207.492188 164.878906 214.207031 171.050781 221.296875 C 175.753906 226.667969 167.839844 235.839844 161.5 231.515625 C 156.667969 228.214844 145.058594 219.894531 138.414062 214.855469 Z M 138.414062 214.855469 " fill-opacity="1" fill-rule="nonzero"/></g></g></g><g clip-path="url(#70f344733e)"><g clip-path="url(#2a634d1f9e)"><g clip-path="url(#51e5379e65)"><path fill="#00b696" d="M 572.6875 609.234375 C 568.660156 607.804688 570.75 601.492188 574.804688 602.9375 C 591.21875 608.761719 612.859375 607.277344 621.546875 590.671875 C 619.449219 590.746094 617.347656 590.628906 615.273438 590.328125 C 607.140625 589.0625 599.226562 583.832031 597.265625 575.464844 C 595.535156 568.058594 598.800781 559.960938 606.191406 557.195312 C 614.359375 554.117188 622.988281 558.441406 627.449219 565.480469 C 630.570312 570.597656 631.835938 576.628906 631.039062 582.566406 C 644.296875 578.300781 656.441406 566.550781 663.132812 556.230469 C 670.96875 544.273438 676.753906 526.378906 674.039062 512.054688 C 673.238281 507.859375 679.675781 506.425781 680.542969 510.636719 C 683.8125 527.015625 677.386719 547.125 668.15625 560.746094 C 659.605469 573.359375 645.136719 586.164062 629.25 589.746094 L 629.109375 590.148438 C 620.050781 612.828125 593.5 616.628906 572.6875 609.234375 Z M 612.738281 562.820312 C 606.183594 562.25 602.285156 568.011719 603.785156 574 C 605.058594 579.082031 609.792969 582.226562 614.632812 583.417969 C 617.675781 584.148438 620.820312 584.355469 623.933594 584.03125 C 625.667969 575.414062 622.878906 563.703125 612.738281 562.820312 Z M 612.738281 562.820312 " fill-opacity="1" fill-rule="nonzero"/></g></g></g></svg>