<svg xmlns="http://www.w3.org/2000/svg" xmlns:xlink="http://www.w3.org/1999/xlink" width="1000" zoomAndPan="magnify" viewBox="0 0 750 749.999995" height="1000" preserveAspectRatio="xMidYMid meet" version="1.0"><defs><clipPath id="0e3cb66a95"><path d="M 171.875 253.421875 L 578.375 253.421875 L 578.375 617.394531 L 171.875 617.394531 Z M 171.875 253.421875 " clip-rule="nonzero"/></clipPath><clipPath id="9bb97d8ef1"><path d="M 210.738281 306.046875 L 539.238281 306.046875 L 539.238281 405 L 210.738281 405 Z M 210.738281 306.046875 " clip-rule="nonzero"/></clipPath><clipPath id="77159664c9"><path d="M 247 124 L 268 124 L 268 185 L 247 185 Z M 247 124 " clip-rule="nonzero"/></clipPath><clipPath id="653af63d1f"><path d="M 185.902344 64.015625 L 295.273438 146.933594 L 125.808594 370.457031 L 16.4375 287.539062 Z M 185.902344 64.015625 " clip-rule="nonzero"/></clipPath><clipPath id="7e169b1db3"><path d="M 185.902344 64.015625 L 295.273438 146.933594 L 125.808594 370.457031 L 16.4375 287.539062 Z M 185.902344 64.015625 " clip-rule="nonzero"/></clipPath><clipPath id="244554ea9b"><path d="M 140 160 L 186 160 L 186 211 L 140 211 Z M 140 160 " clip-rule="nonzero"/></clipPath><clipPath id="dcbaebc12b"><path d="M 185.902344 64.015625 L 295.273438 146.933594 L 125.808594 370.457031 L 16.4375 287.539062 Z M 185.902344 64.015625 " clip-rule="nonzero"/></clipPath><clipPath id="a7c42b3830"><path d="M 185.902344 64.015625 L 295.273438 146.933594 L 125.808594 370.457031 L 16.4375 287.539062 Z M 185.902344 64.015625 " clip-rule="nonzero"/></clipPath><clipPath id="aca672cf1a"><path d="M 49 240 L 108 240 L 108 270 L 49 270 Z M 49 240 " clip-rule="nonzero"/></clipPath><clipPath id="0aa9781278"><path d="M 185.902344 64.015625 L 295.273438 146.933594 L 125.808594 370.457031 L 16.4375 287.539062 Z M 185.902344 64.015625 " clip-rule="nonzero"/></clipPath><clipPath id="0085cf6de8"><path d="M 185.902344 64.015625 L 295.273438 146.933594 L 125.808594 370.457031 L 16.4375 287.539062 Z M 185.902344 64.015625 " clip-rule="nonzero"/></clipPath><clipPath id="6d6a91eaed"><path d="M 50 292 L 76 292 L 76 309 L 50 309 Z M 50 292 " clip-rule="nonzero"/></clipPath><clipPath id="4c8e7b5ac0"><path d="M 185.902344 64.015625 L 295.273438 146.933594 L 125.808594 370.457031 L 16.4375 287.539062 Z M 185.902344 64.015625 " clip-rule="nonzero"/></clipPath><clipPath id="024f0e7ff2"><path d="M 185.902344 64.015625 L 295.273438 146.933594 L 125.808594 370.457031 L 16.4375 287.539062 Z M 185.902344 64.015625 " clip-rule="nonzero"/></clipPath><clipPath id="29add6570b"><path d="M 134 196 L 172 196 L 172 229 L 134 229 Z M 134 196 " clip-rule="nonzero"/></clipPath><clipPath id="ea45d69cb9"><path d="M 185.902344 64.015625 L 295.273438 146.933594 L 125.808594 370.457031 L 16.4375 287.539062 Z M 185.902344 64.015625 " clip-rule="nonzero"/></clipPath><clipPath id="8cfbbb7529"><path d="M 185.902344 64.015625 L 295.273438 146.933594 L 125.808594 370.457031 L 16.4375 287.539062 Z M 185.902344 64.015625 " clip-rule="nonzero"/></clipPath><clipPath id="027c2a7aa2"><path d="M 560 523 L 672 523 L 672 628 L 560 628 Z M 560 523 " clip-rule="nonzero"/></clipPath><clipPath id="d11eefec76"><path d="M 558.019531 630.625 L 564.242188 516.046875 L 675.078125 522.0625 L 668.859375 636.644531 Z M 558.019531 630.625 " clip-rule="nonzero"/></clipPath><clipPath id="46fa12bab4"><path d="M 564.253906 515.871094 L 558.03125 630.449219 L 668.867188 636.46875 L 675.089844 521.886719 Z M 564.253906 515.871094 " clip-rule="nonzero"/></clipPath></defs><g clip-path="url(#0e3cb66a95)"><path fill="#0d68b1" d="M 375.125 527.890625 C 371.820312 527.890625 369.128906 525.203125 369.128906 521.898438 C 369.128906 518.597656 371.820312 515.910156 375.125 515.910156 C 378.429688 515.910156 381.121094 518.597656 381.121094 521.898438 C 381.121094 525.203125 378.429688 527.890625 375.125 527.890625 Z M 375.125 507.621094 C 367.234375 507.621094 360.835938 514.03125 360.835938 521.898438 C 360.835938 529.78125 367.234375 536.175781 375.125 536.175781 C 383.015625 536.175781 389.417969 529.78125 389.417969 521.898438 C 389.417969 514.03125 383.015625 507.621094 375.125 507.621094 Z M 548.253906 548.203125 L 201.996094 548.203125 C 189.957031 548.203125 180.171875 537.746094 180.171875 524.878906 L 180.171875 495.59375 L 570.078125 495.59375 L 570.078125 524.878906 C 570.078125 537.746094 560.292969 548.203125 548.253906 548.203125 Z M 423.523438 609.105469 L 326.726562 609.105469 L 344.648438 556.492188 L 405.605469 556.492188 Z M 201.996094 261.726562 L 548.253906 261.726562 C 560.292969 261.726562 570.078125 272.183594 570.078125 285.054688 L 570.078125 487.304688 L 180.171875 487.304688 L 180.171875 285.054688 C 180.171875 272.183594 189.957031 261.726562 201.996094 261.726562 Z M 548.253906 253.4375 L 201.996094 253.4375 C 185.390625 253.4375 171.875 267.617188 171.875 285.054688 L 171.875 524.878906 C 171.875 542.3125 185.390625 556.492188 201.996094 556.492188 L 335.882812 556.492188 L 317.003906 611.921875 C 316.585938 613.183594 316.777344 614.574219 317.558594 615.660156 C 318.351562 616.746094 319.597656 617.390625 320.941406 617.390625 L 429.308594 617.390625 C 430.652344 617.390625 431.902344 616.746094 432.695312 615.660156 C 433.472656 614.574219 433.667969 613.183594 433.246094 611.921875 L 414.371094 556.492188 L 548.253906 556.492188 C 564.863281 556.492188 578.375 542.3125 578.375 524.878906 L 578.375 285.054688 C 578.375 267.617188 564.863281 253.4375 548.253906 253.4375 " fill-opacity="1" fill-rule="nonzero"/></g><g clip-path="url(#9bb97d8ef1)"><path fill="#00b696" d="M 519.675781 306.097656 L 230.300781 306.097656 C 219.601562 306.097656 210.890625 314.777344 210.890625 325.457031 L 210.890625 384.746094 C 210.890625 395.425781 219.601562 404.109375 230.300781 404.109375 L 441.070312 404.109375 C 437.558594 403.109375 434.050781 402.117188 430.542969 401.109375 C 426.847656 400.042969 424.027344 397.441406 422.800781 393.980469 C 422.566406 393.332031 422.398438 392.671875 422.292969 392.011719 L 230.300781 392.011719 C 226.296875 392.011719 223.023438 388.738281 223.023438 384.746094 L 223.023438 325.457031 C 223.023438 321.464844 226.296875 318.191406 230.300781 318.191406 L 519.675781 318.191406 C 523.679688 318.191406 526.953125 321.464844 526.953125 325.457031 L 526.953125 384.746094 C 526.953125 388.738281 523.679688 392.011719 519.675781 392.011719 L 505.21875 392.011719 L 502.140625 403.195312 C 502.058594 403.496094 501.976562 403.804688 501.890625 404.109375 L 519.675781 404.109375 C 530.375 404.109375 539.085938 395.425781 539.085938 384.746094 L 539.085938 325.457031 C 539.085938 314.777344 530.375 306.097656 519.675781 306.097656 " fill-opacity="1" fill-rule="nonzero"/></g><path fill="#00b696" d="M 468.070312 411.828125 C 468.597656 412.777344 469.101562 413.566406 469.511719 414.40625 C 472.34375 420.167969 475.160156 425.945312 477.992188 431.707031 C 479.328125 434.40625 482.390625 435.039062 484.742188 433.113281 C 486.125 431.992188 487.011719 430.5625 487.488281 428.832031 C 491.25 415.078125 495.042969 401.328125 498.824219 387.574219 C 501.136719 379.140625 503.429688 370.703125 505.769531 362.273438 C 506.3125 360.332031 506.296875 358.472656 505.535156 356.578125 C 504.394531 353.71875 501.242188 353.398438 498.792969 354.015625 C 497.140625 354.425781 495.574219 355.230469 494.019531 355.96875 C 474.199219 365.386719 454.398438 374.824219 434.578125 384.234375 C 432.898438 385.03125 431.464844 386.046875 430.394531 387.582031 C 428.605469 390.144531 429.585938 393.207031 432.597656 394.070312 C 439.269531 396.003906 445.964844 397.867188 452.648438 399.773438 C 453.128906 399.90625 453.589844 400.140625 454.1875 400.382812 C 451.578125 403.539062 449.042969 406.601562 446.515625 409.652344 C 444.78125 411.753906 443.003906 413.8125 441.320312 415.957031 C 439.148438 418.710938 438.523438 421.785156 439.933594 425.058594 C 441.359375 428.351562 443.9375 430.214844 447.527344 430.496094 C 450.703125 430.734375 453.242188 429.417969 455.265625 427.027344 C 459.214844 422.335938 463.160156 417.632812 467.105469 412.941406 C 467.375 412.609375 467.664062 412.292969 468.070312 411.828125 " fill-opacity="1" fill-rule="nonzero"/><path fill="#0d68b1" d="M 277.722656 338.851562 L 280.882812 338.851562 L 280.882812 349.660156 L 280.949219 349.660156 C 281.453125 348.765625 282.246094 347.980469 283.210938 347.441406 C 284.148438 346.90625 285.253906 346.546875 286.4375 346.546875 C 288.777344 346.546875 292.511719 347.980469 292.511719 353.953125 L 292.511719 364.265625 L 289.351562 364.265625 L 289.351562 354.316406 C 289.351562 351.523438 288.308594 349.164062 285.332031 349.164062 C 283.289062 349.164062 281.664062 350.59375 281.09375 352.308594 C 280.917969 352.734375 280.882812 353.203125 280.882812 353.8125 L 280.882812 364.265625 L 277.722656 364.265625 L 277.722656 338.851562 " fill-opacity="1" fill-rule="nonzero"/><path fill="#0d68b1" d="M 301.296875 341.964844 L 301.296875 346.945312 L 305.820312 346.945312 L 305.820312 349.335938 L 301.296875 349.335938 L 301.296875 358.675781 C 301.296875 360.828125 301.90625 362.046875 303.664062 362.046875 C 304.492188 362.046875 305.097656 361.933594 305.496094 361.828125 L 305.640625 364.191406 C 305.027344 364.4375 304.0625 364.617188 302.839844 364.617188 C 301.371094 364.617188 300.1875 364.152344 299.433594 363.292969 C 298.535156 362.363281 298.210938 360.828125 298.210938 358.789062 L 298.210938 349.335938 L 295.519531 349.335938 L 295.519531 346.945312 L 298.210938 346.945312 L 298.210938 342.792969 L 301.296875 341.964844 " fill-opacity="1" fill-rule="nonzero"/><path fill="#0d68b1" d="M 313.171875 341.964844 L 313.171875 346.945312 L 317.699219 346.945312 L 317.699219 349.335938 L 313.171875 349.335938 L 313.171875 358.675781 C 313.171875 360.828125 313.785156 362.046875 315.539062 362.046875 C 316.371094 362.046875 316.972656 361.933594 317.375 361.828125 L 317.515625 364.191406 C 316.90625 364.4375 315.933594 364.617188 314.71875 364.617188 C 313.25 364.617188 312.0625 364.152344 311.308594 363.292969 C 310.414062 362.363281 310.089844 360.828125 310.089844 358.789062 L 310.089844 349.335938 L 307.394531 349.335938 L 307.394531 346.945312 L 310.089844 346.945312 L 310.089844 342.792969 L 313.171875 341.964844 " fill-opacity="1" fill-rule="nonzero"/><path fill="#0d68b1" d="M 324.363281 357.210938 C 324.363281 357.675781 324.441406 358.105469 324.507812 358.496094 C 325.089844 360.683594 326.988281 362.1875 329.242188 362.1875 C 332.585938 362.1875 334.523438 359.464844 334.523438 355.496094 C 334.523438 352.019531 332.691406 349.050781 329.355469 349.050781 C 327.199219 349.050781 325.195312 350.59375 324.582031 352.953125 C 324.476562 353.34375 324.363281 353.8125 324.363281 354.238281 Z M 321.242188 352.601562 C 321.242188 350.375 321.175781 348.589844 321.097656 346.945312 L 323.933594 346.945312 L 324.078125 349.90625 L 324.152344 349.90625 C 325.441406 347.800781 327.484375 346.546875 330.320312 346.546875 C 334.523438 346.546875 337.683594 350.089844 337.683594 355.351562 C 337.683594 361.582031 333.875 364.65625 329.785156 364.65625 C 327.484375 364.65625 325.480469 363.65625 324.441406 361.933594 L 324.363281 361.933594 L 324.363281 371.351562 L 321.242188 371.351562 L 321.242188 352.601562 " fill-opacity="1" fill-rule="nonzero"/><path fill="#0d68b1" d="M 341.234375 361.039062 C 342.160156 361.648438 343.8125 362.292969 345.398438 362.292969 C 347.6875 362.292969 348.765625 361.152344 348.765625 359.714844 C 348.765625 358.21875 347.871094 357.390625 345.539062 356.535156 C 342.417969 355.421875 340.941406 353.707031 340.941406 351.628906 C 340.941406 348.839844 343.203125 346.546875 346.933594 346.546875 C 348.691406 346.546875 350.238281 347.050781 351.203125 347.621094 L 350.417969 349.90625 C 349.734375 349.480469 348.480469 348.90625 346.867188 348.90625 C 344.996094 348.90625 343.957031 349.984375 343.957031 351.269531 C 343.957031 352.707031 344.996094 353.34375 347.257812 354.210938 C 350.277344 355.351562 351.8125 356.855469 351.8125 359.429688 C 351.8125 362.476562 349.445312 364.617188 345.320312 364.617188 C 343.421875 364.617188 341.664062 364.152344 340.441406 363.4375 L 341.234375 361.039062 " fill-opacity="1" fill-rule="nonzero"/><path fill="#0d68b1" d="M 353.21875 365.695312 L 363.222656 339.746094 L 365.667969 339.746094 L 355.621094 365.695312 L 353.21875 365.695312 " fill-opacity="1" fill-rule="nonzero"/><path fill="#0d68b1" d="M 365.523438 365.695312 L 375.53125 339.746094 L 377.976562 339.746094 L 367.921875 365.695312 L 365.523438 365.695312 " fill-opacity="1" fill-rule="nonzero"/><path fill="#0d68b1" d="M 381.738281 346.945312 L 384.039062 355.742188 C 384.535156 357.675781 385.003906 359.464844 385.328125 361.257812 L 385.433594 361.257812 C 385.832031 359.503906 386.40625 357.640625 386.980469 355.78125 L 389.8125 346.945312 L 392.46875 346.945312 L 395.160156 355.601562 C 395.800781 357.675781 396.308594 359.503906 396.699219 361.257812 L 396.8125 361.257812 C 397.097656 359.503906 397.566406 357.675781 398.140625 355.636719 L 400.613281 346.945312 L 403.734375 346.945312 L 398.140625 364.265625 L 395.265625 364.265625 L 392.613281 356 C 392 354.066406 391.503906 352.34375 391.066406 350.304688 L 391 350.304688 C 390.570312 352.382812 390.027344 354.171875 389.421875 356.03125 L 386.617188 364.265625 L 383.75 364.265625 L 378.511719 346.945312 L 381.738281 346.945312 " fill-opacity="1" fill-rule="nonzero"/><path fill="#0d68b1" d="M 408.578125 346.945312 L 410.878906 355.742188 C 411.375 357.675781 411.84375 359.464844 412.167969 361.257812 L 412.273438 361.257812 C 412.671875 359.503906 413.246094 357.640625 413.816406 355.78125 L 416.652344 346.945312 L 419.308594 346.945312 L 422 355.601562 C 422.640625 357.675781 423.148438 359.503906 423.539062 361.257812 L 423.652344 361.257812 C 423.9375 359.503906 424.40625 357.675781 424.980469 355.636719 L 427.453125 346.945312 L 430.574219 346.945312 L 424.980469 364.265625 L 422.105469 364.265625 L 419.453125 356 C 418.839844 354.066406 418.335938 352.34375 417.90625 350.304688 L 417.835938 350.304688 C 417.40625 352.382812 416.863281 354.171875 416.261719 356.03125 L 413.457031 364.265625 L 410.589844 364.265625 L 405.347656 346.945312 L 408.578125 346.945312 " fill-opacity="1" fill-rule="nonzero"/><path fill="#0d68b1" d="M 435.417969 346.945312 L 437.707031 355.742188 C 438.214844 357.675781 438.679688 359.464844 439.003906 361.257812 L 439.113281 361.257812 C 439.511719 359.503906 440.085938 357.640625 440.65625 355.78125 L 443.492188 346.945312 L 446.148438 346.945312 L 448.839844 355.601562 C 449.480469 357.675781 449.984375 359.503906 450.378906 361.257812 L 450.484375 361.257812 C 450.777344 359.503906 451.238281 357.675781 451.816406 355.636719 L 454.292969 346.945312 L 457.414062 346.945312 L 451.816406 364.265625 L 448.945312 364.265625 L 446.289062 356 C 445.679688 354.066406 445.175781 352.34375 444.746094 350.304688 L 444.675781 350.304688 C 444.238281 352.382812 443.703125 354.171875 443.09375 356.03125 L 440.296875 364.265625 L 437.429688 364.265625 L 432.1875 346.945312 L 435.417969 346.945312 " fill-opacity="1" fill-rule="nonzero"/><path fill="#0d68b1" d="M 458.417969 362.398438 C 458.417969 361.078125 459.3125 360.144531 460.566406 360.144531 C 461.824219 360.144531 462.683594 361.078125 462.683594 362.398438 C 462.683594 363.695312 461.863281 364.65625 460.535156 364.65625 C 459.277344 364.65625 458.417969 363.695312 458.417969 362.398438 " fill-opacity="1" fill-rule="nonzero"/><path fill="#0d68b1" d="M 250.136719 338.144531 C 254.085938 337.398438 258.128906 340.191406 258.816406 344.144531 C 258.898438 344.636719 258.9375 345.140625 258.945312 345.636719 C 258.964844 346.839844 258.953125 348.035156 258.953125 349.269531 C 253.914062 349.269531 248.929688 349.269531 243.898438 349.269531 C 243.898438 349.164062 243.882812 349.050781 243.882812 348.945312 C 243.882812 347.847656 243.882812 346.742188 243.882812 345.644531 C 243.898438 341.890625 246.433594 338.84375 250.136719 338.144531 Z M 268.679688 350.523438 C 268.679688 350.472656 268.679688 350.417969 268.671875 350.375 C 268.648438 349.695312 268.21875 349.285156 267.535156 349.277344 C 266.800781 349.277344 266.0625 349.277344 265.324219 349.277344 C 265.179688 349.277344 265.03125 349.277344 264.855469 349.277344 C 264.855469 349.125 264.855469 349.011719 264.855469 348.898438 C 264.855469 347.800781 264.847656 346.695312 264.855469 345.597656 C 264.855469 343.054688 264.246094 340.671875 262.851562 338.550781 C 259.734375 333.804688 255.308594 331.683594 249.644531 332.277344 C 246.953125 332.5625 244.585938 333.691406 242.566406 335.488281 C 239.746094 338 238.199219 341.144531 238.007812 344.921875 C 237.949219 346.238281 237.988281 347.554688 237.980469 348.871094 C 237.980469 348.988281 237.980469 349.109375 237.980469 349.277344 C 237.089844 349.277344 236.246094 349.277344 235.394531 349.277344 C 234.578125 349.277344 234.15625 349.683594 234.15625 350.496094 C 234.15625 358.347656 234.15625 366.207031 234.171875 374.058594 C 234.171875 374.539062 234.269531 375.042969 234.425781 375.492188 C 234.976562 377.042969 236.449219 378.011719 238.160156 378.019531 C 240.703125 378.019531 243.234375 378.019531 245.769531 378.019531 C 252.066406 378.019531 258.355469 378.019531 264.644531 378.019531 C 266.09375 378.019531 267.230469 377.433594 268.046875 376.230469 C 268.519531 375.53125 268.679688 374.742188 268.679688 373.90625 C 268.671875 366.117188 268.679688 358.316406 268.679688 350.523438 " fill-opacity="1" fill-rule="nonzero"/><g clip-path="url(#77159664c9)"><g clip-path="url(#653af63d1f)"><g clip-path="url(#7e169b1db3)"><path fill="#00b696" d="M 267.382812 176.964844 C 267.382812 176.964844 267.402344 183.601562 260.570312 184.203125 C 253.742188 184.808594 252.46875 179.027344 252.199219 176.050781 C 251.238281 167.011719 247.46875 132.964844 247.46875 132.964844 C 247.46875 132.964844 247.648438 125.273438 256.277344 124.832031 C 265.449219 124.316406 266.652344 131.132812 266.941406 134.722656 C 267.761719 145.21875 267.382812 176.964844 267.382812 176.964844 Z M 267.382812 176.964844 " fill-opacity="1" fill-rule="nonzero"/></g></g></g><g clip-path="url(#244554ea9b)"><g clip-path="url(#dcbaebc12b)"><g clip-path="url(#a7c42b3830)"><path fill="#00b696" d="M 183.863281 198.304688 C 183.863281 198.304688 188.183594 203.386719 183.328125 207.890625 C 178.5625 212.589844 173.828125 209 171.769531 206.957031 C 165.246094 200.808594 143.175781 175.042969 143.175781 175.042969 C 143.175781 175.042969 136.558594 168.222656 145.496094 161.988281 C 152.542969 156.976562 157.371094 163.769531 157.371094 163.769531 Z M 183.863281 198.304688 " fill-opacity="1" fill-rule="nonzero"/></g></g></g><g clip-path="url(#aca672cf1a)"><g clip-path="url(#0aa9781278)"><g clip-path="url(#0085cf6de8)"><path fill="#00b696" d="M 102.664062 255.601562 C 102.664062 255.601562 109.074219 257.453125 107.503906 263.96875 C 105.929688 270.484375 100.179688 269.976562 97.308594 269.484375 C 88.515625 267.757812 55.992188 258.152344 55.992188 258.152344 C 55.992188 258.152344 46.742188 256.078125 50.832031 245.929688 C 54.175781 237.867188 61.789062 240.992188 61.789062 240.992188 Z M 102.664062 255.601562 " fill-opacity="1" fill-rule="nonzero"/></g></g></g><g clip-path="url(#6d6a91eaed)"><g clip-path="url(#4c8e7b5ac0)"><g clip-path="url(#024f0e7ff2)"><path fill="#00b696" d="M 66.933594 308.597656 C 66.933594 308.597656 73.140625 309.449219 74.828125 303.261719 C 77.039062 295.425781 67.882812 294.019531 67.882812 294.019531 C 67.882812 294.019531 54.953125 288.554688 51.125 297.089844 C 45.585938 309.632812 66.933594 308.597656 66.933594 308.597656 Z M 66.933594 308.597656 " fill-opacity="1" fill-rule="nonzero"/></g></g></g><g clip-path="url(#29add6570b)"><g clip-path="url(#ea45d69cb9)"><g clip-path="url(#8cfbbb7529)"><path fill="#00b696" d="M 137.15625 210.582031 C 135.015625 208.960938 131.710938 206.816406 137.105469 199.703125 C 141.566406 193.816406 147.015625 197.101562 149.457031 198.953125 C 154.761719 203.21875 163.621094 209.933594 169.792969 217.019531 C 174.496094 222.394531 166.582031 231.566406 160.242188 227.238281 C 155.410156 223.9375 143.796875 215.617188 137.15625 210.582031 Z M 137.15625 210.582031 " fill-opacity="1" fill-rule="nonzero"/></g></g></g><g clip-path="url(#027c2a7aa2)"><g clip-path="url(#d11eefec76)"><g clip-path="url(#46fa12bab4)"><path fill="#0d68b1" d="M 562.621094 624.332031 C 558.59375 622.902344 560.683594 616.59375 564.738281 618.035156 C 581.152344 623.863281 602.792969 622.378906 611.480469 605.769531 C 609.382812 605.84375 607.28125 605.730469 605.203125 605.429688 C 597.074219 604.164062 589.160156 598.933594 587.199219 590.566406 C 585.46875 583.15625 588.734375 575.0625 596.125 572.296875 C 604.292969 569.214844 612.921875 573.542969 617.378906 580.582031 C 620.503906 585.699219 621.769531 591.730469 620.972656 597.667969 C 634.230469 593.398438 646.375 581.648438 653.066406 571.332031 C 660.902344 559.375 666.6875 541.480469 663.972656 527.152344 C 663.171875 522.960938 669.609375 521.527344 670.472656 525.738281 C 673.746094 542.117188 667.320312 562.222656 658.085938 575.847656 C 649.535156 588.457031 635.070312 601.265625 619.183594 604.847656 L 619.039062 605.25 C 609.984375 627.929688 583.433594 631.726562 562.621094 624.332031 Z M 602.671875 577.917969 C 596.117188 577.351562 592.21875 583.113281 593.71875 589.097656 C 594.988281 594.183594 599.726562 597.324219 604.566406 598.519531 C 607.609375 599.25 610.753906 599.457031 613.867188 599.128906 C 615.601562 590.511719 612.808594 578.804688 602.671875 577.917969 Z M 602.671875 577.917969 " fill-opacity="1" fill-rule="nonzero"/></g></g></g></svg>