<svg xmlns="http://www.w3.org/2000/svg" xmlns:xlink="http://www.w3.org/1999/xlink" width="1000" zoomAndPan="magnify" viewBox="0 0 750 749.999995" height="1000" preserveAspectRatio="xMidYMid meet" version="1.0"><defs><clipPath id="5ce18f00ac"><path d="M 174 94 L 195 94 L 195 137 L 174 137 Z M 174 94 " clip-rule="nonzero"/></clipPath><clipPath id="b92b5d084d"><path d="M 120.351562 61.226562 L 210.722656 105.203125 L 121.132812 289.3125 L 30.761719 245.335938 Z M 120.351562 61.226562 " clip-rule="nonzero"/></clipPath><clipPath id="83551c17a2"><path d="M 120.351562 61.226562 L 210.722656 105.203125 L 121.132812 289.3125 L 30.761719 245.335938 Z M 120.351562 61.226562 " clip-rule="nonzero"/></clipPath><clipPath id="00601c6d1e"><path d="M 102 134 L 141 134 L 141 167 L 102 167 Z M 102 134 " clip-rule="nonzero"/></clipPath><clipPath id="2b31d906e2"><path d="M 120.351562 61.226562 L 210.722656 105.203125 L 121.132812 289.3125 L 30.761719 245.335938 Z M 120.351562 61.226562 " clip-rule="nonzero"/></clipPath><clipPath id="25a936ba08"><path d="M 120.351562 61.226562 L 210.722656 105.203125 L 121.132812 289.3125 L 30.761719 245.335938 Z M 120.351562 61.226562 " clip-rule="nonzero"/></clipPath><clipPath id="425352fd69"><path d="M 49 205 L 93 205 L 93 221 L 49 221 Z M 49 205 " clip-rule="nonzero"/></clipPath><clipPath id="4f9841dbc4"><path d="M 120.351562 61.226562 L 210.722656 105.203125 L 121.132812 289.3125 L 30.761719 245.335938 Z M 120.351562 61.226562 " clip-rule="nonzero"/></clipPath><clipPath id="4a57e9e0e3"><path d="M 120.351562 61.226562 L 210.722656 105.203125 L 121.132812 289.3125 L 30.761719 245.335938 Z M 120.351562 61.226562 " clip-rule="nonzero"/></clipPath><clipPath id="d7c217361b"><path d="M 56 242 L 75 242 L 75 254 L 56 254 Z M 56 242 " clip-rule="nonzero"/></clipPath><clipPath id="632df5875b"><path d="M 120.351562 61.226562 L 210.722656 105.203125 L 121.132812 289.3125 L 30.761719 245.335938 Z M 120.351562 61.226562 " clip-rule="nonzero"/></clipPath><clipPath id="17abc68ae5"><path d="M 120.351562 61.226562 L 210.722656 105.203125 L 121.132812 289.3125 L 30.761719 245.335938 Z M 120.351562 61.226562 " clip-rule="nonzero"/></clipPath><clipPath id="7886fbcaa3"><path d="M 103 161 L 133 161 L 133 182 L 103 182 Z M 103 161 " clip-rule="nonzero"/></clipPath><clipPath id="c387df3bf7"><path d="M 120.351562 61.226562 L 210.722656 105.203125 L 121.132812 289.3125 L 30.761719 245.335938 Z M 120.351562 61.226562 " clip-rule="nonzero"/></clipPath><clipPath id="76a6c298bd"><path d="M 120.351562 61.226562 L 210.722656 105.203125 L 121.132812 289.3125 L 30.761719 245.335938 Z M 120.351562 61.226562 " clip-rule="nonzero"/></clipPath><clipPath id="09061a3b56"><path d="M 599 505 L 708 505 L 708 652 L 599 652 Z M 599 505 " clip-rule="nonzero"/></clipPath><clipPath id="d9e5947760"><path d="M 572.9375 529.230469 L 705.824219 501.496094 L 732.640625 629.976562 L 599.753906 657.710938 Z M 572.9375 529.230469 " clip-rule="nonzero"/></clipPath><clipPath id="1ec461b25a"><path d="M 572.9375 529.230469 L 705.824219 501.496094 L 732.640625 629.976562 L 599.753906 657.710938 Z M 572.9375 529.230469 " clip-rule="nonzero"/></clipPath><clipPath id="0fd3f1955b"><path d="M 122 221.445312 L 628 221.445312 L 628 528.195312 L 122 528.195312 Z M 122 221.445312 " clip-rule="nonzero"/></clipPath><clipPath id="3f158eeb4d"><path d="M 196.238281 247.921875 L 547.988281 247.921875 L 547.988281 301.921875 L 196.238281 301.921875 Z M 196.238281 247.921875 " clip-rule="nonzero"/></clipPath><clipPath id="3eeb688ec0"><path d="M 225.039062 260.632812 L 253.539062 260.632812 L 253.539062 289 L 225.039062 289 Z M 225.039062 260.632812 " clip-rule="nonzero"/></clipPath><clipPath id="79a2d4b4af"><path d="M 278.4375 315.933594 L 437.4375 315.933594 L 437.4375 474.933594 L 278.4375 474.933594 Z M 278.4375 315.933594 " clip-rule="nonzero"/></clipPath></defs><rect x="-75" width="900" fill="#ffffff" y="-74.999999" height="899.999994" fill-opacity="1"/><rect x="-75" width="900" fill="#ffffff" y="-74.999999" height="899.999994" fill-opacity="1"/><g clip-path="url(#5ce18f00ac)"><g clip-path="url(#b92b5d084d)"><g clip-path="url(#83551c17a2)"><path fill="#00b696" d="M 194.734375 130.472656 C 194.734375 130.472656 195.691406 135.214844 190.890625 136.613281 C 186.089844 138.007812 184.355469 134.054688 183.742188 131.96875 C 181.765625 125.640625 174.21875 101.824219 174.21875 101.824219 C 174.21875 101.824219 173.253906 96.300781 179.367188 94.765625 C 185.855469 93.097656 187.6875 97.800781 188.402344 100.328125 C 190.484375 107.71875 194.734375 130.472656 194.734375 130.472656 Z M 194.734375 130.472656 " fill-opacity="1" fill-rule="nonzero"/></g></g></g><g clip-path="url(#00601c6d1e)"><g clip-path="url(#2b31d906e2)"><g clip-path="url(#25a936ba08)"><path fill="#00b696" d="M 138.007812 157.542969 C 138.007812 157.542969 141.824219 160.566406 138.988281 164.476562 C 136.25 168.507812 132.351562 166.613281 130.585938 165.441406 C 125.046875 161.96875 105.582031 146.664062 105.582031 146.664062 C 105.582031 146.664062 99.878906 142.722656 105.386719 137.003906 C 109.714844 132.421875 114.136719 136.59375 114.136719 136.59375 Z M 138.007812 157.542969 " fill-opacity="1" fill-rule="nonzero"/></g></g></g><g clip-path="url(#425352fd69)"><g clip-path="url(#4f9841dbc4)"><g clip-path="url(#4a57e9e0e3)"><path fill="#00b696" d="M 88.0625 210 C 88.0625 210 92.914062 210.417969 92.71875 215.296875 C 92.519531 220.179688 88.332031 220.628906 86.207031 220.683594 C 79.671875 220.691406 55.03125 218.425781 55.03125 218.425781 C 55.03125 218.425781 48.117188 218.25 49.597656 210.414062 C 50.84375 204.175781 56.734375 205.332031 56.734375 205.332031 Z M 88.0625 210 " fill-opacity="1" fill-rule="nonzero"/></g></g></g><g clip-path="url(#d7c217361b)"><g clip-path="url(#632df5875b)"><g clip-path="url(#17abc68ae5)"><path fill="#00b696" d="M 70.039062 252.949219 C 70.039062 252.949219 74.605469 252.679688 74.929688 248.015625 C 75.398438 242.101562 68.644531 242.390625 68.644531 242.390625 C 68.644531 242.390625 58.613281 240.308594 57.089844 246.957031 C 54.910156 256.707031 70.039062 252.949219 70.039062 252.949219 Z M 70.039062 252.949219 " fill-opacity="1" fill-rule="nonzero"/></g></g></g><g clip-path="url(#7886fbcaa3)"><g clip-path="url(#c387df3bf7)"><g clip-path="url(#76a6c298bd)"><path fill="#00b696" d="M 106.335938 172.929688 C 104.574219 172.070312 101.90625 171.003906 104.75 165.15625 C 107.105469 160.316406 111.46875 161.894531 113.484375 162.875 C 117.886719 165.171875 125.179688 168.722656 130.605469 172.917969 C 134.738281 176.09375 130.378906 183.773438 125.226562 181.574219 C 121.296875 179.898438 111.804688 175.589844 106.335938 172.929688 Z M 106.335938 172.929688 " fill-opacity="1" fill-rule="nonzero"/></g></g></g><g clip-path="url(#09061a3b56)"><g clip-path="url(#d9e5947760)"><g clip-path="url(#1ec461b25a)"><path fill="#0d68b1" d="M 699.386719 507.960938 C 697 503.519531 690 507.082031 692.40625 511.550781 C 702.132812 529.648438 704.246094 555.140625 686.386719 568.234375 C 686.101562 565.777344 685.59375 563.347656 684.875 560.980469 C 681.949219 551.726562 674.425781 543.433594 664.300781 542.644531 C 655.335938 541.949219 646.457031 547.203125 644.542969 556.3125 C 642.394531 566.382812 648.984375 575.671875 658 579.613281 C 664.539062 582.335938 671.808594 582.738281 678.605469 580.75 C 675.976562 596.964844 664.40625 613.222656 653.539062 622.867188 C 640.960938 634.136719 621.082031 644.074219 603.855469 643.46875 C 598.816406 643.285156 598.285156 651.046875 603.359375 651.300781 C 623.078125 652.191406 645.433594 641.109375 659.710938 627.914062 C 672.925781 615.695312 685.316406 596.539062 686.675781 577.378906 L 687.125 577.140625 C 712.011719 562.535156 711.730469 530.902344 699.386719 507.960938 Z M 652.277344 562.941406 C 650.445312 555.398438 656.484375 549.824219 663.746094 550.507812 C 669.914062 551.082031 674.429688 556.039062 676.683594 561.472656 C 678.078125 564.886719 678.878906 568.515625 679.050781 572.203125 C 669.289062 575.765625 655.109375 574.601562 652.277344 562.941406 Z M 652.277344 562.941406 " fill-opacity="1" fill-rule="nonzero"/></g></g></g><g clip-path="url(#0fd3f1955b)"><path fill="#0d68b1" d="M 181.539062 221.445312 C 173.683594 221.445312 167.363281 227.632812 167.363281 235.316406 L 167.363281 489.039062 C 167.363281 496.34375 166.332031 502.296875 172.984375 502.863281 L 126.394531 502.863281 C 120.882812 502.863281 123.699219 507.160156 123.699219 512.496094 L 123.699219 518.917969 C 123.699219 524.253906 128.140625 528.550781 133.652344 528.550781 L 616.339844 528.550781 C 621.855469 528.550781 626.292969 524.253906 626.292969 518.917969 L 626.292969 512.496094 C 626.292969 507.160156 629.113281 502.863281 623.597656 502.863281 L 577.007812 502.863281 C 583.660156 502.296875 582.632812 496.34375 582.632812 489.039062 L 582.632812 235.316406 C 582.632812 227.632812 576.308594 221.445312 568.453125 221.445312 L 181.535156 221.445312 Z M 304.015625 224.808594 C 306.03125 224.808594 307.664062 226.40625 307.664062 228.378906 C 307.664062 230.351562 306.03125 231.949219 304.015625 231.949219 C 302 231.949219 300.367188 230.351562 300.367188 228.378906 C 300.367188 226.40625 302 224.808594 304.015625 224.808594 Z M 181.191406 235.34375 L 568.800781 235.34375 L 568.800781 489.007812 L 181.191406 489.007812 Z M 311.984375 502.910156 L 438.011719 502.910156 C 437.824219 505.59375 435.953125 507.691406 433.660156 507.691406 L 316.335938 507.691406 C 314.039062 507.691406 312.171875 505.59375 311.984375 502.910156 Z M 567.871094 510.507812 C 570.839844 510.507812 573.246094 512.835938 573.246094 515.707031 C 573.246094 518.582031 570.839844 520.910156 567.871094 520.910156 C 564.902344 520.910156 562.496094 518.582031 562.496094 515.707031 C 562.496094 512.835938 564.902344 510.507812 567.871094 510.507812 Z M 584.820312 510.507812 C 587.789062 510.507812 590.195312 512.835938 590.195312 515.707031 C 590.195312 518.582031 587.789062 520.910156 584.820312 520.910156 C 581.851562 520.910156 579.445312 518.582031 579.445312 515.707031 C 579.445312 512.835938 581.851562 510.507812 584.820312 510.507812 Z M 601.769531 510.507812 C 604.738281 510.507812 607.144531 512.835938 607.144531 515.707031 C 607.144531 518.582031 604.738281 520.910156 601.769531 520.910156 C 598.804688 520.910156 596.398438 518.582031 596.398438 515.707031 C 596.398438 512.835938 598.804688 510.507812 601.769531 510.507812 Z M 145.148438 513.953125 L 173.347656 513.953125 C 174.726562 513.953125 175.835938 514.734375 175.835938 515.707031 C 175.835938 516.679688 174.726562 517.464844 173.347656 517.464844 L 145.148438 517.464844 C 143.769531 517.464844 142.660156 516.679688 142.660156 515.707031 C 142.660156 514.734375 143.769531 513.953125 145.148438 513.953125 Z M 145.148438 513.953125 " fill-opacity="1" fill-rule="nonzero"/></g><g clip-path="url(#3f158eeb4d)"><path fill="#00b696" d="M 521.109375 247.921875 L 223.242188 247.921875 C 222.363281 247.921875 221.488281 247.964844 220.613281 248.050781 C 219.738281 248.136719 218.871094 248.265625 218.007812 248.4375 C 217.148438 248.609375 216.296875 248.824219 215.457031 249.078125 C 214.613281 249.332031 213.789062 249.628906 212.976562 249.964844 C 212.164062 250.300781 211.371094 250.675781 210.597656 251.089844 C 209.824219 251.503906 209.070312 251.957031 208.339844 252.445312 C 207.609375 252.933594 206.90625 253.453125 206.226562 254.011719 C 205.546875 254.570312 204.894531 255.160156 204.273438 255.78125 C 203.652344 256.402344 203.0625 257.050781 202.507812 257.730469 C 201.949219 258.410156 201.425781 259.113281 200.9375 259.84375 C 200.449219 260.574219 200 261.328125 199.585938 262.101562 C 199.171875 262.878906 198.796875 263.671875 198.460938 264.480469 C 198.125 265.292969 197.828125 266.121094 197.574219 266.960938 C 197.316406 267.800781 197.105469 268.652344 196.933594 269.515625 C 196.761719 270.375 196.632812 271.242188 196.546875 272.117188 C 196.460938 272.992188 196.417969 273.867188 196.417969 274.746094 C 196.417969 275.625 196.460938 276.503906 196.546875 277.375 C 196.632812 278.25 196.761719 279.117188 196.933594 279.980469 C 197.105469 280.84375 197.316406 281.691406 197.574219 282.535156 C 197.828125 283.375 198.125 284.199219 198.460938 285.011719 C 198.796875 285.824219 199.171875 286.617188 199.585938 287.390625 C 200 288.167969 200.449219 288.917969 200.9375 289.648438 C 201.425781 290.378906 201.949219 291.085938 202.507812 291.765625 C 203.0625 292.441406 203.652344 293.09375 204.273438 293.714844 C 204.894531 294.335938 205.546875 294.925781 206.226562 295.484375 C 206.90625 296.039062 207.609375 296.5625 208.339844 297.050781 C 209.070312 297.539062 209.824219 297.988281 210.597656 298.402344 C 211.371094 298.816406 212.164062 299.191406 212.976562 299.53125 C 213.789062 299.867188 214.613281 300.160156 215.457031 300.417969 C 216.296875 300.671875 217.148438 300.882812 218.007812 301.054688 C 218.871094 301.226562 219.738281 301.355469 220.613281 301.441406 C 221.488281 301.527344 222.363281 301.570312 223.242188 301.570312 L 521.109375 301.570312 C 521.988281 301.570312 522.867188 301.527344 523.742188 301.441406 C 524.613281 301.355469 525.484375 301.226562 526.34375 301.054688 C 527.207031 300.882812 528.058594 300.671875 528.898438 300.417969 C 529.738281 300.160156 530.566406 299.867188 531.375 299.53125 C 532.1875 299.191406 532.980469 298.816406 533.757812 298.402344 C 534.53125 297.988281 535.285156 297.539062 536.015625 297.050781 C 536.746094 296.5625 537.449219 296.039062 538.128906 295.484375 C 538.808594 294.925781 539.457031 294.335938 540.078125 293.714844 C 540.699219 293.09375 541.289062 292.441406 541.847656 291.765625 C 542.402344 291.085938 542.925781 290.378906 543.414062 289.648438 C 543.902344 288.917969 544.355469 288.167969 544.769531 287.390625 C 545.183594 286.617188 545.558594 285.824219 545.894531 285.011719 C 546.230469 284.199219 546.523438 283.375 546.78125 282.535156 C 547.035156 281.691406 547.25 280.84375 547.421875 279.980469 C 547.589844 279.117188 547.71875 278.25 547.804688 277.375 C 547.890625 276.503906 547.933594 275.625 547.933594 274.746094 C 547.933594 273.867188 547.890625 272.992188 547.804688 272.117188 C 547.71875 271.242188 547.589844 270.375 547.421875 269.515625 C 547.25 268.652344 547.035156 267.800781 546.78125 266.960938 C 546.523438 266.121094 546.230469 265.292969 545.894531 264.480469 C 545.558594 263.671875 545.183594 262.878906 544.769531 262.101562 C 544.355469 261.328125 543.902344 260.574219 543.414062 259.84375 C 542.925781 259.113281 542.402344 258.410156 541.847656 257.730469 C 541.289062 257.050781 540.699219 256.402344 540.078125 255.78125 C 539.457031 255.160156 538.808594 254.570312 538.128906 254.011719 C 537.449219 253.453125 536.746094 252.933594 536.015625 252.445312 C 535.285156 251.957031 534.53125 251.503906 533.757812 251.089844 C 532.980469 250.675781 532.1875 250.300781 531.375 249.964844 C 530.566406 249.628906 529.738281 249.332031 528.898438 249.078125 C 528.058594 248.824219 527.207031 248.609375 526.34375 248.4375 C 525.484375 248.265625 524.613281 248.136719 523.742188 248.050781 C 522.867188 247.964844 521.988281 247.921875 521.109375 247.921875 Z M 521.109375 297.566406 L 223.242188 297.566406 C 222.496094 297.566406 221.75 297.53125 221.003906 297.457031 C 220.261719 297.382812 219.523438 297.273438 218.789062 297.128906 C 218.058594 296.984375 217.332031 296.800781 216.617188 296.585938 C 215.902344 296.367188 215.199219 296.117188 214.507812 295.832031 C 213.820312 295.542969 213.144531 295.226562 212.484375 294.875 C 211.824219 294.519531 211.183594 294.136719 210.5625 293.722656 C 209.941406 293.304688 209.34375 292.863281 208.765625 292.386719 C 208.1875 291.914062 207.632812 291.414062 207.105469 290.882812 C 206.578125 290.355469 206.074219 289.800781 205.601562 289.222656 C 205.128906 288.648438 204.683594 288.046875 204.269531 287.425781 C 203.851562 286.804688 203.46875 286.164062 203.117188 285.503906 C 202.765625 284.84375 202.445312 284.171875 202.160156 283.480469 C 201.871094 282.789062 201.621094 282.085938 201.40625 281.371094 C 201.1875 280.65625 201.007812 279.933594 200.859375 279.199219 C 200.714844 278.464844 200.605469 277.726562 200.53125 276.984375 C 200.457031 276.242188 200.421875 275.496094 200.421875 274.746094 C 200.421875 274 200.457031 273.253906 200.53125 272.511719 C 200.605469 271.765625 200.714844 271.027344 200.859375 270.296875 C 201.007812 269.5625 201.1875 268.839844 201.40625 268.121094 C 201.621094 267.40625 201.871094 266.703125 202.160156 266.015625 C 202.445312 265.324219 202.765625 264.648438 203.117188 263.988281 C 203.46875 263.332031 203.851562 262.691406 204.269531 262.070312 C 204.683594 261.445312 205.128906 260.847656 205.601562 260.269531 C 206.074219 259.691406 206.578125 259.140625 207.105469 258.609375 C 207.632812 258.082031 208.1875 257.582031 208.765625 257.105469 C 209.34375 256.632812 209.941406 256.1875 210.5625 255.773438 C 211.183594 255.355469 211.824219 254.972656 212.484375 254.621094 C 213.144531 254.269531 213.820312 253.949219 214.507812 253.664062 C 215.199219 253.378906 215.902344 253.125 216.617188 252.910156 C 217.332031 252.691406 218.058594 252.511719 218.789062 252.363281 C 219.523438 252.21875 220.261719 252.109375 221.003906 252.035156 C 221.75 251.964844 222.496094 251.925781 223.242188 251.925781 L 521.109375 251.925781 C 521.859375 251.925781 522.605469 251.964844 523.347656 252.035156 C 524.09375 252.109375 524.832031 252.21875 525.5625 252.363281 C 526.296875 252.511719 527.019531 252.691406 527.734375 252.910156 C 528.449219 253.125 529.152344 253.378906 529.84375 253.664062 C 530.535156 253.949219 531.210938 254.269531 531.867188 254.621094 C 532.527344 254.972656 533.167969 255.355469 533.789062 255.773438 C 534.410156 256.1875 535.011719 256.632812 535.589844 257.105469 C 536.167969 257.582031 536.71875 258.082031 537.246094 258.609375 C 537.777344 259.140625 538.277344 259.691406 538.75 260.269531 C 539.226562 260.847656 539.671875 261.445312 540.085938 262.070312 C 540.5 262.691406 540.886719 263.332031 541.238281 263.988281 C 541.589844 264.648438 541.910156 265.324219 542.195312 266.015625 C 542.480469 266.703125 542.730469 267.40625 542.949219 268.121094 C 543.167969 268.839844 543.347656 269.5625 543.492188 270.296875 C 543.640625 271.027344 543.75 271.765625 543.820312 272.511719 C 543.894531 273.253906 543.933594 274 543.933594 274.746094 C 543.933594 275.496094 543.894531 276.242188 543.820312 276.984375 C 543.75 277.726562 543.640625 278.464844 543.492188 279.199219 C 543.347656 279.933594 543.167969 280.65625 542.949219 281.371094 C 542.730469 282.085938 542.480469 282.789062 542.195312 283.480469 C 541.910156 284.171875 541.589844 284.84375 541.238281 285.503906 C 540.886719 286.164062 540.5 286.804688 540.085938 287.425781 C 539.671875 288.046875 539.226562 288.648438 538.75 289.222656 C 538.277344 289.800781 537.777344 290.355469 537.246094 290.882812 C 536.71875 291.414062 536.167969 291.914062 535.589844 292.386719 C 535.011719 292.863281 534.410156 293.304688 533.789062 293.722656 C 533.167969 294.136719 532.527344 294.519531 531.867188 294.875 C 531.210938 295.226562 530.535156 295.542969 529.84375 295.832031 C 529.152344 296.117188 528.449219 296.367188 527.734375 296.585938 C 527.019531 296.800781 526.296875 296.984375 525.5625 297.128906 C 524.832031 297.273438 524.09375 297.382812 523.347656 297.457031 C 522.605469 297.53125 521.859375 297.566406 521.109375 297.566406 Z M 521.109375 297.566406 " fill-opacity="1" fill-rule="nonzero"/></g><path fill="#00b696" d="M 519.351562 279.390625 C 519.5625 279.082031 519.753906 278.761719 519.933594 278.433594 C 520.109375 278.101562 520.265625 277.761719 520.40625 277.414062 C 520.542969 277.066406 520.664062 276.710938 520.761719 276.351562 C 520.863281 275.988281 520.941406 275.625 521 275.253906 C 521.058594 274.882812 521.097656 274.511719 521.117188 274.136719 C 521.132812 273.761719 521.128906 273.390625 521.105469 273.015625 C 521.082031 272.640625 521.039062 272.269531 520.972656 271.902344 C 520.910156 271.53125 520.824219 271.167969 520.71875 270.808594 C 520.613281 270.449219 520.488281 270.097656 520.34375 269.75 C 520.199219 269.40625 520.035156 269.066406 519.855469 268.738281 C 519.671875 268.414062 519.472656 268.097656 519.253906 267.789062 C 519.039062 267.484375 518.804688 267.191406 518.554688 266.914062 C 518.308594 266.632812 518.042969 266.367188 517.765625 266.117188 C 517.484375 265.867188 517.195312 265.632812 516.890625 265.414062 C 516.585938 265.195312 516.269531 264.996094 515.941406 264.8125 C 515.613281 264.628906 515.277344 264.464844 514.933594 264.320312 C 514.589844 264.175781 514.238281 264.046875 513.878906 263.941406 C 513.519531 263.835938 513.15625 263.746094 512.785156 263.679688 C 512.417969 263.613281 512.046875 263.570312 511.671875 263.542969 C 511.296875 263.519531 510.925781 263.515625 510.550781 263.53125 C 510.175781 263.546875 509.804688 263.582031 509.433594 263.640625 C 509.0625 263.699219 508.695312 263.777344 508.335938 263.875 C 507.972656 263.972656 507.617188 264.089844 507.269531 264.226562 C 506.921875 264.367188 506.582031 264.523438 506.25 264.695312 C 505.917969 264.871094 505.597656 265.066406 505.289062 265.277344 C 504.980469 265.488281 504.683594 265.714844 504.398438 265.957031 C 504.113281 266.199219 503.84375 266.460938 503.585938 266.734375 C 503.332031 267.007812 503.089844 267.292969 502.867188 267.59375 C 502.640625 267.894531 502.433594 268.207031 502.246094 268.527344 C 502.054688 268.851562 501.886719 269.183594 501.730469 269.527344 C 501.578125 269.871094 501.445312 270.21875 501.332031 270.574219 C 501.21875 270.933594 501.125 271.292969 501.050781 271.660156 C 500.976562 272.03125 500.921875 272.398438 500.890625 272.773438 C 500.859375 273.144531 500.847656 273.519531 500.855469 273.894531 C 500.863281 274.269531 500.894531 274.640625 500.941406 275.011719 C 500.992188 275.382812 501.0625 275.753906 501.15625 276.117188 C 501.246094 276.480469 501.355469 276.835938 501.488281 277.1875 C 501.617188 277.539062 501.765625 277.882812 501.933594 278.214844 C 502.101562 278.550781 502.289062 278.875 502.496094 279.1875 C 502.699219 279.503906 502.917969 279.804688 503.15625 280.09375 C 503.394531 280.382812 503.648438 280.660156 503.917969 280.921875 C 504.1875 281.183594 504.46875 281.429688 504.761719 281.65625 C 505.058594 281.886719 505.367188 282.101562 505.6875 282.296875 C 506.003906 282.492188 506.335938 282.671875 506.671875 282.832031 C 507.011719 282.988281 507.359375 283.128906 507.714844 283.25 C 508.066406 283.371094 508.429688 283.472656 508.792969 283.554688 C 509.160156 283.636719 509.527344 283.695312 509.902344 283.738281 C 510.273438 283.777344 510.648438 283.796875 511.023438 283.796875 C 513.148438 283.824219 515.070312 283.210938 516.789062 281.953125 L 520.230469 285.398438 C 520.582031 285.753906 521.011719 285.941406 521.511719 285.957031 C 522.03125 285.976562 522.457031 285.789062 522.792969 285.398438 C 522.964844 285.230469 523.097656 285.035156 523.195312 284.8125 C 523.289062 284.589844 523.335938 284.355469 523.335938 284.117188 C 523.335938 283.875 523.289062 283.640625 523.195312 283.421875 C 523.097656 283.199219 522.964844 283.003906 522.792969 282.835938 Z M 504.535156 273.625 C 504.535156 273.199219 504.578125 272.777344 504.660156 272.359375 C 504.742188 271.941406 504.867188 271.539062 505.03125 271.144531 C 505.191406 270.75 505.394531 270.375 505.628906 270.023438 C 505.867188 269.667969 506.136719 269.339844 506.4375 269.039062 C 506.738281 268.738281 507.066406 268.46875 507.417969 268.234375 C 507.773438 267.996094 508.148438 267.796875 508.539062 267.632812 C 508.933594 267.472656 509.339844 267.347656 509.757812 267.265625 C 510.175781 267.183594 510.597656 267.140625 511.023438 267.140625 C 511.449219 267.140625 511.871094 267.183594 512.289062 267.265625 C 512.707031 267.347656 513.109375 267.472656 513.503906 267.632812 C 513.898438 267.796875 514.269531 267.996094 514.625 268.234375 C 514.980469 268.46875 515.308594 268.738281 515.609375 269.039062 C 515.910156 269.339844 516.179688 269.667969 516.414062 270.023438 C 516.652344 270.375 516.851562 270.75 517.015625 271.144531 C 517.175781 271.539062 517.300781 271.941406 517.382812 272.359375 C 517.464844 272.777344 517.507812 273.199219 517.507812 273.625 C 517.507812 274.050781 517.464844 274.472656 517.382812 274.890625 C 517.300781 275.308594 517.175781 275.714844 517.015625 276.109375 C 516.851562 276.5 516.652344 276.875 516.414062 277.230469 C 516.179688 277.582031 515.910156 277.910156 515.609375 278.210938 C 515.308594 278.511719 514.980469 278.78125 514.625 279.019531 C 514.269531 279.253906 513.898438 279.457031 513.503906 279.617188 C 513.109375 279.78125 512.707031 279.902344 512.289062 279.988281 C 511.871094 280.070312 511.449219 280.113281 511.023438 280.113281 C 510.597656 280.113281 510.171875 280.074219 509.753906 279.992188 C 509.335938 279.910156 508.929688 279.789062 508.535156 279.625 C 508.140625 279.460938 507.769531 279.261719 507.414062 279.027344 C 507.058594 278.789062 506.730469 278.519531 506.429688 278.21875 C 506.128906 277.917969 505.859375 277.589844 505.621094 277.234375 C 505.386719 276.878906 505.1875 276.507812 505.023438 276.113281 C 504.859375 275.71875 504.738281 275.3125 504.65625 274.894531 C 504.574219 274.476562 504.535156 274.050781 504.535156 273.625 Z M 504.535156 273.625 " fill-opacity="1" fill-rule="nonzero"/><path fill="#00b696" d="M 451.867188 430.820312 L 460.648438 422.039062 C 460.648438 422.039062 469.429688 413.257812 478.210938 422.039062 C 486.996094 430.820312 478.210938 439.605469 478.210938 439.605469 L 466.503906 451.3125 C 466.503906 451.3125 457.71875 460.097656 448.9375 451.3125 C 447.292969 449.667969 446.269531 447.480469 446.269531 447.480469 L 451.179688 442.578125 C 451.179688 442.578125 450.980469 444.574219 453.328125 446.921875 C 453.328125 446.921875 457.71875 451.3125 462.113281 446.921875 L 473.820312 435.214844 C 473.820312 435.214844 478.210938 430.820312 473.820312 426.429688 C 469.429688 422.039062 465.039062 426.429688 465.039062 426.429688 L 459.582031 431.890625 C 459.582031 431.890625 456.867188 429.664062 451.316406 431.371094 Z M 451.867188 430.820312 " fill-opacity="1" fill-rule="nonzero"/><path fill="#00b696" d="M 460.421875 457.167969 L 451.636719 465.953125 C 451.636719 465.953125 442.855469 474.734375 434.074219 465.953125 C 425.292969 457.167969 434.074219 448.386719 434.074219 448.386719 L 445.785156 436.675781 C 445.785156 436.675781 454.566406 427.894531 463.347656 436.675781 C 464.996094 438.324219 466.015625 440.511719 466.015625 440.511719 L 461.105469 445.414062 C 461.105469 445.414062 461.304688 443.414062 458.957031 441.066406 C 458.957031 441.066406 454.5625 436.675781 450.171875 441.066406 L 438.464844 452.777344 C 438.464844 452.777344 434.070312 457.167969 438.464844 461.558594 C 442.855469 465.953125 447.246094 461.558594 447.246094 461.558594 L 452.703125 456.101562 C 452.703125 456.101562 455.417969 458.328125 460.96875 456.621094 Z M 460.421875 457.167969 " fill-opacity="1" fill-rule="nonzero"/><g clip-path="url(#3eeb688ec0)"><path fill="#00b696" d="M 253.25 262.984375 C 253.25 264.285156 252.195312 265.339844 250.898438 265.339844 L 234.445312 265.339844 C 233.144531 265.339844 232.089844 264.285156 232.089844 262.984375 C 232.089844 261.6875 233.144531 260.632812 234.445312 260.632812 L 250.902344 260.632812 C 252.195312 260.632812 253.25 261.6875 253.25 262.984375 Z M 250.898438 284.144531 L 234.445312 284.144531 C 233.144531 284.144531 232.089844 285.199219 232.089844 286.5 C 232.089844 287.796875 233.144531 288.851562 234.445312 288.851562 L 250.902344 288.851562 C 252.199219 288.851562 253.257812 287.796875 253.257812 286.5 C 253.25 285.195312 252.195312 284.144531 250.898438 284.144531 Z M 250.898438 272.386719 L 234.445312 272.386719 C 233.144531 272.386719 232.089844 273.441406 232.089844 274.738281 C 232.089844 276.039062 233.144531 277.09375 234.445312 277.09375 L 250.902344 277.09375 C 252.199219 277.09375 253.257812 276.039062 253.257812 274.738281 C 253.25 273.441406 252.195312 272.386719 250.898438 272.386719 Z M 227.390625 260.632812 C 226.09375 260.632812 225.039062 261.6875 225.039062 262.984375 C 225.039062 264.285156 226.09375 265.339844 227.390625 265.339844 C 228.6875 265.339844 229.742188 264.285156 229.742188 262.984375 C 229.738281 261.6875 228.6875 260.632812 227.390625 260.632812 Z M 227.390625 284.144531 C 226.09375 284.144531 225.039062 285.199219 225.039062 286.5 C 225.039062 287.796875 226.09375 288.851562 227.390625 288.851562 C 228.6875 288.851562 229.742188 287.796875 229.742188 286.5 C 229.738281 285.195312 228.6875 284.144531 227.390625 284.144531 Z M 227.390625 272.386719 C 226.09375 272.386719 225.039062 273.441406 225.039062 274.738281 C 225.039062 276.039062 226.09375 277.09375 227.390625 277.09375 C 228.6875 277.09375 229.742188 276.039062 229.742188 274.738281 C 229.738281 273.441406 228.6875 272.386719 227.390625 272.386719 Z M 227.390625 272.386719 " fill-opacity="1" fill-rule="nonzero"/></g><g clip-path="url(#79a2d4b4af)"><path fill="#0d68b1" d="M 357.914062 315.933594 C 357.59375 315.933594 357.285156 315.992188 356.992188 316.117188 C 356.695312 316.238281 356.4375 316.414062 356.210938 316.636719 C 355.984375 316.863281 355.808594 317.125 355.6875 317.417969 C 355.566406 317.714844 355.503906 318.023438 355.503906 318.339844 C 355.503906 318.660156 355.566406 318.96875 355.6875 319.261719 C 355.808594 319.558594 355.984375 319.816406 356.210938 320.042969 C 356.4375 320.269531 356.695312 320.445312 356.992188 320.566406 C 357.285156 320.6875 357.59375 320.75 357.914062 320.75 C 358.230469 320.75 358.539062 320.6875 358.835938 320.566406 C 359.128906 320.445312 359.390625 320.269531 359.617188 320.042969 C 359.839844 319.816406 360.015625 319.558594 360.136719 319.261719 C 360.261719 318.96875 360.320312 318.660156 360.320312 318.339844 C 360.320312 318.023438 360.261719 317.714844 360.136719 317.417969 C 360.015625 317.125 359.839844 316.863281 359.617188 316.636719 C 359.390625 316.414062 359.128906 316.238281 358.835938 316.117188 C 358.539062 315.992188 358.230469 315.933594 357.914062 315.933594 Z M 347.78125 316.597656 C 347.699219 316.597656 347.621094 316.605469 347.539062 316.613281 C 347.222656 316.65625 346.925781 316.757812 346.648438 316.917969 C 346.375 317.078125 346.136719 317.285156 345.941406 317.535156 C 345.75 317.789062 345.609375 318.070312 345.527344 318.378906 C 345.445312 318.691406 345.425781 319.003906 345.464844 319.320312 C 345.507812 319.636719 345.609375 319.929688 345.769531 320.207031 C 345.929688 320.484375 346.136719 320.71875 346.386719 320.914062 C 346.640625 321.105469 346.921875 321.246094 347.230469 321.328125 C 347.539062 321.410156 347.851562 321.429688 348.167969 321.390625 C 348.484375 321.347656 348.78125 321.246094 349.054688 321.085938 C 349.332031 320.929688 349.566406 320.722656 349.761719 320.46875 C 349.957031 320.214844 350.097656 319.933594 350.179688 319.625 C 350.261719 319.316406 350.28125 319.003906 350.242188 318.6875 C 350.203125 318.394531 350.109375 318.113281 349.96875 317.851562 C 349.824219 317.589844 349.640625 317.363281 349.414062 317.167969 C 349.1875 316.976562 348.933594 316.828125 348.652344 316.730469 C 348.367188 316.632812 348.078125 316.585938 347.78125 316.597656 Z M 367.875 316.601562 C 367.59375 316.613281 367.320312 316.671875 367.058594 316.777344 C 366.796875 316.886719 366.558594 317.035156 366.351562 317.226562 C 366.140625 317.417969 365.96875 317.640625 365.839844 317.890625 C 365.707031 318.140625 365.621094 318.40625 365.585938 318.6875 C 365.542969 319.007812 365.5625 319.320312 365.644531 319.628906 C 365.726562 319.9375 365.867188 320.21875 366.0625 320.472656 C 366.257812 320.726562 366.492188 320.933594 366.769531 321.089844 C 367.046875 321.25 367.34375 321.351562 367.660156 321.394531 C 367.976562 321.433594 368.289062 321.414062 368.597656 321.332031 C 368.90625 321.25 369.1875 321.109375 369.4375 320.914062 C 369.691406 320.722656 369.898438 320.484375 370.058594 320.210938 C 370.21875 319.933594 370.316406 319.636719 370.359375 319.320312 C 370.402344 319.003906 370.378906 318.691406 370.296875 318.382812 C 370.214844 318.074219 370.074219 317.792969 369.882812 317.539062 C 369.6875 317.285156 369.449219 317.082031 369.175781 316.921875 C 368.898438 316.761719 368.601562 316.660156 368.285156 316.621094 C 368.148438 316.601562 368.011719 316.59375 367.875 316.601562 Z M 337.988281 318.558594 C 337.929688 318.558594 337.875 318.558594 337.816406 318.5625 C 337.65625 318.574219 337.5 318.597656 337.34375 318.640625 C 337.035156 318.726562 336.753906 318.863281 336.5 319.058594 C 336.246094 319.253906 336.039062 319.488281 335.878906 319.765625 C 335.722656 320.039062 335.621094 320.335938 335.578125 320.652344 C 335.535156 320.96875 335.558594 321.28125 335.640625 321.589844 C 335.722656 321.898438 335.863281 322.179688 336.054688 322.433594 C 336.25 322.6875 336.484375 322.894531 336.761719 323.054688 C 337.039062 323.214844 337.335938 323.3125 337.652344 323.355469 C 337.96875 323.398438 338.28125 323.375 338.589844 323.292969 C 338.898438 323.210938 339.179688 323.074219 339.433594 322.878906 C 339.683594 322.683594 339.890625 322.449219 340.050781 322.171875 C 340.210938 321.894531 340.3125 321.597656 340.355469 321.28125 C 340.394531 320.964844 340.375 320.652344 340.292969 320.34375 C 340.222656 320.089844 340.117188 319.851562 339.972656 319.632812 C 339.828125 319.414062 339.648438 319.222656 339.441406 319.0625 C 339.234375 318.902344 339.003906 318.777344 338.753906 318.691406 C 338.507812 318.605469 338.25 318.558594 337.988281 318.558594 Z M 377.839844 318.5625 C 377.574219 318.5625 377.320312 318.609375 377.070312 318.695312 C 376.824219 318.78125 376.59375 318.90625 376.386719 319.066406 C 376.179688 319.226562 376 319.417969 375.855469 319.636719 C 375.710938 319.855469 375.601562 320.089844 375.535156 320.34375 C 375.449219 320.652344 375.429688 320.964844 375.472656 321.28125 C 375.515625 321.597656 375.613281 321.894531 375.773438 322.171875 C 375.933594 322.449219 376.140625 322.683594 376.394531 322.878906 C 376.648438 323.074219 376.929688 323.210938 377.238281 323.292969 C 377.542969 323.375 377.859375 323.398438 378.175781 323.355469 C 378.492188 323.3125 378.789062 323.214844 379.0625 323.054688 C 379.339844 322.894531 379.574219 322.6875 379.769531 322.433594 C 379.964844 322.179688 380.101562 321.898438 380.1875 321.589844 C 380.269531 321.28125 380.289062 320.96875 380.246094 320.652344 C 380.207031 320.335938 380.105469 320.039062 379.945312 319.765625 C 379.785156 319.488281 379.578125 319.253906 379.324219 319.058594 C 379.074219 318.863281 378.792969 318.726562 378.484375 318.640625 C 378.273438 318.585938 378.058594 318.558594 377.839844 318.5625 Z M 328.4375 321.796875 C 328.113281 321.796875 327.800781 321.855469 327.496094 321.980469 C 327.203125 322.105469 326.941406 322.277344 326.714844 322.503906 C 326.492188 322.730469 326.316406 322.992188 326.195312 323.285156 C 326.074219 323.582031 326.011719 323.886719 326.011719 324.207031 C 326.011719 324.527344 326.074219 324.832031 326.195312 325.128906 C 326.316406 325.421875 326.492188 325.683594 326.71875 325.910156 C 326.941406 326.136719 327.203125 326.308594 327.5 326.433594 C 327.792969 326.554688 328.101562 326.613281 328.421875 326.613281 C 328.738281 326.613281 329.046875 326.554688 329.339844 326.433594 C 329.636719 326.308594 329.898438 326.136719 330.121094 325.910156 C 330.347656 325.683594 330.523438 325.421875 330.644531 325.128906 C 330.765625 324.832031 330.828125 324.527344 330.828125 324.207031 C 330.828125 323.886719 330.765625 323.578125 330.644531 323.285156 C 330.460938 322.839844 330.167969 322.480469 329.765625 322.210938 C 329.363281 321.9375 328.921875 321.800781 328.4375 321.796875 Z M 387.457031 321.796875 C 386.960938 321.789062 386.503906 321.917969 386.089844 322.191406 C 385.675781 322.460938 385.371094 322.824219 385.179688 323.285156 C 385.058594 323.578125 385 323.886719 385 324.207031 C 385 324.523438 385.0625 324.832031 385.183594 325.125 C 385.304688 325.417969 385.480469 325.679688 385.703125 325.90625 C 385.929688 326.128906 386.191406 326.304688 386.484375 326.425781 C 386.78125 326.550781 387.085938 326.609375 387.40625 326.609375 C 387.726562 326.609375 388.03125 326.550781 388.328125 326.425781 C 388.621094 326.304688 388.882812 326.132812 389.109375 325.90625 C 389.335938 325.679688 389.507812 325.417969 389.632812 325.125 C 389.753906 324.828125 389.816406 324.523438 389.816406 324.203125 C 389.816406 323.882812 389.753906 323.574219 389.632812 323.28125 C 389.507812 322.984375 389.335938 322.726562 389.109375 322.5 C 388.882812 322.273438 388.625 322.097656 388.328125 321.976562 C 388.050781 321.863281 387.757812 321.804688 387.457031 321.796875 Z M 319.324219 326.257812 C 318.914062 326.269531 318.53125 326.375 318.175781 326.582031 C 317.898438 326.742188 317.664062 326.949219 317.46875 327.199219 C 317.273438 327.453125 317.136719 327.734375 317.050781 328.042969 C 316.96875 328.351562 316.949219 328.664062 316.988281 328.980469 C 317.03125 329.296875 317.132812 329.59375 317.289062 329.871094 C 317.449219 330.148438 317.65625 330.382812 317.910156 330.578125 C 318.164062 330.773438 318.445312 330.910156 318.753906 330.992188 C 319.0625 331.074219 319.375 331.09375 319.691406 331.054688 C 320.007812 331.011719 320.304688 330.910156 320.582031 330.75 C 320.859375 330.589844 321.09375 330.382812 321.289062 330.128906 C 321.484375 329.875 321.621094 329.597656 321.703125 329.289062 C 321.785156 328.980469 321.804688 328.667969 321.765625 328.351562 C 321.722656 328.035156 321.621094 327.738281 321.460938 327.460938 C 321.242188 327.082031 320.941406 326.78125 320.558594 326.566406 C 320.175781 326.351562 319.761719 326.246094 319.324219 326.257812 Z M 396.335938 326.261719 C 395.921875 326.28125 395.542969 326.398438 395.191406 326.613281 C 394.839844 326.824219 394.5625 327.109375 394.359375 327.464844 C 394.199219 327.742188 394.097656 328.039062 394.058594 328.355469 C 394.015625 328.671875 394.039062 328.984375 394.121094 329.292969 C 394.203125 329.601562 394.339844 329.882812 394.535156 330.136719 C 394.730469 330.390625 394.964844 330.59375 395.242188 330.753906 C 395.519531 330.914062 395.816406 331.015625 396.132812 331.054688 C 396.449219 331.097656 396.761719 331.078125 397.070312 330.996094 C 397.378906 330.914062 397.65625 330.773438 397.910156 330.582031 C 398.164062 330.386719 398.371094 330.152344 398.53125 329.875 C 398.691406 329.597656 398.792969 329.300781 398.835938 328.984375 C 398.875 328.667969 398.855469 328.355469 398.773438 328.046875 C 398.691406 327.738281 398.550781 327.457031 398.359375 327.203125 C 398.164062 326.949219 397.929688 326.742188 397.652344 326.582031 C 397.242188 326.347656 396.804688 326.238281 396.335938 326.261719 Z M 357.914062 327.972656 C 320.699219 327.972656 290.476562 358.195312 290.476562 395.410156 C 290.476562 432.625 320.699219 462.84375 357.914062 462.84375 C 395.128906 462.84375 425.347656 432.625 425.347656 395.410156 C 425.347656 358.195312 395.128906 327.972656 357.914062 327.972656 Z M 311.039062 331.855469 C 310.980469 331.855469 310.921875 331.855469 310.863281 331.859375 C 310.371094 331.886719 309.925781 332.050781 309.535156 332.355469 C 309.28125 332.546875 309.074219 332.785156 308.914062 333.058594 C 308.753906 333.335938 308.652344 333.632812 308.609375 333.949219 C 308.570312 334.265625 308.589844 334.578125 308.671875 334.886719 C 308.753906 335.195312 308.890625 335.476562 309.085938 335.730469 C 309.28125 335.984375 309.515625 336.191406 309.792969 336.351562 C 310.070312 336.511719 310.367188 336.609375 310.683594 336.652344 C 311 336.691406 311.3125 336.671875 311.621094 336.589844 C 311.929688 336.507812 312.210938 336.367188 312.464844 336.171875 C 312.71875 335.980469 312.925781 335.742188 313.085938 335.46875 C 313.246094 335.191406 313.34375 334.894531 313.386719 334.578125 C 313.429688 334.261719 313.410156 333.949219 313.328125 333.640625 C 313.242188 333.332031 313.105469 333.050781 312.910156 332.796875 C 312.4375 332.179688 311.816406 331.867188 311.039062 331.855469 Z M 404.785156 331.855469 C 404.011719 331.867188 403.386719 332.179688 402.914062 332.796875 C 402.71875 333.050781 402.582031 333.332031 402.5 333.640625 C 402.417969 333.949219 402.398438 334.261719 402.4375 334.578125 C 402.480469 334.894531 402.582031 335.191406 402.742188 335.46875 C 402.902344 335.742188 403.109375 335.980469 403.363281 336.171875 C 403.617188 336.367188 403.894531 336.507812 404.203125 336.589844 C 404.511719 336.671875 404.828125 336.691406 405.144531 336.648438 C 405.460938 336.609375 405.757812 336.507812 406.03125 336.347656 C 406.308594 336.1875 406.542969 335.980469 406.738281 335.726562 C 406.933594 335.472656 407.070312 335.191406 407.15625 334.882812 C 407.238281 334.574219 407.257812 334.261719 407.214844 333.945312 C 407.171875 333.628906 407.074219 333.332031 406.914062 333.054688 C 406.753906 332.777344 406.546875 332.542969 406.292969 332.347656 C 405.847656 332.007812 405.347656 331.84375 404.785156 331.855469 Z M 357.914062 332.792969 C 392.523438 332.792969 420.53125 360.796875 420.53125 395.410156 C 420.53125 430.019531 392.523438 458.027344 357.914062 458.027344 C 323.300781 458.027344 295.296875 430.019531 295.296875 395.410156 C 295.296875 360.796875 323.300781 332.792969 357.914062 332.792969 Z M 303.453125 338.507812 C 302.773438 338.496094 302.195312 338.734375 301.714844 339.210938 C 301.488281 339.4375 301.316406 339.699219 301.195312 339.992188 C 301.070312 340.289062 301.011719 340.59375 301.011719 340.914062 C 301.011719 341.234375 301.070312 341.542969 301.195312 341.835938 C 301.316406 342.132812 301.488281 342.390625 301.714844 342.617188 C 301.941406 342.84375 302.203125 343.015625 302.496094 343.140625 C 302.792969 343.261719 303.097656 343.324219 303.417969 343.324219 C 303.738281 343.324219 304.046875 343.261719 304.339844 343.140625 C 304.636719 343.015625 304.894531 342.84375 305.121094 342.617188 C 305.347656 342.390625 305.519531 342.132812 305.644531 341.835938 C 305.765625 341.542969 305.828125 341.234375 305.828125 340.914062 C 305.828125 340.59375 305.765625 340.289062 305.644531 339.992188 C 305.519531 339.699219 305.347656 339.4375 305.121094 339.210938 C 304.660156 338.75 304.105469 338.515625 303.453125 338.507812 Z M 412.445312 338.507812 C 411.765625 338.496094 411.183594 338.730469 410.703125 339.210938 C 410.480469 339.4375 410.304688 339.699219 410.183594 339.992188 C 410.058594 340.289062 410 340.59375 410 340.914062 C 410 341.234375 410.058594 341.542969 410.183594 341.835938 C 410.304688 342.132812 410.480469 342.390625 410.703125 342.617188 C 410.929688 342.84375 411.191406 343.015625 411.484375 343.140625 C 411.78125 343.261719 412.089844 343.324219 412.40625 343.324219 C 412.726562 343.324219 413.035156 343.261719 413.328125 343.140625 C 413.625 343.015625 413.882812 342.84375 414.109375 342.617188 C 414.335938 342.390625 414.511719 342.132812 414.632812 341.835938 C 414.753906 341.542969 414.816406 341.234375 414.816406 340.914062 C 414.816406 340.59375 414.753906 340.289062 414.632812 339.992188 C 414.511719 339.699219 414.335938 339.4375 414.109375 339.210938 C 413.648438 338.753906 413.09375 338.515625 412.445312 338.507812 Z M 418.925781 346.078125 C 418.429688 346.109375 417.984375 346.273438 417.589844 346.578125 C 417.339844 346.773438 417.132812 347.007812 416.972656 347.285156 C 416.8125 347.558594 416.710938 347.855469 416.671875 348.171875 C 416.628906 348.488281 416.648438 348.800781 416.730469 349.109375 C 416.8125 349.417969 416.949219 349.699219 417.144531 349.949219 C 417.339844 350.203125 417.574219 350.410156 417.851562 350.570312 C 418.125 350.730469 418.421875 350.832031 418.738281 350.875 C 419.058594 350.917969 419.371094 350.894531 419.679688 350.8125 C 419.988281 350.730469 420.269531 350.59375 420.519531 350.398438 C 420.773438 350.203125 420.980469 349.96875 421.140625 349.691406 C 421.300781 349.414062 421.402344 349.117188 421.445312 348.800781 C 421.488281 348.484375 421.464844 348.171875 421.382812 347.863281 C 421.300781 347.554688 421.164062 347.273438 420.96875 347.019531 C 420.515625 346.425781 419.914062 346.113281 419.167969 346.078125 C 419.085938 346.074219 419.007812 346.074219 418.925781 346.078125 Z M 296.734375 346.085938 C 295.957031 346.097656 295.335938 346.410156 294.863281 347.023438 C 294.667969 347.277344 294.53125 347.558594 294.445312 347.867188 C 294.363281 348.175781 294.34375 348.488281 294.386719 348.804688 C 294.429688 349.125 294.527344 349.417969 294.6875 349.695312 C 294.847656 349.972656 295.054688 350.207031 295.308594 350.402344 C 295.5625 350.597656 295.84375 350.734375 296.152344 350.816406 C 296.460938 350.902344 296.773438 350.921875 297.089844 350.878906 C 297.40625 350.835938 297.703125 350.734375 297.980469 350.574219 C 298.257812 350.417969 298.492188 350.210938 298.6875 349.957031 C 298.882812 349.703125 299.019531 349.421875 299.101562 349.113281 C 299.183594 348.804688 299.203125 348.492188 299.164062 348.175781 C 299.121094 347.859375 299.019531 347.5625 298.859375 347.285156 C 298.699219 347.007812 298.492188 346.773438 298.238281 346.578125 C 297.796875 346.238281 297.292969 346.074219 296.734375 346.085938 Z M 424.59375 354.464844 C 424.183594 354.476562 423.800781 354.582031 423.449219 354.785156 C 423.171875 354.945312 422.9375 355.152344 422.742188 355.40625 C 422.546875 355.660156 422.410156 355.941406 422.328125 356.25 C 422.246094 356.558594 422.222656 356.867188 422.265625 357.183594 C 422.308594 357.5 422.40625 357.796875 422.566406 358.074219 C 422.726562 358.351562 422.933594 358.585938 423.1875 358.78125 C 423.441406 358.976562 423.71875 359.113281 424.027344 359.199219 C 424.335938 359.28125 424.648438 359.300781 424.964844 359.261719 C 425.28125 359.21875 425.578125 359.117188 425.855469 358.957031 C 426.132812 358.800781 426.367188 358.59375 426.5625 358.339844 C 426.757812 358.085938 426.894531 357.804688 426.976562 357.496094 C 427.058594 357.1875 427.082031 356.875 427.039062 356.554688 C 426.996094 356.238281 426.894531 355.941406 426.734375 355.667969 C 426.515625 355.285156 426.210938 354.988281 425.828125 354.773438 C 425.445312 354.558594 425.035156 354.457031 424.59375 354.464844 Z M 291.058594 354.472656 C 290.648438 354.492188 290.269531 354.605469 289.917969 354.820312 C 289.570312 355.03125 289.292969 355.316406 289.085938 355.671875 C 288.925781 355.949219 288.824219 356.242188 288.785156 356.558594 C 288.742188 356.875 288.761719 357.1875 288.84375 357.496094 C 288.929688 357.804688 289.066406 358.085938 289.261719 358.339844 C 289.453125 358.59375 289.6875 358.800781 289.964844 358.957031 C 290.242188 359.117188 290.539062 359.21875 290.855469 359.261719 C 291.171875 359.300781 291.484375 359.28125 291.792969 359.199219 C 292.101562 359.117188 292.378906 358.980469 292.632812 358.785156 C 292.886719 358.589844 293.09375 358.355469 293.253906 358.078125 C 293.414062 357.804688 293.511719 357.507812 293.554688 357.191406 C 293.597656 356.875 293.578125 356.5625 293.492188 356.253906 C 293.410156 355.945312 293.273438 355.664062 293.078125 355.410156 C 292.886719 355.15625 292.648438 354.949219 292.375 354.792969 C 291.964844 354.554688 291.527344 354.449219 291.058594 354.472656 Z M 429.132812 363.503906 C 428.808594 363.5 428.496094 363.5625 428.195312 363.6875 C 427.898438 363.808594 427.636719 363.984375 427.414062 364.207031 C 427.1875 364.433594 427.011719 364.695312 426.890625 364.988281 C 426.769531 365.285156 426.707031 365.59375 426.707031 365.910156 C 426.707031 366.230469 426.769531 366.539062 426.890625 366.832031 C 427.011719 367.128906 427.1875 367.386719 427.414062 367.613281 C 427.636719 367.839844 427.898438 368.015625 428.195312 368.136719 C 428.488281 368.257812 428.796875 368.320312 429.117188 368.320312 C 429.433594 368.320312 429.742188 368.257812 430.039062 368.136719 C 430.332031 368.015625 430.59375 367.839844 430.820312 367.613281 C 431.042969 367.386719 431.21875 367.128906 431.339844 366.832031 C 431.460938 366.539062 431.523438 366.230469 431.523438 365.910156 C 431.523438 365.589844 431.460938 365.285156 431.339844 364.988281 C 431.15625 364.542969 430.863281 364.183594 430.460938 363.914062 C 430.058594 363.644531 429.617188 363.507812 429.132812 363.503906 Z M 286.761719 363.507812 C 286.265625 363.496094 285.808594 363.628906 285.394531 363.898438 C 284.976562 364.171875 284.675781 364.535156 284.484375 364.992188 C 284.363281 365.289062 284.300781 365.597656 284.300781 365.914062 C 284.300781 366.234375 284.363281 366.542969 284.484375 366.835938 C 284.609375 367.132812 284.78125 367.394531 285.007812 367.617188 C 285.234375 367.84375 285.492188 368.019531 285.789062 368.140625 C 286.082031 368.261719 286.390625 368.324219 286.710938 368.324219 C 287.03125 368.324219 287.335938 368.261719 287.632812 368.140625 C 287.925781 368.019531 288.1875 367.84375 288.414062 367.621094 C 288.640625 367.394531 288.8125 367.132812 288.933594 366.835938 C 289.058594 366.542969 289.117188 366.234375 289.117188 365.917969 C 289.117188 365.597656 289.058594 365.289062 288.9375 364.996094 C 288.8125 364.699219 288.640625 364.4375 288.414062 364.214844 C 288.1875 363.988281 287.925781 363.8125 287.632812 363.691406 C 287.355469 363.574219 287.0625 363.515625 286.761719 363.507812 Z M 386.683594 364.105469 C 386.425781 364.117188 386.175781 364.171875 385.933594 364.265625 L 318.5 390.757812 C 318.003906 390.949219 317.613281 391.273438 317.332031 391.722656 C 317.050781 392.175781 316.929688 392.667969 316.972656 393.199219 C 317.015625 393.726562 317.214844 394.191406 317.566406 394.59375 C 317.917969 394.992188 318.355469 395.246094 318.875 395.359375 L 351.070312 402.253906 L 357.964844 434.445312 C 358.074219 434.96875 358.328125 435.402344 358.730469 435.753906 C 359.128906 436.105469 359.59375 436.304688 360.125 436.347656 C 360.65625 436.390625 361.144531 436.273438 361.597656 435.988281 C 362.050781 435.707031 362.371094 435.320312 362.566406 434.824219 L 389.058594 367.386719 C 389.128906 367.199219 389.179688 367.007812 389.203125 366.804688 C 389.230469 366.605469 389.230469 366.40625 389.203125 366.207031 C 389.179688 366.007812 389.128906 365.8125 389.054688 365.625 C 388.980469 365.4375 388.882812 365.261719 388.765625 365.097656 C 388.648438 364.933594 388.511719 364.789062 388.355469 364.660156 C 388.203125 364.53125 388.03125 364.421875 387.851562 364.335938 C 387.667969 364.25 387.480469 364.1875 387.28125 364.148438 C 387.082031 364.109375 386.882812 364.09375 386.683594 364.105469 Z M 382.546875 370.773438 L 361.003906 425.617188 L 355.453125 399.722656 C 355.355469 399.257812 355.136719 398.859375 354.800781 398.523438 C 354.464844 398.1875 354.0625 397.96875 353.597656 397.871094 L 327.703125 392.320312 Z M 283.445312 373.054688 C 283.183594 373.058594 282.925781 373.101562 282.679688 373.1875 C 282.429688 373.273438 282.203125 373.398438 281.992188 373.558594 C 281.785156 373.71875 281.609375 373.910156 281.460938 374.128906 C 281.316406 374.347656 281.210938 374.585938 281.140625 374.839844 C 281.058594 375.148438 281.035156 375.460938 281.078125 375.777344 C 281.121094 376.09375 281.21875 376.390625 281.378906 376.667969 C 281.539062 376.945312 281.746094 377.183594 282 377.378906 C 282.253906 377.570312 282.535156 377.710938 282.84375 377.792969 C 283.152344 377.875 283.464844 377.894531 283.78125 377.855469 C 284.097656 377.8125 284.394531 377.710938 284.671875 377.550781 C 284.949219 377.394531 285.183594 377.1875 285.378906 376.933594 C 285.570312 376.679688 285.710938 376.398438 285.792969 376.089844 C 285.875 375.78125 285.898438 375.46875 285.855469 375.152344 C 285.816406 374.835938 285.714844 374.539062 285.554688 374.261719 C 285.394531 373.984375 285.1875 373.746094 284.933594 373.550781 C 284.679688 373.359375 284.398438 373.21875 284.089844 373.136719 C 283.878906 373.082031 283.664062 373.054688 283.445312 373.054688 Z M 432.375 373.054688 C 432.320312 373.054688 432.261719 373.058594 432.207031 373.0625 C 432.042969 373.070312 431.886719 373.097656 431.730469 373.140625 C 431.421875 373.222656 431.140625 373.363281 430.886719 373.558594 C 430.636719 373.75 430.429688 373.988281 430.269531 374.261719 C 430.109375 374.539062 430.007812 374.835938 429.964844 375.152344 C 429.925781 375.46875 429.945312 375.78125 430.027344 376.089844 C 430.109375 376.398438 430.25 376.679688 430.445312 376.933594 C 430.636719 377.1875 430.875 377.394531 431.148438 377.550781 C 431.425781 377.710938 431.722656 377.8125 432.039062 377.855469 C 432.355469 377.894531 432.667969 377.875 432.976562 377.792969 C 433.285156 377.710938 433.566406 377.570312 433.820312 377.378906 C 434.074219 377.183594 434.28125 376.949219 434.4375 376.671875 C 434.597656 376.394531 434.699219 376.097656 434.742188 375.78125 C 434.78125 375.464844 434.761719 375.152344 434.679688 374.84375 C 434.613281 374.589844 434.503906 374.351562 434.359375 374.132812 C 434.214844 373.914062 434.039062 373.722656 433.828125 373.5625 C 433.621094 373.398438 433.390625 373.277344 433.144531 373.191406 C 432.894531 373.101562 432.636719 373.058594 432.375 373.054688 Z M 281.40625 382.949219 C 281.121094 382.960938 280.847656 383.019531 280.585938 383.128906 C 280.324219 383.234375 280.089844 383.382812 279.878906 383.574219 C 279.667969 383.765625 279.5 383.988281 279.367188 384.238281 C 279.234375 384.488281 279.152344 384.757812 279.113281 385.039062 C 279.070312 385.355469 279.089844 385.667969 279.175781 385.976562 C 279.257812 386.285156 279.394531 386.566406 279.589844 386.816406 C 279.78125 387.070312 280.019531 387.277344 280.292969 387.4375 C 280.570312 387.597656 280.867188 387.699219 281.183594 387.742188 C 281.5 387.785156 281.8125 387.765625 282.121094 387.679688 C 282.429688 387.597656 282.710938 387.460938 282.964844 387.265625 C 283.21875 387.070312 283.425781 386.835938 283.585938 386.558594 C 283.746094 386.28125 283.847656 385.984375 283.886719 385.667969 C 283.929688 385.351562 283.910156 385.039062 283.824219 384.730469 C 283.742188 384.421875 283.605469 384.140625 283.410156 383.886719 C 283.214844 383.636719 282.980469 383.429688 282.703125 383.269531 C 282.425781 383.109375 282.128906 383.007812 281.8125 382.96875 C 281.679688 382.949219 281.542969 382.941406 281.40625 382.949219 Z M 434.242188 382.949219 C 434.164062 382.949219 434.082031 382.957031 434.003906 382.96875 C 433.6875 383.007812 433.390625 383.109375 433.113281 383.269531 C 432.839844 383.429688 432.605469 383.636719 432.410156 383.890625 C 432.214844 384.144531 432.078125 384.421875 431.996094 384.730469 C 431.914062 385.039062 431.890625 385.351562 431.933594 385.667969 C 431.976562 385.984375 432.074219 386.28125 432.234375 386.558594 C 432.394531 386.832031 432.601562 387.070312 432.855469 387.261719 C 433.105469 387.457031 433.386719 387.597656 433.695312 387.679688 C 434.003906 387.761719 434.316406 387.785156 434.632812 387.742188 C 434.949219 387.699219 435.246094 387.601562 435.523438 387.441406 C 435.800781 387.28125 436.035156 387.074219 436.230469 386.820312 C 436.421875 386.566406 436.5625 386.289062 436.644531 385.980469 C 436.726562 385.671875 436.75 385.359375 436.707031 385.042969 C 436.667969 384.746094 436.578125 384.464844 436.433594 384.203125 C 436.292969 383.941406 436.105469 383.714844 435.878906 383.519531 C 435.652344 383.328125 435.394531 383.179688 435.113281 383.082031 C 434.832031 382.984375 434.542969 382.9375 434.242188 382.949219 Z M 280.84375 393 C 280.527344 393 280.21875 393.0625 279.921875 393.183594 C 279.628906 393.304688 279.367188 393.480469 279.140625 393.707031 C 278.914062 393.933594 278.742188 394.191406 278.621094 394.488281 C 278.496094 394.78125 278.4375 395.089844 278.4375 395.410156 C 278.4375 395.730469 278.496094 396.035156 278.621094 396.332031 C 278.742188 396.625 278.914062 396.886719 279.140625 397.113281 C 279.367188 397.339844 279.628906 397.511719 279.921875 397.632812 C 280.21875 397.757812 280.527344 397.816406 280.84375 397.816406 C 281.164062 397.816406 281.472656 397.757812 281.765625 397.632812 C 282.0625 397.511719 282.320312 397.339844 282.546875 397.113281 C 282.773438 396.886719 282.949219 396.625 283.070312 396.332031 C 283.191406 396.035156 283.253906 395.730469 283.253906 395.410156 C 283.253906 395.089844 283.191406 394.78125 283.070312 394.488281 C 282.949219 394.191406 282.773438 393.933594 282.546875 393.707031 C 282.320312 393.480469 282.0625 393.304688 281.765625 393.183594 C 281.472656 393.0625 281.164062 393 280.84375 393 Z M 434.980469 393 C 434.660156 393 434.355469 393.0625 434.058594 393.183594 C 433.765625 393.304688 433.503906 393.480469 433.277344 393.707031 C 433.050781 393.933594 432.878906 394.191406 432.757812 394.488281 C 432.632812 394.78125 432.574219 395.089844 432.574219 395.410156 C 432.574219 395.730469 432.632812 396.035156 432.757812 396.332031 C 432.878906 396.625 433.050781 396.886719 433.277344 397.113281 C 433.503906 397.339844 433.765625 397.511719 434.058594 397.632812 C 434.355469 397.757812 434.660156 397.816406 434.980469 397.816406 C 435.300781 397.816406 435.609375 397.757812 435.902344 397.632812 C 436.199219 397.511719 436.457031 397.339844 436.683594 397.113281 C 436.910156 396.886719 437.082031 396.625 437.207031 396.332031 C 437.328125 396.035156 437.390625 395.730469 437.390625 395.410156 C 437.390625 395.089844 437.328125 394.78125 437.207031 394.488281 C 437.082031 394.191406 436.910156 393.933594 436.683594 393.707031 C 436.457031 393.480469 436.199219 393.304688 435.902344 393.183594 C 435.609375 393.0625 435.300781 393 434.980469 393 Z M 281.429688 403.0625 C 281.347656 403.066406 281.269531 403.070312 281.1875 403.082031 C 280.871094 403.121094 280.574219 403.222656 280.296875 403.382812 C 280.019531 403.542969 279.785156 403.75 279.589844 404.003906 C 279.394531 404.257812 279.257812 404.539062 279.175781 404.847656 C 279.09375 405.15625 279.070312 405.46875 279.113281 405.785156 C 279.15625 406.101562 279.257812 406.398438 279.417969 406.675781 C 279.578125 406.953125 279.785156 407.1875 280.039062 407.382812 C 280.292969 407.574219 280.570312 407.714844 280.878906 407.796875 C 281.1875 407.878906 281.5 407.898438 281.820312 407.855469 C 282.132812 407.8125 282.429688 407.710938 282.707031 407.554688 C 282.984375 407.394531 283.21875 407.1875 283.410156 406.933594 C 283.605469 406.679688 283.742188 406.398438 283.828125 406.09375 C 283.910156 405.785156 283.929688 405.472656 283.886719 405.15625 C 283.847656 404.859375 283.757812 404.582031 283.617188 404.320312 C 283.472656 404.054688 283.289062 403.828125 283.0625 403.636719 C 282.832031 403.441406 282.578125 403.296875 282.296875 403.195312 C 282.015625 403.097656 281.726562 403.054688 281.429688 403.0625 Z M 434.222656 403.070312 C 433.941406 403.082031 433.667969 403.140625 433.402344 403.25 C 433.140625 403.359375 432.902344 403.507812 432.695312 403.699219 C 432.484375 403.890625 432.3125 404.113281 432.179688 404.363281 C 432.050781 404.617188 431.964844 404.882812 431.929688 405.164062 C 431.886719 405.480469 431.90625 405.792969 431.988281 406.105469 C 432.070312 406.414062 432.210938 406.695312 432.40625 406.949219 C 432.597656 407.199219 432.835938 407.40625 433.113281 407.566406 C 433.390625 407.726562 433.6875 407.828125 434.003906 407.871094 C 434.320312 407.910156 434.632812 407.890625 434.941406 407.808594 C 435.25 407.726562 435.53125 407.585938 435.785156 407.394531 C 436.039062 407.199219 436.246094 406.964844 436.40625 406.6875 C 436.566406 406.410156 436.664062 406.113281 436.707031 405.796875 C 436.75 405.476562 436.730469 405.164062 436.648438 404.855469 C 436.5625 404.546875 436.425781 404.265625 436.230469 404.011719 C 436.035156 403.757812 435.800781 403.550781 435.523438 403.394531 C 435.246094 403.234375 434.949219 403.132812 434.632812 403.089844 C 434.496094 403.074219 434.359375 403.066406 434.222656 403.070312 Z M 283.558594 412.949219 C 283.316406 412.941406 283.078125 412.96875 282.84375 413.03125 C 282.535156 413.113281 282.253906 413.25 282 413.445312 C 281.746094 413.640625 281.542969 413.875 281.382812 414.152344 C 281.222656 414.429688 281.121094 414.726562 281.078125 415.042969 C 281.039062 415.359375 281.058594 415.671875 281.140625 415.980469 C 281.222656 416.289062 281.363281 416.570312 281.558594 416.820312 C 281.75 417.074219 281.988281 417.28125 282.261719 417.441406 C 282.539062 417.601562 282.835938 417.703125 283.152344 417.742188 C 283.46875 417.785156 283.78125 417.765625 284.089844 417.683594 C 284.398438 417.597656 284.679688 417.460938 284.933594 417.265625 C 285.1875 417.070312 285.394531 416.835938 285.550781 416.558594 C 285.710938 416.285156 285.8125 415.988281 285.855469 415.671875 C 285.894531 415.355469 285.875 415.042969 285.792969 414.734375 C 285.65625 414.222656 285.382812 413.804688 284.96875 413.472656 C 284.554688 413.144531 284.085938 412.96875 283.558594 412.949219 Z M 432.328125 412.949219 C 432.066406 412.953125 431.808594 412.996094 431.558594 413.082031 C 431.3125 413.167969 431.082031 413.292969 430.875 413.453125 C 430.667969 413.617188 430.488281 413.808594 430.34375 414.027344 C 430.199219 414.246094 430.089844 414.484375 430.023438 414.738281 C 429.941406 415.046875 429.921875 415.359375 429.960938 415.675781 C 430.003906 415.992188 430.105469 416.289062 430.265625 416.566406 C 430.421875 416.839844 430.628906 417.078125 430.882812 417.269531 C 431.136719 417.464844 431.417969 417.605469 431.726562 417.6875 C 432.035156 417.769531 432.347656 417.789062 432.664062 417.75 C 432.980469 417.707031 433.277344 417.605469 433.554688 417.445312 C 433.828125 417.285156 434.066406 417.078125 434.261719 416.828125 C 434.453125 416.574219 434.59375 416.292969 434.675781 415.984375 C 434.757812 415.675781 434.777344 415.363281 434.738281 415.046875 C 434.695312 414.730469 434.59375 414.433594 434.433594 414.15625 C 434.273438 413.878906 434.070312 413.644531 433.816406 413.449219 C 433.5625 413.253906 433.28125 413.117188 432.972656 413.035156 C 432.761719 412.976562 432.546875 412.949219 432.328125 412.949219 Z M 429.167969 422.488281 C 428.671875 422.480469 428.214844 422.609375 427.800781 422.878906 C 427.382812 423.152344 427.082031 423.515625 426.890625 423.976562 C 426.769531 424.269531 426.707031 424.578125 426.707031 424.898438 C 426.707031 425.214844 426.769531 425.523438 426.890625 425.820312 C 427.011719 426.113281 427.1875 426.375 427.414062 426.601562 C 427.636719 426.828125 427.898438 427 428.195312 427.121094 C 428.488281 427.246094 428.796875 427.304688 429.113281 427.304688 C 429.433594 427.304688 429.742188 427.246094 430.035156 427.121094 C 430.332031 427 430.59375 426.828125 430.816406 426.601562 C 431.042969 426.375 431.21875 426.113281 431.339844 425.820312 C 431.460938 425.523438 431.523438 425.21875 431.523438 424.898438 C 431.523438 424.578125 431.460938 424.269531 431.339844 423.976562 C 431.21875 423.679688 431.042969 423.421875 430.820312 423.195312 C 430.59375 422.96875 430.332031 422.796875 430.039062 422.671875 C 429.757812 422.558594 429.46875 422.496094 429.167969 422.488281 Z M 286.734375 422.492188 C 286.40625 422.492188 286.09375 422.550781 285.792969 422.675781 C 285.5 422.800781 285.238281 422.972656 285.011719 423.199219 C 284.785156 423.425781 284.613281 423.6875 284.488281 423.980469 C 284.367188 424.277344 284.308594 424.582031 284.308594 424.902344 C 284.308594 425.222656 284.367188 425.53125 284.492188 425.824219 C 284.613281 426.121094 284.785156 426.378906 285.011719 426.605469 C 285.238281 426.832031 285.5 427.003906 285.792969 427.128906 C 286.089844 427.25 286.394531 427.3125 286.714844 427.3125 C 287.035156 427.3125 287.34375 427.25 287.636719 427.128906 C 287.933594 427.003906 288.191406 426.832031 288.417969 426.605469 C 288.644531 426.378906 288.816406 426.117188 288.941406 425.824219 C 289.0625 425.527344 289.125 425.222656 289.125 424.902344 C 289.125 424.582031 289.0625 424.277344 288.941406 423.980469 C 288.753906 423.535156 288.460938 423.175781 288.0625 422.90625 C 287.660156 422.636719 287.21875 422.496094 286.734375 422.492188 Z M 291.113281 431.53125 C 290.703125 431.539062 290.320312 431.648438 289.964844 431.855469 C 289.6875 432.015625 289.453125 432.21875 289.257812 432.472656 C 289.0625 432.726562 288.925781 433.007812 288.84375 433.316406 C 288.761719 433.625 288.738281 433.9375 288.78125 434.253906 C 288.820312 434.570312 288.921875 434.867188 289.082031 435.144531 C 289.242188 435.421875 289.445312 435.65625 289.699219 435.851562 C 289.953125 436.046875 290.234375 436.183594 290.542969 436.269531 C 290.851562 436.351562 291.167969 436.371094 291.484375 436.328125 C 291.800781 436.289062 292.097656 436.1875 292.375 436.027344 C 292.652344 435.867188 292.886719 435.660156 293.082031 435.40625 C 293.273438 435.152344 293.414062 434.871094 293.496094 434.5625 C 293.578125 434.253906 293.597656 433.941406 293.558594 433.625 C 293.515625 433.308594 293.414062 433.011719 293.253906 432.734375 C 293.035156 432.351562 292.730469 432.054688 292.347656 431.839844 C 291.964844 431.625 291.554688 431.519531 291.113281 431.53125 Z M 424.539062 431.542969 C 424.128906 431.5625 423.75 431.679688 423.398438 431.894531 C 423.050781 432.105469 422.773438 432.390625 422.566406 432.742188 C 422.40625 433.019531 422.308594 433.316406 422.265625 433.632812 C 422.222656 433.949219 422.246094 434.261719 422.328125 434.570312 C 422.410156 434.878906 422.546875 435.160156 422.742188 435.410156 C 422.9375 435.664062 423.171875 435.871094 423.449219 436.03125 C 423.722656 436.191406 424.019531 436.292969 424.335938 436.335938 C 424.65625 436.378906 424.96875 436.355469 425.277344 436.273438 C 425.585938 436.191406 425.867188 436.054688 426.121094 435.859375 C 426.375 435.664062 426.582031 435.429688 426.738281 435.152344 C 426.898438 434.875 427 434.578125 427.039062 434.261719 C 427.082031 433.945312 427.0625 433.632812 426.976562 433.324219 C 426.894531 433.015625 426.757812 432.734375 426.5625 432.484375 C 426.367188 432.230469 426.132812 432.023438 425.855469 431.863281 C 425.449219 431.628906 425.007812 431.523438 424.539062 431.542969 Z M 419.015625 439.90625 C 418.242188 439.921875 417.621094 440.234375 417.148438 440.847656 C 416.953125 441.101562 416.816406 441.382812 416.734375 441.691406 C 416.648438 442 416.628906 442.3125 416.671875 442.628906 C 416.710938 442.945312 416.8125 443.242188 416.972656 443.519531 C 417.132812 443.796875 417.335938 444.03125 417.589844 444.226562 C 417.84375 444.421875 418.125 444.558594 418.433594 444.640625 C 418.742188 444.726562 419.054688 444.746094 419.371094 444.703125 C 419.6875 444.664062 419.984375 444.5625 420.261719 444.402344 C 420.539062 444.242188 420.773438 444.035156 420.96875 443.785156 C 421.164062 443.53125 421.300781 443.25 421.382812 442.941406 C 421.464844 442.632812 421.488281 442.320312 421.445312 442.003906 C 421.402344 441.6875 421.300781 441.390625 421.140625 441.113281 C 420.980469 440.835938 420.773438 440.601562 420.519531 440.40625 C 420.078125 440.066406 419.574219 439.898438 419.015625 439.90625 Z M 296.8125 439.914062 C 296.757812 439.910156 296.703125 439.914062 296.644531 439.917969 C 296.148438 439.945312 295.703125 440.109375 295.308594 440.410156 C 295.054688 440.605469 294.847656 440.839844 294.6875 441.117188 C 294.527344 441.394531 294.429688 441.691406 294.386719 442.007812 C 294.34375 442.324219 294.363281 442.636719 294.445312 442.945312 C 294.53125 443.253906 294.667969 443.535156 294.863281 443.789062 C 295.058594 444.042969 295.292969 444.25 295.570312 444.40625 C 295.847656 444.566406 296.144531 444.667969 296.460938 444.710938 C 296.777344 444.75 297.089844 444.730469 297.398438 444.648438 C 297.707031 444.5625 297.988281 444.425781 298.238281 444.230469 C 298.492188 444.035156 298.699219 443.800781 298.859375 443.523438 C 299.019531 443.246094 299.121094 442.953125 299.164062 442.632812 C 299.203125 442.316406 299.183594 442.003906 299.101562 441.695312 C 299.019531 441.386719 298.882812 441.105469 298.6875 440.851562 C 298.214844 440.238281 297.589844 439.925781 296.8125 439.914062 Z M 303.453125 447.496094 C 302.773438 447.484375 302.191406 447.71875 301.710938 448.199219 C 301.484375 448.425781 301.3125 448.6875 301.1875 448.980469 C 301.066406 449.277344 301.007812 449.585938 301.007812 449.902344 C 301.007812 450.222656 301.066406 450.53125 301.1875 450.824219 C 301.3125 451.121094 301.484375 451.378906 301.710938 451.605469 C 301.9375 451.832031 302.199219 452.007812 302.492188 452.128906 C 302.789062 452.253906 303.097656 452.3125 303.417969 452.3125 C 303.734375 452.3125 304.042969 452.253906 304.339844 452.128906 C 304.636719 452.007812 304.894531 451.832031 305.121094 451.605469 C 305.347656 451.378906 305.519531 451.121094 305.640625 450.824219 C 305.765625 450.527344 305.824219 450.222656 305.824219 449.902344 C 305.824219 449.582031 305.761719 449.277344 305.640625 448.980469 C 305.515625 448.6875 305.34375 448.425781 305.117188 448.199219 C 304.65625 447.742188 304.101562 447.503906 303.453125 447.496094 Z M 412.441406 447.496094 C 411.761719 447.484375 411.183594 447.722656 410.703125 448.199219 C 410.480469 448.425781 410.304688 448.6875 410.183594 448.980469 C 410.058594 449.277344 410 449.585938 410 449.902344 C 410 450.222656 410.058594 450.53125 410.183594 450.824219 C 410.304688 451.121094 410.480469 451.378906 410.703125 451.605469 C 410.929688 451.832031 411.191406 452.007812 411.484375 452.128906 C 411.78125 452.25 412.089844 452.3125 412.40625 452.3125 C 412.726562 452.3125 413.035156 452.25 413.328125 452.128906 C 413.625 452.007812 413.882812 451.832031 414.109375 451.605469 C 414.335938 451.378906 414.511719 451.121094 414.632812 450.824219 C 414.753906 450.53125 414.816406 450.222656 414.816406 449.902344 C 414.816406 449.585938 414.753906 449.277344 414.632812 448.980469 C 414.511719 448.6875 414.335938 448.425781 414.109375 448.199219 C 413.648438 447.738281 413.09375 447.503906 412.441406 447.496094 Z M 404.871094 454.132812 C 404.816406 454.132812 404.757812 454.132812 404.703125 454.136719 C 404.207031 454.164062 403.761719 454.328125 403.367188 454.632812 C 403.113281 454.824219 402.90625 455.058594 402.746094 455.335938 C 402.585938 455.613281 402.484375 455.910156 402.441406 456.226562 C 402.402344 456.542969 402.421875 456.855469 402.503906 457.164062 C 402.585938 457.472656 402.726562 457.753906 402.917969 458.007812 C 403.113281 458.261719 403.347656 458.46875 403.625 458.628906 C 403.902344 458.789062 404.199219 458.890625 404.515625 458.929688 C 404.832031 458.972656 405.144531 458.953125 405.453125 458.871094 C 405.761719 458.789062 406.042969 458.648438 406.296875 458.457031 C 406.550781 458.261719 406.757812 458.027344 406.917969 457.75 C 407.078125 457.472656 407.179688 457.175781 407.21875 456.859375 C 407.261719 456.542969 407.242188 456.230469 407.160156 455.921875 C 407.078125 455.613281 406.9375 455.332031 406.742188 455.078125 C 406.273438 454.460938 405.648438 454.144531 404.871094 454.132812 Z M 310.964844 454.136719 C 310.1875 454.148438 309.5625 454.460938 309.089844 455.078125 C 308.898438 455.332031 308.757812 455.613281 308.675781 455.921875 C 308.59375 456.230469 308.574219 456.542969 308.617188 456.859375 C 308.65625 457.175781 308.757812 457.472656 308.917969 457.75 C 309.078125 458.027344 309.285156 458.261719 309.539062 458.457031 C 309.792969 458.648438 310.070312 458.789062 310.378906 458.871094 C 310.6875 458.953125 311 458.972656 311.316406 458.929688 C 311.632812 458.890625 311.929688 458.789062 312.203125 458.628906 C 312.480469 458.472656 312.714844 458.265625 312.910156 458.011719 C 313.105469 457.757812 313.246094 457.480469 313.328125 457.171875 C 313.410156 456.863281 313.429688 456.550781 313.390625 456.234375 C 313.347656 455.917969 313.246094 455.621094 313.089844 455.34375 C 312.929688 455.066406 312.722656 454.832031 312.46875 454.636719 C 312.023438 454.292969 311.523438 454.128906 310.964844 454.136719 Z M 396.386719 459.738281 C 395.976562 459.75 395.59375 459.859375 395.238281 460.0625 C 394.960938 460.222656 394.726562 460.429688 394.53125 460.683594 C 394.339844 460.9375 394.199219 461.21875 394.117188 461.527344 C 394.035156 461.835938 394.015625 462.144531 394.058594 462.460938 C 394.097656 462.777344 394.199219 463.074219 394.359375 463.351562 C 394.519531 463.628906 394.722656 463.863281 394.976562 464.058594 C 395.230469 464.253906 395.511719 464.390625 395.820312 464.476562 C 396.128906 464.558594 396.441406 464.578125 396.757812 464.535156 C 397.074219 464.496094 397.371094 464.394531 397.648438 464.234375 C 397.921875 464.078125 398.160156 463.871094 398.355469 463.617188 C 398.550781 463.363281 398.6875 463.082031 398.773438 462.773438 C 398.855469 462.464844 398.875 462.152344 398.832031 461.835938 C 398.792969 461.515625 398.691406 461.21875 398.53125 460.945312 C 398.3125 460.5625 398.007812 460.261719 397.625 460.046875 C 397.238281 459.832031 396.828125 459.726562 396.386719 459.738281 Z M 319.261719 459.75 C 318.851562 459.769531 318.472656 459.886719 318.121094 460.097656 C 317.773438 460.3125 317.496094 460.597656 317.289062 460.953125 C 317.132812 461.230469 317.03125 461.527344 316.988281 461.84375 C 316.945312 462.160156 316.96875 462.46875 317.050781 462.777344 C 317.132812 463.085938 317.269531 463.367188 317.464844 463.621094 C 317.660156 463.875 317.894531 464.082031 318.171875 464.242188 C 318.445312 464.402344 318.742188 464.503906 319.058594 464.542969 C 319.378906 464.585938 319.691406 464.566406 320 464.484375 C 320.308594 464.402344 320.589844 464.261719 320.84375 464.066406 C 321.097656 463.875 321.304688 463.636719 321.460938 463.359375 C 321.621094 463.085938 321.722656 462.789062 321.765625 462.46875 C 321.808594 462.152344 321.785156 461.839844 321.703125 461.53125 C 321.621094 461.222656 321.480469 460.941406 321.285156 460.6875 C 321.089844 460.433594 320.855469 460.226562 320.578125 460.070312 C 320.171875 459.832031 319.730469 459.726562 319.261719 459.75 Z M 387.425781 464.199219 C 387.097656 464.195312 386.785156 464.257812 386.484375 464.382812 C 386.1875 464.503906 385.929688 464.679688 385.703125 464.902344 C 385.476562 465.128906 385.304688 465.390625 385.179688 465.6875 C 385.058594 465.980469 384.996094 466.289062 384.996094 466.605469 C 384.996094 466.925781 385.058594 467.234375 385.179688 467.527344 C 385.304688 467.824219 385.476562 468.085938 385.703125 468.308594 C 385.929688 468.535156 386.191406 468.710938 386.484375 468.832031 C 386.78125 468.953125 387.085938 469.015625 387.40625 469.015625 C 387.726562 469.015625 388.03125 468.953125 388.328125 468.832031 C 388.625 468.710938 388.882812 468.535156 389.109375 468.308594 C 389.335938 468.082031 389.507812 467.824219 389.632812 467.527344 C 389.753906 467.234375 389.816406 466.925781 389.816406 466.605469 C 389.816406 466.289062 389.753906 465.980469 389.632812 465.683594 C 389.445312 465.238281 389.152344 464.878906 388.75 464.609375 C 388.351562 464.339844 387.910156 464.203125 387.425781 464.199219 Z M 328.476562 464.203125 C 327.980469 464.191406 327.523438 464.320312 327.105469 464.59375 C 326.6875 464.863281 326.386719 465.230469 326.195312 465.691406 C 326.074219 465.984375 326.011719 466.292969 326.015625 466.609375 C 326.015625 466.929688 326.074219 467.238281 326.199219 467.53125 C 326.320312 467.824219 326.496094 468.085938 326.722656 468.3125 C 326.945312 468.535156 327.207031 468.710938 327.503906 468.832031 C 327.796875 468.953125 328.105469 469.015625 328.425781 469.015625 C 328.742188 469.015625 329.050781 468.953125 329.347656 468.832031 C 329.640625 468.710938 329.902344 468.535156 330.128906 468.308594 C 330.351562 468.085938 330.527344 467.824219 330.648438 467.527344 C 330.769531 467.234375 330.832031 466.925781 330.832031 466.605469 C 330.832031 466.285156 330.769531 465.980469 330.648438 465.683594 C 330.523438 465.390625 330.351562 465.128906 330.125 464.902344 C 329.898438 464.675781 329.636719 464.503906 329.339844 464.382812 C 329.0625 464.269531 328.777344 464.210938 328.476562 464.203125 Z M 337.945312 467.445312 C 337.683594 467.445312 337.425781 467.492188 337.175781 467.578125 C 336.929688 467.664062 336.699219 467.789062 336.492188 467.949219 C 336.28125 468.109375 336.105469 468.300781 335.960938 468.519531 C 335.816406 468.738281 335.707031 468.976562 335.640625 469.230469 C 335.558594 469.539062 335.535156 469.851562 335.578125 470.167969 C 335.621094 470.484375 335.722656 470.78125 335.878906 471.058594 C 336.039062 471.335938 336.246094 471.570312 336.5 471.765625 C 336.753906 471.960938 337.035156 472.097656 337.34375 472.179688 C 337.652344 472.261719 337.964844 472.285156 338.28125 472.242188 C 338.597656 472.199219 338.894531 472.101562 339.171875 471.941406 C 339.445312 471.78125 339.683594 471.574219 339.875 471.320312 C 340.070312 471.066406 340.210938 470.785156 340.292969 470.476562 C 340.375 470.167969 340.394531 469.855469 340.355469 469.539062 C 340.3125 469.222656 340.210938 468.925781 340.050781 468.652344 C 339.890625 468.375 339.683594 468.140625 339.433594 467.945312 C 339.179688 467.75 338.898438 467.613281 338.589844 467.527344 C 338.378906 467.472656 338.164062 467.441406 337.945312 467.445312 Z M 377.945312 467.449219 C 377.703125 467.441406 377.464844 467.464844 377.230469 467.527344 C 376.921875 467.613281 376.640625 467.75 376.390625 467.945312 C 376.136719 468.140625 375.929688 468.375 375.769531 468.652344 C 375.609375 468.925781 375.507812 469.222656 375.46875 469.539062 C 375.425781 469.855469 375.445312 470.167969 375.527344 470.476562 C 375.613281 470.785156 375.75 471.066406 375.945312 471.320312 C 376.140625 471.574219 376.375 471.78125 376.652344 471.941406 C 376.925781 472.101562 377.222656 472.199219 377.539062 472.242188 C 377.855469 472.285156 378.167969 472.261719 378.476562 472.179688 C 378.785156 472.097656 379.066406 471.960938 379.320312 471.765625 C 379.574219 471.570312 379.78125 471.335938 379.941406 471.058594 C 380.101562 470.78125 380.199219 470.484375 380.242188 470.167969 C 380.285156 469.851562 380.265625 469.539062 380.179688 469.230469 C 380.042969 468.722656 379.769531 468.300781 379.355469 467.972656 C 378.945312 467.644531 378.472656 467.46875 377.945312 467.449219 Z M 367.894531 469.414062 C 367.8125 469.417969 367.734375 469.421875 367.65625 469.433594 C 367.339844 469.476562 367.042969 469.574219 366.765625 469.734375 C 366.488281 469.894531 366.253906 470.101562 366.058594 470.355469 C 365.863281 470.609375 365.726562 470.886719 365.640625 471.195312 C 365.558594 471.503906 365.539062 471.816406 365.582031 472.132812 C 365.621094 472.449219 365.722656 472.746094 365.882812 473.023438 C 366.042969 473.300781 366.25 473.539062 366.503906 473.730469 C 366.757812 473.925781 367.039062 474.066406 367.347656 474.148438 C 367.65625 474.230469 367.96875 474.25 368.285156 474.207031 C 368.601562 474.167969 368.898438 474.066406 369.171875 473.90625 C 369.449219 473.746094 369.683594 473.539062 369.878906 473.285156 C 370.070312 473.035156 370.210938 472.753906 370.292969 472.445312 C 370.375 472.136719 370.394531 471.824219 370.355469 471.507812 C 370.316406 471.210938 370.226562 470.933594 370.082031 470.671875 C 369.941406 470.410156 369.753906 470.179688 369.527344 469.988281 C 369.300781 469.792969 369.046875 469.648438 368.765625 469.550781 C 368.484375 469.449219 368.191406 469.40625 367.894531 469.414062 Z M 347.746094 469.417969 C 347.464844 469.429688 347.191406 469.492188 346.929688 469.597656 C 346.667969 469.707031 346.429688 469.855469 346.21875 470.046875 C 346.011719 470.238281 345.839844 470.460938 345.710938 470.714844 C 345.578125 470.964844 345.492188 471.230469 345.457031 471.511719 C 345.414062 471.828125 345.433594 472.144531 345.519531 472.453125 C 345.601562 472.761719 345.738281 473.042969 345.933594 473.296875 C 346.128906 473.550781 346.363281 473.757812 346.640625 473.914062 C 346.917969 474.074219 347.214844 474.175781 347.53125 474.21875 C 347.847656 474.257812 348.160156 474.238281 348.46875 474.15625 C 348.777344 474.074219 349.058594 473.933594 349.3125 473.738281 C 349.5625 473.546875 349.769531 473.308594 349.929688 473.03125 C 350.089844 472.757812 350.191406 472.460938 350.230469 472.144531 C 350.273438 471.828125 350.253906 471.515625 350.171875 471.207031 C 350.089844 470.898438 349.949219 470.617188 349.757812 470.363281 C 349.5625 470.109375 349.328125 469.902344 349.050781 469.742188 C 348.773438 469.582031 348.476562 469.480469 348.160156 469.4375 C 348.023438 469.421875 347.886719 469.414062 347.746094 469.417969 Z M 357.914062 470.070312 C 357.59375 470.070312 357.285156 470.128906 356.992188 470.253906 C 356.695312 470.375 356.4375 470.546875 356.210938 470.773438 C 355.984375 471 355.808594 471.261719 355.6875 471.554688 C 355.566406 471.851562 355.503906 472.15625 355.503906 472.476562 C 355.503906 472.796875 355.566406 473.105469 355.6875 473.398438 C 355.808594 473.695312 355.984375 473.953125 356.210938 474.179688 C 356.4375 474.40625 356.695312 474.582031 356.992188 474.703125 C 357.285156 474.824219 357.59375 474.886719 357.914062 474.886719 C 358.230469 474.886719 358.539062 474.824219 358.835938 474.703125 C 359.128906 474.582031 359.390625 474.40625 359.617188 474.179688 C 359.839844 473.953125 360.015625 473.695312 360.136719 473.398438 C 360.261719 473.105469 360.320312 472.796875 360.320312 472.476562 C 360.320312 472.15625 360.261719 471.851562 360.136719 471.554688 C 360.015625 471.261719 359.839844 471 359.617188 470.773438 C 359.390625 470.546875 359.128906 470.375 358.835938 470.253906 C 358.539062 470.128906 358.230469 470.070312 357.914062 470.070312 Z M 357.914062 470.070312 " fill-opacity="1" fill-rule="nonzero"/></g></svg>