<svg xmlns="http://www.w3.org/2000/svg" xmlns:xlink="http://www.w3.org/1999/xlink" width="1000" zoomAndPan="magnify" viewBox="0 0 750 749.999995" height="1000" preserveAspectRatio="xMidYMid meet" version="1.0"><defs><clipPath id="b031001f7d"><path d="M 257 531 L 457 531 L 457 609.585938 L 257 609.585938 Z M 257 531 " clip-rule="nonzero"/></clipPath><clipPath id="45bda8a757"><path d="M 322 140.085938 L 511 140.085938 L 511 328 L 322 328 Z M 322 140.085938 " clip-rule="nonzero"/></clipPath><clipPath id="0859d232a1"><path d="M 216 142 L 231 142 L 231 186 L 216 186 Z M 216 142 " clip-rule="nonzero"/></clipPath><clipPath id="92c3fe4b55"><path d="M 171.796875 98.554688 L 250.6875 158.363281 L 129.253906 318.535156 L 50.363281 258.726562 Z M 171.796875 98.554688 " clip-rule="nonzero"/></clipPath><clipPath id="4339171fb2"><path d="M 171.796875 98.554688 L 250.6875 158.363281 L 129.253906 318.535156 L 50.363281 258.726562 Z M 171.796875 98.554688 " clip-rule="nonzero"/></clipPath><clipPath id="eb33b6f638"><path d="M 139 167 L 172 167 L 172 204 L 139 204 Z M 139 167 " clip-rule="nonzero"/></clipPath><clipPath id="c44e4b4057"><path d="M 171.796875 98.554688 L 250.6875 158.363281 L 129.253906 318.535156 L 50.363281 258.726562 Z M 171.796875 98.554688 " clip-rule="nonzero"/></clipPath><clipPath id="4a5c921e12"><path d="M 171.796875 98.554688 L 250.6875 158.363281 L 129.253906 318.535156 L 50.363281 258.726562 Z M 171.796875 98.554688 " clip-rule="nonzero"/></clipPath><clipPath id="c5352726b2"><path d="M 74 224 L 117 224 L 117 247 L 74 247 Z M 74 224 " clip-rule="nonzero"/></clipPath><clipPath id="cf13deb66c"><path d="M 171.796875 98.554688 L 250.6875 158.363281 L 129.253906 318.535156 L 50.363281 258.726562 Z M 171.796875 98.554688 " clip-rule="nonzero"/></clipPath><clipPath id="623f1463ff"><path d="M 171.796875 98.554688 L 250.6875 158.363281 L 129.253906 318.535156 L 50.363281 258.726562 Z M 171.796875 98.554688 " clip-rule="nonzero"/></clipPath><clipPath id="60db218235"><path d="M 74 262 L 93 262 L 93 274 L 74 274 Z M 74 262 " clip-rule="nonzero"/></clipPath><clipPath id="eadb9ca28c"><path d="M 171.796875 98.554688 L 250.6875 158.363281 L 129.253906 318.535156 L 50.363281 258.726562 Z M 171.796875 98.554688 " clip-rule="nonzero"/></clipPath><clipPath id="ec3b282336"><path d="M 171.796875 98.554688 L 250.6875 158.363281 L 129.253906 318.535156 L 50.363281 258.726562 Z M 171.796875 98.554688 " clip-rule="nonzero"/></clipPath><clipPath id="671c93bf59"><path d="M 134 193 L 162 193 L 162 217 L 134 217 Z M 134 193 " clip-rule="nonzero"/></clipPath><clipPath id="dc75117226"><path d="M 171.796875 98.554688 L 250.6875 158.363281 L 129.253906 318.535156 L 50.363281 258.726562 Z M 171.796875 98.554688 " clip-rule="nonzero"/></clipPath><clipPath id="82b0a0c28a"><path d="M 171.796875 98.554688 L 250.6875 158.363281 L 129.253906 318.535156 L 50.363281 258.726562 Z M 171.796875 98.554688 " clip-rule="nonzero"/></clipPath><clipPath id="e714e4a7fb"><path d="M 623 482 L 713 482 L 713 620 L 623 620 Z M 623 482 " clip-rule="nonzero"/></clipPath><clipPath id="fc29d37921"><path d="M 741.339844 591 L 624.078125 625.5625 L 590.789062 512.613281 L 708.054688 478.054688 Z M 741.339844 591 " clip-rule="nonzero"/></clipPath><clipPath id="0870b39c2a"><path d="M 590.984375 512.53125 L 708.25 477.972656 L 741.535156 590.917969 L 624.273438 625.476562 Z M 590.984375 512.53125 " clip-rule="nonzero"/></clipPath></defs><g clip-path="url(#b031001f7d)"><path fill="#0d68b1" d="M 451.585938 558.074219 C 451.472656 556.960938 451.332031 555.921875 451.1875 554.964844 C 450.515625 550.613281 449.304688 547.597656 446.992188 545.351562 C 445.78125 544.824219 444.457031 544.359375 443.035156 543.835938 C 442.972656 543.835938 442.859375 543.800781 442.796875 543.800781 C 437.484375 541.984375 432.09375 540.4375 426.734375 538.84375 C 419.667969 536.769531 412.539062 534.824219 405.421875 532.863281 C 403.109375 532.242188 400.8125 531.617188 398.53125 531.011719 L 378.546875 550.980469 C 375.148438 561.808594 368.6875 576.03125 356.851562 585.332031 C 345.03125 576.03125 338.574219 561.808594 335.160156 550.980469 L 315.1875 531.011719 C 312.90625 531.617188 310.625 532.242188 308.328125 532.863281 C 301.183594 534.824219 294.070312 536.769531 287.019531 538.84375 C 281.609375 540.4375 276.25 541.984375 270.957031 543.800781 C 270.859375 543.800781 270.78125 543.835938 270.699219 543.835938 C 269.296875 544.359375 267.972656 544.824219 266.761719 545.351562 C 264.414062 547.597656 263.234375 550.613281 262.566406 554.964844 C 262.375 555.921875 262.261719 556.960938 262.167969 558.074219 C 260.570312 572.90625 258.929688 587.738281 257.253906 602.570312 C 256.824219 606.191406 259.644531 609.378906 263.300781 609.378906 C 278.691406 609.460938 317.773438 609.492188 356.851562 609.492188 C 395.980469 609.492188 435.058594 609.460938 450.453125 609.378906 C 454.074219 609.378906 456.929688 606.191406 456.464844 602.570312 C 454.761719 587.738281 453.179688 572.90625 451.585938 558.074219 " fill-opacity="1" fill-rule="nonzero"/></g><path fill="#0d68b1" d="M 418.246094 507.140625 C 418.246094 503.136719 415.441406 499.179688 414.976562 495.066406 C 413.574219 482.5 417.273438 470.492188 417.945312 458.019531 C 418.105469 455.039062 418.074219 452.039062 417.707031 449.027344 C 416.476562 438.929688 413.128906 429.105469 407.800781 420.429688 C 397.6875 404.003906 380.445312 392.269531 360.984375 390.863281 C 359.613281 390.753906 358.238281 390.703125 356.867188 390.703125 C 336.992188 390.703125 318.761719 401.867188 307.609375 417.960938 C 301.996094 426.027344 298.121094 435.34375 296.558594 445.070312 C 293.304688 465.484375 305.695312 487.777344 295.472656 507.140625 C 295.472656 510.902344 298.597656 513.757812 301.964844 513.039062 C 312.460938 510.808594 322.8125 509.132812 333.039062 508.0625 C 324.710938 496.789062 319.382812 484.605469 318.855469 469.949219 C 318.617188 463.171875 319.128906 456.328125 319.589844 449.503906 C 324.902344 448.851562 332.304688 446.792969 339.785156 441.003906 C 340.964844 442.457031 342.242188 443.8125 343.582031 445.117188 L 343.007812 444.847656 C 344.523438 446.839844 345.910156 448.914062 347.550781 450.765625 C 351.046875 454.6875 355.304688 457.636719 359.960938 460.03125 C 363.632812 461.925781 367.492188 463.554688 370.332031 466.710938 C 371.847656 468.386719 373.105469 470.285156 374.445312 472.117188 C 374.703125 472.453125 374.796875 472.898438 375.242188 473.1875 C 375.148438 469.503906 373.9375 466.167969 371.847656 463.265625 C 370.746094 461.734375 369.550781 460.285156 368.320312 458.832031 C 379.28125 462.023438 390.476562 462.40625 398.515625 460.046875 C 399.394531 458.484375 398.453125 463.632812 398.292969 465.386719 L 398.292969 465.417969 C 396.9375 481.046875 390.523438 495.640625 381.289062 508.113281 C 391.304688 509.195312 401.46875 510.855469 411.753906 513.039062 C 415.121094 513.757812 418.246094 510.902344 418.246094 507.140625 " fill-opacity="1" fill-rule="nonzero"/><path fill="#00b696" d="M 376.007812 528.316406 C 363.105469 537.582031 350.566406 537.582031 337.710938 528.332031 C 335.859375 526.992188 333.277344 527.410156 331.9375 529.273438 C 331.296875 530.152344 331.042969 531.25 331.21875 532.351562 C 331.394531 533.4375 331.984375 534.394531 332.878906 535.03125 C 340.773438 540.726562 348.828125 543.59375 356.835938 543.59375 C 364.84375 543.59375 372.914062 540.726562 380.84375 535.046875 C 382.691406 533.707031 383.125 531.125 381.785156 529.273438 C 380.460938 527.425781 377.875 526.992188 376.007812 528.316406 " fill-opacity="1" fill-rule="nonzero"/><path fill="#0d68b1" d="M 608.558594 564.359375 C 607.683594 556.496094 606.820312 548.652344 605.992188 540.820312 C 605.894531 539.785156 605.785156 538.796875 605.625 537.886719 C 604.972656 533.851562 603.855469 531.058594 601.734375 528.972656 C 600.585938 528.460938 599.371094 528 598.03125 527.550781 C 597.953125 527.519531 597.871094 527.488281 597.792969 527.472656 C 592.878906 525.78125 585.542969 524.332031 580.519531 522.863281 C 573.929688 520.917969 567.277344 519.101562 560.660156 517.3125 C 557.53125 516.453125 554.4375 515.625 551.3125 514.761719 C 548.152344 513.902344 544.054688 513.550781 541.453125 511.476562 C 541.390625 511.414062 541.308594 511.382812 541.277344 511.332031 C 539.300781 509.644531 538.488281 507.058594 538.199219 504.410156 C 537.976562 502.5 538.039062 500.488281 538.199219 498.765625 C 538.550781 493.964844 540.242188 489.132812 543.367188 485.433594 L 543.414062 485.371094 C 544.117188 484.507812 544.820312 483.632812 545.472656 482.707031 C 549.222656 477.460938 551.773438 471.398438 553.351562 465.164062 C 553.417969 465.085938 553.464844 465.019531 553.527344 464.941406 C 558.710938 462.132812 562.03125 456.917969 562.84375 450.125 C 562.875 449.964844 562.875 449.824219 562.925781 449.664062 C 562.988281 449.058594 563.082031 448.484375 563.179688 447.878906 C 563.386719 446.425781 563.609375 444.925781 563.738281 443.332031 C 563.769531 442.34375 563.832031 441.117188 563.753906 439.808594 L 563.769531 439.664062 C 564.007812 435.3125 561.472656 430.253906 556.847656 429.171875 C 556.734375 429.15625 556.640625 429.105469 556.511719 429.105469 C 556.671875 428.023438 556.894531 426.921875 557.117188 425.757812 L 557.199219 425.453125 C 557.515625 423.875 557.835938 422.167969 557.945312 420.398438 C 558.203125 416.8125 558.472656 412.042969 558.28125 407.179688 C 557.597656 391.503906 545.15625 376.878906 529.21875 375.839844 C 525.519531 375.078125 521.914062 374.851562 518.960938 374.660156 C 517.78125 374.613281 516.585938 374.582031 515.390625 374.550781 C 514.195312 374.582031 512.996094 374.613281 511.816406 374.660156 C 508.882812 374.851562 505.261719 375.078125 501.558594 375.839844 C 485.609375 376.878906 473.183594 391.503906 472.496094 407.179688 C 472.320312 412.042969 472.578125 416.8125 472.832031 420.398438 C 472.945312 422.167969 473.296875 423.875 473.597656 425.453125 L 473.644531 425.757812 C 473.886719 426.921875 474.125 428.023438 474.253906 429.105469 C 474.15625 429.105469 474.042969 429.15625 473.949219 429.171875 C 469.308594 430.253906 466.769531 435.3125 467.011719 439.664062 L 467.027344 439.808594 C 466.960938 441.117188 467.011719 442.34375 467.058594 443.332031 C 467.152344 444.925781 467.394531 446.425781 467.632812 447.878906 C 467.710938 448.484375 467.792969 449.058594 467.871094 449.664062 C 467.902344 449.824219 467.917969 449.964844 467.953125 450.125 C 468.765625 456.917969 472.066406 462.132812 477.25 464.941406 C 477.410156 465.085938 477.441406 465.179688 477.523438 465.417969 C 479.101562 471.558594 481.589844 477.507812 485.304688 482.707031 C 485.945312 483.632812 486.660156 484.507812 487.363281 485.371094 L 487.394531 485.433594 C 490.554688 489.132812 492.246094 493.964844 492.578125 498.765625 C 492.738281 500.488281 492.789062 502.5 492.578125 504.410156 C 492.324219 507.058594 491.480469 509.644531 489.515625 511.332031 C 489.453125 511.382812 489.390625 511.414062 489.339844 511.476562 C 486.710938 513.550781 482.609375 513.902344 479.453125 514.761719 C 476.359375 515.625 473.246094 516.453125 470.121094 517.3125 C 463.5 519.101562 456.867188 520.917969 450.261719 522.863281 C 446.242188 524.042969 440.722656 525.207031 436.160156 526.484375 C 439.144531 527.390625 442.191406 528.316406 445.253906 529.320312 L 445.652344 529.320312 L 448.824219 530.503906 C 450.230469 531.027344 451.539062 531.507812 452.765625 532.035156 L 455.222656 533.101562 L 457.136719 534.984375 C 463.117188 540.789062 464.777344 547.902344 465.542969 552.75 C 465.71875 554.007812 465.910156 555.285156 466.019531 556.671875 L 466.59375 561.953125 C 466.867188 564.488281 467.136719 567.054688 467.425781 569.636719 L 603.839844 569.636719 C 606.675781 569.636719 608.878906 567.167969 608.558594 564.359375 " fill-opacity="1" fill-rule="nonzero"/><path fill="#0d68b1" d="M 260.984375 532.035156 C 262.214844 531.507812 263.523438 531.027344 264.925781 530.503906 L 268.101562 529.320312 L 268.484375 529.320312 C 271.257812 528.414062 274.035156 527.550781 276.761719 526.738281 C 272.023438 525.367188 266.027344 524.105469 261.753906 522.863281 C 255.148438 520.917969 248.496094 519.101562 241.875 517.3125 C 238.765625 516.453125 235.65625 515.625 232.5625 514.761719 C 229.402344 513.902344 225.304688 513.550781 222.671875 511.476562 C 222.625 511.414062 222.558594 511.382812 222.496094 511.332031 C 220.535156 509.644531 219.6875 507.058594 219.417969 504.410156 C 219.226562 502.5 219.273438 500.488281 219.417969 498.765625 C 219.769531 493.964844 221.460938 489.132812 224.617188 485.433594 L 224.648438 485.371094 C 225.351562 484.507812 226.070312 483.632812 226.707031 482.707031 C 230.425781 477.507812 232.914062 471.558594 234.492188 465.417969 C 234.570312 465.179688 234.601562 465.085938 234.746094 464.941406 C 239.945312 462.132812 243.25 456.917969 244.0625 450.125 C 244.09375 449.964844 244.109375 449.824219 244.125 449.664062 C 244.222656 449.058594 244.300781 448.484375 244.382812 447.878906 C 244.621094 446.425781 244.859375 444.925781 244.941406 443.332031 C 245.003906 442.34375 245.066406 441.117188 244.988281 439.808594 L 245.003906 439.664062 C 245.242188 435.3125 242.707031 430.253906 238.066406 429.171875 C 237.96875 429.15625 237.855469 429.105469 237.761719 429.105469 C 237.890625 428.023438 238.128906 426.921875 238.367188 425.757812 L 238.414062 425.453125 C 238.734375 423.875 239.070312 422.167969 239.179688 420.398438 C 239.4375 416.8125 239.691406 412.042969 239.5 407.179688 C 238.832031 391.503906 226.40625 376.878906 210.4375 375.839844 C 206.769531 375.078125 203.132812 374.851562 200.195312 374.660156 C 199.015625 374.613281 197.820312 374.582031 196.625 374.550781 C 195.425781 374.582031 194.230469 374.613281 193.050781 374.660156 C 190.101562 374.851562 186.496094 375.078125 182.792969 375.839844 C 166.84375 376.878906 154.417969 391.503906 153.730469 407.179688 C 153.539062 412.042969 153.8125 416.8125 154.066406 420.398438 C 154.179688 422.167969 154.496094 423.875 154.816406 425.453125 L 154.894531 425.757812 C 155.117188 426.921875 155.34375 428.023438 155.5 429.105469 C 155.375 429.105469 155.277344 429.15625 155.167969 429.171875 C 150.542969 430.253906 148.003906 435.3125 148.246094 439.664062 L 148.261719 439.808594 C 148.179688 441.117188 148.246094 442.34375 148.277344 443.332031 C 148.402344 444.925781 148.628906 446.425781 148.835938 447.878906 C 148.929688 448.484375 149.027344 449.058594 149.089844 449.664062 C 149.136719 449.824219 149.136719 449.964844 149.167969 450.125 C 149.984375 456.917969 153.300781 462.132812 158.484375 464.941406 C 158.546875 465.019531 158.597656 465.085938 158.644531 465.164062 C 160.222656 471.398438 162.792969 477.460938 166.539062 482.707031 C 167.195312 483.632812 167.878906 484.507812 168.597656 485.371094 L 168.644531 485.433594 C 171.773438 489.132812 173.445312 493.964844 173.8125 498.765625 C 173.957031 500.488281 174.035156 502.5 173.8125 504.410156 C 173.527344 507.058594 172.714844 509.644531 170.734375 511.332031 C 170.703125 511.382812 170.625 511.414062 170.558594 511.476562 C 167.960938 513.550781 163.859375 513.902344 160.703125 514.761719 C 157.574219 515.625 154.480469 516.453125 151.355469 517.3125 C 144.734375 519.101562 138.082031 520.917969 131.496094 522.863281 C 126.472656 524.332031 119.132812 525.78125 114.21875 527.472656 C 114.140625 527.488281 114.0625 527.519531 113.980469 527.550781 C 112.65625 528 111.429688 528.460938 110.296875 528.972656 C 108.144531 531.058594 107.042969 533.851562 106.386719 537.886719 C 106.230469 538.796875 106.117188 539.785156 106.023438 540.820312 C 105.191406 548.652344 104.332031 556.496094 103.453125 564.359375 C 103.152344 567.167969 105.335938 569.636719 108.160156 569.636719 L 246.3125 569.636719 C 246.757812 565.363281 247.238281 561.011719 247.714844 556.527344 C 247.859375 555.363281 248.003906 554.007812 248.242188 552.527344 C 249.023438 547.660156 250.777344 540.597656 256.679688 534.902344 L 258.59375 533.070312 L 260.984375 532.035156 " fill-opacity="1" fill-rule="nonzero"/><g clip-path="url(#45bda8a757)"><path fill="#00b696" d="M 372.628906 207.863281 C 387.0625 183.480469 418.550781 175.425781 442.925781 189.875 C 467.296875 204.308594 475.367188 235.789062 460.902344 260.15625 C 446.449219 284.542969 414.976562 292.578125 390.605469 278.144531 C 366.214844 263.679688 358.175781 232.234375 372.628906 207.863281 Z M 338.492188 245.390625 C 344.125 248.707031 345.957031 255.980469 342.640625 261.59375 L 335.03125 274.414062 C 334.519531 275.292969 333.898438 276.074219 333.230469 276.742188 C 338.09375 286.28125 344.585938 294.875 352.289062 302.164062 C 353.136719 301.71875 354.0625 301.335938 355.035156 301.078125 L 369.46875 297.378906 C 375.800781 295.785156 382.246094 299.597656 383.855469 305.925781 L 387.558594 320.359375 C 387.796875 321.347656 387.910156 322.335938 387.910156 323.292969 C 395.980469 325.894531 404.515625 327.472656 413.398438 327.773438 C 415.410156 327.855469 417.402344 327.839844 419.378906 327.773438 C 419.667969 326.851562 420.035156 325.957031 420.542969 325.082031 L 428.152344 312.257812 C 431.488281 306.644531 438.746094 304.777344 444.359375 308.113281 L 457.183594 315.71875 C 458.0625 316.230469 458.828125 316.851562 459.527344 317.535156 C 469.050781 312.640625 477.632812 306.183594 484.9375 298.449219 C 484.492188 297.617188 484.09375 296.710938 483.871094 295.738281 L 480.152344 281.289062 C 478.558594 274.957031 482.355469 268.515625 488.703125 266.902344 L 503.140625 263.203125 C 504.113281 262.949219 505.101562 262.851562 506.074219 262.851562 C 508.675781 254.796875 510.238281 246.265625 510.554688 237.382812 C 510.636719 235.375 510.621094 233.382812 510.574219 231.371094 C 509.648438 231.101562 508.738281 230.734375 507.859375 230.207031 L 495.035156 222.617188 C 489.421875 219.28125 487.554688 212.042969 490.90625 206.414062 L 498.496094 193.605469 C 499.007812 192.730469 499.628906 191.949219 500.316406 191.261719 C 495.433594 181.726562 488.957031 173.148438 481.222656 165.84375 C 480.378906 166.289062 479.484375 166.671875 478.511719 166.925781 L 464.058594 170.625 C 457.742188 172.253906 451.28125 168.410156 449.671875 162.09375 L 445.988281 147.644531 C 445.714844 146.671875 445.621094 145.699219 445.605469 144.710938 C 437.566406 142.128906 429.03125 140.550781 420.144531 140.230469 C 418.136719 140.167969 416.125 140.183594 414.132812 140.230469 C 413.878906 141.15625 413.496094 142.066406 412.984375 142.941406 L 405.375 155.746094 C 402.042969 161.378906 394.785156 163.226562 389.183594 159.894531 L 376.34375 152.304688 C 375.484375 151.777344 374.703125 151.15625 374.015625 150.46875 C 364.492188 155.363281 355.894531 161.824219 348.589844 169.558594 C 349.050781 170.402344 349.417969 171.296875 349.675781 172.285156 L 353.359375 186.71875 C 354.984375 193.050781 351.171875 199.492188 344.839844 201.117188 L 330.40625 204.800781 C 329.417969 205.058594 328.425781 205.167969 327.46875 205.152344 C 324.871094 213.207031 323.292969 221.738281 322.972656 230.621094 C 322.910156 232.648438 322.925781 234.625 322.957031 236.617188 C 323.898438 236.90625 324.804688 237.289062 325.683594 237.796875 L 338.492188 245.390625 " fill-opacity="1" fill-rule="nonzero"/></g><path fill="#00b696" d="M 233.886719 277.078125 C 243.328125 261.144531 263.90625 255.882812 279.839844 265.324219 C 295.757812 274.765625 301.039062 295.335938 291.582031 311.269531 C 282.136719 327.183594 261.578125 332.449219 245.640625 323.023438 C 229.707031 313.566406 224.441406 293.007812 233.886719 277.078125 Z M 211.570312 301.605469 C 215.253906 303.789062 216.46875 308.542969 214.28125 312.195312 L 209.320312 320.582031 C 208.984375 321.15625 208.570312 321.667969 208.140625 322.097656 C 211.332031 328.332031 215.558594 333.945312 220.597656 338.714844 C 221.15625 338.414062 221.746094 338.171875 222.382812 338.015625 L 231.828125 335.589844 C 235.960938 334.554688 240.171875 337.039062 241.238281 341.1875 L 243.648438 350.613281 C 243.808594 351.25 243.886719 351.902344 243.871094 352.527344 C 249.152344 354.234375 254.734375 355.253906 260.523438 355.460938 C 261.847656 355.507812 263.15625 355.507812 264.449219 355.460938 C 264.625 354.855469 264.878906 354.28125 265.214844 353.707031 L 270.175781 345.316406 C 272.359375 341.648438 277.097656 340.421875 280.78125 342.605469 L 289.15625 347.582031 C 289.730469 347.917969 290.242188 348.316406 290.6875 348.761719 C 296.90625 345.574219 302.523438 341.347656 307.308594 336.292969 C 306.988281 335.75 306.75 335.144531 306.589844 334.519531 L 304.164062 325.082031 C 303.113281 320.933594 305.617188 316.722656 309.75 315.671875 L 319.191406 313.246094 C 319.828125 313.085938 320.46875 313.023438 321.105469 313.023438 C 322.8125 307.761719 323.832031 302.179688 324.039062 296.375 C 324.089844 295.066406 324.074219 293.757812 324.039062 292.453125 C 323.449219 292.277344 322.84375 292.035156 322.269531 291.703125 L 313.894531 286.726562 C 310.226562 284.558594 309 279.820312 311.199219 276.136719 L 316.160156 267.765625 C 316.496094 267.191406 316.894531 266.695312 317.339844 266.234375 C 314.167969 259.996094 309.925781 254.398438 304.867188 249.617188 C 304.324219 249.917969 303.734375 250.15625 303.097656 250.332031 L 293.636719 252.742188 C 289.523438 253.808594 285.296875 251.289062 284.242188 247.175781 L 281.835938 237.71875 C 281.660156 237.097656 281.59375 236.457031 281.59375 235.804688 C 276.332031 234.113281 270.75 233.09375 264.941406 232.886719 C 263.632812 232.839844 262.328125 232.855469 261.019531 232.871094 C 260.859375 233.476562 260.601562 234.082031 260.269531 234.640625 L 255.292969 243.011719 C 253.105469 246.699219 248.386719 247.910156 244.699219 245.742188 L 236.324219 240.765625 C 235.75 240.414062 235.242188 240.015625 234.792969 239.570312 C 228.574219 242.757812 222.957031 247 218.171875 252.039062 C 218.476562 252.597656 218.714844 253.1875 218.875 253.824219 L 221.300781 263.265625 C 222.367188 267.398438 219.863281 271.609375 215.734375 272.675781 L 206.289062 275.085938 C 205.652344 275.242188 205 275.324219 204.375 275.308594 C 202.667969 280.570312 201.648438 286.152344 201.425781 291.957031 C 201.394531 293.28125 201.394531 294.589844 201.425781 295.878906 C 202.03125 296.054688 202.636719 296.308594 203.195312 296.644531 L 211.570312 301.605469 " fill-opacity="1" fill-rule="nonzero"/><g clip-path="url(#0859d232a1)"><g clip-path="url(#92c3fe4b55)"><g clip-path="url(#4339171fb2)"><path fill="#0d68b1" d="M 230.6875 179.875 C 230.6875 179.875 230.71875 184.640625 225.804688 185.058594 C 220.890625 185.476562 219.960938 181.320312 219.761719 179.183594 C 219.046875 172.6875 216.257812 148.222656 216.257812 148.222656 C 216.257812 148.222656 216.367188 142.699219 222.578125 142.402344 C 229.175781 142.050781 230.058594 146.949219 230.273438 149.527344 C 230.886719 157.070312 230.6875 179.875 230.6875 179.875 Z M 230.6875 179.875 " fill-opacity="1" fill-rule="nonzero"/></g></g></g><g clip-path="url(#eb33b6f638)"><g clip-path="url(#c44e4b4057)"><g clip-path="url(#4a5c921e12)"><path fill="#0d68b1" d="M 170.636719 195.007812 C 170.636719 195.007812 173.757812 198.671875 170.273438 201.894531 C 166.855469 205.257812 163.4375 202.671875 161.953125 201.199219 C 157.246094 196.765625 141.300781 178.207031 141.300781 178.207031 C 141.300781 178.207031 136.527344 173.292969 142.941406 168.835938 C 148 165.25 151.492188 170.140625 151.492188 170.140625 Z M 170.636719 195.007812 " fill-opacity="1" fill-rule="nonzero"/></g></g></g><g clip-path="url(#c5352726b2)"><g clip-path="url(#cf13deb66c)"><g clip-path="url(#623f1463ff)"><path fill="#0d68b1" d="M 112.335938 235.980469 C 112.335938 235.980469 116.953125 237.324219 115.835938 242 C 114.71875 246.675781 110.582031 246.300781 108.511719 245.941406 C 102.183594 244.679688 78.757812 237.707031 78.757812 237.707031 C 78.757812 237.707031 72.09375 236.195312 75.011719 228.914062 C 77.402344 223.128906 82.886719 225.390625 82.886719 225.390625 Z M 112.335938 235.980469 " fill-opacity="1" fill-rule="nonzero"/></g></g></g><g clip-path="url(#60db218235)"><g clip-path="url(#eadb9ca28c)"><g clip-path="url(#ec3b282336)"><path fill="#0d68b1" d="M 86.746094 273.964844 C 86.746094 273.964844 91.214844 274.59375 92.414062 270.152344 C 93.988281 264.527344 87.394531 263.5 87.394531 263.5 C 87.394531 263.5 78.078125 259.539062 75.34375 265.664062 C 71.386719 274.660156 86.746094 273.964844 86.746094 273.964844 Z M 86.746094 273.964844 " fill-opacity="1" fill-rule="nonzero"/></g></g></g><g clip-path="url(#671c93bf59)"><g clip-path="url(#dc75117226)"><g clip-path="url(#82b0a0c28a)"><path fill="#0d68b1" d="M 137.050781 203.71875 C 135.507812 202.550781 133.125 201.003906 136.992188 195.90625 C 140.1875 191.6875 144.117188 194.0625 145.878906 195.398438 C 149.707031 198.472656 156.097656 203.316406 160.554688 208.421875 C 163.953125 212.292969 158.277344 218.863281 153.703125 215.742188 C 150.21875 213.355469 141.84375 207.355469 137.050781 203.71875 Z M 137.050781 203.71875 " fill-opacity="1" fill-rule="nonzero"/></g></g></g><g clip-path="url(#e714e4a7fb)"><g clip-path="url(#fc29d37921)"><g clip-path="url(#0870b39c2a)"><path fill="#00b696" d="M 703.027344 484.214844 C 700.5625 480.40625 694.53125 484.113281 697.015625 487.945312 C 707.0625 503.460938 710.804688 526.164062 695.707031 539.210938 C 695.273438 537.027344 694.640625 534.886719 693.824219 532.816406 C 690.527344 524.734375 683.171875 517.847656 674.023438 517.878906 C 665.917969 517.914062 658.324219 523.273438 657.261719 531.578125 C 656.058594 540.765625 662.648438 548.617188 671.035156 551.488281 C 677.101562 553.453125 683.664062 553.28125 689.625 551 C 688.433594 565.734375 679.21875 581.15625 670.15625 590.601562 C 659.671875 601.625 642.535156 611.992188 627.019531 612.707031 C 622.476562 612.910156 622.5625 619.910156 627.136719 619.769531 C 644.914062 619.121094 664.191406 607.550781 676.0625 594.675781 C 687.046875 582.75 696.796875 564.667969 696.628906 547.390625 L 697.015625 547.144531 C 718.3125 532.226562 715.773438 503.882812 703.027344 484.214844 Z M 664.6875 536.957031 C 662.496094 530.332031 667.515625 524.890625 674.089844 524.96875 C 679.671875 525.035156 684.085938 529.152344 686.503906 533.855469 C 688.003906 536.816406 688.984375 540.011719 689.40625 543.304688 C 680.898438 547.210938 668.078125 547.207031 664.6875 536.957031 Z M 664.6875 536.957031 " fill-opacity="1" fill-rule="nonzero"/></g></g></g></svg>