<svg xmlns="http://www.w3.org/2000/svg" xmlns:xlink="http://www.w3.org/1999/xlink" width="1000" zoomAndPan="magnify" viewBox="0 0 750 749.999995" height="1000" preserveAspectRatio="xMidYMid meet" version="1.0"><defs><clipPath id="0208c5ed78"><path d="M 106 256.714844 L 601.363281 256.714844 L 601.363281 537 L 106 537 Z M 106 256.714844 " clip-rule="nonzero"/></clipPath><clipPath id="db02bedae5"><path d="M 248 129 L 269 129 L 269 189 L 248 189 Z M 248 129 " clip-rule="nonzero"/></clipPath><clipPath id="fb38499593"><path d="M 187.160156 68.289062 L 296.53125 151.210938 L 127.066406 374.730469 L 17.699219 291.8125 Z M 187.160156 68.289062 " clip-rule="nonzero"/></clipPath><clipPath id="0492dbd50c"><path d="M 187.160156 68.289062 L 296.53125 151.210938 L 127.066406 374.730469 L 17.699219 291.8125 Z M 187.160156 68.289062 " clip-rule="nonzero"/></clipPath><clipPath id="5ea258f962"><path d="M 142 164 L 187 164 L 187 215 L 142 215 Z M 142 164 " clip-rule="nonzero"/></clipPath><clipPath id="d41946f217"><path d="M 187.160156 68.289062 L 296.53125 151.210938 L 127.066406 374.730469 L 17.699219 291.8125 Z M 187.160156 68.289062 " clip-rule="nonzero"/></clipPath><clipPath id="0ffa4de6d0"><path d="M 187.160156 68.289062 L 296.53125 151.210938 L 127.066406 374.730469 L 17.699219 291.8125 Z M 187.160156 68.289062 " clip-rule="nonzero"/></clipPath><clipPath id="40e3a234d8"><path d="M 51 244 L 110 244 L 110 275 L 51 275 Z M 51 244 " clip-rule="nonzero"/></clipPath><clipPath id="514106bc90"><path d="M 187.160156 68.289062 L 296.53125 151.210938 L 127.066406 374.730469 L 17.699219 291.8125 Z M 187.160156 68.289062 " clip-rule="nonzero"/></clipPath><clipPath id="1287423984"><path d="M 187.160156 68.289062 L 296.53125 151.210938 L 127.066406 374.730469 L 17.699219 291.8125 Z M 187.160156 68.289062 " clip-rule="nonzero"/></clipPath><clipPath id="846d168bbf"><path d="M 51 296 L 77 296 L 77 313 L 51 313 Z M 51 296 " clip-rule="nonzero"/></clipPath><clipPath id="f479e5be14"><path d="M 187.160156 68.289062 L 296.53125 151.210938 L 127.066406 374.730469 L 17.699219 291.8125 Z M 187.160156 68.289062 " clip-rule="nonzero"/></clipPath><clipPath id="738a8e68f8"><path d="M 187.160156 68.289062 L 296.53125 151.210938 L 127.066406 374.730469 L 17.699219 291.8125 Z M 187.160156 68.289062 " clip-rule="nonzero"/></clipPath><clipPath id="3000fb94ec"><path d="M 135 200 L 173 200 L 173 233 L 135 233 Z M 135 200 " clip-rule="nonzero"/></clipPath><clipPath id="760780073d"><path d="M 187.160156 68.289062 L 296.53125 151.210938 L 127.066406 374.730469 L 17.699219 291.8125 Z M 187.160156 68.289062 " clip-rule="nonzero"/></clipPath><clipPath id="e06ee8608f"><path d="M 187.160156 68.289062 L 296.53125 151.210938 L 127.066406 374.730469 L 17.699219 291.8125 Z M 187.160156 68.289062 " clip-rule="nonzero"/></clipPath><clipPath id="54787a05cb"><path d="M 570 508 L 682 508 L 682 613 L 570 613 Z M 570 508 " clip-rule="nonzero"/></clipPath><clipPath id="478f1cc629"><path d="M 568.089844 615.527344 L 574.308594 500.945312 L 685.144531 506.960938 L 678.925781 621.542969 Z M 568.089844 615.527344 " clip-rule="nonzero"/></clipPath><clipPath id="61e593c24f"><path d="M 574.320312 500.769531 L 568.097656 615.351562 L 678.933594 621.367188 L 685.15625 506.789062 Z M 574.320312 500.769531 " clip-rule="nonzero"/></clipPath></defs><g clip-path="url(#0208c5ed78)"><path fill="#0d68b1" d="M 516.101562 493.832031 C 477.519531 493.6875 438.933594 493.777344 400.351562 493.675781 C 397.605469 493.675781 396.605469 494.175781 396.070312 497.160156 C 394.476562 506.019531 386.351562 512.648438 377.128906 512.75 C 361.730469 512.910156 346.320312 512.910156 330.910156 512.738281 C 322.042969 512.636719 314.007812 506.386719 312.378906 497.75 C 311.640625 493.789062 309.933594 493.6875 306.835938 493.695312 C 268.128906 493.765625 229.40625 493.730469 190.6875 493.753906 C 188.296875 493.765625 186.542969 493.980469 186.554688 490.382812 C 186.667969 424.152344 186.65625 357.925781 186.578125 291.695312 C 186.566406 289.234375 187.28125 288.425781 189.195312 288.253906 L 212.414062 288.253906 C 216.113281 288.253906 219.824219 288.242188 223.535156 288.289062 C 223.691406 288.289062 223.785156 288.253906 223.933594 288.253906 L 483.460938 288.253906 C 483.617188 288.253906 483.710938 288.289062 483.867188 288.289062 C 489.546875 288.222656 495.214844 288.242188 500.894531 288.253906 L 506.074219 288.253906 L 506.074219 288.222656 C 509.660156 288.222656 513.246094 288.230469 516.832031 288.152344 C 520.28125 288.074219 520.917969 289.15625 520.917969 292.402344 C 520.8125 357.957031 520.804688 423.515625 520.941406 489.074219 C 520.949219 493.023438 519.882812 493.84375 516.101562 493.832031 Z M 596.925781 494.164062 C 583.265625 494.4375 569.597656 494.242188 555.925781 494.300781 C 553.921875 494.3125 552.933594 494.164062 552.945312 491.566406 C 553.058594 425.882812 553.058594 360.191406 553.105469 294.496094 C 553.105469 291.546875 552.855469 288.632812 552.320312 285.714844 C 549.359375 269.828125 535.757812 257.277344 520.609375 256.96875 C 515.761719 256.867188 510.921875 256.878906 506.074219 256.878906 L 506.074219 256.753906 L 186.109375 256.753906 L 186.109375 256.910156 C 168.582031 258.402344 154.515625 273.734375 154.46875 292.914062 C 154.332031 358.871094 154.402344 424.824219 154.503906 490.792969 C 154.503906 493.558594 153.980469 494.378906 151.113281 494.347656 C 137.179688 494.1875 123.238281 494.265625 109.304688 494.289062 C 107.847656 494.289062 106.257812 493.664062 106.097656 496.40625 C 104.84375 518.980469 120.585938 537.011719 143.328125 536.875 C 213.394531 536.464844 283.457031 536.726562 353.523438 536.726562 C 423.988281 536.726562 494.464844 536.703125 564.929688 536.75 C 574.617188 536.761719 583.117188 533.980469 590.074219 527.113281 C 597.9375 519.335938 601.25 509.765625 601.363281 498.824219 C 601.398438 495.371094 600.792969 494.085938 596.925781 494.164062 " fill-opacity="1" fill-rule="nonzero"/></g><path fill="#00b696" d="M 408.792969 440.222656 C 409.886719 443.390625 409.71875 446.714844 408.269531 449.917969 C 406.0625 454.757812 401.933594 457.59375 396.640625 457.898438 C 396.367188 457.910156 396.09375 457.910156 395.832031 457.910156 C 393.738281 457.910156 391.777344 457.457031 389.980469 456.542969 C 389.96875 456.554688 389.957031 456.554688 389.945312 456.566406 C 388.910156 457.207031 387.863281 457.761719 386.769531 458.34375 C 385.984375 458.753906 385.167969 459.175781 384.382812 459.539062 C 383.289062 460.0625 382.195312 460.519531 381.046875 461 C 380.261719 461.304688 379.542969 461.613281 378.757812 461.875 C 381.113281 458.9375 383.230469 455.804688 385.109375 452.511719 C 383.0625 449.972656 381.011719 447.433594 378.964844 444.882812 C 373.464844 456.054688 366.214844 463.699219 358.203125 465.839844 L 358.203125 459.769531 C 357.601562 459.449219 357.03125 459.0625 356.496094 458.605469 C 354.4375 456.839844 353.046875 454.585938 352.363281 451.863281 C 351.363281 447.867188 350.359375 443.867188 349.347656 439.882812 L 349.347656 465.839844 C 340.414062 463.492188 332.390625 454.222656 326.722656 440.792969 C 333.574219 437.957031 340.855469 436.214844 348.289062 435.65625 C 347.574219 432.765625 346.84375 429.859375 346.105469 426.964844 C 338.421875 427.695312 330.863281 429.539062 323.703125 432.46875 C 320.472656 421.886719 318.695312 410.90625 318.390625 399.859375 L 339.296875 399.859375 C 338.433594 396.410156 337.566406 392.945312 336.691406 389.484375 L 318.390625 389.484375 C 318.695312 378.449219 320.472656 367.46875 323.703125 356.898438 C 331.875 360.234375 340.5625 362.148438 349.347656 362.628906 L 349.347656 372.035156 C 350.917969 372.546875 352.296875 373.242188 353.546875 373.878906 L 354.105469 374.164062 L 358.203125 376.226562 L 358.203125 362.671875 C 367.046875 362.148438 375.695312 360.234375 383.859375 356.945312 C 387.089844 367.523438 388.855469 378.503906 389.171875 389.550781 L 384.675781 389.550781 C 391.515625 392.980469 398.347656 396.421875 405.1875 399.859375 L 424.660156 399.859375 C 423.648438 414.6875 418.09375 428.800781 408.792969 440.222656 Z M 326.460938 461.054688 C 325.410156 460.519531 324.273438 460.0625 323.226562 459.539062 C 322.453125 459.175781 321.621094 458.753906 320.835938 458.34375 C 319.742188 457.761719 318.695312 457.136719 317.605469 456.523438 C 316.886719 456.054688 316.101562 455.632812 315.375 455.167969 C 314.335938 454.484375 313.289062 453.765625 312.253906 453.027344 C 311.570312 452.511719 310.84375 452.035156 310.171875 451.523438 C 309.957031 451.363281 309.707031 451.15625 309.5 450.941406 C 312.355469 448.652344 315.375 446.578125 318.59375 444.746094 C 321.15625 450.941406 324.582031 456.726562 328.746094 461.945312 C 327.960938 461.671875 327.246094 461.363281 326.460938 461.054688 Z M 283.003906 399.859375 L 309.5 399.859375 C 309.75 412.25 311.789062 424.539062 315.53125 436.363281 C 311.105469 438.8125 306.882812 441.683594 302.988281 444.90625 C 291.175781 432.773438 284.039062 416.785156 283.003906 399.859375 Z M 302.988281 344.4375 C 306.882812 347.671875 311.105469 350.542969 315.53125 352.992188 C 311.789062 364.816406 309.75 377.105469 309.5 389.484375 L 283.003906 389.484375 C 284.039062 372.570312 291.175781 356.589844 302.988281 344.4375 Z M 310.171875 337.832031 C 310.84375 337.308594 311.570312 336.84375 312.253906 336.328125 C 313.289062 335.601562 314.335938 334.859375 315.375 334.1875 C 316.101562 333.722656 316.886719 333.300781 317.605469 332.84375 C 318.695312 332.207031 319.742188 331.59375 320.835938 331.011719 C 321.621094 330.601562 322.453125 330.179688 323.226562 329.816406 C 324.273438 329.300781 325.410156 328.824219 326.460938 328.3125 C 327.246094 327.992188 327.960938 327.675781 328.746094 327.421875 C 324.582031 332.628906 321.15625 338.402344 318.59375 344.609375 C 315.375 342.789062 312.355469 340.691406 309.5 338.402344 C 309.707031 338.199219 309.957031 337.992188 310.171875 337.832031 Z M 349.347656 323.515625 L 349.347656 353.765625 C 341.550781 353.300781 333.902344 351.523438 326.722656 348.5625 C 332.390625 335.132812 340.414062 325.863281 349.347656 323.515625 Z M 358.203125 323.515625 C 367.148438 325.910156 375.171875 335.179688 380.839844 348.5625 C 373.660156 351.523438 366.011719 353.300781 358.203125 353.765625 Z M 381.046875 328.355469 C 382.195312 328.824219 383.289062 329.300781 384.382812 329.816406 C 385.167969 330.179688 385.984375 330.601562 386.769531 331.011719 C 387.863281 331.59375 388.910156 332.160156 389.945312 332.777344 C 390.71875 333.253906 391.507812 333.722656 392.246094 334.1875 C 393.28125 334.859375 394.316406 335.601562 395.308594 336.328125 C 395.992188 336.84375 396.707031 337.367188 397.390625 337.890625 C 397.59375 338.039062 397.800781 338.253906 398.015625 338.460938 C 395.148438 340.75 392.085938 342.832031 388.910156 344.65625 C 386.363281 338.460938 382.925781 332.683594 378.757812 327.46875 C 379.542969 327.730469 380.261719 328.039062 381.046875 328.355469 Z M 404.628906 344.4375 C 416.433594 356.589844 423.511719 372.570312 424.660156 389.484375 L 398.117188 389.484375 C 397.800781 377.105469 395.832031 364.816406 392.085938 352.992188 C 396.503906 350.542969 400.726562 347.671875 404.628906 344.4375 Z M 407.90625 335.179688 C 406.074219 333.460938 404.164062 331.855469 402.183594 330.328125 C 369.289062 305.078125 322.554688 309.199219 294.613281 339.816406 C 280.375 355.40625 273.464844 375.109375 273.683594 394.675781 C 273.464844 414.246094 280.375 433.949219 294.613281 449.539062 C 322.554688 480.167969 369.289062 484.265625 402.183594 459.015625 C 404.164062 457.511719 406.074219 455.894531 407.90625 454.175781 C 425.21875 438.265625 433.890625 416.476562 433.710938 394.675781 C 433.890625 372.867188 425.21875 351.089844 407.90625 335.179688 " fill-opacity="1" fill-rule="nonzero"/><path fill="#0d68b1" d="M 376.46875 434.265625 C 375.925781 435.199219 375.414062 435.976562 374.992188 436.796875 C 372.066406 442.445312 369.175781 448.117188 366.25 453.765625 C 364.882812 456.417969 361.832031 456.976562 359.546875 455.019531 C 358.214844 453.878906 357.359375 452.445312 356.929688 450.714844 C 353.503906 437 350.042969 423.300781 346.59375 409.597656 C 344.476562 401.179688 342.382812 392.777344 340.253906 384.371094 C 339.765625 382.433594 339.808594 380.601562 340.605469 378.734375 C 341.789062 375.929688 344.910156 375.667969 347.3125 376.328125 C 348.9375 376.773438 350.476562 377.605469 351.988281 378.367188 C 371.371094 388.117188 390.742188 397.878906 410.113281 407.617188 C 411.765625 408.4375 413.152344 409.472656 414.191406 411.019531 C 415.898438 413.59375 414.863281 416.601562 411.878906 417.410156 C 405.242188 419.175781 398.597656 420.882812 391.949219 422.636719 C 391.472656 422.765625 391.015625 422.980469 390.414062 423.207031 C 392.929688 426.398438 395.363281 429.484375 397.800781 432.558594 C 399.472656 434.675781 401.191406 436.761719 402.808594 438.914062 C 404.890625 441.691406 405.449219 444.746094 403.980469 447.96875 C 402.511719 451.203125 399.917969 452.992188 396.367188 453.195312 C 393.234375 453.367188 390.742188 452.011719 388.796875 449.597656 C 384.996094 444.871094 381.195312 440.121094 377.394531 435.382812 C 377.128906 435.066406 376.859375 434.746094 376.46875 434.265625 " fill-opacity="1" fill-rule="nonzero"/><g clip-path="url(#db02bedae5)"><g clip-path="url(#fb38499593)"><g clip-path="url(#0492dbd50c)"><path fill="#00b696" d="M 268.640625 181.242188 C 268.640625 181.242188 268.660156 187.878906 261.828125 188.480469 C 255 189.082031 253.730469 183.300781 253.457031 180.328125 C 252.496094 171.289062 248.726562 137.242188 248.726562 137.242188 C 248.726562 137.242188 248.90625 129.550781 257.539062 129.109375 C 266.707031 128.59375 267.914062 135.410156 268.199219 138.996094 C 269.019531 149.496094 268.640625 181.242188 268.640625 181.242188 Z M 268.640625 181.242188 " fill-opacity="1" fill-rule="nonzero"/></g></g></g><g clip-path="url(#5ea258f962)"><g clip-path="url(#d41946f217)"><g clip-path="url(#0ffa4de6d0)"><path fill="#00b696" d="M 185.121094 202.578125 C 185.121094 202.578125 189.445312 207.664062 184.585938 212.167969 C 179.820312 216.867188 175.085938 213.277344 173.027344 211.234375 C 166.503906 205.085938 144.433594 179.316406 144.433594 179.316406 C 144.433594 179.316406 137.820312 172.496094 146.753906 166.265625 C 153.800781 161.25 158.632812 168.046875 158.632812 168.046875 Z M 185.121094 202.578125 " fill-opacity="1" fill-rule="nonzero"/></g></g></g><g clip-path="url(#40e3a234d8)"><g clip-path="url(#514106bc90)"><g clip-path="url(#1287423984)"><path fill="#00b696" d="M 103.921875 259.875 C 103.921875 259.875 110.332031 261.726562 108.761719 268.242188 C 107.1875 274.757812 101.4375 274.253906 98.566406 273.761719 C 89.773438 272.03125 57.25 262.429688 57.25 262.429688 C 57.25 262.429688 48.003906 260.351562 52.089844 250.203125 C 55.433594 242.144531 63.046875 245.265625 63.046875 245.265625 Z M 103.921875 259.875 " fill-opacity="1" fill-rule="nonzero"/></g></g></g><g clip-path="url(#846d168bbf)"><g clip-path="url(#f479e5be14)"><g clip-path="url(#738a8e68f8)"><path fill="#00b696" d="M 68.191406 312.871094 C 68.191406 312.871094 74.398438 313.722656 76.085938 307.535156 C 78.296875 299.699219 69.140625 298.296875 69.140625 298.296875 C 69.140625 298.296875 56.210938 292.828125 52.382812 301.367188 C 46.84375 313.90625 68.191406 312.871094 68.191406 312.871094 Z M 68.191406 312.871094 " fill-opacity="1" fill-rule="nonzero"/></g></g></g><g clip-path="url(#3000fb94ec)"><g clip-path="url(#760780073d)"><g clip-path="url(#e06ee8608f)"><path fill="#00b696" d="M 138.414062 214.855469 C 136.277344 213.234375 132.96875 211.089844 138.363281 203.980469 C 142.828125 198.089844 148.273438 201.375 150.714844 203.230469 C 156.023438 207.492188 164.878906 214.207031 171.050781 221.296875 C 175.753906 226.667969 167.839844 235.839844 161.5 231.515625 C 156.667969 228.214844 145.058594 219.894531 138.414062 214.855469 Z M 138.414062 214.855469 " fill-opacity="1" fill-rule="nonzero"/></g></g></g><g clip-path="url(#54787a05cb)"><g clip-path="url(#478f1cc629)"><g clip-path="url(#61e593c24f)"><path fill="#0d68b1" d="M 572.6875 609.234375 C 568.660156 607.804688 570.75 601.492188 574.804688 602.9375 C 591.21875 608.761719 612.859375 607.277344 621.546875 590.671875 C 619.449219 590.746094 617.347656 590.628906 615.273438 590.328125 C 607.140625 589.0625 599.226562 583.832031 597.265625 575.464844 C 595.535156 568.058594 598.800781 559.960938 606.191406 557.195312 C 614.359375 554.117188 622.988281 558.441406 627.449219 565.480469 C 630.570312 570.597656 631.835938 576.628906 631.039062 582.566406 C 644.296875 578.300781 656.441406 566.546875 663.132812 556.230469 C 670.96875 544.273438 676.753906 526.378906 674.039062 512.054688 C 673.238281 507.859375 679.675781 506.425781 680.542969 510.636719 C 683.8125 527.015625 677.386719 547.125 668.15625 560.746094 C 659.605469 573.359375 645.136719 586.164062 629.25 589.746094 L 629.109375 590.148438 C 620.050781 612.828125 593.5 616.628906 572.6875 609.234375 Z M 612.738281 562.820312 C 606.183594 562.25 602.285156 568.011719 603.785156 573.996094 C 605.058594 579.082031 609.792969 582.226562 614.632812 583.417969 C 617.675781 584.148438 620.820312 584.355469 623.933594 584.03125 C 625.667969 575.414062 622.878906 563.703125 612.738281 562.820312 Z M 612.738281 562.820312 " fill-opacity="1" fill-rule="nonzero"/></g></g></g></svg>