<svg xmlns="http://www.w3.org/2000/svg" xmlns:xlink="http://www.w3.org/1999/xlink" width="1000" zoomAndPan="magnify" viewBox="0 0 750 749.999995" height="1000" preserveAspectRatio="xMidYMid meet" version="1.0"><defs><clipPath id="012d648d28"><path d="M 124 43 L 156 43 L 156 83 L 124 83 Z M 124 43 " clip-rule="nonzero"/></clipPath><clipPath id="b5306d71be"><path d="M 61.144531 33.996094 L 161.070312 44.710938 L 139.242188 248.292969 L 39.316406 237.578125 Z M 61.144531 33.996094 " clip-rule="nonzero"/></clipPath><clipPath id="53f8614a7f"><path d="M 61.144531 33.996094 L 161.070312 44.710938 L 139.242188 248.292969 L 39.316406 237.578125 Z M 61.144531 33.996094 " clip-rule="nonzero"/></clipPath><clipPath id="faf7863099"><path d="M 71 106 L 114 106 L 114 129 L 71 129 Z M 71 106 " clip-rule="nonzero"/></clipPath><clipPath id="c9a5de5ad6"><path d="M 61.144531 33.996094 L 161.070312 44.710938 L 139.242188 248.292969 L 39.316406 237.578125 Z M 61.144531 33.996094 " clip-rule="nonzero"/></clipPath><clipPath id="7fd5a2ff9f"><path d="M 61.144531 33.996094 L 161.070312 44.710938 L 139.242188 248.292969 L 39.316406 237.578125 Z M 61.144531 33.996094 " clip-rule="nonzero"/></clipPath><clipPath id="2f42a86718"><path d="M 45 184 L 88 184 L 88 205 L 45 205 Z M 45 184 " clip-rule="nonzero"/></clipPath><clipPath id="b8b41c2d84"><path d="M 61.144531 33.996094 L 161.070312 44.710938 L 139.242188 248.292969 L 39.316406 237.578125 Z M 61.144531 33.996094 " clip-rule="nonzero"/></clipPath><clipPath id="957ad23e18"><path d="M 61.144531 33.996094 L 161.070312 44.710938 L 139.242188 248.292969 L 39.316406 237.578125 Z M 61.144531 33.996094 " clip-rule="nonzero"/></clipPath><clipPath id="36a8dc1b90"><path d="M 64 221 L 83 221 L 83 235 L 64 235 Z M 64 221 " clip-rule="nonzero"/></clipPath><clipPath id="a99158096e"><path d="M 61.144531 33.996094 L 161.070312 44.710938 L 139.242188 248.292969 L 39.316406 237.578125 Z M 61.144531 33.996094 " clip-rule="nonzero"/></clipPath><clipPath id="3da31ba152"><path d="M 61.144531 33.996094 L 161.070312 44.710938 L 139.242188 248.292969 L 39.316406 237.578125 Z M 61.144531 33.996094 " clip-rule="nonzero"/></clipPath><clipPath id="8a48abedd5"><path d="M 81 131 L 112 131 L 112 146 L 81 146 Z M 81 131 " clip-rule="nonzero"/></clipPath><clipPath id="e252b608e0"><path d="M 61.144531 33.996094 L 161.070312 44.710938 L 139.242188 248.292969 L 39.316406 237.578125 Z M 61.144531 33.996094 " clip-rule="nonzero"/></clipPath><clipPath id="06519091bf"><path d="M 61.144531 33.996094 L 161.070312 44.710938 L 139.242188 248.292969 L 39.316406 237.578125 Z M 61.144531 33.996094 " clip-rule="nonzero"/></clipPath><clipPath id="5616e8ac93"><path d="M 618 586 L 701 586 L 701 698 L 618 698 Z M 618 586 " clip-rule="nonzero"/></clipPath><clipPath id="c0553c6bcd"><path d="M 598.144531 604.148438 L 699.460938 583.003906 L 719.839844 680.648438 L 618.523438 701.792969 Z M 598.144531 604.148438 " clip-rule="nonzero"/></clipPath><clipPath id="50182aa122"><path d="M 598.144531 604.148438 L 699.460938 583.003906 L 719.839844 680.648438 L 618.523438 701.792969 Z M 598.144531 604.148438 " clip-rule="nonzero"/></clipPath><clipPath id="64b244ac06"><path d="M 311 159.128906 L 481 159.128906 L 481 388 L 311 388 Z M 311 159.128906 " clip-rule="nonzero"/></clipPath><clipPath id="64eac3da76"><path d="M 151.976562 184 L 314 184 L 314 388 L 151.976562 388 Z M 151.976562 184 " clip-rule="nonzero"/></clipPath><clipPath id="399d7d21ac"><path d="M 479 185 L 639.476562 185 L 639.476562 388 L 479 388 Z M 479 185 " clip-rule="nonzero"/></clipPath></defs><rect x="-75" width="900" fill="#ffffff" y="-74.999999" height="899.999994" fill-opacity="1"/><rect x="-75" width="900" fill="#ffffff" y="-74.999999" height="899.999994" fill-opacity="1"/><g clip-path="url(#012d648d28)"><g clip-path="url(#b5306d71be)"><g clip-path="url(#53f8614a7f)"><path fill="#00b696" d="M 154.601562 73.90625 C 154.601562 73.90625 157.113281 78.042969 153.070312 80.984375 C 149.027344 83.925781 146.058594 80.796875 144.769531 79.039062 C 140.761719 73.757812 125.589844 53.914062 125.589844 53.914062 C 125.589844 53.914062 122.804688 49.042969 128.035156 45.527344 C 133.574219 41.757812 136.894531 45.5625 138.421875 47.695312 C 142.886719 53.941406 154.601562 73.90625 154.601562 73.90625 Z M 154.601562 73.90625 " fill-opacity="1" fill-rule="nonzero"/></g></g></g><g clip-path="url(#faf7863099)"><g clip-path="url(#c9a5de5ad6)"><g clip-path="url(#7fd5a2ff9f)"><path fill="#00b696" d="M 110.421875 118.613281 C 110.421875 118.613281 115.039062 120.160156 113.699219 124.800781 C 112.488281 129.523438 108.175781 129.0625 106.121094 128.558594 C 99.730469 127.171875 76.230469 119.375 76.230469 119.375 C 76.230469 119.375 69.527344 117.601562 72.765625 110.355469 C 75.285156 104.574219 80.863281 107.003906 80.863281 107.003906 Z M 110.421875 118.613281 " fill-opacity="1" fill-rule="nonzero"/></g></g></g><g clip-path="url(#2f42a86718)"><g clip-path="url(#b8b41c2d84)"><g clip-path="url(#957ad23e18)"><path fill="#00b696" d="M 81.230469 184.898438 C 81.230469 184.898438 85.9375 183.644531 87.40625 188.304688 C 88.875 192.964844 85.09375 194.808594 83.109375 195.582031 C 76.964844 197.804688 53.015625 204.027344 53.015625 204.027344 C 53.015625 204.027344 46.453125 206.207031 45.1875 198.335938 C 44.242188 192.046875 50.179688 191.136719 50.179688 191.136719 Z M 81.230469 184.898438 " fill-opacity="1" fill-rule="nonzero"/></g></g></g><g clip-path="url(#36a8dc1b90)"><g clip-path="url(#a99158096e)"><g clip-path="url(#3da31ba152)"><path fill="#00b696" d="M 78.847656 231.414062 C 78.847656 231.414062 83.046875 229.613281 81.773438 225.117188 C 80.207031 219.394531 73.953125 221.957031 73.953125 221.957031 C 73.953125 221.957031 63.808594 223.402344 64.632812 230.171875 C 65.890625 240.082031 78.847656 231.414062 78.847656 231.414062 Z M 78.847656 231.414062 " fill-opacity="1" fill-rule="nonzero"/></g></g></g><g clip-path="url(#8a48abedd5)"><g clip-path="url(#e252b608e0)"><g clip-path="url(#06519091bf)"><path fill="#00b696" d="M 85.847656 143.828125 C 83.898438 143.617188 81.027344 143.523438 81.71875 137.054688 C 82.292969 131.703125 86.933594 131.707031 89.160156 131.945312 C 94.082031 132.613281 102.148438 133.480469 108.671875 135.585938 C 113.636719 137.171875 112.140625 145.875 106.550781 145.554688 C 102.285156 145.308594 91.894531 144.476562 85.847656 143.828125 Z M 85.847656 143.828125 " fill-opacity="1" fill-rule="nonzero"/></g></g></g><g clip-path="url(#5616e8ac93)"><g clip-path="url(#c0553c6bcd)"><g clip-path="url(#50182aa122)"><path fill="#0d68b1" d="M 694.332031 587.96875 C 692.519531 584.589844 687.191406 587.300781 689.023438 590.699219 C 696.421875 604.464844 698.03125 623.859375 684.445312 633.820312 C 684.226562 631.949219 683.839844 630.101562 683.292969 628.300781 C 681.066406 621.261719 675.347656 614.953125 667.644531 614.351562 C 660.824219 613.824219 654.070312 617.820312 652.613281 624.75 C 650.976562 632.410156 655.992188 639.476562 662.851562 642.472656 C 667.824219 644.546875 673.355469 644.851562 678.523438 643.335938 C 676.523438 655.675781 667.722656 668.039062 659.457031 675.375 C 649.890625 683.949219 634.765625 691.511719 621.664062 691.046875 C 617.828125 690.910156 617.425781 696.8125 621.285156 697.007812 C 636.285156 697.683594 653.289062 689.253906 664.152344 679.214844 C 674.203125 669.921875 683.628906 655.351562 684.664062 640.773438 L 685.003906 640.59375 C 703.9375 629.480469 703.722656 605.417969 694.332031 587.96875 Z M 658.496094 629.792969 C 657.101562 624.054688 661.695312 619.816406 667.222656 620.332031 C 671.910156 620.769531 675.347656 624.542969 677.0625 628.671875 C 678.125 631.273438 678.734375 634.03125 678.863281 636.835938 C 671.4375 639.546875 660.652344 638.660156 658.496094 629.792969 Z M 658.496094 629.792969 " fill-opacity="1" fill-rule="nonzero"/></g></g></g><g clip-path="url(#64b244ac06)"><path fill="#0d68b1" d="M 357.761719 241.308594 L 357.664062 241.277344 C 356.230469 240.847656 355.039062 240.351562 354.140625 239.621094 C 353.246094 238.890625 352.644531 237.921875 351.96875 236.015625 C 351.28125 234.105469 350.519531 231.246094 349.972656 228.691406 C 349.425781 226.128906 349.089844 223.871094 348.941406 221.902344 C 348.796875 219.9375 348.824219 218.257812 349.289062 216.949219 C 349.757812 215.644531 350.996094 214.59375 351.863281 214.324219 C 352.734375 214.054688 353.195312 214.222656 353.578125 214.125 C 353.964844 214.027344 353.378906 213.808594 353.371094 213.613281 L 352.320312 198.859375 C 351.628906 192.085938 353.082031 182.242188 358.050781 177.636719 C 359.21875 176.546875 363.210938 175.820312 363.933594 176.414062 C 363.199219 175.0625 362.867188 173.121094 364.382812 171.058594 C 365.898438 169 369.292969 164.917969 372.753906 163.382812 C 378.058594 161.03125 384.011719 159.242188 389.792969 159.796875 C 396.335938 160.417969 402.707031 163.21875 408.234375 166.773438 C 412.683594 169.640625 416.472656 173.832031 418.894531 178.535156 C 421.476562 183.535156 422.261719 188.976562 422.785156 194.976562 C 423.300781 200.929688 422.863281 208.070312 422.011719 214.054688 C 422.65625 214.097656 423.269531 214.234375 423.847656 214.457031 C 425.089844 214.921875 426.214844 215.75 426.75 217.304688 C 427.28125 218.855469 427.214844 221.132812 427.015625 223.398438 C 426.8125 225.664062 426.488281 227.925781 425.9375 230.203125 C 425.390625 232.472656 424.628906 234.769531 423.949219 236.394531 C 423.269531 238.027344 422.667969 238.988281 421.777344 239.71875 C 420.875 240.445312 419.683594 240.949219 418.253906 241.382812 C 417.988281 241.460938 417.707031 241.535156 417.429688 241.605469 L 416.980469 248.53125 C 416.714844 252.589844 415.253906 256.027344 412.535156 259.007812 L 412.535156 270.996094 C 412.535156 273.390625 411.519531 275.441406 409.621094 276.902344 L 391.820312 290.5625 L 398.296875 294.648438 C 399.550781 295.390625 398.875 297.058594 398.296875 298.394531 L 395.667969 304.128906 C 395.046875 305.558594 394.261719 306.808594 394.878906 308.238281 L 395.5 309.675781 L 399.554688 324.503906 L 401.296875 376.664062 L 414.390625 315.636719 C 417.914062 308.824219 419.113281 304.832031 419.378906 297.421875 C 419.621094 290.613281 419.078125 280.917969 418.472656 270.976562 C 418.445312 270.535156 418.679688 270.144531 419.074219 269.957031 C 419.46875 269.765625 419.914062 269.820312 420.246094 270.113281 C 423.226562 272.75 426.785156 275.398438 433.496094 278.0625 C 441.699219 281.316406 454.628906 284.605469 462.949219 286.648438 C 471.269531 288.6875 474.988281 289.480469 477.613281 291.445312 C 478.039062 291.761719 478.433594 292.109375 478.808594 292.503906 C 479.683594 293.421875 480.105469 294.535156 480.0625 295.804688 C 480.019531 297.078125 479.519531 298.15625 478.582031 299.015625 C 475.632812 301.714844 473.375 305.820312 471.625 310.765625 C 465.734375 327.394531 465.558594 353.582031 464.125 368.128906 C 463.777344 371.652344 464 375.105469 464.765625 378.40625 C 465.070312 379.730469 464.820312 380.984375 464.035156 382.089844 C 463.246094 383.195312 462.136719 383.839844 460.789062 383.980469 C 418.03125 388.414062 375.269531 388.710938 332.511719 385.300781 C 331.144531 385.191406 330.015625 384.5625 329.203125 383.460938 C 328.386719 382.359375 328.121094 381.09375 328.421875 379.753906 C 328.953125 377.371094 329.21875 374.855469 329.21875 372.269531 L 329.21875 333.046875 C 329.21875 319.1875 323.699219 303.496094 313.015625 294.292969 C 311.691406 293.152344 311.148438 291.476562 311.554688 289.773438 C 311.964844 288.070312 313.203125 286.824219 314.902344 286.402344 C 323.230469 284.351562 335.460938 281.191406 343.332031 278.0625 C 350.050781 275.402344 353.609375 272.757812 356.589844 270.121094 C 356.921875 269.828125 357.371094 269.765625 357.761719 269.960938 C 358.160156 270.152344 358.386719 270.542969 358.359375 270.980469 C 357.753906 280.917969 357.214844 290.621094 357.453125 297.429688 C 357.71875 304.839844 358.921875 308.832031 362.441406 315.640625 L 375.53125 376.671875 L 377.28125 324.503906 L 381.347656 309.140625 L 381.726562 308.257812 C 382.34375 306.828125 381.609375 306.089844 380.933594 304.691406 L 377.777344 298.148438 C 377.144531 296.832031 376.527344 295.144531 377.777344 294.402344 L 384.660156 290.300781 L 367.210938 276.90625 C 365.3125 275.449219 364.300781 273.394531 364.300781 271 L 364.300781 260.664062 L 362.996094 259.292969 C 360.074219 256.242188 358.515625 252.699219 358.242188 248.484375 L 357.773438 241.3125 Z M 357.761719 241.308594 " fill-opacity="1" fill-rule="evenodd"/></g><g clip-path="url(#64eac3da76)"><path fill="#0d68b1" d="M 205.640625 257.371094 L 205.554688 257.347656 C 204.28125 256.964844 203.214844 256.519531 202.417969 255.871094 C 201.621094 255.222656 201.085938 254.355469 200.480469 252.65625 C 199.871094 250.957031 199.191406 248.410156 198.703125 246.136719 C 198.214844 243.851562 197.917969 241.839844 197.785156 240.085938 C 197.65625 238.335938 197.679688 236.839844 198.097656 235.675781 C 198.511719 234.511719 199.617188 233.570312 200.386719 233.335938 C 201.164062 233.097656 201.574219 233.246094 201.917969 233.15625 C 202.257812 233.070312 201.738281 232.875 201.730469 232.703125 L 197.105469 219.722656 C 190.824219 205.195312 203.089844 196.980469 211.140625 199.5625 C 208.882812 195.402344 215.710938 189.417969 219 187.957031 C 232.820312 181.835938 245.855469 185.414062 257.984375 193.222656 C 265.859375 197.894531 268.382812 190.757812 269.789062 191.796875 C 274.886719 195.558594 276.316406 210.472656 264.769531 220.113281 C 265.925781 226.738281 264.878906 230.097656 262.878906 233.097656 C 263.453125 233.132812 263.992188 233.257812 264.515625 233.453125 C 265.617188 233.863281 266.621094 234.609375 267.097656 235.992188 C 267.570312 237.375 267.511719 239.398438 267.335938 241.417969 C 267.152344 243.4375 266.863281 245.453125 266.371094 247.480469 C 265.886719 249.5 265.207031 251.546875 264.601562 252.992188 C 263.992188 254.449219 263.460938 255.308594 262.664062 255.957031 C 261.863281 256.605469 260.804688 257.050781 259.527344 257.4375 C 259.292969 257.511719 259.046875 257.578125 258.796875 257.640625 L 258.390625 263.808594 C 258.15625 267.421875 256.859375 270.484375 254.429688 273.140625 L 254.429688 283.820312 C 254.429688 285.953125 253.527344 287.78125 251.835938 289.078125 L 235.984375 305.101562 C 234.992188 305.859375 233.980469 306.246094 232.941406 306.238281 C 231.953125 306.234375 230.933594 305.859375 229.882812 305.085938 L 214.0625 289.085938 C 212.375 287.785156 211.46875 285.957031 211.46875 283.824219 L 211.46875 274.613281 L 210.304688 273.398438 C 207.703125 270.675781 206.3125 267.519531 206.066406 263.769531 L 205.65625 257.375 Z M 207.140625 283.796875 C 207.164062 283.410156 206.960938 283.058594 206.605469 282.894531 C 206.132812 282.664062 205.015625 282.75 203.777344 283.523438 L 184.101562 295.824219 C 160.085938 302.488281 153.449219 312.550781 151.976562 333.046875 L 151.976562 375.367188 C 151.976562 381.636719 156.363281 382.941406 159.265625 383.320312 C 182.023438 386.277344 199.566406 387.246094 222.320312 387.617188 L 226.726562 311.519531 C 226.804688 310.179688 221.714844 308.265625 215.316406 314.375 C 212.980469 316.609375 208.59375 316.464844 207.898438 313.546875 C 205.804688 304.785156 206.464844 294.902344 207.140625 283.796875 Z M 258.832031 283.796875 C 258.808594 283.410156 259.011719 283.058594 259.367188 282.894531 C 259.839844 282.664062 260.957031 282.75 262.195312 283.523438 L 281.867188 295.824219 C 305.886719 302.488281 312.523438 312.550781 313.996094 333.046875 L 313.996094 372.269531 C 313.996094 381.253906 309.613281 382.941406 306.707031 383.320312 C 283.953125 386.277344 266.410156 387.246094 243.652344 387.617188 L 239.246094 311.519531 C 239.167969 310.179688 244.261719 308.265625 250.65625 314.375 C 252.992188 316.609375 257.378906 316.464844 258.074219 313.546875 C 260.167969 304.785156 259.507812 294.902344 258.832031 283.796875 Z M 258.832031 283.796875 " fill-opacity="1" fill-rule="evenodd"/></g><g clip-path="url(#399d7d21ac)"><path fill="#0d68b1" d="M 570.578125 311.855469 C 563.84375 316.367188 554.421875 316.355469 547.6875 311.859375 C 547.476562 311.71875 547.222656 311.714844 547.003906 311.847656 C 546.789062 311.980469 546.679688 312.210938 546.710938 312.464844 C 547.976562 322.300781 548.652344 333.503906 548.652344 337.890625 L 548.652344 387.617188 C 555.640625 387.597656 562.625 387.578125 569.609375 387.550781 L 569.609375 337.890625 C 569.609375 333.503906 570.289062 322.292969 571.554688 312.460938 C 571.585938 312.210938 571.476562 311.976562 571.261719 311.839844 C 571.046875 311.710938 570.789062 311.714844 570.578125 311.855469 Z M 538.109375 288.164062 C 537.550781 286.296875 536.992188 284.4375 536.449219 282.589844 C 543.28125 288.003906 550.1875 293.222656 559.46875 293.152344 C 566.378906 293.105469 578.714844 285.757812 583.007812 279.925781 C 582.082031 282.644531 581.035156 285.308594 579.960938 287.964844 C 579.859375 288.21875 579.921875 288.492188 580.125 288.671875 C 580.328125 288.855469 580.605469 288.886719 580.847656 288.757812 C 583.191406 287.480469 585.511719 286.105469 587.699219 284.195312 C 590.363281 281.871094 592.835938 278.742188 595.304688 275.617188 C 594.4375 278.058594 593.578125 280.496094 592.710938 282.9375 C 596.09375 280.125 599.472656 277.304688 602.101562 274.527344 C 604.730469 271.746094 606.609375 269.007812 608.484375 266.261719 C 606.792969 254.285156 605.105469 242.300781 603.132812 232.761719 C 601.160156 223.222656 598.910156 216.125 595.832031 210.058594 C 592.75 203.992188 588.84375 198.960938 583.773438 194.789062 C 578.703125 190.621094 572.46875 187.316406 566.195312 186.058594 C 559.921875 184.800781 553.613281 185.585938 548.710938 187.335938 C 543.8125 189.082031 540.320312 191.785156 536.824219 194.488281 C 534.34375 195.390625 531.867188 196.292969 529.085938 198.355469 C 526.308594 200.421875 523.226562 203.652344 520.277344 210.941406 C 517.332031 218.226562 514.515625 229.570312 512.75 238.921875 C 510.984375 248.273438 510.269531 255.632812 509.953125 259.558594 C 509.632812 263.484375 509.707031 263.972656 510.683594 265.605469 C 511.660156 267.242188 513.535156 270.019531 515.921875 272.648438 C 518.308594 275.277344 521.199219 277.753906 524.089844 280.234375 C 523.753906 278.46875 523.414062 276.703125 523.078125 274.9375 C 528.507812 283.53125 529.277344 284.261719 537.183594 288.890625 C 537.414062 289.027344 537.6875 289.007812 537.894531 288.84375 C 538.101562 288.679688 538.183594 288.417969 538.109375 288.164062 Z M 531.304688 230.660156 C 532.3125 230.917969 533.320312 231.179688 534.324219 231.4375 C 534.6875 231.527344 535.035156 231.46875 535.339844 231.261719 C 535.652344 231.054688 535.839844 230.753906 535.890625 230.386719 C 536.292969 227.554688 536.796875 224.734375 537.988281 222.039062 C 539.378906 218.90625 541.707031 215.941406 544.035156 212.972656 C 542.644531 216.875 541.253906 220.785156 540.617188 223.730469 C 540.109375 226.09375 540.078125 227.835938 540.140625 229.460938 C 540.171875 230.136719 540.71875 230.667969 541.390625 230.675781 C 543.539062 230.703125 545.6875 230.730469 547.835938 230.757812 C 548.496094 230.765625 549.042969 230.277344 549.109375 229.621094 C 549.410156 226.628906 549.730469 223.675781 550.210938 221.0625 C 550.757812 218.117188 551.511719 215.601562 552.261719 213.082031 C 551.773438 217.101562 551.285156 221.121094 551.226562 224.238281 C 551.183594 226.757812 551.417969 228.6875 551.707031 230.503906 C 551.765625 230.851562 551.941406 231.132812 552.230469 231.335938 C 552.519531 231.542969 552.84375 231.609375 553.191406 231.542969 C 553.203125 231.542969 553.214844 231.539062 553.226562 231.539062 C 553.84375 231.421875 554.273438 230.882812 554.253906 230.257812 C 554.15625 227.128906 554.082031 224.019531 554.269531 221.140625 C 554.476562 217.929688 555.003906 215 555.527344 212.070312 C 555.488281 216.425781 555.453125 220.785156 555.621094 223.824219 C 555.78125 226.714844 556.128906 228.417969 556.484375 230.0625 C 556.523438 230.242188 556.589844 230.390625 556.699219 230.539062 C 556.808594 230.691406 556.921875 230.84375 557.03125 230.992188 C 557.296875 231.359375 557.699219 231.542969 558.144531 231.507812 C 561.253906 231.277344 564.367188 231.042969 567.480469 230.8125 C 567.925781 230.777344 568.296875 230.535156 568.503906 230.140625 C 568.710938 229.746094 568.703125 229.304688 568.480469 228.917969 C 567.613281 227.417969 566.824219 225.972656 566.304688 224.707031 C 565.59375 222.960938 565.402344 221.570312 565.21875 220.179688 C 566.496094 222.398438 567.773438 224.613281 569.652344 226.304688 C 570.441406 227.011719 571.34375 227.636719 572.300781 228.199219 C 572.78125 228.484375 573.371094 228.425781 573.785156 228.050781 C 574.203125 227.675781 574.324219 227.101562 574.09375 226.59375 C 574.011719 226.40625 573.933594 226.21875 573.859375 226.019531 C 573.183594 224.277344 572.804688 222.058594 572.429688 219.84375 C 574.082031 222.699219 575.738281 225.550781 577.875 227.542969 C 580.015625 229.535156 582.644531 230.664062 585.273438 231.785156 C 585.824219 238.511719 587.945312 266.371094 584.011719 271.019531 C 577.503906 278.792969 570.046875 285.917969 559.101562 286.566406 C 545.226562 285.738281 537.878906 276.054688 534.730469 271.664062 C 529.105469 265.035156 530.097656 239.445312 531.304688 230.660156 Z M 610.535156 387.441406 L 622.835938 387.441406 C 627.585938 387.441406 631.675781 385.628906 634.867188 382.109375 C 638.054688 378.59375 639.457031 374.34375 638.996094 369.617188 C 637.15625 350.949219 635.429688 325.265625 634.066406 320.566406 C 632.101562 313.773438 630.894531 311.308594 628.828125 309.761719 C 626.753906 308.214844 623.820312 307.585938 617.25 305.972656 L 610.894531 304.386719 C 607.054688 303.207031 603.707031 302.316406 600.613281 301.367188 C 594.09375 299.363281 588.679688 297.089844 582.105469 291.269531 C 581.847656 291.039062 581.492188 290.996094 581.183594 291.144531 C 580.867188 291.296875 580.6875 291.605469 580.710938 291.949219 C 581.59375 297.894531 580.476562 302.726562 578.105469 306.464844 C 576.019531 316.460938 574.730469 333.566406 574.730469 338.425781 L 574.730469 387.542969 C 586.636719 387.507812 598.5625 387.472656 610.535156 387.441406 Z M 507.734375 387.441406 L 495.429688 387.441406 C 490.675781 387.441406 486.59375 385.628906 483.402344 382.109375 C 480.210938 378.59375 478.808594 374.34375 479.269531 369.617188 C 481.113281 350.949219 482.839844 325.265625 484.199219 320.566406 C 486.164062 313.773438 487.371094 311.308594 489.441406 309.761719 C 491.511719 308.214844 494.445312 307.585938 501.015625 305.972656 L 507.371094 304.386719 C 511.214844 303.207031 514.558594 302.316406 517.65625 301.367188 C 524.171875 299.363281 529.585938 297.089844 536.164062 291.269531 C 536.421875 291.039062 536.773438 290.996094 537.085938 291.144531 C 537.398438 291.296875 537.578125 291.605469 537.558594 291.949219 C 536.671875 297.894531 537.789062 302.726562 540.164062 306.464844 C 542.25 316.460938 543.535156 333.566406 543.535156 338.425781 L 543.535156 387.542969 C 531.628906 387.507812 519.703125 387.472656 507.734375 387.441406 Z M 507.734375 387.441406 " fill-opacity="1" fill-rule="evenodd"/></g><path fill="#00b696" d="M 592 411.832031 C 592 436.414062 603.269531 458.847656 623.425781 473.054688 C 628.945312 476.953125 631.179688 483.734375 629.046875 490.140625 C 625.308594 501.375 620.789062 512.253906 615.546875 522.695312 C 612.519531 528.734375 606.148438 531.945312 599.492188 530.796875 C 576.574219 526.835938 552.140625 533.699219 534.445312 551.402344 C 516.742188 569.09375 509.886719 593.523438 513.84375 616.445312 C 514.996094 623.101562 511.785156 629.472656 505.746094 632.5 C 495.296875 637.738281 484.421875 642.269531 473.1875 646.003906 C 466.773438 648.132812 459.992188 645.90625 456.097656 640.375 C 442.695312 621.359375 420.558594 608.945312 395.527344 608.945312 C 370.496094 608.945312 348.359375 621.359375 334.960938 640.375 C 331.066406 645.898438 324.28125 648.132812 317.867188 646.003906 C 306.640625 642.269531 295.765625 637.742188 285.320312 632.5 C 279.285156 629.472656 276.066406 623.101562 277.21875 616.445312 C 281.175781 593.523438 274.3125 569.097656 256.613281 551.402344 C 238.917969 533.699219 214.488281 526.835938 191.570312 530.796875 C 184.914062 531.945312 178.550781 528.734375 175.519531 522.695312 C 170.277344 512.253906 165.746094 501.375 162.015625 490.140625 C 159.882812 483.734375 162.113281 476.945312 167.636719 473.054688 C 187.796875 458.847656 199.066406 436.414062 199.066406 411.832031 C 199.027344 407.574219 202.417969 404.15625 206.675781 404.15625 L 275.304688 404.15625 C 277.410156 404.15625 279.21875 404.90625 280.703125 406.402344 C 282.1875 407.890625 282.929688 409.707031 282.914062 411.808594 C 282.914062 474.402344 332.753906 525.101562 395.527344 525.101562 C 458.292969 525.101562 508.140625 474.402344 508.140625 411.808594 C 508.113281 407.5625 511.503906 404.15625 515.75 404.15625 L 584.390625 404.15625 C 588.648438 404.15625 592.039062 407.574219 592 411.832031 Z M 592 411.832031 " fill-opacity="1" fill-rule="evenodd"/></svg>