<svg xmlns="http://www.w3.org/2000/svg" xmlns:xlink="http://www.w3.org/1999/xlink" width="1000" zoomAndPan="magnify" viewBox="0 0 750 749.999995" height="1000" preserveAspectRatio="xMidYMid meet" version="1.0"><defs><clipPath id="d13f7ef6df"><path d="M 231 35 L 252 35 L 252 95 L 231 95 Z M 231 35 " clip-rule="nonzero"/></clipPath><clipPath id="b7bba72335"><path d="M 169.542969 -25.695312 L 278.914062 57.222656 L 109.449219 280.746094 L 0.078125 197.828125 Z M 169.542969 -25.695312 " clip-rule="nonzero"/></clipPath><clipPath id="f61ccce65d"><path d="M 169.542969 -25.695312 L 278.914062 57.222656 L 109.449219 280.746094 L 0.078125 197.828125 Z M 169.542969 -25.695312 " clip-rule="nonzero"/></clipPath><clipPath id="00679e763c"><path d="M 124 70 L 170 70 L 170 121 L 124 121 Z M 124 70 " clip-rule="nonzero"/></clipPath><clipPath id="215d910077"><path d="M 169.542969 -25.695312 L 278.914062 57.222656 L 109.449219 280.746094 L 0.078125 197.828125 Z M 169.542969 -25.695312 " clip-rule="nonzero"/></clipPath><clipPath id="225b835342"><path d="M 169.542969 -25.695312 L 278.914062 57.222656 L 109.449219 280.746094 L 0.078125 197.828125 Z M 169.542969 -25.695312 " clip-rule="nonzero"/></clipPath><clipPath id="99aa15dbd7"><path d="M 33 150 L 92 150 L 92 181 L 33 181 Z M 33 150 " clip-rule="nonzero"/></clipPath><clipPath id="1c487dbdb7"><path d="M 169.542969 -25.695312 L 278.914062 57.222656 L 109.449219 280.746094 L 0.078125 197.828125 Z M 169.542969 -25.695312 " clip-rule="nonzero"/></clipPath><clipPath id="fe6a77eda4"><path d="M 169.542969 -25.695312 L 278.914062 57.222656 L 109.449219 280.746094 L 0.078125 197.828125 Z M 169.542969 -25.695312 " clip-rule="nonzero"/></clipPath><clipPath id="332a3505da"><path d="M 33 202 L 59 202 L 59 219 L 33 219 Z M 33 202 " clip-rule="nonzero"/></clipPath><clipPath id="8f897edd01"><path d="M 169.542969 -25.695312 L 278.914062 57.222656 L 109.449219 280.746094 L 0.078125 197.828125 Z M 169.542969 -25.695312 " clip-rule="nonzero"/></clipPath><clipPath id="c5a7192f16"><path d="M 169.542969 -25.695312 L 278.914062 57.222656 L 109.449219 280.746094 L 0.078125 197.828125 Z M 169.542969 -25.695312 " clip-rule="nonzero"/></clipPath><clipPath id="89b3fb7d81"><path d="M 117 106 L 155 106 L 155 139 L 117 139 Z M 117 106 " clip-rule="nonzero"/></clipPath><clipPath id="5572963104"><path d="M 169.542969 -25.695312 L 278.914062 57.222656 L 109.449219 280.746094 L 0.078125 197.828125 Z M 169.542969 -25.695312 " clip-rule="nonzero"/></clipPath><clipPath id="18f3928f3d"><path d="M 169.542969 -25.695312 L 278.914062 57.222656 L 109.449219 280.746094 L 0.078125 197.828125 Z M 169.542969 -25.695312 " clip-rule="nonzero"/></clipPath><clipPath id="0323b823a8"><path d="M 526 110.816406 L 638.761719 110.816406 L 638.761719 223.980469 L 526 223.980469 Z M 526 110.816406 " clip-rule="nonzero"/></clipPath><clipPath id="6d0e2515da"><path d="M 246 110.816406 L 638.761719 110.816406 L 638.761719 638.816406 L 246 638.816406 Z M 246 110.816406 " clip-rule="nonzero"/></clipPath><clipPath id="f23040e55b"><path d="M 110.816406 166 L 395 166 L 395 451 L 110.816406 451 Z M 110.816406 166 " clip-rule="nonzero"/></clipPath><clipPath id="29f533b9bc"><path d="M 618 555 L 730 555 L 730 661 L 618 661 Z M 618 555 " clip-rule="nonzero"/></clipPath><clipPath id="e8476312a7"><path d="M 616.511719 663.34375 L 622.730469 548.761719 L 733.566406 554.78125 L 727.347656 669.363281 Z M 616.511719 663.34375 " clip-rule="nonzero"/></clipPath><clipPath id="13dba6775e"><path d="M 622.742188 548.589844 L 616.519531 663.167969 L 727.355469 669.1875 L 733.578125 554.605469 Z M 622.742188 548.589844 " clip-rule="nonzero"/></clipPath><clipPath id="7bd01111ab"><path d="M 158.769531 216.558594 L 346.710938 216.558594 L 346.710938 404.5 L 158.769531 404.5 Z M 158.769531 216.558594 " clip-rule="nonzero"/></clipPath><clipPath id="138e7986c9"><path d="M 252.738281 216.558594 C 200.839844 216.558594 158.769531 258.632812 158.769531 310.53125 C 158.769531 362.429688 200.839844 404.5 252.738281 404.5 C 304.636719 404.5 346.710938 362.429688 346.710938 310.53125 C 346.710938 258.632812 304.636719 216.558594 252.738281 216.558594 " clip-rule="nonzero"/></clipPath><clipPath id="d206e927b6"><path d="M 233 252 L 265 252 L 265 343 L 233 343 Z M 233 252 " clip-rule="nonzero"/></clipPath><clipPath id="60afc939ff"><path d="M 216.386719 259.738281 L 263.980469 249.183594 L 288.832031 361.207031 L 241.238281 371.765625 Z M 216.386719 259.738281 " clip-rule="nonzero"/></clipPath><clipPath id="b3a2beff57"><path d="M 216.386719 259.738281 L 263.980469 249.183594 L 288.832031 361.207031 L 241.238281 371.765625 Z M 216.386719 259.738281 " clip-rule="nonzero"/></clipPath><clipPath id="ffc0db6a6e"><path d="M 238 346 L 261 346 L 261 370 L 238 370 Z M 238 346 " clip-rule="nonzero"/></clipPath><clipPath id="27dde96669"><path d="M 216.386719 259.738281 L 263.980469 249.183594 L 288.832031 361.207031 L 241.238281 371.765625 Z M 216.386719 259.738281 " clip-rule="nonzero"/></clipPath><clipPath id="ebf4c29e26"><path d="M 216.386719 259.738281 L 263.980469 249.183594 L 288.832031 361.207031 L 241.238281 371.765625 Z M 216.386719 259.738281 " clip-rule="nonzero"/></clipPath></defs><rect x="-75" width="900" fill="#ffffff" y="-74.999999" height="899.999994" fill-opacity="1"/><rect x="-75" width="900" fill="#ffffff" y="-74.999999" height="899.999994" fill-opacity="1"/><g clip-path="url(#d13f7ef6df)"><g clip-path="url(#b7bba72335)"><g clip-path="url(#f61ccce65d)"><path fill="#00b696" d="M 251.023438 87.253906 C 251.023438 87.253906 251.042969 93.894531 244.210938 94.496094 C 237.382812 95.097656 236.113281 89.316406 235.839844 86.34375 C 234.878906 77.304688 231.109375 43.253906 231.109375 43.253906 C 231.109375 43.253906 231.289062 35.5625 239.917969 35.125 C 249.089844 34.609375 250.296875 41.425781 250.582031 45.011719 C 251.402344 55.507812 251.023438 87.253906 251.023438 87.253906 Z M 251.023438 87.253906 " fill-opacity="1" fill-rule="nonzero"/></g></g></g><g clip-path="url(#00679e763c)"><g clip-path="url(#215d910077)"><g clip-path="url(#225b835342)"><path fill="#00b696" d="M 167.503906 108.59375 C 167.503906 108.59375 171.824219 113.675781 166.96875 118.183594 C 162.203125 122.878906 157.46875 119.289062 155.410156 117.25 C 148.886719 111.097656 126.816406 85.332031 126.816406 85.332031 C 126.816406 85.332031 120.203125 78.511719 129.136719 72.28125 C 136.183594 67.265625 141.015625 74.058594 141.015625 74.058594 Z M 167.503906 108.59375 " fill-opacity="1" fill-rule="nonzero"/></g></g></g><g clip-path="url(#99aa15dbd7)"><g clip-path="url(#1c487dbdb7)"><g clip-path="url(#fe6a77eda4)"><path fill="#00b696" d="M 86.304688 165.890625 C 86.304688 165.890625 92.714844 167.742188 91.144531 174.257812 C 89.570312 180.773438 83.820312 180.265625 80.949219 179.773438 C 72.15625 178.046875 39.632812 168.441406 39.632812 168.441406 C 39.632812 168.441406 30.382812 166.367188 34.472656 156.21875 C 37.816406 148.160156 45.429688 151.28125 45.429688 151.28125 Z M 86.304688 165.890625 " fill-opacity="1" fill-rule="nonzero"/></g></g></g><g clip-path="url(#332a3505da)"><g clip-path="url(#8f897edd01)"><g clip-path="url(#c5a7192f16)"><path fill="#00b696" d="M 50.574219 218.886719 C 50.574219 218.886719 56.78125 219.738281 58.46875 213.550781 C 60.679688 205.714844 51.523438 204.3125 51.523438 204.3125 C 51.523438 204.3125 38.59375 198.84375 34.765625 207.382812 C 29.226562 219.921875 50.574219 218.886719 50.574219 218.886719 Z M 50.574219 218.886719 " fill-opacity="1" fill-rule="nonzero"/></g></g></g><g clip-path="url(#89b3fb7d81)"><g clip-path="url(#5572963104)"><g clip-path="url(#18f3928f3d)"><path fill="#00b696" d="M 120.796875 120.871094 C 118.65625 119.25 115.351562 117.105469 120.746094 109.992188 C 125.210938 104.105469 130.65625 107.390625 133.097656 109.246094 C 138.402344 113.507812 147.261719 120.222656 153.433594 127.308594 C 158.136719 132.683594 150.222656 141.855469 143.882812 137.53125 C 139.050781 134.226562 127.441406 125.90625 120.796875 120.871094 Z M 120.796875 120.871094 " fill-opacity="1" fill-rule="nonzero"/></g></g></g><g clip-path="url(#0323b823a8)"><path fill="#0d68b1" d="M 563.980469 206.902344 L 610.605469 206.902344 L 542.554688 138.933594 L 542.554688 185.515625 C 542.554688 191.410156 544.953125 196.753906 548.820312 200.613281 C 552.703125 204.496094 558.070312 206.902344 563.980469 206.902344 Z M 630.507812 223.40625 L 563.980469 223.40625 C 553.566406 223.40625 544.085938 219.144531 537.214844 212.28125 C 530.328125 205.398438 526.050781 195.925781 526.050781 185.515625 L 526.050781 119.070312 C 526.050781 114.511719 529.746094 110.816406 534.300781 110.816406 C 536.800781 110.816406 539.039062 111.929688 540.554688 113.6875 L 636.3125 209.320312 L 630.507812 215.15625 L 636.339844 209.316406 C 639.5625 212.539062 639.566406 217.757812 636.351562 220.988281 C 634.738281 222.597656 632.625 223.40625 630.507812 223.40625 " fill-opacity="1" fill-rule="nonzero"/></g><g clip-path="url(#6d0e2515da)"><path fill="#0d68b1" d="M 262.589844 450.15625 L 262.589844 600.984375 C 262.589844 606.875 264.988281 612.21875 268.855469 616.085938 C 272.746094 619.960938 278.109375 622.375 284.011719 622.375 L 600.832031 622.375 C 606.738281 622.375 612.105469 619.960938 615.988281 616.085938 C 619.859375 612.21875 622.261719 606.875 622.261719 600.984375 L 622.261719 218.542969 L 530.921875 127.320312 L 284.011719 127.320312 C 278.109375 127.320312 272.746094 129.730469 268.855469 133.609375 C 264.988281 137.46875 262.589844 142.816406 262.589844 148.710938 L 262.589844 167.078125 C 298.175781 169.507812 330.152344 185.042969 353.734375 208.890625 C 379.074219 234.523438 394.726562 269.746094 394.726562 308.617188 C 394.726562 347.488281 379.074219 382.71875 353.734375 408.351562 C 330.152344 432.199219 298.175781 447.726562 262.589844 450.15625 Z M 246.085938 575.5625 L 246.085938 442.265625 C 246.085938 437.710938 249.78125 434.019531 254.335938 434.019531 C 254.53125 434.019531 254.726562 434.023438 254.921875 434.035156 C 288.964844 433.480469 319.71875 419.351562 342.003906 396.8125 C 364.398438 374.164062 378.226562 343.011719 378.226562 308.617188 C 378.226562 274.226562 364.398438 243.078125 342.003906 220.425781 C 319.578125 197.75 288.574219 183.574219 254.273438 183.191406 L 254.335938 174.96875 L 254.246094 183.222656 C 249.71875 183.171875 246.085938 179.484375 246.085938 174.96875 L 246.085938 148.710938 C 246.085938 138.296875 250.363281 128.824219 257.257812 121.941406 C 264.128906 115.074219 273.601562 110.816406 284.011719 110.816406 L 534.300781 110.816406 C 536.800781 110.816406 539.039062 111.929688 540.554688 113.6875 L 636.3125 209.320312 L 630.507812 215.15625 L 636.339844 209.316406 C 637.957031 210.925781 638.761719 213.042969 638.761719 215.15625 L 638.761719 600.984375 C 638.761719 611.390625 634.480469 620.871094 627.59375 627.75 C 620.722656 634.613281 611.25 638.875 600.832031 638.875 L 284.011719 638.875 C 273.601562 638.875 264.128906 634.613281 257.257812 627.75 C 250.363281 620.871094 246.085938 611.390625 246.085938 600.984375 L 246.085938 575.5625 " fill-opacity="1" fill-rule="nonzero"/></g><g clip-path="url(#f23040e55b)"><path fill="#0d68b1" d="M 378.226562 308.617188 C 378.226562 239.355469 322.074219 183.207031 252.808594 183.207031 C 218.171875 183.207031 186.820312 197.238281 164.125 219.933594 C 141.429688 242.628906 127.390625 273.988281 127.390625 308.617188 C 127.390625 343.253906 141.429688 374.605469 164.125 397.300781 C 186.820312 419.996094 218.171875 434.035156 252.808594 434.035156 C 287.4375 434.035156 318.796875 419.996094 341.492188 397.300781 C 364.1875 374.605469 378.226562 343.253906 378.226562 308.617188 Z M 252.808594 166.707031 C 331.183594 166.707031 394.726562 230.242188 394.726562 308.617188 C 394.726562 347.808594 378.839844 383.289062 353.15625 408.972656 C 327.472656 434.652344 292 450.535156 252.808594 450.535156 C 213.617188 450.535156 178.140625 434.652344 152.457031 408.972656 C 126.773438 383.289062 110.890625 347.808594 110.890625 308.617188 C 110.890625 269.433594 126.773438 233.953125 152.457031 208.269531 C 178.140625 182.585938 213.617188 166.707031 252.808594 166.707031 " fill-opacity="1" fill-rule="nonzero"/></g><path fill="#0d68b1" d="M 284.496094 349.226562 L 320.03125 349.226562 L 320.03125 337.007812 L 297.929688 337.007812 L 297.929688 263.742188 L 284.496094 263.742188 Z M 248.472656 283.40625 C 248.492188 280.371094 249.125 278.210938 250.34375 276.890625 C 251.585938 275.589844 253.277344 274.9375 255.433594 274.976562 C 257.589844 274.9375 259.28125 275.589844 260.519531 276.890625 C 261.742188 278.210938 262.375 280.371094 262.394531 283.40625 L 262.394531 329.5625 C 262.375 332.59375 261.742188 334.753906 260.519531 336.074219 C 259.28125 337.378906 257.589844 338.027344 255.433594 337.988281 C 253.277344 338.027344 251.585938 337.378906 250.34375 336.074219 C 249.125 334.753906 248.492188 332.59375 248.472656 329.5625 Z M 235.042969 328.707031 C 235.042969 333.289062 235.832031 337.15625 237.402344 340.351562 C 238.96875 343.546875 241.246094 345.984375 244.28125 347.675781 C 247.3125 349.347656 251.039062 350.179688 255.433594 350.199219 C 257.207031 350.199219 258.871094 350.058594 260.457031 349.773438 C 262.027344 349.488281 263.488281 349.101562 264.835938 348.613281 C 265.75 350.46875 267.15625 351.886719 269.089844 352.90625 C 271.003906 353.945312 273.445312 354.457031 276.4375 354.472656 L 278.265625 354.472656 L 278.265625 342.503906 L 277.046875 342.503906 C 275.96875 342.527344 275.132812 342.425781 274.5625 342.179688 C 273.976562 341.957031 273.542969 341.445312 273.257812 340.675781 C 274.113281 339.085938 274.765625 337.296875 275.195312 335.28125 C 275.621094 333.289062 275.828125 331.089844 275.828125 328.707031 L 275.828125 284.253906 C 275.828125 279.679688 275.03125 275.796875 273.464844 272.59375 C 271.898438 269.40625 269.617188 266.980469 266.582031 265.292969 C 263.550781 263.617188 259.828125 262.785156 255.433594 262.769531 C 251.039062 262.785156 247.3125 263.617188 244.28125 265.292969 C 241.246094 266.980469 238.96875 269.40625 237.402344 272.59375 C 235.832031 275.796875 235.042969 279.679688 235.042969 284.253906 Z M 188.757812 284.253906 C 188.757812 286.679688 188.984375 288.976562 189.488281 291.160156 C 189.980469 293.335938 190.792969 295.472656 191.933594 297.589844 C 193.074219 299.6875 194.582031 301.824219 196.496094 304.019531 C 198.386719 306.21875 200.746094 308.539062 203.535156 311 C 206.441406 313.542969 208.742188 315.824219 210.417969 317.839844 C 212.101562 319.875 213.28125 321.828125 213.996094 323.699219 C 214.683594 325.550781 215.03125 327.507812 215.015625 329.5625 C 215.015625 331.597656 214.730469 333.203125 214.160156 334.425781 C 213.589844 335.648438 212.792969 336.523438 211.757812 337.070312 C 210.71875 337.625 209.476562 337.886719 208.054688 337.867188 C 206.628906 337.886719 205.386719 337.625 204.351562 337.070312 C 203.308594 336.523438 202.515625 335.648438 201.949219 334.425781 C 201.378906 333.203125 201.09375 331.597656 201.09375 329.5625 L 201.09375 323.457031 L 188.390625 323.457031 L 188.390625 328.707031 C 188.390625 333.289062 189.148438 337.15625 190.652344 340.351562 C 192.15625 343.546875 194.394531 345.984375 197.367188 347.675781 C 200.339844 349.347656 204.027344 350.179688 208.417969 350.199219 C 212.816406 350.179688 216.5 349.347656 219.46875 347.675781 C 222.441406 345.984375 224.679688 343.546875 226.183594 340.351562 C 227.695312 337.15625 228.445312 333.289062 228.445312 328.707031 C 228.46875 326.289062 228.222656 323.984375 227.710938 321.808594 C 227.226562 319.613281 226.414062 317.476562 225.273438 315.378906 C 224.128906 313.277344 222.625 311.140625 220.710938 308.941406 C 218.820312 306.75 216.480469 304.425781 213.671875 301.964844 C 210.757812 299.417969 208.457031 297.140625 206.789062 295.105469 C 205.101562 293.089844 203.917969 291.136719 203.210938 289.261719 C 202.515625 287.410156 202.167969 285.4375 202.191406 283.40625 C 202.214844 280.371094 202.785156 278.210938 203.941406 276.890625 C 205.101562 275.589844 206.75 274.9375 208.90625 274.976562 C 211.066406 274.9375 212.714844 275.589844 213.875 276.890625 C 215.03125 278.210938 215.601562 280.371094 215.625 283.40625 L 215.625 286.945312 L 228.320312 286.945312 L 228.320312 284.253906 C 228.320312 279.679688 227.570312 275.796875 226.105469 272.59375 C 224.617188 269.40625 222.402344 266.980469 219.46875 265.292969 C 216.539062 263.617188 212.894531 262.785156 208.542969 262.769531 C 204.1875 262.785156 200.546875 263.617188 197.613281 265.292969 C 194.679688 266.980469 192.464844 269.40625 190.976562 272.59375 C 189.511719 275.796875 188.757812 279.679688 188.757812 284.253906 " fill-opacity="1" fill-rule="nonzero"/><path fill="#00b696" d="M 563.878906 432.6875 L 394.433594 432.6875 C 391.324219 432.6875 388.480469 433.972656 386.421875 436.03125 C 384.359375 438.097656 383.078125 440.933594 383.078125 444.050781 L 383.078125 487.347656 C 383.078125 490.464844 384.359375 493.308594 386.421875 495.367188 C 388.480469 497.433594 391.324219 498.714844 394.433594 498.714844 L 563.878906 498.714844 C 566.988281 498.714844 569.832031 497.433594 571.890625 495.367188 C 573.957031 493.308594 575.238281 490.464844 575.238281 487.347656 L 575.238281 444.050781 C 575.238281 440.933594 573.957031 438.097656 571.890625 436.03125 C 569.832031 433.972656 566.988281 432.6875 563.878906 432.6875 Z M 394.433594 416.191406 L 563.878906 416.191406 C 571.550781 416.191406 578.515625 419.320312 583.558594 424.367188 C 588.605469 429.40625 591.738281 436.378906 591.738281 444.050781 L 591.738281 487.347656 C 591.738281 495.019531 588.605469 501.988281 583.558594 507.035156 C 578.515625 512.082031 571.550781 515.214844 563.878906 515.214844 L 394.433594 515.214844 C 386.765625 515.214844 379.796875 512.082031 374.75 507.035156 C 369.707031 501.988281 366.574219 495.019531 366.574219 487.347656 L 366.574219 444.050781 C 366.574219 436.378906 369.707031 429.40625 374.75 424.367188 C 379.796875 419.320312 386.765625 416.191406 394.433594 416.191406 " fill-opacity="1" fill-rule="nonzero"/><path fill="#00b696" d="M 550.273438 459.4375 C 554.820312 459.4375 558.527344 455.730469 558.527344 451.1875 C 558.527344 446.640625 554.820312 442.9375 550.273438 442.9375 C 545.730469 442.9375 542.023438 446.640625 542.023438 451.1875 C 542.023438 455.730469 545.730469 459.4375 550.273438 459.4375 " fill-opacity="1" fill-rule="evenodd"/><path fill="#00b696" d="M 550.273438 488.46875 C 554.820312 488.46875 558.527344 484.757812 558.527344 480.214844 C 558.527344 475.671875 554.820312 471.960938 550.273438 471.960938 C 545.730469 471.960938 542.023438 475.671875 542.023438 480.214844 C 542.023438 484.757812 545.730469 488.46875 550.273438 488.46875 " fill-opacity="1" fill-rule="evenodd"/><path fill="#00b696" d="M 401.078125 443.40625 L 504 443.40625 L 504 459.902344 L 401.078125 459.902344 L 401.078125 443.40625 " fill-opacity="1" fill-rule="nonzero"/><path fill="#00b696" d="M 401.078125 471.496094 L 504 471.496094 L 504 488 L 401.078125 488 L 401.078125 471.496094 " fill-opacity="1" fill-rule="nonzero"/><path fill="#00b696" d="M 563.878906 597.738281 L 394.433594 597.738281 C 386.765625 597.738281 379.796875 594.605469 374.75 589.5625 C 369.707031 584.515625 366.574219 577.550781 366.574219 569.878906 L 366.574219 526.574219 C 366.574219 518.902344 369.707031 511.9375 374.75 506.890625 C 379.796875 501.847656 386.765625 498.714844 394.433594 498.714844 L 563.878906 498.714844 C 571.550781 498.714844 578.515625 501.847656 583.558594 506.890625 C 588.605469 511.9375 591.738281 518.902344 591.738281 526.574219 L 591.738281 569.878906 C 591.738281 577.550781 588.605469 584.515625 583.558594 589.5625 C 578.515625 594.605469 571.550781 597.738281 563.878906 597.738281 Z M 394.433594 581.234375 L 563.878906 581.234375 C 566.988281 581.234375 569.832031 579.953125 571.890625 577.890625 C 573.957031 575.832031 575.238281 572.988281 575.238281 569.878906 L 575.238281 526.574219 C 575.238281 523.457031 573.957031 520.621094 571.890625 518.554688 C 569.832031 516.496094 566.988281 515.214844 563.878906 515.214844 L 394.433594 515.214844 C 391.324219 515.214844 388.480469 516.496094 386.421875 518.554688 C 384.359375 520.621094 383.078125 523.457031 383.078125 526.574219 L 383.078125 569.878906 C 383.078125 572.988281 384.359375 575.832031 386.421875 577.890625 C 388.480469 579.953125 391.324219 581.234375 394.433594 581.234375 " fill-opacity="1" fill-rule="nonzero"/><path fill="#00b696" d="M 550.273438 570.992188 C 554.820312 570.992188 558.527344 567.28125 558.527344 562.738281 C 558.527344 558.195312 554.820312 554.488281 550.273438 554.488281 C 545.730469 554.488281 542.023438 558.195312 542.023438 562.738281 C 542.023438 567.28125 545.730469 570.992188 550.273438 570.992188 " fill-opacity="1" fill-rule="evenodd"/><path fill="#00b696" d="M 550.273438 541.960938 C 554.820312 541.960938 558.527344 538.257812 558.527344 533.714844 C 558.527344 529.171875 554.820312 525.460938 550.273438 525.460938 C 545.730469 525.460938 542.023438 529.171875 542.023438 533.714844 C 542.023438 538.257812 545.730469 541.960938 550.273438 541.960938 " fill-opacity="1" fill-rule="evenodd"/><path fill="#00b696" d="M 401.078125 554.019531 L 504 554.019531 L 504 570.519531 L 401.078125 570.519531 L 401.078125 554.019531 " fill-opacity="1" fill-rule="nonzero"/><path fill="#00b696" d="M 401.078125 525.929688 L 504 525.929688 L 504 542.429688 L 401.078125 542.429688 L 401.078125 525.929688 " fill-opacity="1" fill-rule="nonzero"/><g clip-path="url(#29f533b9bc)"><g clip-path="url(#e8476312a7)"><g clip-path="url(#13dba6775e)"><path fill="#0d68b1" d="M 621.109375 657.050781 C 617.082031 655.621094 619.171875 649.3125 623.226562 650.753906 C 639.640625 656.582031 661.28125 655.097656 669.96875 638.488281 C 667.871094 638.5625 665.769531 638.449219 663.695312 638.148438 C 655.5625 636.882812 647.648438 631.652344 645.6875 623.285156 C 643.957031 615.875 647.222656 607.78125 654.613281 605.015625 C 662.78125 601.933594 671.410156 606.261719 675.867188 613.300781 C 678.992188 618.417969 680.257812 624.449219 679.460938 630.386719 C 692.71875 626.117188 704.863281 614.367188 711.554688 604.050781 C 719.390625 592.09375 725.175781 574.199219 722.460938 559.871094 C 721.660156 555.679688 728.097656 554.246094 728.964844 558.457031 C 732.234375 574.835938 725.808594 594.941406 716.578125 608.566406 C 708.027344 621.175781 693.558594 633.984375 677.671875 637.5625 L 677.527344 637.96875 C 668.472656 660.648438 641.921875 664.445312 621.109375 657.050781 Z M 661.160156 610.636719 C 654.605469 610.070312 650.707031 615.828125 652.207031 621.816406 C 653.476562 626.898438 658.214844 630.042969 663.054688 631.238281 C 666.097656 631.96875 669.242188 632.175781 672.355469 631.847656 C 674.089844 623.230469 671.300781 611.519531 661.160156 610.636719 Z M 661.160156 610.636719 " fill-opacity="1" fill-rule="nonzero"/></g></g></g><g clip-path="url(#7bd01111ab)"><g clip-path="url(#138e7986c9)"><path fill="#00b696" d="M 158.769531 216.558594 L 346.710938 216.558594 L 346.710938 404.5 L 158.769531 404.5 Z M 158.769531 216.558594 " fill-opacity="1" fill-rule="nonzero"/></g></g><g clip-path="url(#d206e927b6)"><g clip-path="url(#60afc939ff)"><g clip-path="url(#b3a2beff57)"><path fill="#ffffff" d="M 235.011719 256.167969 C 235.019531 256.214844 235.019531 256.214844 235.019531 256.214844 C 234.972656 256.222656 234.972656 256.222656 234.917969 256.1875 C 234.859375 256.152344 234.742188 256.277344 234.539062 256.46875 C 234.347656 256.707031 234.203125 256.933594 234.171875 257.234375 C 234.128906 257.492188 234.089844 257.746094 233.945312 257.972656 C 233.84375 258.191406 233.871094 258.527344 233.984375 259.042969 C 234.097656 259.558594 234.160156 259.839844 234.144531 259.988281 C 234.085938 260.148438 234.136719 260.382812 234.1875 260.617188 C 234.296875 260.886719 234.300781 261.132812 234.296875 261.328125 C 234.292969 261.527344 234.230469 261.6875 234.167969 261.847656 C 234.105469 262.007812 234.042969 262.171875 234.085938 262.359375 C 234.125 262.542969 234.195312 262.628906 234.203125 262.675781 C 234.25 262.664062 234.28125 262.804688 234.242188 263.058594 C 234.199219 263.3125 234.25 263.546875 234.324219 263.875 C 234.386719 264.15625 234.390625 264.398438 234.363281 264.503906 C 234.304688 264.664062 234.335938 264.804688 234.375 264.992188 C 234.464844 265.167969 234.457031 265.367188 234.398438 265.527344 C 234.335938 265.6875 234.386719 266.363281 234.5625 267.597656 C 234.738281 268.835938 234.792969 269.511719 234.691406 269.730469 C 234.59375 269.945312 234.636719 270.132812 234.6875 270.367188 C 234.738281 270.601562 234.78125 270.789062 234.730469 270.996094 C 234.734375 271.242188 234.714844 271.589844 234.828125 272.101562 C 234.933594 272.570312 234.910156 272.917969 234.847656 273.078125 C 234.789062 273.242188 234.792969 273.484375 234.941406 273.941406 C 235.09375 274.398438 235.121094 274.738281 235.066406 274.945312 C 235.027344 275.199219 235.0625 275.582031 235.128906 276.109375 C 235.199219 276.632812 235.253906 277.109375 235.234375 277.457031 C 235.214844 277.808594 235.222656 278.296875 235.328125 278.761719 C 235.429688 279.230469 235.457031 279.566406 235.347656 279.738281 C 235.238281 279.910156 235.28125 280.097656 235.390625 280.367188 C 235.5 280.636719 235.539062 280.824219 235.476562 280.984375 C 235.464844 281.136719 235.449219 281.289062 235.515625 281.371094 C 235.523438 281.417969 235.59375 281.5 235.601562 281.546875 C 235.554688 281.558594 235.554688 281.558594 235.554688 281.558594 C 235.507812 281.566406 235.507812 281.566406 235.464844 281.578125 C 235.519531 281.613281 235.539062 281.707031 235.597656 281.746094 C 235.675781 281.875 235.679688 282.117188 235.640625 282.375 C 235.597656 282.628906 235.585938 283.023438 235.671875 283.394531 C 235.707031 283.78125 235.710938 284.023438 235.648438 284.1875 C 235.589844 284.347656 235.582031 284.542969 235.679688 284.769531 C 235.789062 285.039062 235.84375 285.273438 235.894531 285.503906 C 235.898438 285.75 235.90625 285.992188 235.851562 286.203125 C 235.8125 286.457031 235.804688 286.652344 235.847656 286.839844 C 235.898438 287.074219 235.882812 287.226562 235.847656 287.28125 C 235.820312 287.386719 235.835938 287.675781 236.007812 288.226562 C 236.179688 288.777344 236.160156 289.125 236.109375 289.335938 C 236.054688 289.542969 235.992188 289.703125 236.082031 289.878906 C 236.171875 290.054688 236.175781 290.300781 236.191406 290.589844 C 236.160156 290.890625 236.203125 291.078125 236.230469 291.21875 C 236.308594 291.351562 236.285156 291.453125 236.269531 291.605469 C 236.253906 291.753906 236.269531 292.046875 236.363281 292.464844 C 236.457031 292.886719 236.457031 293.328125 236.410156 293.78125 C 236.363281 294.234375 236.382812 294.769531 236.519531 295.375 C 236.652344 295.984375 236.746094 296.402344 236.695312 296.613281 C 236.691406 296.808594 236.664062 296.914062 236.617188 296.921875 C 236.570312 296.933594 236.574219 297.179688 236.691406 297.691406 C 236.746094 298.171875 236.761719 298.460938 236.738281 298.566406 C 236.710938 298.667969 236.707031 298.867188 236.777344 299.195312 C 236.898438 299.511719 236.902344 299.753906 236.820312 299.820312 C 236.746094 299.9375 236.742188 300.132812 236.839844 300.355469 C 236.902344 300.636719 236.933594 300.777344 236.863281 300.890625 C 236.789062 301.007812 236.773438 301.15625 236.851562 301.285156 C 236.929688 301.417969 237.011719 301.792969 237.089844 302.363281 C 237.167969 302.933594 237.148438 303.28125 237.074219 303.394531 C 237.003906 303.511719 236.960938 303.765625 236.996094 304.148438 C 236.988281 304.542969 237.058594 304.871094 237.179688 305.1875 C 237.296875 305.503906 237.339844 305.691406 237.230469 305.863281 C 237.167969 306.023438 237.152344 306.175781 237.207031 306.410156 C 237.226562 306.503906 237.246094 306.597656 237.269531 306.691406 C 237.222656 306.699219 237.222656 306.699219 237.175781 306.710938 C 237.128906 306.722656 237.128906 306.722656 237.082031 306.730469 C 237.113281 306.871094 237.191406 307 237.210938 307.09375 C 237.273438 307.375 237.289062 307.667969 237.269531 308.015625 C 237.199219 308.371094 237.285156 308.746094 237.367188 309.121094 C 237.496094 309.484375 237.53125 309.867188 237.464844 310.226562 C 237.386719 310.539062 237.460938 310.867188 237.570312 311.136719 C 237.679688 311.40625 237.695312 311.699219 237.652344 311.953125 C 237.609375 312.207031 237.59375 312.355469 237.664062 312.441406 C 237.671875 312.488281 237.695312 312.582031 237.648438 312.589844 C 237.601562 312.601562 237.585938 312.75 237.636719 312.984375 C 237.6875 313.21875 237.671875 313.371094 237.613281 313.53125 C 237.550781 313.691406 237.566406 313.984375 237.695312 314.347656 C 237.789062 314.765625 237.828125 314.953125 237.792969 315.011719 C 237.757812 315.070312 237.742188 315.21875 237.8125 315.546875 C 237.886719 315.875 237.84375 316.128906 237.820312 316.230469 C 237.804688 316.382812 237.792969 316.777344 237.890625 317.441406 C 237.992188 318.109375 238.027344 318.492188 237.945312 318.558594 C 237.90625 318.617188 237.882812 318.71875 237.914062 318.859375 C 237.945312 319 237.964844 319.09375 237.871094 319.117188 C 237.835938 319.171875 237.855469 319.265625 237.910156 319.5 C 237.960938 319.734375 238 319.921875 237.929688 320.035156 C 237.855469 320.148438 237.886719 320.289062 237.917969 320.429688 C 237.949219 320.570312 238.007812 320.605469 238.054688 320.597656 C 238.054688 320.597656 238.109375 320.632812 238.15625 320.621094 C 238.109375 320.632812 238.109375 320.632812 238.0625 320.644531 C 238.015625 320.652344 238.015625 320.652344 237.972656 320.664062 C 237.992188 320.757812 238.058594 320.839844 238.070312 320.886719 C 238.15625 321.0625 238.164062 321.308594 238.152344 321.703125 C 238.140625 322.097656 238.167969 322.433594 238.242188 322.761719 C 238.3125 323.089844 238.328125 323.378906 238.277344 323.589844 C 238.226562 323.796875 238.242188 324.085938 238.359375 324.402344 C 238.433594 324.730469 238.472656 324.917969 238.402344 325.03125 C 238.328125 325.144531 238.359375 325.285156 238.414062 325.519531 C 238.5 325.695312 238.507812 325.941406 238.445312 326.101562 C 238.390625 326.308594 238.398438 326.554688 238.527344 326.917969 C 238.609375 327.292969 238.660156 327.527344 238.589844 327.640625 C 238.515625 327.753906 238.53125 328.046875 238.578125 328.476562 C 238.636719 328.953125 238.652344 329.246094 238.625 329.347656 C 238.601562 329.453125 238.578125 329.800781 238.683594 330.269531 C 238.796875 330.78125 238.8125 331.074219 238.75 331.234375 C 238.6875 331.394531 238.71875 331.535156 238.75 331.675781 C 238.78125 331.816406 238.804688 331.910156 238.757812 331.921875 C 238.710938 331.929688 238.742188 332.070312 238.792969 332.304688 C 238.878906 332.480469 238.886719 332.726562 238.835938 332.933594 C 238.78125 333.140625 238.789062 333.386719 238.90625 333.703125 C 238.980469 334.03125 239.035156 334.507812 238.984375 335.15625 C 238.980469 335.796875 238.980469 336.238281 239.078125 336.460938 C 239.175781 336.683594 239.183594 336.929688 239.128906 337.136719 C 239.089844 337.390625 239.074219 337.539062 239.152344 337.671875 C 239.230469 337.800781 239.269531 337.988281 239.171875 338.207031 C 239.132812 338.460938 239.136719 338.703125 239.234375 338.929688 C 239.265625 339.066406 239.34375 339.199219 239.363281 339.292969 C 239.363281 339.292969 239.316406 339.300781 239.316406 339.300781 C 239.269531 339.3125 239.285156 339.601562 239.328125 340.230469 C 239.371094 340.859375 239.566406 341.308594 239.847656 341.6875 C 240.125 342.066406 240.421875 342.296875 240.78125 342.363281 C 241.136719 342.429688 241.53125 342.441406 241.902344 342.359375 C 242.285156 342.324219 242.507812 342.226562 242.546875 342.167969 C 242.582031 342.109375 242.582031 342.109375 242.628906 342.101562 C 242.683594 342.136719 242.730469 342.125 242.742188 342.171875 C 242.855469 342.246094 243.089844 342.195312 243.554688 342.089844 C 244.011719 341.941406 244.253906 341.9375 244.3125 341.972656 C 244.367188 342.007812 244.601562 341.957031 245.066406 341.851562 C 245.535156 341.75 245.8125 341.6875 245.929688 341.761719 C 246.042969 341.832031 246.144531 341.859375 246.296875 341.875 C 246.445312 341.890625 246.480469 341.835938 246.566406 341.765625 C 246.648438 341.699219 246.742188 341.679688 246.890625 341.695312 C 247.042969 341.710938 247.507812 341.605469 248.253906 341.441406 C 249 341.277344 249.429688 341.230469 249.53125 341.253906 C 249.636719 341.28125 249.925781 341.265625 250.300781 341.183594 C 250.71875 341.089844 250.960938 341.085938 251.019531 341.121094 C 251.078125 341.160156 251.355469 341.097656 251.8125 340.945312 C 252.265625 340.796875 252.546875 340.734375 252.605469 340.769531 C 252.707031 340.796875 252.847656 340.765625 253.128906 340.703125 C 253.40625 340.640625 253.605469 340.648438 253.753906 340.664062 C 253.902344 340.679688 254.101562 340.683594 254.371094 340.574219 C 254.640625 340.464844 254.917969 340.402344 255.171875 340.445312 C 255.425781 340.488281 255.613281 340.445312 255.742188 340.367188 C 255.871094 340.289062 256.105469 340.238281 256.507812 340.296875 C 256.902344 340.308594 257.191406 340.292969 257.3125 340.167969 C 257.441406 340.089844 257.597656 339.90625 257.742188 339.679688 C 257.886719 339.453125 257.929688 339.195312 257.945312 339.046875 C 257.902344 338.859375 257.9375 338.800781 257.984375 338.792969 C 258.03125 338.78125 258.058594 338.675781 258.121094 338.515625 C 258.171875 338.308594 258.128906 338.121094 258.066406 337.839844 C 258.003906 337.5625 258.019531 337.410156 258.058594 337.351562 C 258.140625 337.285156 258.191406 337.078125 258.25 336.671875 C 258.304688 336.265625 258.300781 336.023438 258.25 335.789062 C 258.207031 335.601562 258.210938 335.40625 258.3125 335.1875 C 258.417969 335.015625 258.425781 334.820312 258.382812 334.632812 C 258.339844 334.445312 258.382812 334.191406 258.449219 333.832031 C 258.527344 333.519531 258.523438 333.277344 258.492188 333.136719 C 258.480469 333.089844 258.414062 333.003906 258.402344 332.957031 C 258.449219 332.949219 258.449219 332.949219 258.496094 332.9375 C 258.542969 332.929688 258.570312 332.824219 258.539062 332.683594 C 258.542969 332.484375 258.570312 332.382812 258.640625 332.269531 C 258.722656 332.199219 258.730469 332.003906 258.667969 331.722656 C 258.605469 331.441406 258.636719 331.140625 258.738281 330.726562 C 258.84375 330.308594 258.878906 329.8125 258.847656 329.230469 C 258.816406 328.648438 258.835938 328.300781 258.898438 328.140625 C 258.960938 327.976562 258.964844 327.78125 258.949219 327.488281 C 258.933594 327.199219 258.988281 326.992188 259.023438 326.933594 C 259.09375 326.820312 259.15625 326.660156 259.105469 326.425781 C 259.101562 326.179688 259.117188 326.03125 259.164062 326.019531 C 259.199219 325.960938 259.214844 325.8125 259.140625 325.484375 C 259.070312 325.15625 259.0625 324.914062 259.070312 324.714844 C 259.121094 324.507812 259.148438 324.40625 259.191406 324.394531 C 259.238281 324.382812 259.253906 324.234375 259.203125 324 C 259.152344 323.765625 259.191406 323.511719 259.28125 323.246094 C 259.367188 322.980469 259.375 322.785156 259.351562 322.691406 C 259.332031 322.597656 259.289062 322.410156 259.351562 322.25 C 259.40625 322.042969 259.398438 321.796875 259.375 321.460938 C 259.347656 321.121094 259.390625 320.867188 259.488281 320.648438 C 259.597656 320.476562 259.628906 320.175781 259.582031 319.746094 C 259.535156 319.3125 259.566406 319.011719 259.664062 318.796875 C 259.761719 318.578125 259.765625 318.378906 259.726562 318.191406 C 259.636719 318.015625 259.640625 317.820312 259.695312 317.609375 C 259.746094 317.402344 259.75 317.207031 259.71875 317.066406 C 259.6875 316.925781 259.703125 316.773438 259.777344 316.660156 C 259.847656 316.546875 259.855469 316.347656 259.792969 316.066406 C 259.730469 315.789062 259.746094 315.636719 259.78125 315.578125 C 259.863281 315.511719 259.9375 315.398438 259.976562 315.144531 C 260.019531 314.890625 260.039062 314.542969 260.003906 314.15625 C 259.957031 313.726562 259.953125 313.480469 260.035156 313.414062 C 260.105469 313.300781 260.085938 313.207031 260.054688 313.066406 C 260.023438 312.925781 260.039062 312.773438 260.148438 312.605469 C 260.257812 312.433594 260.273438 312.28125 260.25 312.1875 C 260.230469 312.09375 260.210938 312 260.164062 312.011719 C 260.117188 312.023438 260.085938 311.882812 260.136719 311.675781 C 260.1875 311.464844 260.242188 311.257812 260.304688 311.097656 C 260.410156 310.925781 260.394531 310.636719 260.347656 310.203125 C 260.3125 309.820312 260.34375 309.519531 260.371094 309.414062 C 260.433594 309.253906 260.492188 309.09375 260.476562 308.800781 C 260.460938 308.511719 260.488281 308.40625 260.535156 308.398438 C 260.582031 308.386719 260.582031 307.945312 260.59375 307.109375 C 260.601562 306.273438 260.652344 305.625 260.78125 305.105469 C 260.914062 304.585938 260.980469 304.226562 260.917969 303.945312 C 260.886719 303.804688 260.855469 303.664062 260.835938 303.570312 C 260.835938 303.570312 260.882812 303.5625 260.882812 303.5625 C 260.925781 303.550781 261 303.4375 261.015625 303.285156 C 261.066406 303.078125 261.0625 302.835938 260.988281 302.507812 C 260.917969 302.179688 260.902344 301.886719 261.011719 301.71875 C 261.117188 301.546875 261.15625 301.046875 261.160156 300.410156 C 261.210938 299.757812 261.222656 299.363281 261.292969 299.25 C 261.367188 299.136719 261.386719 298.789062 261.34375 298.160156 C 261.304688 297.53125 261.324219 297.183594 261.398438 297.070312 C 261.46875 296.953125 261.496094 296.851562 261.453125 296.664062 C 261.421875 296.523438 261.429688 296.324219 261.515625 296.0625 C 261.605469 295.796875 261.5625 295.609375 261.519531 295.421875 C 261.488281 295.28125 261.484375 295.039062 261.597656 294.667969 C 261.664062 294.3125 261.71875 294.101562 261.660156 294.066406 C 261.59375 293.984375 261.617188 293.878906 261.691406 293.765625 C 261.753906 293.605469 261.789062 293.546875 261.734375 293.511719 C 261.722656 293.464844 261.675781 293.472656 261.664062 293.425781 C 261.710938 293.417969 261.710938 293.417969 261.710938 293.417969 C 261.757812 293.40625 261.753906 293.164062 261.742188 292.675781 C 261.730469 292.1875 261.742188 291.792969 261.820312 291.480469 C 261.898438 291.167969 261.945312 290.714844 261.921875 290.179688 C 261.902344 289.644531 261.933594 289.34375 261.980469 289.335938 C 262.027344 289.324219 262.097656 289.210938 262.105469 289.011719 C 262.15625 288.804688 262.140625 288.515625 262.113281 288.175781 C 262.089844 287.839844 262.046875 287.652344 262.128906 287.585938 C 262.164062 287.527344 262.238281 287.414062 262.1875 287.179688 C 262.191406 286.980469 262.207031 286.832031 262.242188 286.773438 C 262.316406 286.660156 262.296875 286.566406 262.265625 286.425781 C 262.234375 286.285156 262.25 286.136719 262.300781 285.925781 C 262.363281 285.765625 262.347656 285.476562 262.320312 285.136719 C 262.292969 284.800781 262.292969 284.359375 262.425781 283.839844 C 262.496094 283.285156 262.515625 282.9375 262.464844 282.703125 C 262.414062 282.46875 262.464844 282.261719 262.554688 281.996094 C 262.640625 281.730469 262.683594 281.476562 262.628906 281.242188 C 262.578125 281.007812 262.621094 280.753906 262.671875 280.546875 C 262.757812 280.28125 262.8125 280.074219 262.769531 279.886719 C 262.726562 279.699219 262.734375 279.503906 262.84375 279.332031 C 262.949219 279.160156 262.957031 278.960938 262.894531 278.683594 C 262.84375 278.449219 262.847656 278.25 262.910156 278.089844 C 262.972656 277.929688 262.988281 277.777344 262.980469 277.535156 C 262.988281 277.335938 262.957031 277.195312 263.003906 277.1875 C 263.046875 277.175781 263.089844 276.921875 263.03125 276.445312 C 262.976562 275.964844 263.070312 275.503906 263.183594 275.132812 C 263.285156 274.71875 263.316406 274.417969 263.253906 274.136719 C 263.203125 273.902344 263.261719 273.5 263.390625 272.980469 C 263.527344 272.507812 263.574219 272.054688 263.511719 271.773438 C 263.441406 271.445312 263.445312 271.25 263.507812 271.089844 C 263.570312 270.925781 263.585938 270.777344 263.542969 270.589844 C 263.492188 270.355469 263.507812 270.207031 263.636719 270.128906 C 263.765625 270.050781 263.78125 269.898438 263.730469 269.664062 C 263.6875 269.476562 263.695312 269.28125 263.730469 269.222656 C 263.8125 269.15625 263.808594 268.914062 263.761719 268.480469 C 263.726562 268.097656 263.746094 267.75 263.796875 267.542969 C 263.894531 267.324219 263.925781 267.023438 263.925781 266.582031 C 263.925781 266.140625 263.96875 265.882812 264.03125 265.722656 C 264.101562 265.609375 264.128906 265.503906 264.050781 265.375 C 263.972656 265.246094 264 265.140625 264.023438 265.039062 C 264.105469 264.96875 264.085938 264.875 264.074219 264.828125 C 264.074219 264.828125 264.019531 264.792969 264.019531 264.792969 C 264.066406 264.78125 264.066406 264.78125 264.113281 264.773438 C 264.160156 264.761719 264.160156 264.761719 264.160156 264.761719 C 264.136719 264.667969 264.128906 264.621094 264.105469 264.527344 C 264.074219 264.386719 264.089844 264.238281 264.199219 264.066406 C 264.308594 263.894531 264.339844 263.59375 264.339844 263.152344 C 264.339844 262.710938 264.324219 262.421875 264.246094 262.289062 C 264.167969 262.160156 264.195312 262.054688 264.230469 262 C 264.265625 261.941406 264.339844 261.828125 264.289062 261.59375 C 264.292969 261.398438 264.296875 261.199219 264.371094 261.085938 C 264.441406 260.972656 264.484375 260.714844 264.394531 260.539062 C 264.308594 260.363281 264.339844 260.0625 264.347656 259.667969 C 264.359375 259.273438 264.421875 259.109375 264.46875 259.101562 C 264.515625 259.089844 264.539062 258.988281 264.507812 258.847656 C 264.476562 258.707031 264.503906 258.601562 264.550781 258.59375 C 264.597656 258.582031 264.597656 258.582031 264.644531 258.570312 C 264.632812 258.523438 264.566406 258.441406 264.554688 258.394531 C 264.523438 258.253906 264.53125 258.058594 264.5625 257.753906 C 264.589844 257.453125 264.644531 257.246094 264.566406 257.117188 C 264.476562 256.941406 264.539062 256.777344 264.636719 256.5625 C 264.738281 256.34375 264.753906 256.191406 264.722656 256.050781 C 264.710938 256.003906 264.691406 255.910156 264.679688 255.863281 C 264.726562 255.855469 264.726562 255.855469 264.78125 255.890625 C 264.78125 255.890625 264.828125 255.878906 264.839844 255.925781 C 264.78125 255.890625 264.773438 255.84375 264.773438 255.84375 C 264.714844 255.808594 264.683594 255.667969 264.746094 255.507812 C 264.808594 255.347656 264.8125 255.148438 264.796875 254.859375 C 264.78125 254.566406 264.757812 254.230469 264.804688 253.777344 C 264.847656 253.324219 264.824219 252.988281 264.714844 252.71875 C 264.617188 252.492188 264.527344 252.316406 264.414062 252.246094 C 264.347656 252.160156 264.035156 252.082031 263.585938 252.035156 C 263.132812 251.988281 262.796875 252.015625 262.492188 252.179688 C 262.222656 252.289062 261.839844 252.324219 261.296875 252.296875 C 260.789062 252.214844 260.3125 252.269531 259.960938 252.449219 C 259.5625 252.632812 259.269531 252.648438 259.0625 252.597656 C 258.855469 252.546875 258.660156 252.539062 258.53125 252.617188 C 258.402344 252.695312 258.261719 252.726562 258.15625 252.699219 C 258.054688 252.675781 257.773438 252.734375 257.402344 252.820312 C 257.027344 252.902344 256.796875 252.953125 256.738281 252.917969 C 256.679688 252.878906 256.496094 252.921875 256.214844 252.984375 C 255.933594 253.046875 255.644531 253.0625 255.390625 253.019531 C 255.136719 252.976562 254.894531 252.984375 254.71875 253.070312 C 254.484375 253.121094 254.34375 253.152344 254.242188 253.128906 C 254.136719 253.101562 254 253.132812 253.878906 253.257812 C 253.714844 253.390625 253.621094 253.414062 253.609375 253.367188 C 253.597656 253.320312 253.214844 253.355469 252.554688 253.453125 C 251.890625 253.550781 251.460938 253.597656 251.347656 253.523438 C 251.1875 253.460938 250.953125 253.511719 250.671875 253.574219 C 250.394531 253.636719 250.207031 253.679688 250.054688 253.664062 C 249.894531 253.601562 249.664062 253.652344 249.265625 253.839844 C 248.902344 253.96875 248.679688 254.066406 248.621094 254.03125 C 248.566406 253.992188 248.472656 254.015625 248.238281 254.066406 C 248.050781 254.109375 247.902344 254.09375 247.84375 254.054688 C 247.789062 254.019531 247.347656 254.019531 246.601562 254.183594 C 245.902344 254.339844 245.472656 254.386719 245.40625 254.300781 C 245.292969 254.230469 245.199219 254.25 245.011719 254.292969 C 244.824219 254.332031 244.695312 254.410156 244.566406 254.488281 C 244.4375 254.566406 244.296875 254.597656 244.089844 254.546875 C 243.929688 254.484375 243.6875 254.488281 243.371094 254.605469 C 243.101562 254.714844 242.867188 254.765625 242.753906 254.695312 C 242.59375 254.632812 242.21875 254.714844 241.566406 254.859375 C 240.914062 255.003906 240.578125 255.03125 240.53125 255.039062 C 240.519531 254.992188 240.371094 254.976562 240.128906 254.984375 C 239.882812 254.988281 239.324219 255.113281 238.484375 255.296875 C 237.601562 255.496094 237.179688 255.585938 237.125 255.550781 C 237.066406 255.515625 236.972656 255.535156 236.832031 255.566406 C 236.703125 255.644531 236.554688 255.628906 236.347656 255.574219 C 236.140625 255.523438 236.035156 255.496094 236.007812 255.601562 C 235.984375 255.707031 235.695312 255.722656 235.171875 255.789062 C 234.890625 255.851562 234.648438 255.855469 234.414062 255.90625 C 235 256.121094 235.011719 256.167969 235.011719 256.167969 Z M 235.011719 256.167969 " fill-opacity="1" fill-rule="nonzero"/></g></g></g><g clip-path="url(#ffc0db6a6e)"><g clip-path="url(#27dde96669)"><g clip-path="url(#ebf4c29e26)"><path fill="#ffffff" d="M 247.890625 347.308594 C 247.632812 347.464844 247.308594 347.539062 246.980469 347.609375 C 246.65625 347.683594 246.339844 347.800781 246.089844 348.003906 C 245.839844 348.207031 245.546875 348.417969 245.171875 348.503906 C 244.800781 348.585938 244.589844 348.730469 244.515625 348.84375 C 244.441406 348.957031 244.3125 349.035156 244.175781 349.066406 C 244.035156 349.097656 243.914062 349.222656 243.757812 349.40625 C 243.605469 349.585938 243.414062 349.824219 243.164062 350.027344 C 242.867188 350.238281 242.75 350.363281 242.761719 350.410156 C 242.769531 350.457031 242.734375 350.515625 242.640625 350.535156 C 242.546875 350.554688 242.355469 350.796875 242.054688 351.207031 C 241.753906 351.617188 241.519531 351.863281 241.378906 351.894531 C 241.191406 351.9375 241.117188 352.050781 241.058594 352.210938 C 240.996094 352.371094 240.933594 352.535156 240.8125 352.660156 C 240.695312 352.78125 240.621094 352.898438 240.617188 353.09375 C 240.613281 353.292969 240.492188 353.417969 240.359375 353.691406 C 240.214844 353.921875 240.113281 354.136719 240.097656 354.289062 C 240.082031 354.4375 240.011719 354.554688 239.929688 354.621094 C 239.796875 354.699219 239.785156 354.847656 239.824219 355.035156 C 239.820312 355.234375 239.804688 355.382812 239.675781 355.460938 C 239.554688 355.585938 239.484375 355.699219 239.429688 355.910156 C 239.378906 356.117188 239.363281 356.265625 239.394531 356.40625 C 239.40625 356.453125 239.425781 356.546875 239.4375 356.59375 C 239.4375 356.59375 239.390625 356.605469 239.34375 356.613281 C 239.296875 356.625 239.203125 357.085938 239.074219 358.046875 C 238.933594 358.960938 238.910156 359.507812 238.949219 359.695312 C 238.992188 359.882812 239.011719 359.976562 238.976562 360.03125 C 238.941406 360.089844 238.949219 360.136719 238.972656 360.230469 C 238.980469 360.277344 239.039062 360.3125 239.039062 360.3125 C 239.039062 360.3125 238.992188 360.324219 238.992188 360.324219 C 238.945312 360.332031 238.945312 360.332031 238.898438 360.34375 C 238.941406 360.53125 238.980469 360.71875 239.011719 360.859375 C 239.097656 361.234375 239.101562 361.476562 239.085938 361.628906 C 239.035156 361.835938 239.144531 362.105469 239.328125 362.503906 C 239.527344 362.953125 239.636719 363.222656 239.621094 363.375 C 239.652344 363.511719 239.671875 363.605469 239.71875 363.597656 C 239.71875 363.597656 239.777344 363.632812 239.777344 363.632812 C 239.785156 363.679688 239.75 363.738281 239.761719 363.785156 C 239.734375 363.886719 239.8125 364.015625 239.9375 364.136719 C 240.058594 364.257812 240.207031 364.46875 240.246094 364.65625 C 240.335938 364.832031 240.414062 364.964844 240.46875 365 C 240.527344 365.035156 240.582031 365.074219 240.613281 365.214844 C 240.597656 365.363281 240.675781 365.492188 240.753906 365.625 C 240.878906 365.742188 240.945312 365.828125 241.039062 365.804688 C 241.144531 365.832031 241.152344 365.878906 241.175781 365.972656 C 241.148438 366.074219 241.238281 366.253906 241.382812 366.464844 C 241.527344 366.679688 241.71875 366.882812 242.015625 367.109375 C 242.308594 367.339844 242.492188 367.496094 242.5 367.542969 C 242.511719 367.589844 242.625 367.660156 242.832031 367.714844 C 243.039062 367.765625 243.152344 367.839844 243.277344 367.957031 C 243.355469 368.089844 243.527344 368.199219 243.847656 368.324219 C 244.121094 368.457031 244.351562 368.605469 244.476562 368.722656 C 244.597656 368.84375 244.761719 368.90625 244.957031 368.910156 C 245.152344 368.917969 245.3125 368.980469 245.484375 369.089844 C 245.65625 369.195312 245.828125 369.304688 246.089844 369.394531 C 246.355469 369.484375 246.609375 369.527344 246.796875 369.484375 C 247.027344 369.433594 247.1875 369.496094 247.351562 369.558594 C 247.511719 369.621094 247.71875 369.671875 248.054688 369.644531 C 248.390625 369.621094 248.597656 369.671875 248.609375 369.71875 C 248.617188 369.765625 248.804688 369.726562 249.121094 369.605469 C 249.4375 369.488281 249.671875 369.433594 249.832031 369.496094 C 249.992188 369.558594 250.132812 369.527344 250.316406 369.488281 C 250.492188 369.398438 250.644531 369.414062 250.792969 369.429688 C 250.945312 369.445312 251.039062 369.425781 251.121094 369.359375 C 251.167969 369.347656 251.203125 369.292969 251.25 369.28125 C 251.25 369.28125 251.261719 369.328125 251.308594 369.316406 C 251.363281 369.355469 251.46875 369.378906 251.699219 369.328125 C 251.933594 369.277344 252.074219 369.246094 252.230469 369.0625 C 252.382812 368.882812 252.699219 368.761719 253.25 368.59375 C 253.808594 368.46875 254.066406 368.3125 254.140625 368.199219 C 254.210938 368.085938 254.378906 367.949219 254.695312 367.832031 C 255.011719 367.710938 255.164062 367.53125 255.320312 367.347656 C 255.476562 367.167969 255.679688 366.972656 255.9375 366.820312 C 256.195312 366.664062 256.433594 366.414062 256.617188 366.128906 C 256.796875 365.84375 256.953125 365.660156 257.128906 365.574219 C 257.304688 365.484375 257.386719 365.417969 257.414062 365.3125 C 257.402344 365.265625 257.4375 365.210938 257.4375 365.210938 C 257.484375 365.199219 257.484375 365.199219 257.542969 365.234375 C 257.597656 365.273438 257.816406 364.929688 258.25 364.246094 C 258.640625 363.570312 258.941406 363.160156 259.140625 362.96875 C 259.34375 362.777344 259.453125 362.605469 259.503906 362.398438 C 259.546875 362.140625 259.5625 361.992188 259.503906 361.953125 C 259.4375 361.871094 259.5 361.710938 259.585938 361.445312 C 259.675781 361.179688 259.808594 360.90625 259.953125 360.675781 C 260.101562 360.449219 260.234375 360.175781 260.21875 359.882812 C 260.203125 359.59375 260.304688 359.175781 260.414062 358.5625 C 260.582031 357.988281 260.648438 357.628906 260.617188 357.488281 C 260.632812 357.339844 260.554688 357.207031 260.488281 357.125 C 260.410156 356.996094 260.425781 356.84375 260.464844 356.589844 C 260.507812 356.335938 260.539062 356.035156 260.417969 355.71875 C 260.300781 355.402344 260.285156 355.109375 260.269531 354.820312 C 260.253906 354.527344 260.203125 354.292969 260.066406 354.128906 C 259.96875 353.902344 259.8125 353.644531 259.71875 353.222656 C 259.578125 352.8125 259.449219 352.449219 259.238281 352.152344 C 259.023438 351.855469 258.925781 351.632812 258.886719 351.445312 C 258.84375 351.257812 258.765625 351.128906 258.652344 351.054688 C 258.539062 350.984375 258.460938 350.855469 258.476562 350.703125 C 258.492188 350.550781 258.355469 350.386719 258.128906 350.242188 C 257.902344 350.09375 257.707031 349.890625 257.632812 349.761719 C 257.542969 349.585938 257.464844 349.457031 257.304688 349.394531 C 257.132812 349.285156 256.960938 349.175781 256.761719 348.925781 C 256.558594 348.675781 256.386719 348.566406 256.132812 348.523438 C 255.9375 348.519531 255.824219 348.445312 255.8125 348.398438 C 255.800781 348.351562 255.632812 348.242188 255.355469 348.109375 C 255.046875 348.03125 254.875 347.921875 254.855469 347.828125 C 254.832031 347.734375 254.671875 347.671875 254.417969 347.628906 C 254.164062 347.585938 253.957031 347.535156 253.730469 347.390625 C 253.511719 347.289062 253.203125 347.210938 252.703125 347.175781 C 252.253906 347.128906 251.851562 347.070312 251.574219 346.933594 C 251.3125 346.847656 251.058594 346.804688 250.835938 346.902344 C 250.613281 347 250.367188 347.007812 250.113281 346.964844 C 249.859375 346.921875 249.476562 346.957031 249.011719 347.0625 C 248.570312 347.0625 248.160156 347.203125 247.890625 347.308594 Z M 247.890625 347.308594 " fill-opacity="1" fill-rule="nonzero"/></g></g></g></svg>