<svg xmlns="http://www.w3.org/2000/svg" xmlns:xlink="http://www.w3.org/1999/xlink" width="100" zoomAndPan="magnify" viewBox="0 0 75 74.999997" height="100" preserveAspectRatio="xMidYMid meet" version="1.0"><defs><clipPath id="d1984c0cd5"><path d="M 7.84375 11.183594 L 70.84375 11.183594 L 70.84375 68.933594 L 7.84375 68.933594 Z M 7.84375 11.183594 " clip-rule="nonzero"/></clipPath><clipPath id="64cc756969"><path d="M 4.207031 5.851562 L 24.625 5.851562 L 24.625 26.265625 L 4.207031 26.265625 Z M 4.207031 5.851562 " clip-rule="nonzero"/></clipPath><clipPath id="2f89e63899"><path d="M 14.414062 5.851562 C 8.777344 5.851562 4.207031 10.421875 4.207031 16.058594 C 4.207031 21.695312 8.777344 26.265625 14.414062 26.265625 C 20.054688 26.265625 24.625 21.695312 24.625 16.058594 C 24.625 10.421875 20.054688 5.851562 14.414062 5.851562 Z M 14.414062 5.851562 " clip-rule="nonzero"/></clipPath><clipPath id="e4cc6b29be"><path d="M 4.207031 5.851562 L 24.457031 5.851562 L 24.457031 26.101562 L 4.207031 26.101562 Z M 4.207031 5.851562 " clip-rule="nonzero"/></clipPath><clipPath id="75e82a7133"><path d="M 14.332031 5.851562 C 8.742188 5.851562 4.207031 10.382812 4.207031 15.976562 C 4.207031 21.566406 8.742188 26.101562 14.332031 26.101562 C 19.925781 26.101562 24.457031 21.566406 24.457031 15.976562 C 24.457031 10.382812 19.925781 5.851562 14.332031 5.851562 Z M 14.332031 5.851562 " clip-rule="nonzero"/></clipPath><clipPath id="4ba2b37fba"><path d="M 10.828125 11.183594 L 18.328125 11.183594 L 18.328125 22.433594 L 10.828125 22.433594 Z M 10.828125 11.183594 " clip-rule="nonzero"/></clipPath></defs><g clip-path="url(#d1984c0cd5)"><path fill="#0d68b1" d="M 66.898438 32.75 L 64.585938 32.75 L 64.585938 16.230469 C 64.585938 13.449219 62.316406 11.191406 59.535156 11.191406 L 12.894531 11.191406 C 10.109375 11.191406 7.84375 13.449219 7.84375 16.230469 L 7.84375 53.671875 C 7.84375 56.449219 10.109375 58.710938 12.894531 58.710938 L 27.75 58.710938 L 27.75 65 C 27.75 67.164062 29.519531 68.925781 31.691406 68.925781 L 66.898438 68.925781 C 69.074219 68.925781 70.84375 67.164062 70.84375 65 L 70.84375 36.675781 C 70.84375 34.511719 69.074219 32.75 66.898438 32.75 Z M 60.742188 15.660156 C 60.742188 16.011719 60.453125 16.296875 60.101562 16.296875 C 59.753906 16.296875 59.464844 16.011719 59.464844 15.660156 C 59.464844 15.308594 59.753906 15.023438 60.101562 15.023438 C 60.453125 15.023438 60.742188 15.308594 60.742188 15.660156 Z M 55.621094 15.660156 C 55.621094 16.011719 55.335938 16.296875 54.984375 16.296875 C 54.632812 16.296875 54.347656 16.011719 54.347656 15.660156 C 54.347656 15.308594 54.632812 15.023438 54.984375 15.023438 C 55.335938 15.023438 55.621094 15.308594 55.621094 15.660156 Z M 50.503906 15.660156 C 50.503906 16.011719 50.21875 16.296875 49.863281 16.296875 C 49.511719 16.296875 49.226562 16.011719 49.226562 15.660156 C 49.226562 15.308594 49.511719 15.023438 49.863281 15.023438 C 50.21875 15.023438 50.503906 15.308594 50.503906 15.660156 Z M 67.566406 36.652344 C 67.566406 37.003906 67.28125 37.289062 66.929688 37.289062 C 66.578125 37.289062 66.292969 37.003906 66.292969 36.652344 C 66.292969 36.300781 66.578125 36.015625 66.929688 36.015625 C 67.28125 36.015625 67.566406 36.300781 67.566406 36.652344 Z M 63.015625 36.652344 C 63.015625 37.003906 62.730469 37.289062 62.378906 37.289062 C 62.027344 37.289062 61.742188 37.003906 61.742188 36.652344 C 61.742188 36.300781 62.027344 36.015625 62.378906 36.015625 C 62.730469 36.015625 63.015625 36.300781 63.015625 36.652344 Z M 58.464844 36.652344 C 58.464844 37.003906 58.179688 37.289062 57.828125 37.289062 C 57.476562 37.289062 57.191406 37.003906 57.191406 36.652344 C 57.191406 36.300781 57.476562 36.015625 57.828125 36.015625 C 58.179688 36.015625 58.464844 36.300781 58.464844 36.652344 Z M 8.84375 19.5625 L 63.585938 19.5625 L 63.585938 25.941406 L 8.84375 25.941406 Z M 16.941406 49.773438 L 8.84375 49.773438 L 8.84375 42.824219 L 16.941406 42.824219 Z M 16.941406 33.886719 L 8.84375 33.886719 L 8.84375 26.9375 L 16.941406 26.9375 Z M 27.75 57.714844 L 17.941406 57.714844 L 17.941406 26.9375 L 63.585938 26.9375 L 63.585938 32.75 L 42.972656 32.75 L 42.972656 29.84375 C 42.972656 29.570312 42.746094 29.347656 42.472656 29.347656 L 20.855469 29.347656 C 20.578125 29.347656 20.355469 29.570312 20.355469 29.84375 L 20.355469 44.597656 C 20.355469 44.871094 20.578125 45.09375 20.855469 45.09375 L 27.75 45.09375 Z M 27.75 44.097656 L 21.355469 44.097656 L 21.355469 30.339844 L 41.972656 30.339844 L 41.972656 32.75 L 31.691406 32.75 C 29.519531 32.75 27.75 34.511719 27.75 36.675781 Z M 36.851562 67.929688 L 31.691406 67.929688 C 30.070312 67.929688 28.75 66.617188 28.75 65 L 28.75 40.554688 L 36.851562 40.554688 Z M 69.84375 65 C 69.84375 66.617188 68.523438 67.929688 66.898438 67.929688 L 37.851562 67.929688 L 37.851562 40.554688 L 69.84375 40.554688 Z M 69.84375 65 " fill-opacity="1" fill-rule="nonzero"/></g><path fill="#0d68b1" d="M 44.816406 49.703125 C 44.816406 49.976562 45.039062 50.199219 45.316406 50.199219 L 59.535156 50.199219 C 59.8125 50.199219 60.035156 49.976562 60.035156 49.703125 C 60.035156 49.429688 59.8125 49.207031 59.535156 49.207031 L 45.316406 49.207031 C 45.039062 49.207031 44.816406 49.429688 44.816406 49.703125 Z M 44.816406 49.703125 " fill-opacity="1" fill-rule="nonzero"/><path fill="#0d68b1" d="M 59.535156 53.746094 L 42.472656 53.746094 C 42.195312 53.746094 41.972656 53.96875 41.972656 54.242188 C 41.972656 54.515625 42.195312 54.738281 42.472656 54.738281 L 59.535156 54.738281 C 59.8125 54.738281 60.035156 54.515625 60.035156 54.242188 C 60.035156 53.96875 59.8125 53.746094 59.535156 53.746094 Z M 59.535156 53.746094 " fill-opacity="1" fill-rule="nonzero"/><path fill="#0d68b1" d="M 59.835938 58.382812 L 57.558594 56.679688 C 57.339844 56.515625 57.027344 56.558594 56.859375 56.78125 C 56.691406 57 56.738281 57.3125 56.960938 57.476562 L 58.703125 58.78125 L 56.960938 60.085938 C 56.738281 60.25 56.691406 60.5625 56.859375 60.78125 C 56.957031 60.914062 57.109375 60.980469 57.257812 60.980469 C 57.363281 60.980469 57.46875 60.949219 57.558594 60.882812 L 59.835938 59.179688 C 59.960938 59.085938 60.035156 58.9375 60.035156 58.78125 C 60.035156 58.625 59.960938 58.476562 59.835938 58.382812 Z M 59.835938 58.382812 " fill-opacity="1" fill-rule="nonzero"/><path fill="#0d68b1" d="M 54.984375 58.285156 L 40.765625 58.285156 C 40.488281 58.285156 40.265625 58.507812 40.265625 58.78125 C 40.265625 59.054688 40.488281 59.277344 40.765625 59.277344 L 54.984375 59.277344 C 55.261719 59.277344 55.484375 59.054688 55.484375 58.78125 C 55.484375 58.507812 55.261719 58.285156 54.984375 58.285156 Z M 54.984375 58.285156 " fill-opacity="1" fill-rule="nonzero"/><path fill="#0d68b1" d="M 41.902344 46.230469 L 49.863281 46.230469 C 51.082031 46.230469 52.070312 45.242188 52.070312 44.027344 C 52.070312 42.816406 51.082031 41.828125 49.863281 41.828125 L 41.902344 41.828125 C 40.6875 41.828125 39.695312 42.816406 39.695312 44.03125 C 39.695312 45.242188 40.6875 46.230469 41.902344 46.230469 Z M 41.902344 46.230469 " fill-opacity="1" fill-rule="nonzero"/><path fill="#0d68b1" d="M 41.902344 66.65625 L 49.863281 66.65625 C 51.082031 66.65625 52.070312 65.667969 52.070312 64.453125 C 52.070312 63.242188 51.082031 62.253906 49.863281 62.253906 L 41.902344 62.253906 C 40.6875 62.253906 39.695312 63.242188 39.695312 64.457031 C 39.695312 65.667969 40.6875 66.65625 41.902344 66.65625 Z M 41.902344 66.65625 " fill-opacity="1" fill-rule="nonzero"/><path fill="#0d68b1" d="M 43.441406 47.703125 C 43.273438 47.480469 42.960938 47.4375 42.738281 47.601562 L 40.464844 49.304688 C 40.339844 49.398438 40.265625 49.546875 40.265625 49.703125 C 40.265625 49.859375 40.339844 50.007812 40.464844 50.101562 L 42.738281 51.804688 C 42.828125 51.871094 42.933594 51.902344 43.039062 51.902344 C 43.191406 51.902344 43.339844 51.835938 43.441406 51.703125 C 43.605469 51.484375 43.5625 51.171875 43.339844 51.007812 L 41.597656 49.703125 L 43.339844 48.398438 C 43.5625 48.234375 43.605469 47.921875 43.441406 47.703125 Z M 43.441406 47.703125 " fill-opacity="1" fill-rule="nonzero"/><path fill="#0d68b1" d="M 31.09375 45.660156 L 34.507812 45.660156 C 34.785156 45.660156 35.007812 45.4375 35.007812 45.164062 C 35.007812 44.890625 34.785156 44.667969 34.507812 44.667969 L 31.09375 44.667969 C 30.816406 44.667969 30.59375 44.890625 30.59375 45.164062 C 30.59375 45.4375 30.816406 45.660156 31.09375 45.660156 Z M 31.09375 45.660156 " fill-opacity="1" fill-rule="nonzero"/><path fill="#0d68b1" d="M 31.09375 50.199219 L 34.507812 50.199219 C 34.785156 50.199219 35.007812 49.976562 35.007812 49.703125 C 35.007812 49.429688 34.785156 49.207031 34.507812 49.207031 L 31.09375 49.207031 C 30.816406 49.207031 30.59375 49.429688 30.59375 49.703125 C 30.59375 49.976562 30.816406 50.199219 31.09375 50.199219 Z M 31.09375 50.199219 " fill-opacity="1" fill-rule="nonzero"/><path fill="#0d68b1" d="M 31.09375 54.738281 L 34.507812 54.738281 C 34.785156 54.738281 35.007812 54.515625 35.007812 54.242188 C 35.007812 53.96875 34.785156 53.746094 34.507812 53.746094 L 31.09375 53.746094 C 30.816406 53.746094 30.59375 53.96875 30.59375 54.242188 C 30.59375 54.515625 30.816406 54.738281 31.09375 54.738281 Z M 31.09375 54.738281 " fill-opacity="1" fill-rule="nonzero"/><path fill="#0d68b1" d="M 31.09375 59.277344 L 34.507812 59.277344 C 34.785156 59.277344 35.007812 59.054688 35.007812 58.78125 C 35.007812 58.507812 34.785156 58.285156 34.507812 58.285156 L 31.09375 58.285156 C 30.816406 58.285156 30.59375 58.507812 30.59375 58.78125 C 30.59375 59.054688 30.816406 59.277344 31.09375 59.277344 Z M 31.09375 59.277344 " fill-opacity="1" fill-rule="nonzero"/><path fill="#0d68b1" d="M 31.09375 63.816406 L 34.507812 63.816406 C 34.785156 63.816406 35.007812 63.59375 35.007812 63.320312 C 35.007812 63.046875 34.785156 62.824219 34.507812 62.824219 L 31.09375 62.824219 C 30.816406 62.824219 30.59375 63.046875 30.59375 63.320312 C 30.59375 63.59375 30.816406 63.816406 31.09375 63.816406 Z M 31.09375 63.816406 " fill-opacity="1" fill-rule="nonzero"/><g clip-path="url(#64cc756969)"><g clip-path="url(#2f89e63899)"><path fill="#ffffff" d="M 4.207031 5.851562 L 24.625 5.851562 L 24.625 26.265625 L 4.207031 26.265625 Z M 4.207031 5.851562 " fill-opacity="1" fill-rule="nonzero"/></g></g><g clip-path="url(#e4cc6b29be)"><g clip-path="url(#75e82a7133)"><path stroke-linecap="butt" transform="matrix(0.743972, 0, 0, 0.743972, 4.207518, 5.850923)" fill="none" stroke-linejoin="miter" d="M 13.608722 0.000859895 C 6.095212 0.000859895 -0.000653877 6.091476 -0.000653877 13.610236 C -0.000653877 21.123746 6.095212 27.219612 13.608722 27.219612 C 21.127482 27.219612 27.218098 21.123746 27.218098 13.610236 C 27.218098 6.091476 21.127482 0.000859895 13.608722 0.000859895 Z M 13.608722 0.000859895 " stroke="#0d68b1" stroke-width="4" stroke-opacity="1" stroke-miterlimit="4"/></g></g><g clip-path="url(#4ba2b37fba)"><path fill="#00b696" d="M 12.273438 11.199219 C 12.273438 11.203125 12.269531 11.207031 12.257812 11.207031 C 12.25 11.210938 12.242188 11.207031 12.226562 11.203125 C 12.214844 11.199219 12.210938 11.199219 12.207031 11.195312 C 12.207031 11.199219 12.207031 11.199219 12.207031 11.203125 C 12.207031 11.207031 12.199219 11.210938 12.1875 11.210938 C 12.171875 11.214844 12.140625 11.214844 12.078125 11.21875 C 12.019531 11.222656 11.972656 11.230469 11.933594 11.25 C 11.890625 11.261719 11.863281 11.269531 11.847656 11.269531 C 11.832031 11.269531 11.820312 11.273438 11.816406 11.277344 C 11.8125 11.28125 11.804688 11.285156 11.785156 11.285156 C 11.769531 11.285156 11.742188 11.296875 11.703125 11.324219 C 11.660156 11.347656 11.617188 11.363281 11.574219 11.378906 C 11.527344 11.390625 11.5 11.402344 11.488281 11.417969 C 11.476562 11.4375 11.460938 11.441406 11.453125 11.441406 C 11.445312 11.4375 11.433594 11.445312 11.414062 11.464844 C 11.398438 11.480469 11.378906 11.492188 11.371094 11.496094 C 11.359375 11.503906 11.347656 11.515625 11.328125 11.53125 C 11.316406 11.546875 11.296875 11.558594 11.285156 11.566406 C 11.273438 11.570312 11.257812 11.582031 11.25 11.597656 C 11.242188 11.613281 11.230469 11.632812 11.203125 11.652344 C 11.183594 11.671875 11.167969 11.6875 11.164062 11.695312 C 11.164062 11.703125 11.152344 11.710938 11.128906 11.71875 C 11.113281 11.726562 11.101562 11.738281 11.097656 11.75 C 11.089844 11.765625 11.082031 11.78125 11.066406 11.796875 C 11.054688 11.8125 11.042969 11.828125 11.042969 11.839844 C 11.042969 11.851562 11.035156 11.859375 11.023438 11.871094 C 11.007812 11.882812 11 11.902344 10.988281 11.925781 C 10.980469 11.949219 10.972656 11.96875 10.960938 11.976562 C 10.953125 11.984375 10.949219 11.992188 10.949219 12.003906 C 10.949219 12.015625 10.945312 12.023438 10.941406 12.027344 C 10.9375 12.03125 10.933594 12.035156 10.933594 12.046875 C 10.933594 12.058594 10.929688 12.066406 10.921875 12.070312 C 10.914062 12.078125 10.914062 12.09375 10.914062 12.113281 C 10.914062 12.132812 10.90625 12.160156 10.894531 12.183594 C 10.875 12.210938 10.871094 12.246094 10.871094 12.289062 C 10.871094 12.328125 10.867188 12.355469 10.863281 12.363281 C 10.859375 12.371094 10.855469 12.386719 10.855469 12.414062 C 10.859375 12.4375 10.855469 12.46875 10.847656 12.515625 C 10.835938 12.5625 10.832031 12.59375 10.832031 12.621094 C 10.832031 12.644531 10.835938 12.660156 10.839844 12.679688 C 10.851562 12.695312 10.851562 12.710938 10.839844 12.722656 C 10.839844 12.730469 10.835938 12.75 10.839844 12.769531 C 10.839844 12.789062 10.839844 12.804688 10.835938 12.808594 C 10.832031 12.8125 10.835938 12.851562 10.847656 12.933594 C 10.855469 13.011719 10.859375 13.050781 10.855469 13.0625 C 10.851562 13.066406 10.847656 13.082031 10.847656 13.105469 C 10.847656 13.132812 10.851562 13.144531 10.855469 13.148438 C 10.859375 13.152344 10.863281 13.175781 10.867188 13.222656 C 10.871094 13.273438 10.871094 13.3125 10.867188 13.355469 C 10.863281 13.394531 10.867188 13.421875 10.875 13.433594 C 10.882812 13.453125 10.890625 13.476562 10.882812 13.507812 C 10.878906 13.542969 10.878906 13.570312 10.890625 13.589844 C 10.898438 13.605469 10.902344 13.636719 10.90625 13.691406 C 10.910156 13.746094 10.910156 13.804688 10.910156 13.867188 C 10.90625 13.929688 10.910156 13.964844 10.917969 13.972656 C 10.929688 13.976562 10.933594 13.988281 10.933594 14.011719 C 10.933594 14.039062 10.929688 14.058594 10.921875 14.074219 C 10.917969 14.089844 10.917969 14.113281 10.929688 14.136719 C 10.9375 14.160156 10.941406 14.203125 10.9375 14.257812 C 10.933594 14.3125 10.9375 14.339844 10.945312 14.347656 C 10.953125 14.355469 10.953125 14.371094 10.949219 14.390625 C 10.945312 14.410156 10.945312 14.433594 10.953125 14.453125 C 10.957031 14.472656 10.960938 14.503906 10.957031 14.535156 C 10.953125 14.570312 10.953125 14.597656 10.960938 14.609375 C 10.972656 14.625 10.972656 14.644531 10.972656 14.671875 C 10.972656 14.703125 10.972656 14.71875 10.976562 14.726562 C 10.980469 14.734375 10.980469 14.757812 10.976562 14.789062 C 10.972656 14.824219 10.972656 14.847656 10.980469 14.863281 C 10.988281 14.882812 10.988281 14.90625 10.988281 14.9375 C 10.988281 14.972656 10.984375 14.992188 10.980469 15.011719 C 10.976562 15.023438 10.976562 15.035156 10.980469 15.042969 C 10.984375 15.050781 10.988281 15.058594 10.992188 15.058594 C 10.992188 15.058594 10.996094 15.058594 11 15.058594 C 11 15.078125 10.996094 15.097656 10.996094 15.113281 C 10.996094 15.152344 10.996094 15.195312 11.003906 15.246094 C 11.015625 15.296875 11.019531 15.320312 11.015625 15.324219 C 11.007812 15.328125 11.007812 15.355469 11.007812 15.394531 C 11.007812 15.4375 11.015625 15.460938 11.019531 15.472656 C 11.023438 15.480469 11.023438 15.492188 11.023438 15.515625 C 11.023438 15.542969 11.027344 15.570312 11.035156 15.609375 C 11.042969 15.644531 11.054688 15.691406 11.054688 15.75 C 11.054688 15.808594 11.058594 15.835938 11.0625 15.839844 C 11.066406 15.84375 11.066406 15.851562 11.0625 15.867188 C 11.058594 15.878906 11.058594 15.894531 11.070312 15.910156 C 11.078125 15.925781 11.082031 15.9375 11.074219 15.941406 C 11.070312 15.945312 11.070312 15.964844 11.070312 15.996094 C 11.070312 16.023438 11.070312 16.042969 11.074219 16.058594 C 11.078125 16.070312 11.078125 16.074219 11.082031 16.074219 C 11.085938 16.074219 11.085938 16.074219 11.089844 16.074219 C 11.085938 16.085938 11.085938 16.09375 11.082031 16.105469 C 11.078125 16.128906 11.082031 16.160156 11.089844 16.210938 C 11.105469 16.257812 11.109375 16.292969 11.105469 16.316406 C 11.101562 16.335938 11.105469 16.355469 11.113281 16.371094 C 11.121094 16.390625 11.121094 16.414062 11.121094 16.453125 C 11.117188 16.488281 11.121094 16.511719 11.128906 16.527344 C 11.140625 16.539062 11.144531 16.558594 11.140625 16.578125 C 11.132812 16.59375 11.140625 16.628906 11.148438 16.679688 C 11.160156 16.730469 11.160156 16.769531 11.160156 16.796875 C 11.160156 16.824219 11.160156 16.847656 11.167969 16.855469 C 11.179688 16.863281 11.179688 16.886719 11.179688 16.917969 C 11.179688 16.945312 11.179688 16.976562 11.1875 17 C 11.195312 17.023438 11.199219 17.050781 11.195312 17.078125 C 11.195312 17.109375 11.195312 17.125 11.203125 17.136719 C 11.210938 17.148438 11.214844 17.179688 11.214844 17.21875 C 11.214844 17.261719 11.226562 17.296875 11.230469 17.316406 C 11.238281 17.332031 11.238281 17.34375 11.234375 17.347656 C 11.230469 17.347656 11.230469 17.367188 11.238281 17.390625 C 11.246094 17.417969 11.246094 17.433594 11.242188 17.4375 C 11.238281 17.445312 11.242188 17.476562 11.257812 17.542969 C 11.273438 17.613281 11.28125 17.667969 11.28125 17.71875 C 11.28125 17.769531 11.285156 17.800781 11.292969 17.816406 C 11.304688 17.828125 11.308594 17.847656 11.304688 17.867188 C 11.304688 17.894531 11.304688 17.917969 11.3125 17.945312 C 11.320312 17.96875 11.324219 17.996094 11.320312 18.023438 C 11.316406 18.046875 11.320312 18.074219 11.332031 18.097656 C 11.347656 18.121094 11.347656 18.148438 11.347656 18.171875 C 11.339844 18.199219 11.347656 18.21875 11.351562 18.234375 C 11.355469 18.25 11.359375 18.257812 11.363281 18.257812 C 11.367188 18.257812 11.371094 18.269531 11.378906 18.28125 C 11.390625 18.292969 11.390625 18.3125 11.390625 18.34375 C 11.390625 18.367188 11.394531 18.386719 11.402344 18.402344 C 11.410156 18.414062 11.414062 18.433594 11.417969 18.460938 C 11.417969 18.488281 11.429688 18.503906 11.4375 18.511719 C 11.445312 18.523438 11.449219 18.53125 11.445312 18.539062 C 11.441406 18.546875 11.445312 18.558594 11.457031 18.574219 C 11.472656 18.59375 11.476562 18.613281 11.480469 18.632812 C 11.484375 18.660156 11.488281 18.667969 11.492188 18.667969 C 11.496094 18.667969 11.503906 18.679688 11.519531 18.707031 C 11.53125 18.738281 11.554688 18.765625 11.578125 18.792969 C 11.605469 18.816406 11.621094 18.832031 11.621094 18.839844 C 11.625 18.851562 11.644531 18.867188 11.683594 18.894531 C 11.722656 18.925781 11.757812 18.945312 11.792969 18.957031 C 11.828125 18.96875 11.851562 18.984375 11.855469 18.992188 C 11.859375 19 11.902344 19.011719 11.980469 19.023438 C 12.058594 19.035156 12.15625 19.035156 12.273438 19.023438 C 12.390625 19.011719 12.472656 18.992188 12.515625 18.96875 C 12.558594 18.945312 12.589844 18.929688 12.617188 18.925781 C 12.644531 18.917969 12.667969 18.902344 12.695312 18.882812 C 12.722656 18.863281 12.742188 18.851562 12.753906 18.84375 C 12.769531 18.839844 12.785156 18.828125 12.800781 18.8125 C 12.816406 18.796875 12.824219 18.785156 12.824219 18.777344 C 12.824219 18.773438 12.824219 18.769531 12.824219 18.769531 C 12.828125 18.769531 12.832031 18.769531 12.832031 18.769531 C 12.835938 18.769531 12.855469 18.757812 12.878906 18.738281 C 12.90625 18.71875 12.917969 18.699219 12.921875 18.691406 C 12.921875 18.679688 12.933594 18.675781 12.941406 18.671875 C 12.949219 18.667969 12.953125 18.660156 12.957031 18.640625 C 12.960938 18.625 12.964844 18.617188 12.976562 18.617188 C 12.984375 18.617188 12.988281 18.605469 12.996094 18.589844 C 13 18.570312 13.007812 18.5625 13.019531 18.554688 C 13.027344 18.550781 13.035156 18.542969 13.039062 18.523438 C 13.046875 18.503906 13.050781 18.496094 13.0625 18.488281 C 13.066406 18.484375 13.074219 18.46875 13.085938 18.433594 C 13.101562 18.402344 13.109375 18.382812 13.121094 18.375 C 13.132812 18.367188 13.140625 18.351562 13.144531 18.320312 C 13.148438 18.292969 13.15625 18.269531 13.171875 18.25 C 13.191406 18.234375 13.199219 18.207031 13.207031 18.171875 C 13.214844 18.136719 13.21875 18.113281 13.230469 18.101562 C 13.238281 18.089844 13.246094 18.070312 13.253906 18.039062 C 13.265625 18.007812 13.269531 17.992188 13.277344 17.992188 C 13.28125 17.992188 13.285156 17.96875 13.292969 17.921875 C 13.296875 17.875 13.308594 17.84375 13.3125 17.828125 C 13.320312 17.8125 13.324219 17.796875 13.332031 17.792969 C 13.339844 17.789062 13.34375 17.769531 13.34375 17.738281 C 13.34375 17.722656 13.34375 17.707031 13.34375 17.695312 C 13.351562 17.695312 13.351562 17.695312 13.355469 17.695312 C 13.359375 17.695312 13.367188 17.664062 13.375 17.605469 C 13.390625 17.550781 13.398438 17.507812 13.410156 17.488281 C 13.421875 17.464844 13.421875 17.445312 13.421875 17.433594 C 13.417969 17.417969 13.425781 17.394531 13.441406 17.367188 C 13.453125 17.335938 13.460938 17.300781 13.460938 17.257812 C 13.464844 17.210938 13.46875 17.179688 13.484375 17.152344 C 13.496094 17.128906 13.496094 17.109375 13.496094 17.09375 C 13.496094 17.074219 13.5 17.058594 13.507812 17.042969 C 13.523438 17.023438 13.527344 17 13.527344 16.964844 C 13.527344 16.925781 13.53125 16.90625 13.535156 16.890625 C 13.539062 16.878906 13.546875 16.851562 13.550781 16.796875 C 13.558594 16.742188 13.566406 16.710938 13.574219 16.691406 C 13.582031 16.675781 13.585938 16.660156 13.585938 16.648438 C 13.585938 16.640625 13.585938 16.628906 13.585938 16.625 C 13.582031 16.625 13.582031 16.628906 13.582031 16.628906 C 13.578125 16.628906 13.578125 16.628906 13.574219 16.632812 C 13.574219 16.628906 13.574219 16.628906 13.574219 16.625 C 13.574219 16.621094 13.578125 16.609375 13.585938 16.59375 C 13.59375 16.578125 13.601562 16.554688 13.59375 16.539062 C 13.589844 16.523438 13.59375 16.515625 13.601562 16.511719 C 13.605469 16.507812 13.605469 16.496094 13.605469 16.476562 C 13.605469 16.457031 13.609375 16.433594 13.621094 16.410156 C 13.632812 16.386719 13.640625 16.359375 13.640625 16.339844 C 13.640625 16.320312 13.644531 16.300781 13.648438 16.292969 C 13.652344 16.289062 13.652344 16.269531 13.648438 16.234375 C 13.644531 16.203125 13.644531 16.183594 13.652344 16.175781 C 13.65625 16.171875 13.664062 16.152344 13.667969 16.117188 C 13.671875 16.078125 13.675781 16.058594 13.683594 16.054688 C 13.6875 16.046875 13.6875 16.039062 13.6875 16.027344 C 13.683594 16.015625 13.6875 16.003906 13.695312 15.992188 C 13.703125 15.976562 13.707031 15.957031 13.703125 15.929688 C 13.699219 15.898438 13.699219 15.882812 13.707031 15.875 C 13.714844 15.867188 13.71875 15.851562 13.714844 15.828125 C 13.710938 15.804688 13.714844 15.78125 13.726562 15.765625 C 13.734375 15.746094 13.738281 15.71875 13.734375 15.683594 C 13.730469 15.644531 13.734375 15.628906 13.738281 15.628906 C 13.746094 15.625 13.75 15.621094 13.75 15.613281 C 13.75 15.605469 13.753906 15.578125 13.753906 15.535156 C 13.753906 15.488281 13.757812 15.449219 13.765625 15.417969 C 13.769531 15.382812 13.777344 15.363281 13.78125 15.351562 C 13.789062 15.339844 13.792969 15.300781 13.792969 15.230469 C 13.796875 15.160156 13.796875 15.121094 13.808594 15.117188 C 13.8125 15.113281 13.820312 15.105469 13.820312 15.097656 C 13.820312 15.085938 13.820312 15.066406 13.816406 15.046875 C 13.8125 15.023438 13.816406 14.992188 13.828125 14.960938 C 13.839844 14.925781 13.851562 14.871094 13.851562 14.800781 C 13.851562 14.734375 13.855469 14.695312 13.863281 14.6875 C 13.871094 14.671875 13.871094 14.652344 13.871094 14.609375 C 13.871094 14.570312 13.875 14.539062 13.878906 14.523438 C 13.882812 14.507812 13.890625 14.476562 13.890625 14.445312 C 13.890625 14.410156 13.894531 14.390625 13.898438 14.378906 C 13.902344 14.367188 13.910156 14.324219 13.914062 14.246094 C 13.917969 14.167969 13.925781 14.089844 13.941406 14.015625 C 13.953125 13.941406 13.957031 13.890625 13.957031 13.867188 C 13.957031 13.84375 13.957031 13.820312 13.964844 13.808594 C 13.96875 13.796875 13.976562 13.777344 13.96875 13.75 C 13.964844 13.726562 13.964844 13.699219 13.96875 13.683594 C 13.976562 13.667969 13.980469 13.65625 13.984375 13.652344 C 13.988281 13.648438 13.992188 13.628906 13.988281 13.601562 C 13.988281 13.570312 13.988281 13.550781 13.992188 13.53125 C 13.996094 13.511719 13.996094 13.5 13.992188 13.496094 C 13.988281 13.492188 13.984375 13.480469 13.984375 13.464844 C 13.984375 13.445312 13.988281 13.429688 13.992188 13.425781 C 13.996094 13.417969 13.996094 13.398438 13.996094 13.363281 C 13.992188 13.328125 13.996094 13.28125 14 13.222656 C 14.007812 13.164062 14.007812 13.109375 14.007812 13.066406 C 14.003906 13.019531 14.007812 12.988281 14.015625 12.984375 C 14.019531 12.980469 14.019531 12.972656 14.015625 12.960938 C 14.007812 12.949219 14.007812 12.941406 14.015625 12.933594 C 14.019531 12.921875 14.019531 12.894531 14.019531 12.835938 C 14.019531 12.777344 14.015625 12.746094 14.007812 12.730469 C 14 12.714844 14 12.683594 14 12.625 C 14.003906 12.570312 13.992188 12.460938 13.964844 12.308594 C 13.941406 12.15625 13.925781 12.074219 13.917969 12.066406 C 13.914062 12.058594 13.910156 12.050781 13.910156 12.039062 C 13.910156 12.027344 13.90625 12.011719 13.894531 12 C 13.878906 11.988281 13.875 11.976562 13.871094 11.960938 C 13.867188 11.941406 13.859375 11.925781 13.851562 11.917969 C 13.839844 11.910156 13.832031 11.890625 13.824219 11.863281 C 13.820312 11.84375 13.808594 11.820312 13.785156 11.808594 C 13.769531 11.792969 13.738281 11.765625 13.707031 11.71875 C 13.675781 11.671875 13.648438 11.640625 13.625 11.621094 C 13.605469 11.605469 13.585938 11.597656 13.578125 11.59375 C 13.566406 11.589844 13.550781 11.582031 13.535156 11.558594 C 13.519531 11.539062 13.488281 11.519531 13.441406 11.492188 C 13.394531 11.46875 13.371094 11.453125 13.367188 11.445312 C 13.363281 11.4375 13.351562 11.425781 13.328125 11.421875 C 13.308594 11.417969 13.292969 11.414062 13.292969 11.410156 C 13.292969 11.40625 13.292969 11.40625 13.292969 11.402344 C 13.289062 11.402344 13.285156 11.402344 13.28125 11.402344 C 13.273438 11.402344 13.265625 11.398438 13.257812 11.394531 C 13.25 11.386719 13.242188 11.386719 13.230469 11.386719 C 13.214844 11.386719 13.199219 11.378906 13.183594 11.363281 C 13.164062 11.347656 13.148438 11.339844 13.125 11.335938 C 13.105469 11.332031 13.085938 11.324219 13.070312 11.316406 C 13.050781 11.308594 13.023438 11.292969 12.980469 11.289062 C 12.933594 11.285156 12.902344 11.273438 12.878906 11.265625 C 12.859375 11.253906 12.824219 11.25 12.777344 11.246094 C 12.730469 11.242188 12.699219 11.234375 12.695312 11.226562 C 12.691406 11.21875 12.671875 11.21875 12.648438 11.21875 C 12.621094 11.21875 12.589844 11.214844 12.5625 11.203125 C 12.53125 11.191406 12.5 11.191406 12.472656 11.195312 C 12.441406 11.199219 12.421875 11.199219 12.421875 11.195312 C 12.417969 11.191406 12.398438 11.1875 12.351562 11.1875 C 12.328125 11.1875 12.308594 11.183594 12.28125 11.183594 C 12.273438 11.195312 12.273438 11.195312 12.273438 11.199219 Z M 16.886719 12.699219 C 16.882812 12.703125 16.855469 12.707031 16.792969 12.714844 C 16.738281 12.71875 16.707031 12.726562 16.707031 12.730469 C 16.707031 12.738281 16.691406 12.742188 16.65625 12.742188 C 16.621094 12.742188 16.597656 12.75 16.59375 12.753906 C 16.585938 12.761719 16.570312 12.765625 16.542969 12.769531 C 16.511719 12.773438 16.5 12.78125 16.496094 12.789062 C 16.492188 12.800781 16.472656 12.8125 16.441406 12.824219 C 16.40625 12.835938 16.378906 12.84375 16.359375 12.847656 C 16.332031 12.851562 16.320312 12.855469 16.304688 12.871094 C 16.292969 12.882812 16.277344 12.890625 16.253906 12.902344 C 16.230469 12.914062 16.214844 12.921875 16.214844 12.925781 C 16.210938 12.933594 16.195312 12.945312 16.160156 12.960938 C 16.125 12.972656 16.109375 12.984375 16.105469 12.996094 C 16.105469 13 16.089844 13.007812 16.070312 13.019531 C 16.050781 13.03125 16.039062 13.039062 16.035156 13.046875 C 16.035156 13.054688 16.011719 13.074219 15.96875 13.09375 C 15.929688 13.113281 15.910156 13.132812 15.914062 13.136719 C 15.917969 13.140625 15.90625 13.148438 15.886719 13.164062 C 15.871094 13.175781 15.859375 13.195312 15.855469 13.207031 C 15.851562 13.21875 15.84375 13.222656 15.835938 13.222656 C 15.828125 13.222656 15.824219 13.230469 15.816406 13.242188 C 15.804688 13.257812 15.792969 13.273438 15.78125 13.28125 C 15.769531 13.292969 15.753906 13.300781 15.75 13.3125 C 15.746094 13.328125 15.738281 13.339844 15.71875 13.351562 C 15.703125 13.363281 15.6875 13.394531 15.664062 13.4375 C 15.644531 13.484375 15.625 13.519531 15.609375 13.535156 C 15.589844 13.554688 15.582031 13.566406 15.582031 13.570312 C 15.582031 13.574219 15.582031 13.582031 15.582031 13.582031 C 15.578125 13.582031 15.578125 13.582031 15.578125 13.582031 C 15.574219 13.582031 15.570312 13.59375 15.5625 13.621094 C 15.550781 13.648438 15.542969 13.667969 15.535156 13.675781 C 15.523438 13.683594 15.519531 13.691406 15.519531 13.703125 C 15.519531 13.71875 15.511719 13.726562 15.5 13.738281 C 15.488281 13.75 15.484375 13.769531 15.476562 13.808594 C 15.464844 13.84375 15.449219 13.894531 15.417969 13.964844 C 15.386719 14.039062 15.371094 14.082031 15.371094 14.105469 C 15.367188 14.128906 15.359375 14.148438 15.34375 14.167969 C 15.328125 14.1875 15.324219 14.199219 15.328125 14.210938 C 15.332031 14.222656 15.332031 14.226562 15.324219 14.238281 C 15.320312 14.246094 15.304688 14.277344 15.292969 14.34375 C 15.28125 14.40625 15.269531 14.445312 15.257812 14.453125 C 15.25 14.460938 15.242188 14.484375 15.238281 14.523438 C 15.234375 14.5625 15.226562 14.589844 15.21875 14.601562 C 15.214844 14.613281 15.207031 14.632812 15.210938 14.65625 C 15.210938 14.675781 15.210938 14.695312 15.203125 14.699219 C 15.199219 14.707031 15.191406 14.738281 15.183594 14.804688 C 15.171875 14.871094 15.164062 14.910156 15.160156 14.917969 C 15.15625 14.925781 15.152344 14.933594 15.15625 14.953125 C 15.160156 14.964844 15.15625 14.996094 15.144531 15.050781 C 15.128906 15.105469 15.125 15.136719 15.125 15.15625 C 15.128906 15.167969 15.125 15.1875 15.113281 15.210938 C 15.101562 15.230469 15.09375 15.25 15.101562 15.273438 C 15.105469 15.292969 15.101562 15.304688 15.09375 15.304688 C 15.089844 15.308594 15.085938 15.324219 15.085938 15.359375 C 15.085938 15.390625 15.082031 15.414062 15.082031 15.414062 C 15.078125 15.417969 15.078125 15.421875 15.078125 15.429688 C 15.078125 15.4375 15.078125 15.453125 15.070312 15.484375 C 15.0625 15.511719 15.058594 15.539062 15.058594 15.570312 C 15.058594 15.585938 15.058594 15.605469 15.058594 15.617188 C 15.050781 15.617188 15.050781 15.617188 15.050781 15.617188 C 15.046875 15.617188 15.042969 15.632812 15.042969 15.664062 C 15.042969 15.691406 15.035156 15.714844 15.027344 15.734375 C 15.019531 15.75 15.011719 15.777344 15.011719 15.820312 C 15.011719 15.863281 15.007812 15.886719 15.003906 15.894531 C 14.996094 15.902344 14.996094 15.925781 14.996094 15.949219 C 15 15.976562 14.996094 16.003906 14.988281 16.019531 C 14.980469 16.039062 14.976562 16.070312 14.976562 16.117188 C 14.976562 16.160156 14.96875 16.195312 14.96875 16.214844 C 14.964844 16.234375 14.960938 16.25 14.957031 16.25 C 14.953125 16.253906 14.949219 16.277344 14.949219 16.328125 C 14.949219 16.378906 14.945312 16.402344 14.9375 16.40625 C 14.933594 16.410156 14.921875 16.4375 14.921875 16.5 C 14.917969 16.5625 14.914062 16.601562 14.90625 16.609375 C 14.898438 16.621094 14.894531 16.648438 14.886719 16.6875 C 14.882812 16.730469 14.878906 16.753906 14.875 16.761719 C 14.867188 16.773438 14.867188 16.808594 14.867188 16.871094 C 14.867188 16.933594 14.863281 16.96875 14.859375 16.976562 C 14.851562 16.980469 14.84375 17 14.84375 17.03125 C 14.84375 17.058594 14.835938 17.078125 14.832031 17.085938 C 14.828125 17.097656 14.828125 17.113281 14.832031 17.132812 C 14.835938 17.152344 14.835938 17.175781 14.828125 17.195312 C 14.820312 17.214844 14.8125 17.25 14.8125 17.292969 C 14.8125 17.332031 14.808594 17.367188 14.796875 17.386719 C 14.789062 17.40625 14.785156 17.429688 14.789062 17.453125 C 14.792969 17.484375 14.789062 17.503906 14.785156 17.515625 C 14.777344 17.53125 14.777344 17.550781 14.777344 17.570312 C 14.777344 17.589844 14.773438 17.605469 14.769531 17.617188 C 14.757812 17.628906 14.757812 17.640625 14.761719 17.660156 C 14.769531 17.683594 14.769531 17.703125 14.757812 17.726562 C 14.75 17.753906 14.742188 17.8125 14.738281 17.910156 C 14.730469 18.011719 14.726562 18.074219 14.714844 18.09375 C 14.710938 18.113281 14.707031 18.136719 14.710938 18.15625 C 14.714844 18.171875 14.710938 18.1875 14.707031 18.199219 C 14.699219 18.210938 14.699219 18.269531 14.699219 18.375 C 14.703125 18.484375 14.699219 18.546875 14.695312 18.566406 C 14.691406 18.589844 14.6875 18.601562 14.683594 18.601562 C 14.675781 18.605469 14.675781 18.632812 14.675781 18.695312 C 14.675781 18.757812 14.683594 18.792969 14.683594 18.800781 C 14.6875 18.808594 14.6875 18.824219 14.6875 18.859375 C 14.6875 18.890625 14.6875 18.90625 14.691406 18.914062 C 14.695312 18.917969 14.699219 18.9375 14.699219 18.972656 C 14.703125 19.015625 14.707031 19.039062 14.710938 19.050781 C 14.714844 19.058594 14.726562 19.085938 14.730469 19.125 C 14.734375 19.160156 14.742188 19.1875 14.746094 19.191406 C 14.753906 19.195312 14.761719 19.207031 14.777344 19.226562 C 14.789062 19.25 14.792969 19.269531 14.796875 19.292969 C 14.800781 19.320312 14.816406 19.335938 14.832031 19.351562 C 14.851562 19.371094 14.867188 19.386719 14.875 19.40625 C 14.882812 19.425781 14.902344 19.449219 14.925781 19.472656 C 14.953125 19.5 14.976562 19.511719 14.992188 19.519531 C 15.007812 19.527344 15.023438 19.535156 15.03125 19.546875 C 15.039062 19.558594 15.046875 19.570312 15.066406 19.570312 C 15.078125 19.574219 15.089844 19.578125 15.101562 19.589844 C 15.109375 19.601562 15.125 19.609375 15.152344 19.617188 C 15.175781 19.621094 15.199219 19.636719 15.21875 19.652344 C 15.238281 19.667969 15.277344 19.679688 15.332031 19.695312 C 15.386719 19.707031 15.417969 19.714844 15.425781 19.722656 C 15.4375 19.730469 15.449219 19.734375 15.46875 19.730469 C 15.492188 19.726562 15.507812 19.730469 15.523438 19.738281 C 15.535156 19.746094 15.5625 19.753906 15.59375 19.761719 C 15.628906 19.765625 15.675781 19.769531 15.742188 19.769531 C 15.804688 19.769531 15.851562 19.769531 15.871094 19.765625 C 15.894531 19.753906 15.90625 19.75 15.90625 19.746094 C 15.90625 19.742188 15.921875 19.738281 15.960938 19.738281 C 15.996094 19.734375 16.019531 19.734375 16.023438 19.726562 C 16.027344 19.722656 16.03125 19.71875 16.035156 19.722656 C 16.039062 19.726562 16.050781 19.71875 16.078125 19.707031 C 16.105469 19.695312 16.125 19.683594 16.148438 19.679688 C 16.167969 19.675781 16.179688 19.667969 16.191406 19.65625 C 16.195312 19.644531 16.203125 19.636719 16.214844 19.636719 C 16.230469 19.636719 16.246094 19.617188 16.273438 19.59375 C 16.296875 19.570312 16.316406 19.554688 16.328125 19.550781 C 16.339844 19.546875 16.355469 19.539062 16.375 19.519531 C 16.398438 19.5 16.410156 19.480469 16.410156 19.472656 C 16.414062 19.464844 16.417969 19.460938 16.425781 19.457031 C 16.4375 19.453125 16.441406 19.449219 16.441406 19.441406 C 16.441406 19.429688 16.445312 19.421875 16.457031 19.417969 C 16.46875 19.410156 16.472656 19.402344 16.480469 19.390625 C 16.484375 19.378906 16.492188 19.363281 16.503906 19.355469 C 16.519531 19.347656 16.527344 19.332031 16.53125 19.320312 C 16.535156 19.308594 16.546875 19.289062 16.570312 19.277344 C 16.589844 19.261719 16.605469 19.25 16.605469 19.230469 C 16.605469 19.214844 16.613281 19.203125 16.625 19.191406 C 16.636719 19.179688 16.648438 19.175781 16.644531 19.167969 C 16.644531 19.164062 16.636719 19.164062 16.636719 19.160156 C 16.636719 19.160156 16.644531 19.160156 16.644531 19.160156 C 16.648438 19.160156 16.652344 19.152344 16.660156 19.132812 C 16.664062 19.117188 16.671875 19.097656 16.679688 19.089844 C 16.691406 19.082031 16.703125 19.058594 16.714844 19.019531 C 16.730469 18.984375 16.742188 18.960938 16.75 18.953125 C 16.757812 18.945312 16.761719 18.933594 16.769531 18.921875 C 16.773438 18.902344 16.78125 18.894531 16.789062 18.886719 C 16.800781 18.878906 16.804688 18.867188 16.804688 18.855469 C 16.804688 18.839844 16.820312 18.816406 16.839844 18.777344 C 16.863281 18.742188 16.875 18.710938 16.878906 18.695312 C 16.882812 18.679688 16.894531 18.664062 16.90625 18.648438 C 16.917969 18.636719 16.925781 18.617188 16.9375 18.589844 C 16.945312 18.558594 16.953125 18.539062 16.960938 18.527344 C 16.972656 18.511719 16.980469 18.496094 16.980469 18.480469 C 16.984375 18.464844 16.984375 18.449219 16.988281 18.449219 C 16.992188 18.449219 17 18.4375 17.007812 18.417969 C 17.023438 18.398438 17.027344 18.378906 17.023438 18.371094 C 17.019531 18.363281 17.023438 18.359375 17.027344 18.355469 C 17.035156 18.355469 17.039062 18.34375 17.042969 18.320312 C 17.046875 18.300781 17.054688 18.289062 17.0625 18.277344 C 17.070312 18.269531 17.074219 18.253906 17.078125 18.234375 C 17.082031 18.21875 17.085938 18.203125 17.089844 18.191406 C 17.097656 18.183594 17.097656 18.175781 17.097656 18.171875 C 17.097656 18.167969 17.09375 18.164062 17.09375 18.164062 C 17.097656 18.164062 17.097656 18.164062 17.105469 18.164062 C 17.109375 18.164062 17.113281 18.160156 17.121094 18.148438 C 17.125 18.136719 17.132812 18.113281 17.136719 18.089844 C 17.144531 18.0625 17.15625 18.035156 17.164062 18.011719 C 17.175781 17.984375 17.179688 17.972656 17.1875 17.972656 C 17.191406 17.972656 17.195312 17.957031 17.203125 17.925781 C 17.210938 17.898438 17.214844 17.882812 17.21875 17.882812 C 17.222656 17.882812 17.222656 17.882812 17.222656 17.882812 C 17.222656 17.878906 17.222656 17.867188 17.222656 17.863281 C 17.222656 17.851562 17.234375 17.839844 17.246094 17.820312 C 17.257812 17.800781 17.269531 17.785156 17.269531 17.773438 C 17.269531 17.761719 17.277344 17.746094 17.285156 17.71875 C 17.296875 17.691406 17.304688 17.667969 17.304688 17.652344 C 17.304688 17.636719 17.316406 17.617188 17.328125 17.585938 C 17.339844 17.558594 17.347656 17.539062 17.34375 17.535156 C 17.339844 17.53125 17.34375 17.523438 17.355469 17.519531 C 17.363281 17.511719 17.367188 17.496094 17.371094 17.472656 C 17.375 17.449219 17.382812 17.433594 17.402344 17.417969 C 17.414062 17.398438 17.421875 17.382812 17.421875 17.359375 C 17.421875 17.335938 17.425781 17.320312 17.429688 17.316406 C 17.4375 17.308594 17.449219 17.277344 17.464844 17.230469 C 17.480469 17.175781 17.496094 17.140625 17.507812 17.121094 C 17.523438 17.105469 17.53125 17.082031 17.535156 17.066406 C 17.539062 17.050781 17.542969 17.039062 17.550781 17.035156 C 17.554688 17.03125 17.570312 17 17.578125 16.953125 C 17.589844 16.90625 17.597656 16.871094 17.613281 16.859375 C 17.625 16.847656 17.632812 16.8125 17.652344 16.757812 C 17.667969 16.707031 17.675781 16.671875 17.691406 16.664062 C 17.703125 16.65625 17.707031 16.640625 17.707031 16.617188 C 17.707031 16.597656 17.710938 16.585938 17.714844 16.585938 C 17.71875 16.582031 17.722656 16.574219 17.722656 16.554688 C 17.730469 16.539062 17.738281 16.511719 17.757812 16.476562 C 17.78125 16.4375 17.792969 16.410156 17.792969 16.398438 C 17.792969 16.382812 17.796875 16.367188 17.8125 16.355469 C 17.824219 16.34375 17.828125 16.332031 17.828125 16.3125 C 17.828125 16.289062 17.832031 16.277344 17.835938 16.273438 C 17.84375 16.265625 17.859375 16.226562 17.878906 16.152344 C 17.902344 16.078125 17.914062 16.042969 17.917969 16.042969 C 17.921875 16.042969 17.929688 16.03125 17.9375 16.011719 C 17.945312 15.988281 17.953125 15.957031 17.957031 15.925781 C 17.960938 15.890625 17.96875 15.859375 17.984375 15.832031 C 17.996094 15.808594 18 15.785156 18 15.765625 C 18 15.746094 18.003906 15.734375 18.015625 15.714844 C 18.03125 15.703125 18.039062 15.679688 18.042969 15.648438 C 18.046875 15.621094 18.054688 15.597656 18.066406 15.578125 C 18.074219 15.566406 18.085938 15.523438 18.097656 15.457031 C 18.113281 15.390625 18.121094 15.359375 18.125 15.359375 C 18.128906 15.359375 18.128906 15.359375 18.128906 15.359375 C 18.128906 15.355469 18.128906 15.347656 18.128906 15.34375 C 18.128906 15.328125 18.132812 15.320312 18.140625 15.304688 C 18.152344 15.289062 18.15625 15.277344 18.152344 15.265625 C 18.148438 15.257812 18.152344 15.242188 18.160156 15.230469 C 18.167969 15.21875 18.175781 15.179688 18.179688 15.125 C 18.1875 15.070312 18.195312 15.042969 18.199219 15.042969 C 18.203125 15.042969 18.207031 15.03125 18.210938 15 C 18.214844 14.972656 18.21875 14.953125 18.230469 14.949219 C 18.234375 14.9375 18.242188 14.917969 18.242188 14.886719 C 18.246094 14.851562 18.246094 14.835938 18.25 14.835938 C 18.253906 14.835938 18.257812 14.824219 18.261719 14.800781 C 18.265625 14.78125 18.265625 14.761719 18.265625 14.742188 C 18.265625 14.734375 18.261719 14.722656 18.261719 14.714844 C 18.265625 14.714844 18.265625 14.714844 18.265625 14.714844 C 18.265625 14.714844 18.273438 14.714844 18.277344 14.714844 C 18.277344 14.699219 18.277344 14.679688 18.277344 14.667969 C 18.277344 14.636719 18.277344 14.617188 18.28125 14.613281 C 18.285156 14.609375 18.285156 14.59375 18.285156 14.574219 C 18.285156 14.550781 18.285156 14.523438 18.292969 14.492188 C 18.300781 14.457031 18.304688 14.414062 18.304688 14.367188 C 18.304688 14.316406 18.3125 14.28125 18.316406 14.261719 C 18.324219 14.242188 18.324219 14.207031 18.324219 14.160156 C 18.320312 14.117188 18.320312 14.089844 18.316406 14.089844 C 18.3125 14.085938 18.3125 14.066406 18.316406 14.019531 C 18.320312 13.976562 18.320312 13.945312 18.3125 13.925781 C 18.300781 13.90625 18.300781 13.882812 18.300781 13.863281 C 18.304688 13.835938 18.300781 13.816406 18.292969 13.792969 C 18.285156 13.765625 18.28125 13.742188 18.28125 13.722656 C 18.28125 13.699219 18.277344 13.675781 18.261719 13.652344 C 18.25 13.625 18.246094 13.597656 18.246094 13.570312 C 18.246094 13.542969 18.242188 13.519531 18.238281 13.496094 C 18.234375 13.476562 18.21875 13.460938 18.210938 13.445312 C 18.199219 13.433594 18.191406 13.410156 18.179688 13.371094 C 18.171875 13.335938 18.160156 13.304688 18.140625 13.289062 C 18.125 13.273438 18.117188 13.257812 18.117188 13.246094 C 18.117188 13.238281 18.105469 13.214844 18.082031 13.175781 C 18.0625 13.140625 18.042969 13.117188 18.03125 13.109375 C 18.015625 13.101562 18.003906 13.085938 17.984375 13.050781 C 17.960938 13.019531 17.941406 13 17.917969 12.988281 C 17.898438 12.980469 17.882812 12.96875 17.878906 12.957031 C 17.875 12.945312 17.871094 12.9375 17.863281 12.933594 C 17.855469 12.921875 17.847656 12.921875 17.84375 12.921875 C 17.839844 12.921875 17.832031 12.917969 17.824219 12.902344 C 17.8125 12.890625 17.800781 12.882812 17.789062 12.878906 C 17.777344 12.875 17.761719 12.871094 17.75 12.855469 C 17.738281 12.84375 17.71875 12.835938 17.695312 12.824219 C 17.671875 12.816406 17.652344 12.808594 17.636719 12.792969 C 17.625 12.78125 17.597656 12.773438 17.566406 12.769531 C 17.53125 12.761719 17.503906 12.753906 17.488281 12.746094 C 17.46875 12.730469 17.429688 12.722656 17.367188 12.710938 C 17.300781 12.699219 17.234375 12.691406 17.15625 12.691406 C 17.078125 12.691406 17.03125 12.691406 17.007812 12.695312 C 16.988281 12.699219 16.964844 12.699219 16.941406 12.695312 C 16.90625 12.695312 16.894531 12.695312 16.886719 12.699219 Z M 12.242188 19.769531 C 12.238281 19.773438 12.210938 19.773438 12.160156 19.773438 C 12.109375 19.773438 12.078125 19.773438 12.066406 19.78125 C 12.050781 19.789062 12.035156 19.792969 12.007812 19.785156 C 11.988281 19.78125 11.964844 19.78125 11.945312 19.789062 C 11.929688 19.796875 11.902344 19.800781 11.871094 19.800781 C 11.839844 19.800781 11.792969 19.8125 11.726562 19.839844 C 11.65625 19.863281 11.617188 19.878906 11.613281 19.894531 C 11.609375 19.90625 11.601562 19.910156 11.589844 19.910156 C 11.582031 19.910156 11.566406 19.917969 11.542969 19.9375 C 11.523438 19.960938 11.503906 19.96875 11.492188 19.972656 C 11.480469 19.976562 11.441406 20.007812 11.375 20.078125 C 11.3125 20.152344 11.277344 20.191406 11.273438 20.207031 C 11.269531 20.230469 11.265625 20.238281 11.253906 20.242188 C 11.246094 20.246094 11.246094 20.25 11.246094 20.257812 C 11.246094 20.265625 11.238281 20.28125 11.226562 20.296875 C 11.210938 20.3125 11.203125 20.328125 11.203125 20.347656 C 11.203125 20.363281 11.199219 20.371094 11.191406 20.378906 C 11.183594 20.386719 11.183594 20.394531 11.183594 20.414062 C 11.183594 20.429688 11.179688 20.441406 11.167969 20.453125 C 11.160156 20.464844 11.15625 20.480469 11.152344 20.503906 C 11.148438 20.527344 11.148438 20.550781 11.148438 20.570312 C 11.152344 20.589844 11.148438 20.609375 11.140625 20.617188 C 11.132812 20.628906 11.128906 20.640625 11.132812 20.652344 C 11.132812 20.671875 11.132812 20.683594 11.125 20.699219 C 11.117188 20.714844 11.117188 20.726562 11.117188 20.746094 C 11.117188 20.761719 11.121094 20.777344 11.125 20.789062 C 11.132812 20.808594 11.132812 20.828125 11.128906 20.855469 C 11.125 20.886719 11.128906 20.90625 11.140625 20.921875 C 11.148438 20.9375 11.152344 20.957031 11.152344 20.972656 C 11.152344 20.988281 11.15625 21.007812 11.160156 21.015625 C 11.167969 21.023438 11.167969 21.039062 11.167969 21.070312 C 11.167969 21.09375 11.179688 21.113281 11.191406 21.132812 C 11.203125 21.144531 11.210938 21.160156 11.210938 21.175781 C 11.210938 21.195312 11.214844 21.207031 11.230469 21.21875 C 11.242188 21.230469 11.253906 21.257812 11.265625 21.28125 C 11.273438 21.304688 11.285156 21.328125 11.296875 21.335938 C 11.316406 21.34375 11.324219 21.355469 11.332031 21.375 C 11.339844 21.398438 11.351562 21.410156 11.367188 21.421875 C 11.382812 21.433594 11.398438 21.445312 11.402344 21.464844 C 11.40625 21.480469 11.417969 21.488281 11.4375 21.492188 C 11.449219 21.496094 11.476562 21.515625 11.507812 21.546875 C 11.542969 21.582031 11.601562 21.609375 11.671875 21.640625 C 11.746094 21.675781 11.789062 21.6875 11.808594 21.6875 C 11.824219 21.6875 11.839844 21.691406 11.867188 21.703125 C 11.894531 21.71875 11.949219 21.722656 12.03125 21.722656 C 12.113281 21.722656 12.160156 21.726562 12.167969 21.730469 C 12.175781 21.738281 12.191406 21.738281 12.203125 21.738281 C 12.214844 21.738281 12.234375 21.734375 12.246094 21.730469 C 12.257812 21.726562 12.273438 21.722656 12.289062 21.726562 C 12.300781 21.730469 12.324219 21.726562 12.347656 21.722656 C 12.367188 21.71875 12.382812 21.714844 12.394531 21.71875 C 12.40625 21.722656 12.414062 21.722656 12.425781 21.71875 C 12.441406 21.714844 12.449219 21.714844 12.460938 21.714844 C 12.476562 21.714844 12.492188 21.710938 12.519531 21.699219 C 12.542969 21.691406 12.566406 21.683594 12.582031 21.683594 C 12.601562 21.683594 12.617188 21.679688 12.625 21.671875 C 12.632812 21.664062 12.65625 21.65625 12.691406 21.652344 C 12.726562 21.648438 12.773438 21.621094 12.832031 21.585938 C 12.894531 21.546875 12.925781 21.527344 12.9375 21.527344 C 12.945312 21.527344 12.976562 21.503906 13.027344 21.460938 C 13.078125 21.414062 13.105469 21.390625 13.105469 21.378906 C 13.105469 21.371094 13.109375 21.367188 13.113281 21.363281 C 13.117188 21.359375 13.128906 21.34375 13.148438 21.304688 C 13.164062 21.269531 13.183594 21.246094 13.195312 21.234375 C 13.207031 21.222656 13.214844 21.210938 13.214844 21.203125 C 13.214844 21.199219 13.214844 21.191406 13.214844 21.183594 C 13.214844 21.183594 13.21875 21.183594 13.226562 21.183594 C 13.230469 21.183594 13.234375 21.179688 13.234375 21.167969 C 13.234375 21.15625 13.242188 21.152344 13.246094 21.148438 C 13.253906 21.144531 13.257812 21.128906 13.269531 21.09375 C 13.277344 21.0625 13.28125 21.039062 13.292969 21.019531 C 13.308594 21 13.3125 20.980469 13.3125 20.96875 C 13.3125 20.957031 13.316406 20.9375 13.328125 20.914062 C 13.339844 20.894531 13.34375 20.855469 13.34375 20.808594 C 13.34375 20.757812 13.351562 20.714844 13.359375 20.679688 C 13.367188 20.640625 13.367188 20.617188 13.363281 20.59375 C 13.359375 20.574219 13.351562 20.542969 13.351562 20.492188 C 13.351562 20.445312 13.34375 20.414062 13.339844 20.402344 C 13.335938 20.394531 13.332031 20.386719 13.328125 20.386719 C 13.324219 20.386719 13.324219 20.386719 13.320312 20.386719 C 13.320312 20.375 13.320312 20.367188 13.324219 20.355469 C 13.328125 20.339844 13.328125 20.332031 13.328125 20.320312 C 13.324219 20.320312 13.324219 20.320312 13.320312 20.320312 C 13.316406 20.320312 13.3125 20.3125 13.3125 20.296875 C 13.308594 20.28125 13.300781 20.265625 13.292969 20.261719 C 13.285156 20.257812 13.28125 20.25 13.28125 20.238281 C 13.28125 20.226562 13.277344 20.21875 13.273438 20.214844 C 13.265625 20.207031 13.257812 20.195312 13.253906 20.179688 C 13.25 20.164062 13.242188 20.152344 13.234375 20.144531 C 13.226562 20.140625 13.207031 20.117188 13.1875 20.070312 C 13.164062 20.027344 13.148438 20 13.140625 20 C 13.128906 19.996094 13.125 19.992188 13.121094 19.984375 C 13.117188 19.976562 13.105469 19.96875 13.082031 19.957031 C 13.0625 19.941406 13.046875 19.9375 13.046875 19.929688 C 13.042969 19.921875 13.039062 19.921875 13.035156 19.921875 C 13.03125 19.921875 13.023438 19.917969 13.023438 19.914062 C 13.019531 19.90625 13.007812 19.902344 12.996094 19.894531 C 12.984375 19.882812 12.957031 19.878906 12.925781 19.875 C 12.898438 19.871094 12.875 19.867188 12.867188 19.859375 C 12.859375 19.851562 12.847656 19.847656 12.828125 19.847656 C 12.8125 19.847656 12.792969 19.84375 12.773438 19.832031 C 12.753906 19.816406 12.738281 19.8125 12.726562 19.8125 C 12.710938 19.8125 12.703125 19.808594 12.695312 19.804688 C 12.6875 19.796875 12.652344 19.792969 12.582031 19.789062 C 12.515625 19.78125 12.460938 19.777344 12.433594 19.769531 C 12.402344 19.761719 12.375 19.753906 12.355469 19.765625 C 12.335938 19.769531 12.316406 19.769531 12.296875 19.765625 C 12.253906 19.765625 12.246094 19.765625 12.242188 19.769531 Z M 14.917969 20.554688 C 14.910156 20.558594 14.886719 20.5625 14.855469 20.5625 C 14.820312 20.5625 14.792969 20.566406 14.777344 20.578125 C 14.757812 20.589844 14.742188 20.597656 14.726562 20.597656 C 14.707031 20.597656 14.691406 20.613281 14.667969 20.625 C 14.648438 20.636719 14.632812 20.648438 14.621094 20.648438 C 14.609375 20.652344 14.59375 20.660156 14.585938 20.675781 C 14.578125 20.6875 14.5625 20.699219 14.539062 20.710938 C 14.519531 20.722656 14.5 20.734375 14.488281 20.746094 C 14.476562 20.757812 14.460938 20.773438 14.453125 20.789062 C 14.441406 20.808594 14.425781 20.824219 14.414062 20.832031 C 14.398438 20.839844 14.382812 20.859375 14.371094 20.894531 C 14.359375 20.929688 14.339844 20.960938 14.324219 20.988281 C 14.308594 21.019531 14.292969 21.039062 14.292969 21.054688 C 14.292969 21.074219 14.285156 21.089844 14.273438 21.105469 C 14.253906 21.125 14.25 21.140625 14.25 21.15625 C 14.25 21.167969 14.246094 21.183594 14.234375 21.207031 C 14.21875 21.226562 14.214844 21.246094 14.210938 21.273438 C 14.207031 21.296875 14.203125 21.308594 14.195312 21.3125 C 14.1875 21.320312 14.1875 21.335938 14.1875 21.367188 C 14.1875 21.402344 14.183594 21.417969 14.175781 21.425781 C 14.167969 21.429688 14.167969 21.46875 14.167969 21.53125 C 14.171875 21.597656 14.167969 21.628906 14.164062 21.636719 C 14.160156 21.648438 14.164062 21.683594 14.175781 21.753906 C 14.191406 21.820312 14.203125 21.867188 14.21875 21.882812 C 14.234375 21.898438 14.242188 21.917969 14.242188 21.929688 C 14.242188 21.941406 14.246094 21.957031 14.257812 21.984375 C 14.273438 22.007812 14.285156 22.023438 14.300781 22.039062 C 14.316406 22.050781 14.328125 22.0625 14.335938 22.078125 C 14.339844 22.09375 14.359375 22.109375 14.378906 22.121094 C 14.402344 22.136719 14.421875 22.152344 14.441406 22.179688 C 14.457031 22.203125 14.476562 22.214844 14.492188 22.21875 C 14.507812 22.222656 14.523438 22.234375 14.53125 22.242188 C 14.539062 22.253906 14.550781 22.261719 14.574219 22.265625 C 14.59375 22.269531 14.605469 22.277344 14.609375 22.285156 C 14.613281 22.289062 14.625 22.304688 14.65625 22.320312 C 14.6875 22.335938 14.714844 22.347656 14.757812 22.355469 C 14.800781 22.367188 14.824219 22.375 14.832031 22.382812 C 14.835938 22.390625 14.851562 22.394531 14.867188 22.398438 C 14.882812 22.402344 14.898438 22.398438 14.90625 22.394531 C 14.910156 22.390625 14.914062 22.390625 14.917969 22.386719 C 14.917969 22.390625 14.917969 22.394531 14.917969 22.394531 C 14.917969 22.398438 14.925781 22.40625 14.9375 22.410156 C 14.949219 22.414062 14.964844 22.414062 14.984375 22.414062 C 15.003906 22.410156 15.011719 22.414062 15.019531 22.417969 C 15.023438 22.425781 15.039062 22.429688 15.074219 22.429688 C 15.109375 22.433594 15.136719 22.429688 15.160156 22.425781 C 15.1875 22.417969 15.207031 22.417969 15.234375 22.425781 C 15.257812 22.429688 15.28125 22.429688 15.292969 22.417969 C 15.304688 22.414062 15.328125 22.410156 15.351562 22.410156 C 15.371094 22.410156 15.394531 22.40625 15.417969 22.394531 C 15.445312 22.382812 15.460938 22.378906 15.480469 22.382812 C 15.496094 22.382812 15.519531 22.378906 15.542969 22.363281 C 15.570312 22.34375 15.589844 22.335938 15.609375 22.332031 C 15.625 22.332031 15.65625 22.3125 15.707031 22.273438 C 15.753906 22.242188 15.785156 22.21875 15.800781 22.210938 C 15.816406 22.207031 15.828125 22.195312 15.839844 22.175781 C 15.855469 22.15625 15.867188 22.136719 15.886719 22.121094 C 15.910156 22.105469 15.925781 22.082031 15.941406 22.054688 C 15.953125 22.027344 15.964844 22.007812 15.976562 22 C 15.988281 21.992188 15.992188 21.984375 15.992188 21.964844 C 15.992188 21.953125 15.996094 21.941406 16.007812 21.929688 C 16.023438 21.917969 16.03125 21.890625 16.039062 21.859375 C 16.046875 21.820312 16.054688 21.796875 16.070312 21.777344 C 16.082031 21.753906 16.085938 21.734375 16.085938 21.710938 C 16.089844 21.683594 16.09375 21.667969 16.109375 21.65625 C 16.121094 21.640625 16.121094 21.625 16.121094 21.605469 C 16.121094 21.585938 16.121094 21.5625 16.128906 21.546875 C 16.132812 21.53125 16.136719 21.503906 16.132812 21.472656 C 16.128906 21.4375 16.128906 21.398438 16.128906 21.347656 C 16.132812 21.296875 16.125 21.25 16.113281 21.21875 C 16.101562 21.183594 16.09375 21.152344 16.09375 21.136719 C 16.09375 21.113281 16.089844 21.097656 16.078125 21.082031 C 16.066406 21.066406 16.0625 21.054688 16.066406 21.046875 C 16.066406 21.042969 16.070312 21.042969 16.070312 21.042969 C 16.066406 21.042969 16.0625 21.039062 16.054688 21.039062 C 16.046875 21.035156 16.042969 21.03125 16.039062 21.019531 C 16.035156 21.007812 16.03125 21.003906 16.023438 20.996094 C 16.011719 20.984375 16 20.96875 15.984375 20.941406 C 15.964844 20.910156 15.953125 20.894531 15.945312 20.894531 C 15.9375 20.894531 15.917969 20.878906 15.886719 20.847656 C 15.859375 20.820312 15.828125 20.804688 15.804688 20.800781 C 15.78125 20.792969 15.753906 20.78125 15.730469 20.757812 C 15.703125 20.734375 15.6875 20.71875 15.671875 20.710938 C 15.660156 20.703125 15.65625 20.703125 15.648438 20.703125 C 15.636719 20.707031 15.632812 20.703125 15.628906 20.691406 C 15.621094 20.679688 15.609375 20.675781 15.589844 20.671875 C 15.574219 20.671875 15.554688 20.660156 15.550781 20.652344 C 15.542969 20.644531 15.53125 20.636719 15.507812 20.632812 C 15.488281 20.628906 15.476562 20.621094 15.476562 20.617188 C 15.476562 20.613281 15.476562 20.613281 15.476562 20.613281 C 15.460938 20.613281 15.449219 20.613281 15.441406 20.613281 C 15.414062 20.613281 15.402344 20.609375 15.394531 20.59375 C 15.382812 20.582031 15.363281 20.578125 15.332031 20.578125 C 15.300781 20.578125 15.273438 20.570312 15.242188 20.558594 C 15.210938 20.546875 15.1875 20.542969 15.164062 20.542969 C 15.136719 20.546875 15.121094 20.542969 15.105469 20.535156 C 15.085938 20.53125 15.058594 20.527344 15.019531 20.527344 C 14.949219 20.542969 14.925781 20.546875 14.917969 20.554688 Z M 14.917969 20.554688 " fill-opacity="1" fill-rule="nonzero"/></g></svg>