<svg xmlns="http://www.w3.org/2000/svg" xmlns:xlink="http://www.w3.org/1999/xlink" width="1000" zoomAndPan="magnify" viewBox="0 0 750 749.999995" height="1000" preserveAspectRatio="xMidYMid meet" version="1.0"><defs><clipPath id="c9b25ed4c2"><path d="M 225 185.5 L 436 185.5 L 436 396 L 225 396 Z M 225 185.5 " clip-rule="nonzero"/></clipPath><clipPath id="520f724235"><path d="M 136 388 L 525 388 L 525 578.5 L 136 578.5 Z M 136 388 " clip-rule="nonzero"/></clipPath><clipPath id="ea90f7819e"><path d="M 431.910156 461.671875 L 595.140625 461.671875 L 595.140625 624.902344 L 431.910156 624.902344 Z M 431.910156 461.671875 " clip-rule="nonzero"/></clipPath><clipPath id="129322d8f2"><path d="M 513.527344 461.671875 C 468.449219 461.671875 431.910156 498.210938 431.910156 543.285156 C 431.910156 588.363281 468.449219 624.902344 513.527344 624.902344 C 558.601562 624.902344 595.140625 588.363281 595.140625 543.285156 C 595.140625 498.210938 558.601562 461.671875 513.527344 461.671875 " clip-rule="nonzero"/></clipPath><clipPath id="fcef4ab465"><path d="M 457.777344 487.539062 L 569.273438 487.539062 L 569.273438 599.035156 L 457.777344 599.035156 Z M 457.777344 487.539062 " clip-rule="nonzero"/></clipPath><clipPath id="a15fa3b256"><path d="M 513.527344 487.539062 C 482.738281 487.539062 457.777344 512.496094 457.777344 543.285156 C 457.777344 574.074219 482.738281 599.035156 513.527344 599.035156 C 544.3125 599.035156 569.273438 574.074219 569.273438 543.285156 C 569.273438 512.496094 544.3125 487.539062 513.527344 487.539062 " clip-rule="nonzero"/></clipPath><clipPath id="490eab63af"><path d="M 501 508 L 521 508 L 521 580 L 501 580 Z M 501 508 " clip-rule="nonzero"/></clipPath><clipPath id="3f30448a89"><path d="M 491.203125 513.628906 L 519.667969 506.902344 L 535.53125 574.054688 L 507.066406 580.78125 Z M 491.203125 513.628906 " clip-rule="nonzero"/></clipPath><clipPath id="6424a29f90"><path d="M 491.203125 513.628906 L 519.667969 506.902344 L 535.53125 574.054688 L 507.066406 580.78125 Z M 491.203125 513.628906 " clip-rule="nonzero"/></clipPath><clipPath id="799b1659b1"><path d="M 262 100 L 278 100 L 278 144 L 262 144 Z M 262 100 " clip-rule="nonzero"/></clipPath><clipPath id="c14523da5c"><path d="M 218.355469 56.644531 L 297.246094 116.457031 L 175.8125 276.625 L 96.921875 216.816406 Z M 218.355469 56.644531 " clip-rule="nonzero"/></clipPath><clipPath id="de1d5c03ba"><path d="M 218.355469 56.644531 L 297.246094 116.457031 L 175.8125 276.625 L 96.921875 216.816406 Z M 218.355469 56.644531 " clip-rule="nonzero"/></clipPath><clipPath id="b982f7e3f7"><path d="M 186 125 L 219 125 L 219 162 L 186 162 Z M 186 125 " clip-rule="nonzero"/></clipPath><clipPath id="2a11b0a1d8"><path d="M 218.355469 56.644531 L 297.246094 116.457031 L 175.8125 276.625 L 96.921875 216.816406 Z M 218.355469 56.644531 " clip-rule="nonzero"/></clipPath><clipPath id="8ed1f151af"><path d="M 218.355469 56.644531 L 297.246094 116.457031 L 175.8125 276.625 L 96.921875 216.816406 Z M 218.355469 56.644531 " clip-rule="nonzero"/></clipPath><clipPath id="6c2e828615"><path d="M 120 183 L 163 183 L 163 205 L 120 205 Z M 120 183 " clip-rule="nonzero"/></clipPath><clipPath id="910d5b7b3d"><path d="M 218.355469 56.644531 L 297.246094 116.457031 L 175.8125 276.625 L 96.921875 216.816406 Z M 218.355469 56.644531 " clip-rule="nonzero"/></clipPath><clipPath id="b746eed4b6"><path d="M 218.355469 56.644531 L 297.246094 116.457031 L 175.8125 276.625 L 96.921875 216.816406 Z M 218.355469 56.644531 " clip-rule="nonzero"/></clipPath><clipPath id="a5585c39a6"><path d="M 121 220 L 140 220 L 140 233 L 121 233 Z M 121 220 " clip-rule="nonzero"/></clipPath><clipPath id="bdc74fe208"><path d="M 218.355469 56.644531 L 297.246094 116.457031 L 175.8125 276.625 L 96.921875 216.816406 Z M 218.355469 56.644531 " clip-rule="nonzero"/></clipPath><clipPath id="6bc12ebd6f"><path d="M 218.355469 56.644531 L 297.246094 116.457031 L 175.8125 276.625 L 96.921875 216.816406 Z M 218.355469 56.644531 " clip-rule="nonzero"/></clipPath><clipPath id="c7f60d5d50"><path d="M 181 151 L 209 151 L 209 175 L 181 175 Z M 181 151 " clip-rule="nonzero"/></clipPath><clipPath id="c176dcf2cc"><path d="M 218.355469 56.644531 L 297.246094 116.457031 L 175.8125 276.625 L 96.921875 216.816406 Z M 218.355469 56.644531 " clip-rule="nonzero"/></clipPath><clipPath id="5286985da3"><path d="M 218.355469 56.644531 L 297.246094 116.457031 L 175.8125 276.625 L 96.921875 216.816406 Z M 218.355469 56.644531 " clip-rule="nonzero"/></clipPath><clipPath id="cd110ebbbe"><path d="M 578 466 L 668 466 L 668 604 L 578 604 Z M 578 466 " clip-rule="nonzero"/></clipPath><clipPath id="ac6c64eaba"><path d="M 696.273438 574.640625 L 579.007812 609.203125 L 545.722656 496.253906 L 662.984375 461.695312 Z M 696.273438 574.640625 " clip-rule="nonzero"/></clipPath><clipPath id="3c20663393"><path d="M 545.917969 496.171875 L 663.179688 461.613281 L 696.46875 574.558594 L 579.203125 609.121094 Z M 545.917969 496.171875 " clip-rule="nonzero"/></clipPath></defs><g clip-path="url(#c9b25ed4c2)"><path fill="#0d68b1" d="M 435.367188 290.300781 C 435.367188 292.015625 435.328125 293.730469 435.242188 295.441406 C 435.160156 297.15625 435.03125 298.867188 434.863281 300.574219 C 434.695312 302.28125 434.488281 303.980469 434.234375 305.675781 C 433.984375 307.375 433.691406 309.0625 433.355469 310.746094 C 433.019531 312.429688 432.644531 314.101562 432.226562 315.765625 C 431.8125 317.429688 431.355469 319.082031 430.855469 320.722656 C 430.359375 322.363281 429.820312 323.992188 429.242188 325.605469 C 428.664062 327.222656 428.046875 328.820312 427.390625 330.40625 C 426.734375 331.988281 426.039062 333.558594 425.308594 335.109375 C 424.574219 336.660156 423.804688 338.191406 422.996094 339.703125 C 422.1875 341.214844 421.339844 342.707031 420.460938 344.179688 C 419.578125 345.648438 418.660156 347.097656 417.707031 348.523438 C 416.753906 349.949219 415.765625 351.351562 414.746094 352.730469 C 413.722656 354.105469 412.667969 355.457031 411.582031 356.785156 C 410.492188 358.109375 409.371094 359.410156 408.222656 360.679688 C 407.070312 361.949219 405.886719 363.191406 404.675781 364.40625 C 403.460938 365.617188 402.21875 366.800781 400.949219 367.953125 C 399.675781 369.105469 398.378906 370.222656 397.054688 371.3125 C 395.726562 372.398438 394.375 373.453125 393 374.476562 C 391.621094 375.5 390.21875 376.484375 388.792969 377.4375 C 387.367188 378.390625 385.917969 379.308594 384.445312 380.191406 C 382.976562 381.070312 381.484375 381.917969 379.972656 382.726562 C 378.457031 383.535156 376.925781 384.304688 375.375 385.039062 C 373.828125 385.773438 372.257812 386.464844 370.675781 387.121094 C 369.089844 387.777344 367.488281 388.394531 365.875 388.972656 C 364.261719 389.550781 362.632812 390.089844 360.992188 390.585938 C 359.351562 391.085938 357.695312 391.542969 356.035156 391.960938 C 354.371094 392.375 352.695312 392.753906 351.015625 393.085938 C 349.332031 393.421875 347.644531 393.714844 345.945312 393.964844 C 344.25 394.21875 342.546875 394.425781 340.839844 394.59375 C 339.132812 394.765625 337.425781 394.890625 335.710938 394.972656 C 334 395.058594 332.285156 395.101562 330.570312 395.101562 C 328.855469 395.101562 327.140625 395.058594 325.425781 394.972656 C 323.714844 394.890625 322.003906 394.765625 320.296875 394.59375 C 318.589844 394.425781 316.886719 394.21875 315.191406 393.964844 C 313.496094 393.714844 311.804688 393.421875 310.125 393.085938 C 308.441406 392.753906 306.769531 392.375 305.105469 391.960938 C 303.441406 391.542969 301.789062 391.085938 300.148438 390.585938 C 298.507812 390.089844 296.878906 389.550781 295.261719 388.972656 C 293.648438 388.394531 292.046875 387.777344 290.464844 387.121094 C 288.878906 386.464844 287.3125 385.773438 285.761719 385.039062 C 284.210938 384.304688 282.679688 383.535156 281.167969 382.726562 C 279.652344 381.917969 278.164062 381.070312 276.691406 380.191406 C 275.21875 379.308594 273.769531 378.390625 272.34375 377.4375 C 270.917969 376.484375 269.515625 375.5 268.140625 374.476562 C 266.761719 373.453125 265.410156 372.398438 264.085938 371.3125 C 262.757812 370.222656 261.460938 369.105469 260.191406 367.953125 C 258.917969 366.800781 257.675781 365.617188 256.464844 364.40625 C 255.25 363.191406 254.070312 361.949219 252.917969 360.679688 C 251.765625 359.410156 250.644531 358.109375 249.558594 356.785156 C 248.46875 355.457031 247.414062 354.105469 246.394531 352.730469 C 245.371094 351.351562 244.382812 349.949219 243.429688 348.523438 C 242.476562 347.097656 241.5625 345.648438 240.679688 344.179688 C 239.796875 342.707031 238.953125 341.214844 238.144531 339.703125 C 237.335938 338.191406 236.5625 336.660156 235.832031 335.109375 C 235.097656 333.558594 234.402344 331.988281 233.746094 330.40625 C 233.089844 328.820312 232.472656 327.222656 231.894531 325.605469 C 231.316406 323.992188 230.78125 322.363281 230.28125 320.722656 C 229.785156 319.082031 229.328125 317.429688 228.910156 315.765625 C 228.492188 314.101562 228.117188 312.429688 227.78125 310.746094 C 227.449219 309.0625 227.15625 307.375 226.902344 305.675781 C 226.652344 303.980469 226.441406 302.28125 226.273438 300.574219 C 226.105469 298.867188 225.980469 297.15625 225.894531 295.441406 C 225.8125 293.730469 225.769531 292.015625 225.769531 290.300781 C 225.769531 288.585938 225.8125 286.871094 225.894531 285.15625 C 225.980469 283.445312 226.105469 281.734375 226.273438 280.027344 C 226.441406 278.320312 226.652344 276.621094 226.902344 274.921875 C 227.15625 273.226562 227.449219 271.535156 227.78125 269.855469 C 228.117188 268.171875 228.492188 266.5 228.910156 264.835938 C 229.328125 263.171875 229.785156 261.519531 230.28125 259.878906 C 230.78125 258.238281 231.316406 256.609375 231.894531 254.996094 C 232.472656 253.378906 233.089844 251.78125 233.746094 250.195312 C 234.402344 248.609375 235.097656 247.042969 235.832031 245.492188 C 236.5625 243.941406 237.335938 242.410156 238.144531 240.898438 C 238.953125 239.386719 239.796875 237.894531 240.679688 236.421875 C 241.5625 234.953125 242.476562 233.503906 243.429688 232.078125 C 244.382812 230.652344 245.371094 229.25 246.394531 227.871094 C 247.414062 226.492188 248.46875 225.140625 249.558594 223.816406 C 250.644531 222.488281 251.765625 221.191406 252.917969 219.921875 C 254.070312 218.648438 255.25 217.410156 256.464844 216.195312 C 257.675781 214.984375 258.917969 213.800781 260.191406 212.648438 C 261.460938 211.496094 262.757812 210.375 264.085938 209.289062 C 265.410156 208.199219 266.761719 207.144531 268.140625 206.125 C 269.515625 205.101562 270.917969 204.113281 272.34375 203.164062 C 273.769531 202.210938 275.21875 201.292969 276.691406 200.410156 C 278.164062 199.527344 279.652344 198.683594 281.167969 197.875 C 282.679688 197.066406 284.210938 196.296875 285.761719 195.5625 C 287.3125 194.828125 288.878906 194.132812 290.464844 193.476562 C 292.046875 192.820312 293.648438 192.203125 295.261719 191.625 C 296.878906 191.046875 298.507812 190.511719 300.148438 190.011719 C 301.789062 189.515625 303.441406 189.058594 305.105469 188.640625 C 306.769531 188.222656 308.441406 187.847656 310.125 187.515625 C 311.804688 187.179688 313.496094 186.886719 315.191406 186.632812 C 316.886719 186.382812 318.589844 186.171875 320.296875 186.003906 C 322.003906 185.835938 323.714844 185.710938 325.425781 185.625 C 327.140625 185.542969 328.855469 185.5 330.570312 185.5 C 332.285156 185.5 334 185.542969 335.710938 185.625 C 337.425781 185.710938 339.132812 185.835938 340.839844 186.003906 C 342.546875 186.171875 344.25 186.382812 345.945312 186.632812 C 347.644531 186.886719 349.332031 187.179688 351.015625 187.515625 C 352.695312 187.847656 354.371094 188.222656 356.035156 188.640625 C 357.695312 189.058594 359.351562 189.515625 360.992188 190.011719 C 362.632812 190.511719 364.261719 191.046875 365.875 191.625 C 367.488281 192.203125 369.089844 192.820312 370.675781 193.476562 C 372.257812 194.132812 373.828125 194.828125 375.375 195.5625 C 376.925781 196.296875 378.457031 197.066406 379.972656 197.875 C 381.484375 198.683594 382.976562 199.527344 384.445312 200.410156 C 385.917969 201.292969 387.367188 202.210938 388.792969 203.164062 C 390.21875 204.113281 391.621094 205.101562 393 206.125 C 394.375 207.144531 395.726562 208.199219 397.054688 209.289062 C 398.378906 210.375 399.675781 211.496094 400.949219 212.648438 C 402.21875 213.800781 403.460938 214.984375 404.675781 216.195312 C 405.886719 217.410156 407.070312 218.648438 408.222656 219.921875 C 409.371094 221.191406 410.492188 222.488281 411.582031 223.816406 C 412.667969 225.140625 413.722656 226.492188 414.746094 227.871094 C 415.765625 229.25 416.753906 230.652344 417.707031 232.078125 C 418.660156 233.503906 419.578125 234.953125 420.460938 236.421875 C 421.339844 237.894531 422.1875 239.386719 422.996094 240.898438 C 423.804688 242.410156 424.574219 243.941406 425.308594 245.492188 C 426.039062 247.042969 426.734375 248.609375 427.390625 250.195312 C 428.046875 251.78125 428.664062 253.378906 429.242188 254.996094 C 429.820312 256.609375 430.359375 258.238281 430.855469 259.878906 C 431.355469 261.519531 431.8125 263.171875 432.226562 264.835938 C 432.644531 266.5 433.019531 268.171875 433.355469 269.855469 C 433.691406 271.535156 433.984375 273.226562 434.234375 274.921875 C 434.488281 276.621094 434.695312 278.320312 434.863281 280.027344 C 435.03125 281.734375 435.160156 283.445312 435.242188 285.15625 C 435.328125 286.871094 435.367188 288.585938 435.367188 290.300781 Z M 435.367188 290.300781 " fill-opacity="1" fill-rule="nonzero"/></g><g clip-path="url(#520f724235)"><path fill="#0d68b1" d="M 515.398438 564.367188 C 513.574219 566.5625 511.539062 568.535156 509.285156 570.285156 C 507.03125 572.035156 504.613281 573.519531 502.035156 574.742188 C 499.457031 575.960938 496.777344 576.890625 493.996094 577.523438 C 491.210938 578.15625 488.394531 578.484375 485.542969 578.5 L 175.597656 578.5 C 174.171875 578.496094 172.753906 578.410156 171.339844 578.253906 C 169.925781 578.09375 168.523438 577.859375 167.136719 577.546875 C 165.746094 577.238281 164.378906 576.851562 163.03125 576.394531 C 161.683594 575.933594 160.367188 575.402344 159.078125 574.800781 C 157.789062 574.199219 156.535156 573.53125 155.316406 572.792969 C 154.101562 572.058594 152.925781 571.257812 151.796875 570.390625 C 150.664062 569.527344 149.582031 568.605469 148.554688 567.625 C 147.523438 566.644531 146.546875 565.609375 145.628906 564.523438 C 144.710938 563.4375 143.851562 562.304688 143.054688 561.125 C 142.257812 559.945312 141.527344 558.726562 140.863281 557.46875 C 140.199219 556.207031 139.605469 554.917969 139.082031 553.59375 C 138.554688 552.273438 138.101562 550.925781 137.722656 549.554688 C 137.34375 548.183594 137.042969 546.792969 136.8125 545.390625 C 136.582031 543.984375 136.429688 542.570312 136.355469 541.152344 C 136.277344 539.730469 136.28125 538.308594 136.359375 536.886719 C 136.433594 535.46875 136.589844 534.054688 136.820312 532.648438 C 137.457031 528.8125 138.203125 525 139.066406 521.207031 C 139.929688 517.414062 140.90625 513.652344 141.992188 509.917969 C 143.082031 506.183594 144.277344 502.484375 145.585938 498.824219 C 146.894531 495.160156 148.308594 491.539062 149.832031 487.960938 C 151.355469 484.382812 152.984375 480.855469 154.71875 477.371094 C 156.453125 473.890625 158.289062 470.464844 160.226562 467.09375 C 162.167969 463.722656 164.203125 460.410156 166.339844 457.160156 C 168.476562 453.910156 170.707031 450.726562 173.03125 447.609375 C 175.359375 444.492188 177.773438 441.449219 180.28125 438.476562 C 182.789062 435.503906 185.382812 432.605469 188.0625 429.789062 C 190.742188 426.96875 193.503906 424.234375 196.347656 421.582031 C 199.191406 418.925781 202.109375 416.359375 205.105469 413.878906 C 208.101562 411.402344 211.171875 409.011719 214.308594 406.714844 C 217.449219 404.417969 220.652344 402.21875 223.921875 400.113281 C 227.191406 398.007812 230.519531 396 233.910156 394.09375 C 237.300781 392.1875 240.742188 390.382812 244.238281 388.679688 C 245.714844 389.980469 247.21875 391.246094 248.75 392.476562 C 250.28125 393.710938 251.839844 394.90625 253.425781 396.066406 C 255.011719 397.230469 256.621094 398.355469 258.257812 399.441406 C 259.894531 400.53125 261.554688 401.582031 263.238281 402.597656 C 264.921875 403.609375 266.628906 404.585938 268.355469 405.523438 C 270.082031 406.457031 271.832031 407.355469 273.601562 408.210938 C 275.367188 409.070312 277.15625 409.886719 278.960938 410.664062 C 280.765625 411.441406 282.589844 412.175781 284.425781 412.871094 C 286.265625 413.566406 288.117188 414.21875 289.988281 414.832031 C 291.855469 415.441406 293.734375 416.011719 295.628906 416.535156 C 297.523438 417.0625 299.425781 417.542969 301.34375 417.984375 C 303.257812 418.425781 305.183594 418.820312 307.117188 419.175781 C 309.050781 419.527344 310.988281 419.835938 312.9375 420.101562 C 314.886719 420.367188 316.835938 420.589844 318.792969 420.765625 C 320.753906 420.945312 322.710938 421.078125 324.675781 421.164062 C 326.640625 421.253906 328.605469 421.296875 330.570312 421.296875 C 332.535156 421.296875 334.5 421.253906 336.460938 421.164062 C 338.425781 421.078125 340.386719 420.945312 342.34375 420.765625 C 344.300781 420.589844 346.253906 420.367188 348.199219 420.101562 C 350.148438 419.835938 352.089844 419.527344 354.023438 419.175781 C 355.957031 418.820312 357.878906 418.425781 359.796875 417.984375 C 361.710938 417.542969 363.617188 417.0625 365.507812 416.535156 C 367.402344 416.011719 369.285156 415.441406 371.152344 414.832031 C 373.019531 414.21875 374.875 413.566406 376.710938 412.871094 C 378.550781 412.175781 380.371094 411.441406 382.175781 410.664062 C 383.984375 409.886719 385.769531 409.070312 387.539062 408.210938 C 389.304688 407.355469 391.054688 406.457031 392.78125 405.523438 C 394.511719 404.585938 396.214844 403.609375 397.898438 402.597656 C 399.585938 401.582031 401.246094 400.53125 402.878906 399.441406 C 404.515625 398.355469 406.128906 397.230469 407.714844 396.066406 C 409.300781 394.90625 410.859375 393.710938 412.390625 392.476562 C 413.921875 391.246094 415.421875 389.980469 416.898438 388.679688 C 420.394531 390.382812 423.839844 392.1875 427.226562 394.09375 C 430.617188 396 433.945312 398.007812 437.214844 400.113281 C 440.488281 402.21875 443.691406 404.417969 446.828125 406.714844 C 449.96875 409.011719 453.035156 411.402344 456.03125 413.878906 C 459.027344 416.359375 461.949219 418.925781 464.789062 421.582031 C 467.632812 424.234375 470.394531 426.96875 473.074219 429.789062 C 475.753906 432.605469 478.347656 435.503906 480.855469 438.476562 C 483.363281 441.449219 485.78125 444.492188 488.105469 447.609375 C 490.429688 450.726562 492.664062 453.910156 494.796875 457.160156 C 496.933594 460.410156 498.972656 463.722656 500.910156 467.09375 C 502.847656 470.464844 504.683594 473.890625 506.417969 477.371094 C 508.152344 480.855469 509.78125 484.382812 511.304688 487.960938 C 512.828125 491.539062 514.246094 495.160156 515.554688 498.824219 C 516.859375 502.484375 518.058594 506.183594 519.144531 509.917969 C 520.234375 513.652344 521.207031 517.414062 522.070312 521.207031 C 522.933594 525 523.683594 528.8125 524.316406 532.648438 C 524.769531 535.457031 524.914062 538.285156 524.753906 541.125 C 524.589844 543.964844 524.125 546.753906 523.351562 549.492188 C 522.582031 552.230469 521.527344 554.851562 520.183594 557.363281 C 518.84375 559.871094 517.246094 562.203125 515.398438 564.367188 Z M 515.398438 564.367188 " fill-opacity="1" fill-rule="nonzero"/></g><g clip-path="url(#ea90f7819e)"><g clip-path="url(#129322d8f2)"><path fill="#ffffff" d="M 431.910156 461.671875 L 595.140625 461.671875 L 595.140625 624.902344 L 431.910156 624.902344 Z M 431.910156 461.671875 " fill-opacity="1" fill-rule="nonzero"/></g></g><g clip-path="url(#fcef4ab465)"><g clip-path="url(#a15fa3b256)"><path fill="#00b696" d="M 457.777344 487.539062 L 569.273438 487.539062 L 569.273438 599.035156 L 457.777344 599.035156 Z M 457.777344 487.539062 " fill-opacity="1" fill-rule="nonzero"/></g></g><g clip-path="url(#490eab63af)"><g clip-path="url(#3f30448a89)"><g clip-path="url(#6424a29f90)"><path fill="#ffffff" d="M 502.347656 511.335938 C 502.355469 511.363281 502.355469 511.363281 502.355469 511.363281 C 502.328125 511.371094 502.328125 511.371094 502.292969 511.347656 C 502.257812 511.328125 502.1875 511.402344 502.066406 511.519531 C 501.953125 511.664062 501.871094 511.804688 501.851562 511.984375 C 501.832031 512.140625 501.808594 512.292969 501.722656 512.429688 C 501.664062 512.5625 501.683594 512.765625 501.757812 513.074219 C 501.828125 513.382812 501.871094 513.550781 501.863281 513.640625 C 501.824219 513.738281 501.859375 513.878906 501.890625 514.019531 C 501.960938 514.179688 501.964844 514.328125 501.964844 514.445312 C 501.960938 514.5625 501.925781 514.660156 501.890625 514.757812 C 501.855469 514.855469 501.816406 514.953125 501.84375 515.066406 C 501.871094 515.175781 501.914062 515.226562 501.917969 515.253906 C 501.945312 515.246094 501.964844 515.332031 501.945312 515.484375 C 501.921875 515.636719 501.953125 515.777344 502 515.976562 C 502.039062 516.144531 502.046875 516.289062 502.03125 516.351562 C 501.996094 516.449219 502.015625 516.535156 502.042969 516.644531 C 502.097656 516.75 502.09375 516.871094 502.058594 516.96875 C 502.023438 517.066406 502.058594 517.46875 502.175781 518.210938 C 502.292969 518.953125 502.328125 519.359375 502.273438 519.492188 C 502.214844 519.625 502.242188 519.734375 502.273438 519.875 C 502.308594 520.015625 502.335938 520.128906 502.304688 520.253906 C 502.308594 520.398438 502.300781 520.609375 502.375 520.917969 C 502.441406 521.199219 502.429688 521.40625 502.394531 521.503906 C 502.359375 521.601562 502.363281 521.75 502.457031 522.023438 C 502.550781 522.296875 502.570312 522.5 502.542969 522.625 C 502.519531 522.777344 502.542969 523.007812 502.589844 523.324219 C 502.632812 523.636719 502.671875 523.925781 502.664062 524.132812 C 502.652344 524.34375 502.664062 524.636719 502.730469 524.917969 C 502.796875 525.195312 502.8125 525.398438 502.75 525.503906 C 502.6875 525.605469 502.714844 525.71875 502.78125 525.882812 C 502.847656 526.042969 502.875 526.15625 502.839844 526.253906 C 502.832031 526.34375 502.824219 526.433594 502.863281 526.484375 C 502.871094 526.511719 502.910156 526.558594 502.917969 526.589844 C 502.890625 526.59375 502.890625 526.59375 502.890625 526.59375 C 502.863281 526.601562 502.863281 526.601562 502.835938 526.609375 C 502.871094 526.628906 502.882812 526.6875 502.917969 526.707031 C 502.964844 526.785156 502.96875 526.929688 502.949219 527.085938 C 502.925781 527.238281 502.921875 527.476562 502.976562 527.699219 C 503 527.929688 503.003906 528.078125 502.96875 528.175781 C 502.933594 528.273438 502.933594 528.390625 502.992188 528.523438 C 503.058594 528.683594 503.09375 528.824219 503.125 528.964844 C 503.132812 529.113281 503.136719 529.257812 503.109375 529.382812 C 503.085938 529.539062 503.082031 529.65625 503.109375 529.769531 C 503.144531 529.910156 503.136719 530 503.113281 530.035156 C 503.097656 530.097656 503.109375 530.269531 503.21875 530.601562 C 503.324219 530.929688 503.316406 531.140625 503.289062 531.265625 C 503.257812 531.390625 503.222656 531.488281 503.277344 531.59375 C 503.332031 531.699219 503.335938 531.84375 503.347656 532.019531 C 503.332031 532.203125 503.359375 532.3125 503.378906 532.398438 C 503.425781 532.476562 503.410156 532.539062 503.402344 532.628906 C 503.394531 532.71875 503.40625 532.894531 503.464844 533.144531 C 503.527344 533.398438 503.53125 533.664062 503.507812 533.9375 C 503.480469 534.207031 503.5 534.53125 503.585938 534.894531 C 503.671875 535.257812 503.730469 535.511719 503.703125 535.636719 C 503.699219 535.753906 503.683594 535.816406 503.65625 535.824219 C 503.628906 535.832031 503.636719 535.976562 503.707031 536.285156 C 503.746094 536.570312 503.757812 536.746094 503.742188 536.808594 C 503.730469 536.871094 503.726562 536.992188 503.773438 537.1875 C 503.847656 537.375 503.851562 537.523438 503.804688 537.566406 C 503.761719 537.632812 503.761719 537.753906 503.820312 537.886719 C 503.859375 538.054688 503.878906 538.136719 503.839844 538.207031 C 503.796875 538.277344 503.789062 538.367188 503.835938 538.445312 C 503.882812 538.523438 503.9375 538.746094 503.988281 539.089844 C 504.039062 539.433594 504.03125 539.640625 503.988281 539.710938 C 503.945312 539.78125 503.921875 539.933594 503.945312 540.164062 C 503.945312 540.402344 503.992188 540.597656 504.066406 540.789062 C 504.140625 540.976562 504.164062 541.089844 504.101562 541.191406 C 504.066406 541.289062 504.058594 541.382812 504.089844 541.519531 C 504.105469 541.578125 504.117188 541.632812 504.128906 541.6875 C 504.101562 541.695312 504.101562 541.695312 504.074219 541.703125 C 504.046875 541.707031 504.046875 541.707031 504.019531 541.714844 C 504.039062 541.800781 504.085938 541.878906 504.101562 541.933594 C 504.140625 542.101562 504.152344 542.277344 504.140625 542.484375 C 504.105469 542.703125 504.15625 542.925781 504.210938 543.148438 C 504.292969 543.367188 504.316406 543.597656 504.277344 543.8125 C 504.234375 544.003906 504.28125 544.199219 504.347656 544.359375 C 504.417969 544.519531 504.429688 544.695312 504.40625 544.847656 C 504.382812 545.003906 504.375 545.09375 504.417969 545.144531 C 504.421875 545.171875 504.4375 545.226562 504.410156 545.234375 C 504.378906 545.238281 504.371094 545.332031 504.40625 545.472656 C 504.4375 545.609375 504.429688 545.703125 504.394531 545.800781 C 504.359375 545.894531 504.371094 546.070312 504.453125 546.289062 C 504.511719 546.539062 504.539062 546.652344 504.515625 546.6875 C 504.496094 546.722656 504.488281 546.8125 504.535156 547.007812 C 504.578125 547.207031 504.558594 547.359375 504.542969 547.421875 C 504.535156 547.511719 504.53125 547.75 504.597656 548.148438 C 504.660156 548.546875 504.6875 548.777344 504.636719 548.820312 C 504.617188 548.855469 504.601562 548.917969 504.621094 549 C 504.640625 549.085938 504.65625 549.140625 504.597656 549.152344 C 504.578125 549.1875 504.589844 549.246094 504.625 549.382812 C 504.65625 549.523438 504.683594 549.636719 504.640625 549.707031 C 504.597656 549.773438 504.617188 549.859375 504.636719 549.945312 C 504.65625 550.027344 504.691406 550.050781 504.71875 550.042969 C 504.71875 550.042969 504.753906 550.0625 504.78125 550.058594 C 504.753906 550.0625 504.753906 550.0625 504.726562 550.070312 C 504.699219 550.078125 504.699219 550.078125 504.671875 550.082031 C 504.683594 550.140625 504.726562 550.1875 504.730469 550.21875 C 504.785156 550.324219 504.792969 550.46875 504.789062 550.707031 C 504.785156 550.945312 504.804688 551.148438 504.851562 551.34375 C 504.898438 551.539062 504.910156 551.714844 504.878906 551.839844 C 504.851562 551.964844 504.863281 552.140625 504.9375 552.328125 C 504.984375 552.523438 505.007812 552.636719 504.96875 552.707031 C 504.925781 552.777344 504.945312 552.859375 504.976562 553 C 505.03125 553.105469 505.035156 553.253906 505 553.347656 C 504.972656 553.476562 504.976562 553.621094 505.058594 553.839844 C 505.109375 554.0625 505.144531 554.203125 505.101562 554.273438 C 505.058594 554.34375 505.070312 554.515625 505.101562 554.777344 C 505.140625 555.0625 505.152344 555.238281 505.136719 555.300781 C 505.125 555.363281 505.113281 555.570312 505.179688 555.851562 C 505.253906 556.160156 505.265625 556.335938 505.230469 556.433594 C 505.191406 556.53125 505.210938 556.613281 505.234375 556.699219 C 505.253906 556.78125 505.265625 556.835938 505.238281 556.84375 C 505.210938 556.851562 505.230469 556.933594 505.261719 557.074219 C 505.316406 557.179688 505.324219 557.328125 505.292969 557.453125 C 505.265625 557.578125 505.269531 557.726562 505.34375 557.914062 C 505.390625 558.109375 505.429688 558.398438 505.402344 558.789062 C 505.40625 559.171875 505.410156 559.4375 505.46875 559.570312 C 505.53125 559.703125 505.535156 559.851562 505.507812 559.976562 C 505.484375 560.128906 505.476562 560.21875 505.523438 560.296875 C 505.570312 560.375 505.597656 560.488281 505.539062 560.621094 C 505.519531 560.773438 505.523438 560.917969 505.585938 561.054688 C 505.605469 561.136719 505.652344 561.214844 505.664062 561.269531 C 505.664062 561.269531 505.636719 561.277344 505.636719 561.277344 C 505.609375 561.285156 505.621094 561.457031 505.652344 561.835938 C 505.683594 562.214844 505.804688 562.480469 505.976562 562.707031 C 506.144531 562.933594 506.324219 563.066406 506.539062 563.105469 C 506.753906 563.144531 506.992188 563.148438 507.214844 563.09375 C 507.445312 563.070312 507.578125 563.007812 507.597656 562.972656 C 507.621094 562.941406 507.621094 562.941406 507.648438 562.933594 C 507.683594 562.953125 507.710938 562.949219 507.714844 562.976562 C 507.785156 563.019531 507.925781 562.984375 508.203125 562.921875 C 508.476562 562.828125 508.621094 562.820312 508.65625 562.84375 C 508.691406 562.863281 508.832031 562.832031 509.109375 562.765625 C 509.386719 562.699219 509.554688 562.660156 509.625 562.703125 C 509.691406 562.746094 509.753906 562.761719 509.847656 562.769531 C 509.9375 562.777344 509.957031 562.742188 510.007812 562.703125 C 510.054688 562.660156 510.113281 562.648438 510.203125 562.65625 C 510.292969 562.664062 510.570312 562.597656 511.015625 562.492188 C 511.464844 562.386719 511.71875 562.355469 511.78125 562.371094 C 511.84375 562.386719 512.019531 562.375 512.242188 562.320312 C 512.492188 562.261719 512.640625 562.257812 512.671875 562.277344 C 512.707031 562.300781 512.875 562.261719 513.148438 562.167969 C 513.417969 562.074219 513.585938 562.03125 513.621094 562.054688 C 513.683594 562.070312 513.769531 562.050781 513.933594 562.011719 C 514.101562 561.96875 514.21875 561.972656 514.3125 561.980469 C 514.402344 561.988281 514.519531 561.992188 514.679688 561.921875 C 514.839844 561.855469 515.007812 561.816406 515.160156 561.839844 C 515.3125 561.863281 515.425781 561.835938 515.5 561.789062 C 515.578125 561.742188 515.71875 561.707031 515.960938 561.738281 C 516.195312 561.742188 516.371094 561.730469 516.441406 561.65625 C 516.519531 561.605469 516.609375 561.496094 516.695312 561.359375 C 516.78125 561.21875 516.804688 561.066406 516.8125 560.976562 C 516.785156 560.863281 516.804688 560.828125 516.832031 560.824219 C 516.863281 560.816406 516.875 560.753906 516.910156 560.65625 C 516.941406 560.53125 516.914062 560.417969 516.875 560.25 C 516.835938 560.082031 516.84375 559.992188 516.863281 559.957031 C 516.914062 559.914062 516.941406 559.789062 516.972656 559.546875 C 517.003906 559.300781 517 559.15625 516.964844 559.015625 C 516.941406 558.902344 516.941406 558.785156 517 558.652344 C 517.0625 558.550781 517.0625 558.429688 517.035156 558.316406 C 517.011719 558.207031 517.03125 558.054688 517.070312 557.835938 C 517.113281 557.648438 517.109375 557.503906 517.089844 557.417969 C 517.082031 557.390625 517.042969 557.339844 517.035156 557.3125 C 517.0625 557.304688 517.0625 557.304688 517.089844 557.300781 C 517.117188 557.292969 517.132812 557.230469 517.113281 557.144531 C 517.113281 557.027344 517.128906 556.964844 517.171875 556.894531 C 517.222656 556.855469 517.222656 556.734375 517.183594 556.566406 C 517.144531 556.398438 517.160156 556.21875 517.21875 555.96875 C 517.277344 555.71875 517.292969 555.417969 517.269531 555.066406 C 517.246094 554.71875 517.253906 554.507812 517.292969 554.410156 C 517.328125 554.3125 517.328125 554.195312 517.316406 554.019531 C 517.304688 553.847656 517.335938 553.71875 517.355469 553.6875 C 517.398438 553.617188 517.433594 553.519531 517.402344 553.378906 C 517.394531 553.234375 517.402344 553.140625 517.429688 553.136719 C 517.453125 553.101562 517.460938 553.011719 517.414062 552.8125 C 517.367188 552.617188 517.363281 552.472656 517.363281 552.351562 C 517.394531 552.226562 517.410156 552.164062 517.4375 552.15625 C 517.464844 552.152344 517.472656 552.0625 517.4375 551.921875 C 517.40625 551.78125 517.429688 551.628906 517.480469 551.46875 C 517.53125 551.308594 517.53125 551.1875 517.519531 551.132812 C 517.503906 551.078125 517.476562 550.964844 517.515625 550.867188 C 517.542969 550.742188 517.539062 550.59375 517.519531 550.390625 C 517.5 550.191406 517.523438 550.035156 517.582031 549.90625 C 517.644531 549.800781 517.660156 549.621094 517.628906 549.359375 C 517.597656 549.101562 517.613281 548.921875 517.671875 548.789062 C 517.726562 548.65625 517.730469 548.539062 517.703125 548.425781 C 517.648438 548.320312 517.648438 548.203125 517.679688 548.078125 C 517.707031 547.949219 517.710938 547.832031 517.691406 547.75 C 517.667969 547.664062 517.679688 547.574219 517.71875 547.503906 C 517.761719 547.433594 517.765625 547.316406 517.726562 547.148438 C 517.683594 546.980469 517.691406 546.890625 517.714844 546.855469 C 517.761719 546.8125 517.804688 546.746094 517.828125 546.589844 C 517.851562 546.4375 517.859375 546.226562 517.835938 545.996094 C 517.804688 545.738281 517.796875 545.59375 517.847656 545.550781 C 517.890625 545.480469 517.878906 545.425781 517.855469 545.339844 C 517.835938 545.257812 517.84375 545.167969 517.910156 545.0625 C 517.972656 544.957031 517.980469 544.867188 517.96875 544.8125 C 517.953125 544.757812 517.941406 544.699219 517.914062 544.707031 C 517.886719 544.714844 517.867188 544.628906 517.894531 544.503906 C 517.925781 544.378906 517.953125 544.253906 517.988281 544.15625 C 518.054688 544.050781 518.042969 543.878906 518.007812 543.617188 C 517.984375 543.386719 518 543.207031 518.015625 543.144531 C 518.050781 543.046875 518.085938 542.949219 518.074219 542.773438 C 518.0625 542.601562 518.078125 542.539062 518.105469 542.53125 C 518.132812 542.523438 518.128906 542.257812 518.128906 541.757812 C 518.128906 541.253906 518.152344 540.863281 518.226562 540.550781 C 518.300781 540.234375 518.335938 540.019531 518.296875 539.851562 C 518.277344 539.769531 518.257812 539.683594 518.246094 539.628906 C 518.246094 539.628906 518.273438 539.621094 518.273438 539.621094 C 518.300781 539.613281 518.34375 539.546875 518.351562 539.453125 C 518.378906 539.328125 518.375 539.183594 518.328125 538.988281 C 518.28125 538.789062 518.269531 538.617188 518.332031 538.511719 C 518.398438 538.40625 518.414062 538.109375 518.414062 537.722656 C 518.4375 537.332031 518.441406 537.09375 518.484375 537.027344 C 518.527344 536.957031 518.535156 536.746094 518.503906 536.371094 C 518.476562 535.992188 518.484375 535.785156 518.527344 535.714844 C 518.570312 535.644531 518.582031 535.582031 518.558594 535.46875 C 518.539062 535.386719 518.539062 535.265625 518.589844 535.109375 C 518.640625 534.949219 518.613281 534.835938 518.585938 534.722656 C 518.566406 534.640625 518.5625 534.492188 518.628906 534.269531 C 518.664062 534.054688 518.695312 533.929688 518.660156 533.90625 C 518.617188 533.859375 518.632812 533.796875 518.675781 533.726562 C 518.710938 533.628906 518.730469 533.59375 518.699219 533.574219 C 518.691406 533.542969 518.664062 533.550781 518.65625 533.523438 C 518.683594 533.515625 518.683594 533.515625 518.683594 533.515625 C 518.710938 533.511719 518.707031 533.363281 518.695312 533.070312 C 518.6875 532.777344 518.6875 532.539062 518.734375 532.351562 C 518.777344 532.164062 518.800781 531.890625 518.785156 531.570312 C 518.765625 531.25 518.78125 531.066406 518.8125 531.058594 C 518.839844 531.054688 518.882812 530.984375 518.882812 530.867188 C 518.910156 530.742188 518.898438 530.566406 518.882812 530.363281 C 518.863281 530.160156 518.835938 530.046875 518.886719 530.007812 C 518.90625 529.972656 518.949219 529.902344 518.917969 529.761719 C 518.917969 529.644531 518.925781 529.554688 518.945312 529.519531 C 518.988281 529.449219 518.976562 529.394531 518.957031 529.308594 C 518.9375 529.226562 518.945312 529.136719 518.972656 529.007812 C 519.011719 528.914062 519 528.738281 518.980469 528.535156 C 518.960938 528.332031 518.957031 528.066406 519.03125 527.753906 C 519.070312 527.417969 519.078125 527.210938 519.046875 527.070312 C 519.011719 526.929688 519.042969 526.804688 519.09375 526.644531 C 519.144531 526.484375 519.164062 526.332031 519.132812 526.191406 C 519.097656 526.050781 519.121094 525.898438 519.152344 525.773438 C 519.203125 525.613281 519.230469 525.488281 519.203125 525.375 C 519.179688 525.261719 519.179688 525.144531 519.242188 525.039062 C 519.308594 524.9375 519.308594 524.816406 519.269531 524.648438 C 519.234375 524.507812 519.238281 524.390625 519.273438 524.292969 C 519.308594 524.195312 519.316406 524.105469 519.3125 523.957031 C 519.3125 523.839844 519.292969 523.757812 519.320312 523.75 C 519.347656 523.742188 519.371094 523.589844 519.332031 523.300781 C 519.296875 523.015625 519.347656 522.738281 519.414062 522.515625 C 519.46875 522.265625 519.488281 522.082031 519.445312 521.914062 C 519.414062 521.773438 519.445312 521.53125 519.519531 521.21875 C 519.597656 520.933594 519.621094 520.660156 519.582031 520.492188 C 519.535156 520.296875 519.535156 520.175781 519.574219 520.078125 C 519.609375 519.984375 519.617188 519.890625 519.589844 519.78125 C 519.558594 519.640625 519.566406 519.550781 519.640625 519.5 C 519.71875 519.453125 519.726562 519.363281 519.695312 519.222656 C 519.667969 519.109375 519.667969 518.992188 519.691406 518.957031 C 519.738281 518.917969 519.734375 518.769531 519.703125 518.511719 C 519.675781 518.28125 519.6875 518.070312 519.714844 517.945312 C 519.773438 517.8125 519.789062 517.632812 519.785156 517.367188 C 519.78125 517.101562 519.804688 516.949219 519.839844 516.851562 C 519.882812 516.78125 519.898438 516.71875 519.851562 516.640625 C 519.800781 516.5625 519.816406 516.5 519.832031 516.4375 C 519.878906 516.398438 519.867188 516.339844 519.859375 516.3125 C 519.859375 516.3125 519.824219 516.292969 519.824219 516.292969 C 519.855469 516.285156 519.855469 516.285156 519.882812 516.277344 C 519.910156 516.273438 519.910156 516.273438 519.910156 516.273438 C 519.894531 516.214844 519.890625 516.1875 519.875 516.132812 C 519.855469 516.046875 519.863281 515.957031 519.929688 515.851562 C 519.992188 515.75 520.007812 515.566406 520.003906 515.300781 C 520 515.039062 519.988281 514.863281 519.941406 514.785156 C 519.894531 514.707031 519.90625 514.644531 519.929688 514.609375 C 519.949219 514.574219 519.992188 514.507812 519.960938 514.367188 C 519.960938 514.246094 519.960938 514.128906 520.003906 514.058594 C 520.046875 513.992188 520.070312 513.835938 520.015625 513.730469 C 519.960938 513.625 519.976562 513.445312 519.980469 513.207031 C 519.984375 512.96875 520.019531 512.871094 520.046875 512.867188 C 520.074219 512.859375 520.089844 512.796875 520.070312 512.710938 C 520.050781 512.628906 520.066406 512.566406 520.09375 512.558594 C 520.121094 512.554688 520.121094 512.554688 520.148438 512.546875 C 520.140625 512.519531 520.101562 512.46875 520.09375 512.441406 C 520.074219 512.355469 520.074219 512.238281 520.089844 512.054688 C 520.109375 511.875 520.136719 511.75 520.089844 511.671875 C 520.035156 511.566406 520.070312 511.46875 520.128906 511.335938 C 520.183594 511.207031 520.191406 511.117188 520.171875 511.03125 C 520.167969 511.003906 520.152344 510.945312 520.148438 510.917969 C 520.175781 510.914062 520.175781 510.914062 520.207031 510.933594 C 520.207031 510.933594 520.238281 510.925781 520.242188 510.957031 C 520.207031 510.933594 520.203125 510.90625 520.203125 510.90625 C 520.167969 510.882812 520.148438 510.800781 520.183594 510.703125 C 520.21875 510.605469 520.222656 510.488281 520.210938 510.3125 C 520.199219 510.136719 520.179688 509.933594 520.203125 509.664062 C 520.226562 509.390625 520.207031 509.1875 520.140625 509.027344 C 520.082031 508.894531 520.027344 508.789062 519.957031 508.746094 C 519.914062 508.695312 519.726562 508.652344 519.457031 508.625 C 519.1875 508.601562 518.984375 508.617188 518.804688 508.722656 C 518.640625 508.789062 518.414062 508.8125 518.085938 508.800781 C 517.78125 508.753906 517.496094 508.792969 517.285156 508.902344 C 517.046875 509.015625 516.875 509.027344 516.75 509 C 516.625 508.96875 516.507812 508.96875 516.429688 509.015625 C 516.351562 509.0625 516.269531 509.082031 516.207031 509.070312 C 516.144531 509.054688 515.976562 509.09375 515.753906 509.144531 C 515.53125 509.199219 515.390625 509.230469 515.355469 509.210938 C 515.320312 509.1875 515.210938 509.214844 515.042969 509.253906 C 514.875 509.292969 514.703125 509.304688 514.550781 509.28125 C 514.398438 509.257812 514.25 509.265625 514.144531 509.316406 C 514.007812 509.351562 513.921875 509.371094 513.859375 509.355469 C 513.796875 509.339844 513.714844 509.359375 513.644531 509.4375 C 513.546875 509.519531 513.488281 509.53125 513.484375 509.503906 C 513.476562 509.476562 513.246094 509.5 512.851562 509.566406 C 512.453125 509.628906 512.195312 509.660156 512.125 509.617188 C 512.03125 509.582031 511.890625 509.613281 511.722656 509.652344 C 511.554688 509.695312 511.445312 509.71875 511.355469 509.710938 C 511.257812 509.675781 511.117188 509.707031 510.878906 509.824219 C 510.664062 509.902344 510.53125 509.964844 510.496094 509.945312 C 510.460938 509.921875 510.40625 509.933594 510.265625 509.96875 C 510.15625 509.996094 510.066406 509.988281 510.03125 509.964844 C 509.996094 509.945312 509.730469 509.945312 509.285156 510.050781 C 508.867188 510.152344 508.609375 510.183594 508.570312 510.132812 C 508.5 510.089844 508.445312 510.101562 508.332031 510.128906 C 508.222656 510.15625 508.144531 510.203125 508.066406 510.25 C 507.988281 510.300781 507.90625 510.320312 507.78125 510.289062 C 507.683594 510.253906 507.539062 510.257812 507.351562 510.332031 C 507.1875 510.398438 507.050781 510.433594 506.980469 510.390625 C 506.882812 510.351562 506.660156 510.40625 506.269531 510.5 C 505.878906 510.589844 505.679688 510.609375 505.652344 510.613281 C 505.644531 510.585938 505.554688 510.578125 505.40625 510.582031 C 505.261719 510.589844 504.925781 510.667969 504.425781 510.785156 C 503.894531 510.910156 503.644531 510.96875 503.609375 510.949219 C 503.574219 510.925781 503.519531 510.941406 503.4375 510.960938 C 503.359375 511.007812 503.269531 511 503.144531 510.96875 C 503.019531 510.941406 502.957031 510.925781 502.941406 510.988281 C 502.929688 511.050781 502.753906 511.0625 502.441406 511.105469 C 502.273438 511.144531 502.128906 511.152344 501.988281 511.183594 C 502.339844 511.308594 502.347656 511.335938 502.347656 511.335938 Z M 510.851562 566.023438 C 510.695312 566.117188 510.5 566.164062 510.304688 566.210938 C 510.109375 566.257812 509.921875 566.332031 509.773438 566.453125 C 509.628906 566.578125 509.453125 566.707031 509.230469 566.761719 C 509.003906 566.8125 508.878906 566.902344 508.835938 566.972656 C 508.792969 567.042969 508.71875 567.089844 508.632812 567.109375 C 508.550781 567.128906 508.480469 567.203125 508.386719 567.316406 C 508.296875 567.425781 508.183594 567.570312 508.035156 567.695312 C 507.859375 567.824219 507.789062 567.898438 507.796875 567.929688 C 507.804688 567.957031 507.78125 567.992188 507.726562 568.003906 C 507.671875 568.015625 507.558594 568.164062 507.382812 568.410156 C 507.203125 568.660156 507.0625 568.8125 506.980469 568.832031 C 506.867188 568.859375 506.824219 568.925781 506.789062 569.023438 C 506.753906 569.121094 506.71875 569.21875 506.648438 569.292969 C 506.578125 569.371094 506.535156 569.441406 506.535156 569.558594 C 506.53125 569.675781 506.460938 569.753906 506.382812 569.917969 C 506.296875 570.058594 506.242188 570.191406 506.234375 570.28125 C 506.226562 570.371094 506.183594 570.441406 506.132812 570.480469 C 506.054688 570.527344 506.046875 570.621094 506.074219 570.730469 C 506.074219 570.851562 506.066406 570.941406 505.988281 570.988281 C 505.917969 571.066406 505.875 571.132812 505.847656 571.257812 C 505.816406 571.382812 505.808594 571.476562 505.828125 571.558594 C 505.835938 571.585938 505.847656 571.644531 505.855469 571.671875 C 505.855469 571.671875 505.828125 571.679688 505.800781 571.683594 C 505.773438 571.691406 505.71875 571.96875 505.652344 572.546875 C 505.574219 573.097656 505.5625 573.425781 505.589844 573.539062 C 505.617188 573.652344 505.628906 573.707031 505.609375 573.742188 C 505.585938 573.777344 505.59375 573.804688 505.605469 573.859375 C 505.613281 573.886719 505.648438 573.910156 505.648438 573.910156 C 505.648438 573.910156 505.621094 573.917969 505.621094 573.917969 C 505.59375 573.921875 505.59375 573.921875 505.566406 573.929688 C 505.589844 574.042969 505.617188 574.152344 505.636719 574.238281 C 505.691406 574.460938 505.695312 574.609375 505.6875 574.699219 C 505.660156 574.824219 505.726562 574.988281 505.839844 575.226562 C 505.964844 575.492188 506.03125 575.65625 506.023438 575.746094 C 506.042969 575.828125 506.054688 575.886719 506.082031 575.878906 C 506.082031 575.878906 506.117188 575.898438 506.117188 575.898438 C 506.125 575.929688 506.105469 575.960938 506.109375 575.992188 C 506.09375 576.054688 506.144531 576.128906 506.21875 576.203125 C 506.292969 576.273438 506.382812 576.398438 506.410156 576.511719 C 506.464844 576.617188 506.511719 576.695312 506.546875 576.714844 C 506.582031 576.738281 506.617188 576.757812 506.636719 576.84375 C 506.628906 576.933594 506.675781 577.011719 506.722656 577.089844 C 506.796875 577.160156 506.839844 577.210938 506.894531 577.195312 C 506.957031 577.210938 506.964844 577.238281 506.976562 577.292969 C 506.964844 577.359375 507.015625 577.464844 507.105469 577.589844 C 507.195312 577.71875 507.3125 577.835938 507.492188 577.972656 C 507.671875 578.109375 507.78125 578.199219 507.785156 578.226562 C 507.792969 578.257812 507.863281 578.300781 507.988281 578.328125 C 508.113281 578.359375 508.179688 578.402344 508.257812 578.472656 C 508.304688 578.550781 508.40625 578.613281 508.601562 578.6875 C 508.769531 578.765625 508.90625 578.851562 508.980469 578.921875 C 509.058594 578.992188 509.152344 579.03125 509.273438 579.03125 C 509.390625 579.03125 509.488281 579.070312 509.589844 579.132812 C 509.695312 579.199219 509.796875 579.261719 509.957031 579.3125 C 510.117188 579.363281 510.269531 579.386719 510.378906 579.363281 C 510.519531 579.328125 510.617188 579.363281 510.714844 579.402344 C 510.808594 579.4375 510.933594 579.46875 511.136719 579.449219 C 511.339844 579.429688 511.464844 579.460938 511.46875 579.488281 C 511.476562 579.515625 511.589844 579.492188 511.777344 579.417969 C 511.964844 579.34375 512.105469 579.308594 512.203125 579.34375 C 512.296875 579.382812 512.382812 579.363281 512.492188 579.335938 C 512.597656 579.28125 512.6875 579.289062 512.777344 579.296875 C 512.871094 579.304688 512.925781 579.292969 512.972656 579.25 C 513.003906 579.246094 513.023438 579.210938 513.050781 579.203125 C 513.050781 579.203125 513.058594 579.230469 513.085938 579.226562 C 513.121094 579.246094 513.183594 579.261719 513.320312 579.230469 C 513.460938 579.195312 513.546875 579.175781 513.636719 579.066406 C 513.726562 578.957031 513.917969 578.882812 514.246094 578.773438 C 514.578125 578.695312 514.734375 578.597656 514.777344 578.53125 C 514.820312 578.460938 514.917969 578.378906 515.105469 578.304688 C 515.292969 578.230469 515.386719 578.121094 515.476562 578.007812 C 515.570312 577.898438 515.6875 577.78125 515.84375 577.6875 C 515.996094 577.589844 516.136719 577.4375 516.242188 577.265625 C 516.351562 577.09375 516.441406 576.984375 516.546875 576.929688 C 516.652344 576.875 516.699219 576.832031 516.714844 576.769531 C 516.707031 576.742188 516.730469 576.707031 516.730469 576.707031 C 516.757812 576.699219 516.757812 576.699219 516.792969 576.722656 C 516.828125 576.742188 516.953125 576.535156 517.210938 576.121094 C 517.4375 575.710938 517.613281 575.464844 517.734375 575.347656 C 517.851562 575.230469 517.917969 575.125 517.945312 575 C 517.96875 574.847656 517.976562 574.757812 517.941406 574.734375 C 517.902344 574.683594 517.9375 574.589844 517.988281 574.429688 C 518.039062 574.269531 518.117188 574.101562 518.199219 573.964844 C 518.285156 573.824219 518.363281 573.660156 518.351562 573.484375 C 518.339844 573.308594 518.398438 573.058594 518.460938 572.6875 C 518.554688 572.339844 518.589844 572.125 518.570312 572.042969 C 518.578125 571.949219 518.53125 571.871094 518.492188 571.824219 C 518.441406 571.746094 518.449219 571.65625 518.472656 571.503906 C 518.496094 571.347656 518.511719 571.167969 518.4375 570.976562 C 518.363281 570.789062 518.351562 570.613281 518.339844 570.4375 C 518.328125 570.265625 518.292969 570.125 518.210938 570.023438 C 518.152344 569.890625 518.054688 569.734375 517.996094 569.484375 C 517.910156 569.238281 517.828125 569.019531 517.699219 568.84375 C 517.566406 568.667969 517.507812 568.535156 517.480469 568.421875 C 517.453125 568.308594 517.40625 568.234375 517.335938 568.191406 C 517.269531 568.148438 517.222656 568.070312 517.230469 567.980469 C 517.238281 567.886719 517.15625 567.789062 517.015625 567.703125 C 516.878906 567.617188 516.761719 567.496094 516.714844 567.417969 C 516.660156 567.3125 516.613281 567.238281 516.515625 567.199219 C 516.410156 567.136719 516.308594 567.070312 516.183594 566.921875 C 516.0625 566.773438 515.957031 566.710938 515.804688 566.6875 C 515.6875 566.6875 515.617188 566.644531 515.613281 566.613281 C 515.605469 566.585938 515.5 566.523438 515.335938 566.445312 C 515.148438 566.398438 515.042969 566.335938 515.03125 566.277344 C 515.019531 566.222656 514.921875 566.1875 514.769531 566.164062 C 514.617188 566.140625 514.492188 566.109375 514.351562 566.023438 C 514.222656 565.964844 514.035156 565.921875 513.734375 565.902344 C 513.464844 565.878906 513.222656 565.847656 513.054688 565.769531 C 512.898438 565.71875 512.746094 565.695312 512.613281 565.753906 C 512.480469 565.816406 512.332031 565.820312 512.179688 565.796875 C 512.027344 565.773438 511.796875 565.800781 511.519531 565.867188 C 511.253906 565.867188 511.011719 565.957031 510.851562 566.023438 Z M 510.851562 566.023438 " fill-opacity="1" fill-rule="nonzero"/></g></g></g><g clip-path="url(#799b1659b1)"><g clip-path="url(#c14523da5c)"><g clip-path="url(#de1d5c03ba)"><path fill="#00b696" d="M 277.25 137.964844 C 277.25 137.964844 277.277344 142.734375 272.363281 143.148438 C 267.449219 143.566406 266.523438 139.414062 266.320312 137.273438 C 265.609375 130.78125 262.816406 106.3125 262.816406 106.3125 C 262.816406 106.3125 262.929688 100.789062 269.136719 100.492188 C 275.734375 100.144531 276.621094 105.042969 276.832031 107.621094 C 277.449219 115.164062 277.25 137.964844 277.25 137.964844 Z M 277.25 137.964844 " fill-opacity="1" fill-rule="nonzero"/></g></g></g><g clip-path="url(#b982f7e3f7)"><g clip-path="url(#2a11b0a1d8)"><g clip-path="url(#8ed1f151af)"><path fill="#00b696" d="M 217.195312 153.101562 C 217.195312 153.101562 220.316406 156.761719 216.832031 159.988281 C 213.414062 163.351562 210 160.761719 208.511719 159.289062 C 203.804688 154.859375 187.863281 136.296875 187.863281 136.296875 C 187.863281 136.296875 183.085938 131.382812 189.5 126.925781 C 194.5625 123.34375 198.054688 128.234375 198.054688 128.234375 Z M 217.195312 153.101562 " fill-opacity="1" fill-rule="nonzero"/></g></g></g><g clip-path="url(#6c2e828615)"><g clip-path="url(#910d5b7b3d)"><g clip-path="url(#b746eed4b6)"><path fill="#00b696" d="M 158.894531 194.070312 C 158.894531 194.070312 163.515625 195.417969 162.398438 200.09375 C 161.28125 204.769531 157.140625 204.394531 155.074219 204.03125 C 148.742188 202.769531 125.316406 195.796875 125.316406 195.796875 C 125.316406 195.796875 118.65625 194.285156 121.574219 187.003906 C 123.960938 181.222656 129.449219 183.484375 129.449219 183.484375 Z M 158.894531 194.070312 " fill-opacity="1" fill-rule="nonzero"/></g></g></g><g clip-path="url(#a5585c39a6)"><g clip-path="url(#bdc74fe208)"><g clip-path="url(#6bc12ebd6f)"><path fill="#00b696" d="M 133.304688 232.058594 C 133.304688 232.058594 137.773438 232.683594 138.972656 228.242188 C 140.546875 222.617188 133.953125 221.589844 133.953125 221.589844 C 133.953125 221.589844 124.636719 217.632812 121.902344 223.757812 C 117.945312 232.75 133.304688 232.058594 133.304688 232.058594 Z M 133.304688 232.058594 " fill-opacity="1" fill-rule="nonzero"/></g></g></g><g clip-path="url(#c7f60d5d50)"><g clip-path="url(#c176dcf2cc)"><g clip-path="url(#5286985da3)"><path fill="#00b696" d="M 183.613281 161.8125 C 182.070312 160.644531 179.6875 159.09375 183.550781 154 C 186.75 149.777344 190.675781 152.152344 192.4375 153.488281 C 196.265625 156.5625 202.65625 161.40625 207.113281 166.511719 C 210.511719 170.382812 204.835938 176.953125 200.261719 173.832031 C 196.777344 171.449219 188.40625 165.445312 183.613281 161.8125 Z M 183.613281 161.8125 " fill-opacity="1" fill-rule="nonzero"/></g></g></g><g clip-path="url(#cd110ebbbe)"><g clip-path="url(#ac6c64eaba)"><g clip-path="url(#3c20663393)"><path fill="#0d68b1" d="M 657.957031 467.855469 C 655.492188 464.046875 649.460938 467.753906 651.949219 471.585938 C 661.992188 487.101562 665.734375 509.804688 650.640625 522.851562 C 650.203125 520.667969 649.574219 518.527344 648.753906 516.457031 C 645.457031 508.375 638.101562 501.488281 628.953125 501.519531 C 620.847656 501.554688 613.253906 506.914062 612.191406 515.21875 C 610.988281 524.40625 617.582031 532.257812 625.964844 535.128906 C 632.035156 537.09375 638.59375 536.921875 644.554688 534.640625 C 643.367188 549.375 634.148438 564.796875 625.085938 574.242188 C 614.601562 585.265625 597.464844 595.632812 581.949219 596.347656 C 577.410156 596.554688 577.492188 603.550781 582.070312 603.410156 C 599.847656 602.761719 619.121094 591.191406 630.992188 578.316406 C 641.980469 566.390625 651.726562 548.3125 651.558594 531.03125 L 651.945312 530.785156 C 673.242188 515.867188 670.703125 487.523438 657.957031 467.855469 Z M 619.617188 520.597656 C 617.429688 513.972656 622.449219 508.53125 629.019531 508.613281 C 634.601562 508.675781 639.015625 512.792969 641.433594 517.496094 C 642.933594 520.457031 643.917969 523.652344 644.335938 526.945312 C 635.828125 530.855469 623.007812 530.847656 619.617188 520.597656 Z M 619.617188 520.597656 " fill-opacity="1" fill-rule="nonzero"/></g></g></g></svg>