<svg xmlns="http://www.w3.org/2000/svg" xmlns:xlink="http://www.w3.org/1999/xlink" width="1000" zoomAndPan="magnify" viewBox="0 0 750 749.999995" height="1000" preserveAspectRatio="xMidYMid meet" version="1.0"><defs><clipPath id="9f4bbc0ce2"><path d="M 124 43 L 156 43 L 156 83 L 124 83 Z M 124 43 " clip-rule="nonzero"/></clipPath><clipPath id="9db7984ceb"><path d="M 61.144531 33.996094 L 161.070312 44.710938 L 139.242188 248.292969 L 39.316406 237.578125 Z M 61.144531 33.996094 " clip-rule="nonzero"/></clipPath><clipPath id="472f177b67"><path d="M 61.144531 33.996094 L 161.070312 44.710938 L 139.242188 248.292969 L 39.316406 237.578125 Z M 61.144531 33.996094 " clip-rule="nonzero"/></clipPath><clipPath id="667df101b0"><path d="M 71 106 L 114 106 L 114 129 L 71 129 Z M 71 106 " clip-rule="nonzero"/></clipPath><clipPath id="23c6343fa8"><path d="M 61.144531 33.996094 L 161.070312 44.710938 L 139.242188 248.292969 L 39.316406 237.578125 Z M 61.144531 33.996094 " clip-rule="nonzero"/></clipPath><clipPath id="1835da6eec"><path d="M 61.144531 33.996094 L 161.070312 44.710938 L 139.242188 248.292969 L 39.316406 237.578125 Z M 61.144531 33.996094 " clip-rule="nonzero"/></clipPath><clipPath id="0d67a71fdc"><path d="M 45 184 L 88 184 L 88 205 L 45 205 Z M 45 184 " clip-rule="nonzero"/></clipPath><clipPath id="a5192b93f4"><path d="M 61.144531 33.996094 L 161.070312 44.710938 L 139.242188 248.292969 L 39.316406 237.578125 Z M 61.144531 33.996094 " clip-rule="nonzero"/></clipPath><clipPath id="f039f2b3e3"><path d="M 61.144531 33.996094 L 161.070312 44.710938 L 139.242188 248.292969 L 39.316406 237.578125 Z M 61.144531 33.996094 " clip-rule="nonzero"/></clipPath><clipPath id="d8d4687301"><path d="M 64 221 L 83 221 L 83 235 L 64 235 Z M 64 221 " clip-rule="nonzero"/></clipPath><clipPath id="245d518214"><path d="M 61.144531 33.996094 L 161.070312 44.710938 L 139.242188 248.292969 L 39.316406 237.578125 Z M 61.144531 33.996094 " clip-rule="nonzero"/></clipPath><clipPath id="9ccc3704b5"><path d="M 61.144531 33.996094 L 161.070312 44.710938 L 139.242188 248.292969 L 39.316406 237.578125 Z M 61.144531 33.996094 " clip-rule="nonzero"/></clipPath><clipPath id="e9667f3344"><path d="M 81 131 L 112 131 L 112 146 L 81 146 Z M 81 131 " clip-rule="nonzero"/></clipPath><clipPath id="b65cafbd3e"><path d="M 61.144531 33.996094 L 161.070312 44.710938 L 139.242188 248.292969 L 39.316406 237.578125 Z M 61.144531 33.996094 " clip-rule="nonzero"/></clipPath><clipPath id="b2f1cb2d59"><path d="M 61.144531 33.996094 L 161.070312 44.710938 L 139.242188 248.292969 L 39.316406 237.578125 Z M 61.144531 33.996094 " clip-rule="nonzero"/></clipPath><clipPath id="60649c1911"><path d="M 618 586 L 701 586 L 701 698 L 618 698 Z M 618 586 " clip-rule="nonzero"/></clipPath><clipPath id="ea4d5bd5c5"><path d="M 598.144531 604.148438 L 699.460938 583.003906 L 719.839844 680.648438 L 618.523438 701.792969 Z M 598.144531 604.148438 " clip-rule="nonzero"/></clipPath><clipPath id="5a2857b5ff"><path d="M 598.144531 604.148438 L 699.460938 583.003906 L 719.839844 680.648438 L 618.523438 701.792969 Z M 598.144531 604.148438 " clip-rule="nonzero"/></clipPath><clipPath id="4587aa7ea1"><path d="M 114.496094 337 L 276 337 L 276 449 L 114.496094 449 Z M 114.496094 337 " clip-rule="nonzero"/></clipPath><clipPath id="23157ef3be"><path d="M 512 337 L 674.746094 337 L 674.746094 449 L 512 449 Z M 512 337 " clip-rule="nonzero"/></clipPath><clipPath id="8e949ad5c0"><path d="M 307 163.105469 L 480 163.105469 L 480 336 L 307 336 Z M 307 163.105469 " clip-rule="nonzero"/></clipPath><clipPath id="2cc84ca1aa"><path d="M 259 349 L 528 349 L 528 494.605469 L 259 494.605469 Z M 259 349 " clip-rule="nonzero"/></clipPath><clipPath id="c5ab0f6d83"><path d="M 479.375 423.078125 L 659.84375 423.078125 L 659.84375 603.546875 L 479.375 603.546875 Z M 479.375 423.078125 " clip-rule="nonzero"/></clipPath><clipPath id="8a65a4ccd7"><path d="M 569.609375 423.078125 C 519.773438 423.078125 479.375 463.476562 479.375 513.3125 C 479.375 563.148438 519.773438 603.546875 569.609375 603.546875 C 619.445312 603.546875 659.84375 563.148438 659.84375 513.3125 C 659.84375 463.476562 619.445312 423.078125 569.609375 423.078125 Z M 569.609375 423.078125 " clip-rule="nonzero"/></clipPath><clipPath id="83b96e534f"><path d="M 489 435.101562 L 648.34375 435.101562 L 648.34375 594 L 489 594 Z M 489 435.101562 " clip-rule="nonzero"/></clipPath></defs><rect x="-75" width="900" fill="#ffffff" y="-74.999999" height="899.999994" fill-opacity="1"/><rect x="-75" width="900" fill="#ffffff" y="-74.999999" height="899.999994" fill-opacity="1"/><g clip-path="url(#9f4bbc0ce2)"><g clip-path="url(#9db7984ceb)"><g clip-path="url(#472f177b67)"><path fill="#00b696" d="M 154.601562 73.90625 C 154.601562 73.90625 157.113281 78.042969 153.070312 80.984375 C 149.027344 83.925781 146.058594 80.796875 144.769531 79.039062 C 140.761719 73.757812 125.589844 53.914062 125.589844 53.914062 C 125.589844 53.914062 122.804688 49.042969 128.035156 45.527344 C 133.574219 41.757812 136.894531 45.5625 138.421875 47.695312 C 142.886719 53.941406 154.601562 73.90625 154.601562 73.90625 Z M 154.601562 73.90625 " fill-opacity="1" fill-rule="nonzero"/></g></g></g><g clip-path="url(#667df101b0)"><g clip-path="url(#23c6343fa8)"><g clip-path="url(#1835da6eec)"><path fill="#00b696" d="M 110.421875 118.613281 C 110.421875 118.613281 115.039062 120.160156 113.699219 124.800781 C 112.488281 129.523438 108.175781 129.0625 106.121094 128.558594 C 99.730469 127.171875 76.230469 119.375 76.230469 119.375 C 76.230469 119.375 69.527344 117.601562 72.765625 110.355469 C 75.285156 104.574219 80.863281 107 80.863281 107 Z M 110.421875 118.613281 " fill-opacity="1" fill-rule="nonzero"/></g></g></g><g clip-path="url(#0d67a71fdc)"><g clip-path="url(#a5192b93f4)"><g clip-path="url(#f039f2b3e3)"><path fill="#00b696" d="M 81.230469 184.898438 C 81.230469 184.898438 85.9375 183.644531 87.40625 188.304688 C 88.875 192.964844 85.09375 194.808594 83.109375 195.582031 C 76.964844 197.804688 53.015625 204.027344 53.015625 204.027344 C 53.015625 204.027344 46.453125 206.207031 45.1875 198.335938 C 44.242188 192.046875 50.179688 191.136719 50.179688 191.136719 Z M 81.230469 184.898438 " fill-opacity="1" fill-rule="nonzero"/></g></g></g><g clip-path="url(#d8d4687301)"><g clip-path="url(#245d518214)"><g clip-path="url(#9ccc3704b5)"><path fill="#00b696" d="M 78.847656 231.414062 C 78.847656 231.414062 83.046875 229.613281 81.773438 225.117188 C 80.207031 219.394531 73.953125 221.957031 73.953125 221.957031 C 73.953125 221.957031 63.808594 223.402344 64.632812 230.171875 C 65.890625 240.082031 78.847656 231.414062 78.847656 231.414062 Z M 78.847656 231.414062 " fill-opacity="1" fill-rule="nonzero"/></g></g></g><g clip-path="url(#e9667f3344)"><g clip-path="url(#b65cafbd3e)"><g clip-path="url(#b2f1cb2d59)"><path fill="#00b696" d="M 85.847656 143.828125 C 83.898438 143.617188 81.027344 143.523438 81.71875 137.054688 C 82.292969 131.703125 86.933594 131.707031 89.160156 131.945312 C 94.082031 132.613281 102.148438 133.480469 108.671875 135.585938 C 113.636719 137.171875 112.140625 145.875 106.550781 145.554688 C 102.285156 145.308594 91.894531 144.476562 85.847656 143.828125 Z M 85.847656 143.828125 " fill-opacity="1" fill-rule="nonzero"/></g></g></g><g clip-path="url(#60649c1911)"><g clip-path="url(#ea4d5bd5c5)"><g clip-path="url(#5a2857b5ff)"><path fill="#0d68b1" d="M 694.332031 587.96875 C 692.519531 584.589844 687.191406 587.300781 689.023438 590.699219 C 696.421875 604.464844 698.03125 623.859375 684.445312 633.820312 C 684.226562 631.949219 683.839844 630.101562 683.292969 628.300781 C 681.066406 621.261719 675.347656 614.953125 667.644531 614.351562 C 660.824219 613.824219 654.070312 617.820312 652.613281 624.75 C 650.976562 632.410156 655.992188 639.476562 662.851562 642.472656 C 667.824219 644.546875 673.355469 644.851562 678.523438 643.335938 C 676.523438 655.675781 667.722656 668.039062 659.457031 675.375 C 649.890625 683.949219 634.765625 691.511719 621.664062 691.046875 C 617.828125 690.910156 617.425781 696.8125 621.285156 697.007812 C 636.285156 697.683594 653.289062 689.253906 664.152344 679.214844 C 674.203125 669.921875 683.628906 655.351562 684.664062 640.773438 L 685.003906 640.59375 C 703.9375 629.480469 703.722656 605.417969 694.332031 587.96875 Z M 658.496094 629.792969 C 657.101562 624.054688 661.695312 619.816406 667.222656 620.332031 C 671.910156 620.769531 675.347656 624.542969 677.0625 628.671875 C 678.125 631.273438 678.734375 634.03125 678.863281 636.835938 C 671.4375 639.546875 660.652344 638.660156 658.496094 629.792969 Z M 658.496094 629.792969 " fill-opacity="1" fill-rule="nonzero"/></g></g></g><g clip-path="url(#4587aa7ea1)"><path fill="#0d68b1" d="M 129.480469 448.742188 L 229.816406 448.742188 C 233.773438 448.742188 236.980469 445.566406 236.980469 441.59375 L 236.980469 431.558594 C 236.980469 401.75 250.800781 375.148438 272.371094 357.847656 C 276.488281 354.550781 276.078125 348.019531 271.308594 345.78125 C 260.632812 340.777344 248.738281 337.984375 236.210938 337.984375 L 197.824219 337.984375 C 151.921875 337.984375 114.707031 375.207031 114.707031 421.113281 L 114.710938 434 C 114.710938 442.152344 121.324219 448.742188 129.480469 448.742188 " fill-opacity="1" fill-rule="nonzero"/></g><path fill="#0d68b1" d="M 151.515625 261.910156 C 151.515625 298.085938 180.84375 327.414062 217.019531 327.414062 C 253.195312 327.414062 282.519531 298.085938 282.519531 261.910156 C 282.519531 225.734375 253.195312 196.40625 217.019531 196.40625 C 180.84375 196.40625 151.515625 225.734375 151.515625 261.910156 " fill-opacity="1" fill-rule="nonzero"/><g clip-path="url(#23157ef3be)"><path fill="#0d68b1" d="M 591.664062 337.984375 L 553.203125 337.984375 C 540.136719 337.984375 527.71875 341.042969 516.714844 346.457031 C 511.976562 348.78125 511.183594 355.140625 515.300781 358.492188 C 536.429688 375.796875 549.9375 402.101562 549.9375 431.558594 L 549.9375 441.59375 C 549.9375 445.566406 553.144531 448.742188 557.085938 448.742188 L 660.019531 448.742188 C 668.171875 448.742188 674.789062 442.152344 674.789062 434 L 674.789062 421.113281 C 674.789062 375.207031 637.566406 337.984375 591.664062 337.984375 " fill-opacity="1" fill-rule="nonzero"/></g><path fill="#0d68b1" d="M 572.449219 196.40625 C 536.285156 196.40625 506.945312 225.734375 506.945312 261.910156 C 506.945312 298.085938 536.285156 327.410156 572.449219 327.410156 C 608.640625 327.410156 637.949219 298.085938 637.949219 261.910156 C 637.949219 225.734375 608.640625 196.40625 572.449219 196.40625 " fill-opacity="1" fill-rule="nonzero"/><g clip-path="url(#8e949ad5c0)"><path fill="#0d68b1" d="M 393.457031 335.128906 C 440.972656 335.128906 479.460938 296.628906 479.460938 249.125 C 479.460938 201.625 440.972656 163.117188 393.457031 163.117188 C 345.953125 163.117188 307.445312 201.625 307.445312 249.125 C 307.445312 296.628906 345.953125 335.128906 393.457031 335.128906 " fill-opacity="1" fill-rule="nonzero"/></g><g clip-path="url(#2cc84ca1aa)"><path fill="#0d68b1" d="M 259.097656 441.296875 L 259.097656 493.765625 C 259.097656 494.175781 259.414062 494.5 259.804688 494.5 L 527.101562 494.5 C 527.484375 494.5 527.808594 494.175781 527.808594 493.765625 L 527.808594 441.296875 C 527.808594 390.363281 486.496094 349.046875 435.558594 349.046875 L 351.363281 349.046875 C 300.410156 349.046875 259.097656 390.363281 259.097656 441.296875 " fill-opacity="1" fill-rule="nonzero"/></g><g clip-path="url(#c5ab0f6d83)"><g clip-path="url(#8a65a4ccd7)"><path fill="#ffffff" d="M 479.375 423.078125 L 659.84375 423.078125 L 659.84375 603.546875 L 479.375 603.546875 Z M 479.375 423.078125 " fill-opacity="1" fill-rule="nonzero"/></g></g><g clip-path="url(#83b96e534f)"><path fill="#00b696" d="M 568.898438 435.171875 C 567.601562 435.171875 566.304688 435.203125 565.007812 435.265625 C 563.710938 435.332031 562.414062 435.425781 561.121094 435.554688 C 559.832031 435.679688 558.542969 435.839844 557.257812 436.03125 C 555.972656 436.222656 554.695312 436.441406 553.421875 436.695312 C 552.148438 436.949219 550.878906 437.234375 549.621094 437.550781 C 548.363281 437.863281 547.109375 438.210938 545.867188 438.585938 C 544.625 438.964844 543.394531 439.371094 542.171875 439.808594 C 540.949219 440.246094 539.738281 440.714844 538.539062 441.210938 C 537.339844 441.707031 536.152344 442.234375 534.976562 442.789062 C 533.804688 443.34375 532.644531 443.925781 531.5 444.539062 C 530.355469 445.152344 529.226562 445.792969 528.109375 446.457031 C 526.996094 447.125 525.902344 447.820312 524.820312 448.542969 C 523.742188 449.261719 522.679688 450.011719 521.636719 450.785156 C 520.59375 451.558594 519.570312 452.355469 518.566406 453.179688 C 517.5625 454.003906 516.582031 454.851562 515.617188 455.722656 C 514.65625 456.59375 513.714844 457.492188 512.796875 458.410156 C 511.878906 459.328125 510.984375 460.265625 510.113281 461.230469 C 509.242188 462.191406 508.394531 463.175781 507.570312 464.175781 C 506.746094 465.179688 505.949219 466.203125 505.175781 467.246094 C 504.402344 468.289062 503.652344 469.351562 502.933594 470.429688 C 502.210938 471.511719 501.515625 472.609375 500.847656 473.722656 C 500.179688 474.835938 499.542969 475.964844 498.929688 477.109375 C 498.316406 478.253906 497.734375 479.414062 497.179688 480.585938 C 496.625 481.761719 496.097656 482.949219 495.601562 484.148438 C 495.101562 485.347656 494.636719 486.558594 494.199219 487.78125 C 493.761719 489.003906 493.355469 490.234375 492.976562 491.476562 C 492.601562 492.722656 492.253906 493.972656 491.9375 495.230469 C 491.625 496.492188 491.339844 497.757812 491.085938 499.03125 C 490.832031 500.304688 490.609375 501.582031 490.417969 502.867188 C 490.230469 504.152344 490.070312 505.441406 489.941406 506.730469 C 489.816406 508.023438 489.71875 509.320312 489.65625 510.617188 C 489.59375 511.914062 489.5625 513.210938 489.5625 514.507812 C 489.5625 515.808594 489.59375 517.105469 489.65625 518.402344 C 489.71875 519.699219 489.816406 520.992188 489.941406 522.285156 C 490.070312 523.578125 490.230469 524.867188 490.417969 526.148438 C 490.609375 527.433594 490.832031 528.714844 491.085938 529.988281 C 491.339844 531.261719 491.625 532.527344 491.9375 533.785156 C 492.253906 535.046875 492.601562 536.296875 492.976562 537.539062 C 493.355469 538.78125 493.761719 540.015625 494.199219 541.238281 C 494.636719 542.460938 495.101562 543.671875 495.601562 544.871094 C 496.097656 546.070312 496.625 547.257812 497.179688 548.429688 C 497.734375 549.601562 498.316406 550.761719 498.929688 551.90625 C 499.542969 553.054688 500.179688 554.183594 500.847656 555.296875 C 501.515625 556.410156 502.210938 557.507812 502.933594 558.585938 C 503.652344 559.664062 504.402344 560.726562 505.175781 561.769531 C 505.949219 562.8125 506.746094 563.835938 507.570312 564.839844 C 508.394531 565.84375 509.242188 566.828125 510.113281 567.789062 C 510.984375 568.75 511.878906 569.691406 512.796875 570.609375 C 513.714844 571.527344 514.65625 572.421875 515.617188 573.292969 C 516.582031 574.164062 517.5625 575.011719 518.566406 575.835938 C 519.570312 576.660156 520.59375 577.460938 521.636719 578.234375 C 522.679688 579.007812 523.742188 579.753906 524.820312 580.476562 C 525.902344 581.195312 526.996094 581.890625 528.109375 582.558594 C 529.222656 583.226562 530.355469 583.867188 531.5 584.476562 C 532.644531 585.089844 533.804688 585.671875 534.976562 586.230469 C 536.152344 586.785156 537.335938 587.308594 538.539062 587.808594 C 539.738281 588.304688 540.949219 588.769531 542.171875 589.207031 C 543.394531 589.644531 544.625 590.054688 545.867188 590.429688 C 547.109375 590.804688 548.363281 591.152344 549.621094 591.46875 C 550.878906 591.785156 552.148438 592.066406 553.421875 592.320312 C 554.695312 592.574219 555.972656 592.796875 557.257812 592.988281 C 558.542969 593.179688 559.828125 593.335938 561.121094 593.464844 C 562.414062 593.589844 563.707031 593.6875 565.003906 593.75 C 566.300781 593.8125 567.601562 593.847656 568.898438 593.847656 C 570.195312 593.847656 571.496094 593.8125 572.792969 593.75 C 574.089844 593.6875 575.382812 593.589844 576.675781 593.464844 C 577.96875 593.335938 579.253906 593.179688 580.539062 592.988281 C 581.824219 592.796875 583.101562 592.574219 584.375 592.320312 C 585.648438 592.066406 586.917969 591.785156 588.175781 591.46875 C 589.433594 591.152344 590.6875 590.808594 591.929688 590.429688 C 593.171875 590.054688 594.402344 589.644531 595.625 589.207031 C 596.847656 588.769531 598.058594 588.304688 599.257812 587.808594 C 600.460938 587.308594 601.644531 586.785156 602.820312 586.230469 C 603.992188 585.671875 605.152344 585.089844 606.296875 584.476562 C 607.441406 583.867188 608.570312 583.226562 609.6875 582.558594 C 610.800781 581.890625 611.894531 581.195312 612.976562 580.476562 C 614.054688 579.753906 615.117188 579.007812 616.160156 578.234375 C 617.203125 577.460938 618.226562 576.660156 619.230469 575.835938 C 620.234375 575.011719 621.214844 574.164062 622.179688 573.292969 C 623.140625 572.421875 624.082031 571.527344 625 570.609375 C 625.917969 569.691406 626.8125 568.75 627.683594 567.789062 C 628.554688 566.828125 629.402344 565.84375 630.226562 564.839844 C 631.050781 563.835938 631.847656 562.8125 632.621094 561.769531 C 633.394531 560.726562 634.144531 559.664062 634.863281 558.585938 C 635.585938 557.507812 636.28125 556.410156 636.949219 555.296875 C 637.617188 554.183594 638.253906 553.054688 638.867188 551.910156 C 639.480469 550.761719 640.0625 549.605469 640.617188 548.429688 C 641.171875 547.257812 641.699219 546.070312 642.195312 544.871094 C 642.691406 543.671875 643.160156 542.460938 643.597656 541.238281 C 644.035156 540.015625 644.441406 538.78125 644.820312 537.539062 C 645.195312 536.296875 645.542969 535.046875 645.859375 533.785156 C 646.171875 532.527344 646.457031 531.261719 646.710938 529.988281 C 646.964844 528.714844 647.1875 527.433594 647.375 526.148438 C 647.566406 524.867188 647.726562 523.578125 647.855469 522.285156 C 647.980469 520.992188 648.078125 519.699219 648.140625 518.402344 C 648.203125 517.105469 648.234375 515.808594 648.234375 514.507812 C 648.234375 513.210938 648.199219 511.914062 648.136719 510.617188 C 648.070312 509.320312 647.972656 508.027344 647.84375 506.734375 C 647.71875 505.445312 647.558594 504.15625 647.367188 502.871094 C 647.171875 501.589844 646.949219 500.308594 646.695312 499.039062 C 646.441406 497.765625 646.15625 496.5 645.839844 495.238281 C 645.523438 493.980469 645.175781 492.730469 644.800781 491.488281 C 644.421875 490.246094 644.015625 489.015625 643.574219 487.792969 C 643.136719 486.570312 642.671875 485.359375 642.171875 484.160156 C 641.675781 482.964844 641.148438 481.777344 640.59375 480.605469 C 640.039062 479.429688 639.453125 478.273438 638.839844 477.128906 C 638.230469 475.984375 637.589844 474.855469 636.921875 473.742188 C 636.253906 472.628906 635.558594 471.53125 634.835938 470.453125 C 634.117188 469.375 633.367188 468.3125 632.59375 467.269531 C 631.820312 466.226562 631.023438 465.207031 630.199219 464.203125 C 629.375 463.199219 628.527344 462.214844 627.65625 461.253906 C 626.785156 460.292969 625.890625 459.351562 624.972656 458.433594 C 624.054688 457.515625 623.113281 456.621094 622.152344 455.75 C 621.191406 454.878906 620.207031 454.03125 619.207031 453.207031 C 618.203125 452.382812 617.179688 451.585938 616.136719 450.8125 C 615.09375 450.039062 614.035156 449.292969 612.953125 448.570312 C 611.875 447.847656 610.78125 447.152344 609.667969 446.484375 C 608.554688 445.820312 607.425781 445.179688 606.28125 444.566406 C 605.136719 443.953125 603.976562 443.371094 602.804688 442.8125 C 601.628906 442.257812 600.445312 441.730469 599.246094 441.234375 C 598.046875 440.738281 596.835938 440.269531 595.613281 439.832031 C 594.394531 439.394531 593.160156 438.984375 591.917969 438.609375 C 590.675781 438.230469 589.425781 437.882812 588.167969 437.566406 C 586.910156 437.25 585.644531 436.964844 584.371094 436.710938 C 583.097656 436.457031 581.820312 436.234375 580.535156 436.042969 C 579.25 435.851562 577.964844 435.691406 576.671875 435.5625 C 575.378906 435.433594 574.085938 435.335938 572.789062 435.269531 C 571.492188 435.207031 570.195312 435.171875 568.898438 435.171875 Z M 568.898438 572.179688 C 568.085938 572.179688 567.28125 572.101562 566.484375 571.941406 C 565.6875 571.78125 564.910156 571.546875 564.160156 571.238281 C 563.410156 570.925781 562.695312 570.542969 562.019531 570.09375 C 561.34375 569.640625 560.71875 569.128906 560.144531 568.554688 C 559.570312 567.976562 559.054688 567.351562 558.605469 566.675781 C 558.152344 566 557.769531 565.289062 557.460938 564.535156 C 557.148438 563.785156 556.914062 563.011719 556.753906 562.214844 C 556.597656 561.417969 556.519531 560.613281 556.519531 559.796875 C 556.519531 558.984375 556.597656 558.179688 556.753906 557.382812 C 556.914062 556.585938 557.148438 555.8125 557.460938 555.058594 C 557.769531 554.308594 558.152344 553.597656 558.605469 552.921875 C 559.054688 552.242188 559.570312 551.617188 560.144531 551.042969 C 560.71875 550.46875 561.34375 549.957031 562.019531 549.503906 C 562.695312 549.050781 563.410156 548.671875 564.160156 548.359375 C 564.910156 548.050781 565.6875 547.8125 566.484375 547.65625 C 567.28125 547.496094 568.085938 547.417969 568.898438 547.417969 C 569.710938 547.417969 570.515625 547.496094 571.3125 547.65625 C 572.113281 547.8125 572.886719 548.050781 573.636719 548.359375 C 574.386719 548.671875 575.101562 549.050781 575.777344 549.503906 C 576.453125 549.957031 577.078125 550.46875 577.652344 551.042969 C 578.226562 551.617188 578.742188 552.242188 579.191406 552.921875 C 579.644531 553.597656 580.027344 554.308594 580.335938 555.058594 C 580.648438 555.8125 580.882812 556.585938 581.042969 557.382812 C 581.199219 558.179688 581.28125 558.984375 581.28125 559.796875 C 581.277344 560.609375 581.199219 561.417969 581.039062 562.214844 C 580.878906 563.011719 580.644531 563.785156 580.332031 564.535156 C 580.023438 565.285156 579.640625 566 579.1875 566.675781 C 578.738281 567.347656 578.222656 567.972656 577.648438 568.550781 C 577.074219 569.125 576.449219 569.636719 575.773438 570.089844 C 575.097656 570.539062 574.386719 570.921875 573.636719 571.234375 C 572.882812 571.542969 572.109375 571.78125 571.3125 571.9375 C 570.515625 572.097656 569.710938 572.179688 568.898438 572.179688 Z M 583.050781 478.710938 L 580.210938 519.859375 C 579.605469 526.324219 574.742188 531.167969 568.898438 531.167969 C 563.054688 531.167969 558.191406 526.324219 557.589844 519.898438 L 554.742188 478.667969 C 554.625 477.515625 554.628906 476.359375 554.75 475.207031 C 554.871094 474.054688 555.113281 472.925781 555.46875 471.820312 C 555.824219 470.71875 556.292969 469.664062 556.871094 468.65625 C 557.445312 467.648438 558.121094 466.710938 558.890625 465.847656 C 559.203125 465.488281 559.53125 465.148438 559.875 464.828125 C 560.222656 464.507812 560.585938 464.203125 560.964844 463.921875 C 561.34375 463.636719 561.738281 463.375 562.144531 463.136719 C 562.550781 462.894531 562.96875 462.675781 563.398438 462.480469 C 563.832031 462.285156 564.269531 462.109375 564.71875 461.960938 C 565.167969 461.8125 565.625 461.6875 566.085938 461.585938 C 566.546875 461.488281 567.015625 461.410156 567.484375 461.363281 C 567.953125 461.3125 568.425781 461.285156 568.898438 461.285156 C 569.371094 461.285156 569.84375 461.3125 570.3125 461.363281 C 570.785156 461.410156 571.25 461.488281 571.710938 461.585938 C 572.175781 461.6875 572.628906 461.8125 573.078125 461.960938 C 573.527344 462.109375 573.96875 462.285156 574.398438 462.480469 C 574.828125 462.675781 575.246094 462.894531 575.652344 463.136719 C 576.0625 463.375 576.453125 463.636719 576.832031 463.921875 C 577.210938 464.203125 577.574219 464.507812 577.921875 464.828125 C 578.269531 465.148438 578.597656 465.488281 578.90625 465.847656 C 579.679688 466.714844 580.355469 467.65625 580.933594 468.664062 C 581.507812 469.675781 581.976562 470.734375 582.332031 471.839844 C 582.691406 472.949219 582.929688 474.082031 583.050781 475.238281 C 583.171875 476.394531 583.171875 477.550781 583.050781 478.710938 Z M 583.050781 478.710938 " fill-opacity="1" fill-rule="nonzero"/></g></svg>